<svg width="30" height="36" viewBox="0 0 30 36" fill="none" xmlns="http://www.w3.org/2000/svg">
<path d="M24.4629 19.1447C24.4807 17.7648 24.8472 16.4119 25.5284 15.2118C26.2095 14.0116 27.1832 13.0033 28.3588 12.2805C27.612 11.214 26.6267 10.3362 25.4814 9.71699C24.336 9.09778 23.062 8.75417 21.7606 8.71345C18.9845 8.42206 16.2931 10.3746 14.8785 10.3746C13.4364 10.3746 11.2584 8.74239 8.91291 8.79064C7.39581 8.83966 5.91728 9.28082 4.62138 10.0711C3.32547 10.8615 2.25638 11.974 1.51829 13.3004C-1.679 18.836 0.705886 26.9714 3.76862 31.446C5.30097 33.6371 7.09185 36.0845 9.43517 35.9977C11.7283 35.9026 12.5847 34.5355 15.3526 34.5355C18.0949 34.5355 18.8984 35.9977 21.2893 35.9426C23.7499 35.9026 25.3001 33.7418 26.7787 31.5299C27.8797 29.9687 28.7269 28.2432 29.289 26.4174C27.8594 25.8128 26.6395 24.8007 25.7813 23.5074C24.9231 22.2142 24.4646 20.6968 24.4629 19.1447V19.1447Z" fill="white"/>
<path d="M19.947 5.77069C21.2886 4.16013 21.9496 2.09003 21.7895 0C19.7398 0.21528 17.8465 1.1949 16.4867 2.74366C15.8219 3.50028 15.3127 4.3805 14.9883 5.33401C14.6639 6.28753 14.5306 7.29564 14.596 8.30071C15.6212 8.31127 16.6354 8.08905 17.5623 7.65081C18.4892 7.21257 19.3046 6.56972 19.947 5.77069Z" fill="white"/>
</svg>
