<svg width="112" height="36" viewBox="0 0 112 36" fill="none" xmlns="http://www.w3.org/2000/svg">
<path d="M12.3693 26.8735H5.40875L3.73719 31.6964H0.788986L7.38188 13.8531H10.445L17.0378 31.6964H14.0394L12.3693 26.8735ZM6.12964 24.648H11.647L8.92712 16.8209H8.85101L6.12964 24.648Z" fill="white"/>
<path d="M31.2762 25.1924C31.2762 29.2351 29.0618 31.8324 25.7202 31.8324C24.8737 31.8757 24.0318 31.6851 23.291 31.2826C22.5501 30.8801 21.9403 30.2818 21.5312 29.5564H21.468V35.9999H18.7352V18.6872H21.3804V20.8509H21.4307C21.8585 20.1289 22.4787 19.5338 23.2252 19.1288C23.9716 18.7238 24.8165 18.5242 25.6699 18.551C29.0489 18.5511 31.2762 21.161 31.2762 25.1924ZM28.4673 25.1924C28.4673 22.5586 27.0743 20.8271 24.949 20.8271C22.861 20.8271 21.4565 22.5951 21.4565 25.1924C21.4565 27.8136 22.861 29.569 24.949 29.569C27.0743 29.569 28.4673 27.8501 28.4673 25.1924Z" fill="white"/>
<path d="M45.9296 25.1925C45.9296 29.2352 43.7153 31.8325 40.3736 31.8325C39.5271 31.8758 38.6852 31.6852 37.9444 31.2827C37.2035 30.8802 36.5937 30.2819 36.1846 29.5565H36.1214V36H33.3886V18.6872H36.0338V20.851H36.0841C36.5119 20.129 37.1321 19.5339 37.8785 19.1289C38.625 18.7239 39.4699 18.5242 40.3233 18.5511C43.7023 18.5511 45.9296 21.1611 45.9296 25.1925ZM43.1207 25.1925C43.1207 22.5587 41.7278 20.8271 39.6024 20.8271C37.5144 20.8271 36.11 22.5952 36.11 25.1925C36.11 27.8137 37.5144 29.5691 39.6024 29.5691C41.7278 29.5691 43.1207 27.8502 43.1207 25.1925H43.1207Z" fill="white"/>
<path d="M55.6143 26.7248C55.8168 28.4943 57.576 29.6561 59.9799 29.6561C62.2833 29.6561 63.9405 28.4942 63.9405 26.8988C63.9405 25.5138 62.941 24.6845 60.5744 24.1162L58.2079 23.5591C54.8547 22.7677 53.298 21.2354 53.298 18.7489C53.298 15.6703 56.0437 13.5557 59.9426 13.5557C63.8012 13.5557 66.4464 15.6703 66.5355 18.7489H63.7768C63.6117 16.9683 62.1052 15.8934 59.9038 15.8934C57.7023 15.8934 56.1959 16.9809 56.1959 18.5637C56.1959 19.8252 57.1581 20.5675 59.5117 21.1357L61.5236 21.6185C65.2703 22.4842 66.827 23.9548 66.827 26.5648C66.827 29.903 64.1056 31.9938 59.7774 31.9938C55.7277 31.9938 52.9935 29.9521 52.8169 26.7247L55.6143 26.7248Z" fill="white"/>
<path d="M72.7248 15.6086V18.6872H75.2566V20.8019H72.7248V27.9736C72.7248 29.0878 73.2318 29.607 74.3447 29.607C74.6453 29.6019 74.9453 29.5812 75.2437 29.5452V31.6472C74.7433 31.7386 74.2347 31.7799 73.7258 31.7707C71.0303 31.7707 69.9791 30.7814 69.9791 28.2585V20.8019H68.0433V18.6872H69.9791V15.6086H72.7248Z" fill="white"/>
<path d="M76.7228 25.1925C76.7228 21.0993 79.19 18.5273 83.0371 18.5273C86.8972 18.5273 89.3529 21.0993 89.3529 25.1925C89.3529 29.2969 86.9102 31.8577 83.0371 31.8577C79.1655 31.8577 76.7228 29.2969 76.7228 25.1925ZM86.5684 25.1925C86.5684 22.3847 85.2515 20.7275 83.0371 20.7275C80.8227 20.7275 79.5073 22.3973 79.5073 25.1925C79.5073 28.0115 80.8227 29.6561 83.0371 29.6561C85.2515 29.6561 86.5683 28.0115 86.5683 25.1925H86.5684Z" fill="white"/>
<path d="M91.606 18.6872H94.2124V20.9015H94.2756C94.452 20.2099 94.8666 19.5988 95.4498 19.1707C96.033 18.7427 96.7492 18.5239 97.478 18.5511C97.7929 18.55 98.107 18.5834 98.4143 18.6507V21.1484C98.0167 21.0297 97.602 20.9752 97.1864 20.9871C96.7894 20.9713 96.3936 21.0397 96.0262 21.1876C95.6588 21.3354 95.3285 21.5592 95.058 21.8435C94.7875 22.1279 94.5831 22.466 94.459 22.8349C94.3348 23.2037 94.2938 23.5943 94.3388 23.9801V31.6963H91.606L91.606 18.6872Z" fill="white"/>
<path d="M111.014 27.8754C110.647 30.237 108.293 31.8577 105.281 31.8577C101.408 31.8577 99.0045 29.3221 99.0045 25.2542C99.0045 21.1737 101.421 18.5273 105.167 18.5273C108.85 18.5273 111.166 20.9997 111.166 24.9441V25.859H101.763V26.0204C101.72 26.4991 101.781 26.9815 101.943 27.4353C102.105 27.8891 102.364 28.3041 102.703 28.6526C103.042 29.0011 103.452 29.2752 103.908 29.4567C104.363 29.6382 104.853 29.7229 105.345 29.7052C105.99 29.7643 106.639 29.6182 107.192 29.2885C107.746 28.9588 108.177 28.4632 108.419 27.8754L111.014 27.8754ZM101.776 23.9927H108.432C108.457 23.5623 108.39 23.1315 108.236 22.7274C108.082 22.3233 107.844 21.9547 107.538 21.6447C107.231 21.3347 106.862 21.0899 106.454 20.9258C106.046 20.7617 105.608 20.6817 105.167 20.691C104.722 20.6884 104.28 20.772 103.869 20.9368C103.457 21.1017 103.082 21.3446 102.767 21.6516C102.452 21.9586 102.202 22.3235 102.032 22.7253C101.862 23.1271 101.775 23.5579 101.776 23.9928V23.9927Z" fill="white"/>
<path d="M5.78711 0.422479C6.36004 0.382305 6.93495 0.46688 7.47038 0.670103C8.00581 0.873326 8.48842 1.19013 8.88337 1.59767C9.27833 2.0052 9.5758 2.49331 9.75433 3.02678C9.93285 3.56026 9.98798 4.1258 9.91574 4.68261C9.91574 7.42167 8.40072 8.99614 5.78711 8.99614H2.61776V0.422479H5.78711ZM3.98056 7.78364H5.63488C6.04428 7.80755 6.45398 7.74196 6.83416 7.59164C7.21435 7.44132 7.55545 7.21006 7.83263 6.91468C8.10981 6.61931 8.3161 6.26726 8.43648 5.88416C8.55686 5.50106 8.5883 5.09655 8.52851 4.70009C8.58396 4.30518 8.54933 3.90318 8.4271 3.52289C8.30488 3.1426 8.09808 2.79343 7.82153 2.50041C7.54498 2.20738 7.20552 1.97776 6.82748 1.82798C6.44944 1.6782 6.04219 1.61199 5.63488 1.63407H3.98056V7.78364Z" fill="white"/>
<path d="M11.4552 5.75811C11.4135 5.33291 11.4633 4.9039 11.6013 4.4986C11.7393 4.0933 11.9625 3.72065 12.2565 3.40456C12.5505 3.08847 12.9089 2.83592 13.3086 2.6631C13.7084 2.49027 14.1407 2.401 14.5779 2.401C15.015 2.401 15.4473 2.49027 15.8471 2.6631C16.2468 2.83592 16.6052 3.08847 16.8992 3.40456C17.1932 3.72065 17.4164 4.0933 17.5544 4.4986C17.6924 4.9039 17.7422 5.33291 17.7005 5.75811C17.743 6.18374 17.6938 6.61335 17.5561 7.0193C17.4185 7.42526 17.1955 7.79859 16.9014 8.1153C16.6073 8.43201 16.2487 8.68509 15.8485 8.85828C15.4483 9.03148 15.0155 9.12095 14.5779 9.12095C14.1402 9.12095 13.7074 9.03148 13.3072 8.85828C12.9071 8.68509 12.5484 8.43201 12.2543 8.1153C11.9602 7.79859 11.7372 7.42526 11.5996 7.0193C11.4619 6.61335 11.4128 6.18374 11.4552 5.75811V5.75811ZM16.3564 5.75811C16.3564 4.35561 15.7116 3.53543 14.58 3.53543C13.4441 3.53543 12.8051 4.35561 12.8051 5.75812C12.8051 7.17186 13.4441 7.98571 14.58 7.98571C15.7116 7.9857 16.3564 7.16623 16.3564 5.75811H16.3564Z" fill="white"/>
<path d="M26.0024 8.99598H24.6467L23.2782 4.23068H23.1748L21.812 8.99598H20.4693L18.6441 2.52579H19.9695L21.1557 7.46292H21.2534L22.6147 2.52579H23.8684L25.2298 7.46292H25.3332L26.5136 2.52579H27.8204L26.0024 8.99598Z" fill="white"/>
<path d="M29.3555 2.52576H30.6135V3.55361H30.7112C30.8768 3.18444 31.1562 2.87498 31.5104 2.66835C31.8646 2.46172 32.276 2.36821 32.6872 2.40087C33.0093 2.3772 33.3329 2.42467 33.6337 2.53976C33.9346 2.65485 34.2051 2.83461 34.4252 3.06572C34.6453 3.29683 34.8094 3.57338 34.9053 3.87487C35.0011 4.17635 35.0264 4.49506 34.9791 4.80736V8.99588H33.6723V5.12802C33.6723 4.08825 33.2099 3.57116 32.2434 3.57116C32.0247 3.5612 31.8063 3.59758 31.6033 3.6778C31.4003 3.75802 31.2174 3.88019 31.0672 4.03593C30.9171 4.19166 30.8031 4.37729 30.7332 4.58007C30.6633 4.78286 30.6392 4.99802 30.6623 5.2108V8.99596H29.3555L29.3555 2.52576Z" fill="white"/>
<path d="M37.0614 0H38.3682V8.99596H37.0614V0Z" fill="white"/>
<path d="M40.1847 5.75814C40.1431 5.33291 40.1929 4.90388 40.331 4.49856C40.469 4.09324 40.6922 3.72059 40.9862 3.40449C41.2803 3.08839 41.6387 2.83583 42.0385 2.66301C42.4383 2.49018 42.8706 2.40091 43.3078 2.40091C43.7449 2.40091 44.1773 2.49018 44.5771 2.66301C44.9768 2.83583 45.3352 3.08839 45.6293 3.40449C45.9233 3.72059 46.1465 4.09324 46.2846 4.49856C46.4226 4.90388 46.4724 5.33291 46.4308 5.75814C46.4732 6.18379 46.4239 6.6134 46.2863 7.01935C46.1486 7.4253 45.9255 7.79863 45.6314 8.11533C45.3373 8.43203 44.9786 8.6851 44.5784 8.85829C44.1783 9.03147 43.7454 9.12094 43.3078 9.12094C42.8701 9.12094 42.4373 9.03147 42.0371 8.85829C41.6369 8.6851 41.2782 8.43203 40.9841 8.11533C40.69 7.79863 40.4669 7.4253 40.3293 7.01935C40.1916 6.6134 40.1424 6.18379 40.1847 5.75814V5.75814ZM45.0859 5.75814C45.0859 4.35564 44.4411 3.53546 43.3096 3.53546C42.1736 3.53546 41.5347 4.35564 41.5347 5.75815C41.5347 7.17189 42.1737 7.98574 43.3096 7.98574C44.4412 7.98572 45.0859 7.16625 45.0859 5.75814H45.0859Z" fill="white"/>
<path d="M47.8065 7.16619C47.8065 6.00153 48.694 5.3301 50.2694 5.23468L52.063 5.13365V4.57518C52.063 3.89181 51.6006 3.50593 50.7074 3.50593C49.9779 3.50593 49.4724 3.76763 49.3273 4.22508H48.0622C48.1957 3.11373 49.2656 2.40091 50.7677 2.40091C52.4278 2.40091 53.364 3.20844 53.364 4.57518V8.99598H52.1061V8.08671H52.0027C51.7928 8.41287 51.4981 8.67876 51.1487 8.85724C50.7993 9.03571 50.4076 9.12038 50.0138 9.10258C49.7358 9.13084 49.4548 9.10186 49.189 9.01752C48.9232 8.93317 48.6784 8.79534 48.4705 8.6129C48.2625 8.43046 48.096 8.20746 47.9816 7.95828C47.8673 7.7091 47.8076 7.43928 47.8065 7.16619V7.16619ZM52.063 6.61332V6.07239L50.446 6.17342C49.5341 6.23305 49.1205 6.53615 49.1205 7.10655C49.1205 7.68888 49.6375 8.02775 50.3484 8.02775C50.5567 8.04835 50.7671 8.0278 50.9671 7.96732C51.1671 7.90684 51.3526 7.80767 51.5126 7.67571C51.6725 7.54374 51.8037 7.38168 51.8983 7.19917C51.9928 7.01666 52.0488 6.81742 52.063 6.61332V6.61332Z" fill="white"/>
<path d="M55.0816 5.75808C55.0816 3.71361 56.1572 2.41845 57.8302 2.41845C58.244 2.39982 58.6547 2.49667 59.0143 2.69768C59.3739 2.89869 59.6674 3.19556 59.8607 3.55359H59.9584V0H61.2652V8.99596H60.013V7.97372H59.9096C59.7013 8.32933 59.3975 8.62251 59.031 8.82149C58.6645 9.02047 58.2492 9.11768 57.8302 9.10259C56.1457 9.10266 55.0816 7.80747 55.0816 5.75808ZM56.4315 5.75808C56.4315 7.13042 57.0935 7.95622 58.2007 7.95622C59.3021 7.95622 59.9828 7.11851 59.9828 5.7637C59.9828 4.41521 59.295 3.56557 58.2007 3.56557C57.1007 3.56557 56.4315 4.39697 56.4315 5.75808H56.4315Z" fill="white"/>
<path d="M66.6719 5.75811C66.6303 5.33291 66.6801 4.9039 66.818 4.4986C66.956 4.0933 67.1792 3.72065 67.4732 3.40456C67.7672 3.08847 68.1256 2.83592 68.5254 2.6631C68.9251 2.49027 69.3575 2.401 69.7946 2.401C70.2317 2.401 70.664 2.49027 71.0638 2.6631C71.4636 2.83592 71.8219 3.08847 72.1159 3.40456C72.41 3.72065 72.6331 4.0933 72.7711 4.4986C72.9091 4.9039 72.9589 5.33291 72.9173 5.75811C72.9597 6.18374 72.9105 6.61335 72.7729 7.0193C72.6352 7.42526 72.4122 7.79859 72.1181 8.1153C71.824 8.43201 71.4654 8.68509 71.0652 8.85828C70.6651 9.03148 70.2322 9.12095 69.7946 9.12095C69.3569 9.12095 68.9241 9.03148 68.5239 8.85828C68.1238 8.68509 67.7651 8.43201 67.471 8.1153C67.177 7.79859 66.9539 7.42526 66.8163 7.0193C66.6787 6.61335 66.6295 6.18374 66.6719 5.75811V5.75811ZM71.5731 5.75811C71.5731 4.35561 70.9283 3.53543 69.7967 3.53543C68.6608 3.53543 68.0218 4.35561 68.0218 5.75812C68.0218 7.17186 68.6609 7.98571 69.7967 7.98571C70.9283 7.9857 71.5731 7.16623 71.5731 5.75811Z" fill="white"/>
<path d="M74.6707 2.52576H75.9286V3.55361H76.0263C76.192 3.18444 76.4714 2.87498 76.8256 2.66835C77.1798 2.46172 77.5911 2.36821 78.0023 2.40087C78.3245 2.3772 78.648 2.42467 78.9489 2.53976C79.2497 2.65485 79.5202 2.83461 79.7404 3.06572C79.9605 3.29683 80.1245 3.57338 80.2204 3.87487C80.3163 4.17635 80.3415 4.49506 80.2942 4.80736V8.99588H78.9874V5.12802C78.9874 4.08825 78.525 3.57116 77.5586 3.57116C77.3398 3.5612 77.1214 3.59758 76.9184 3.6778C76.7154 3.75802 76.5326 3.88019 76.3824 4.03593C76.2322 4.19166 76.1183 4.37729 76.0484 4.58007C75.9785 4.78286 75.9543 4.99802 75.9775 5.2108V8.99596H74.6707V2.52576Z" fill="white"/>
<path d="M87.6784 0.914917V2.55526H89.113V3.63083H87.6784V6.95783C87.6784 7.63558 87.9642 7.93236 88.6147 7.93236C88.7812 7.93184 88.9476 7.922 89.113 7.90289V8.96651C88.8783 9.00754 88.6406 9.02936 88.4022 9.03176C86.9489 9.03176 86.3702 8.53222 86.3702 7.28477V3.63077H85.319V2.55521H86.3702V0.914917H87.6784Z" fill="white"/>
<path d="M90.898 0H92.1933V3.56556H92.2967C92.4704 3.19294 92.7575 2.88173 93.1188 2.67432C93.4801 2.46691 93.8981 2.37339 94.3157 2.40651C94.6362 2.38947 94.9566 2.44175 95.2541 2.55964C95.5516 2.67752 95.8187 2.8581 96.0365 3.08849C96.2543 3.31887 96.4174 3.59339 96.5142 3.89246C96.6109 4.19153 96.6389 4.50777 96.5962 4.81862V8.99598H95.2881V5.13363C95.2881 4.10016 94.7954 3.57677 93.8721 3.57677C93.6475 3.55877 93.4216 3.58894 93.2102 3.66517C92.9987 3.7414 92.8069 3.86185 92.6481 4.01809C92.4893 4.17434 92.3674 4.3626 92.2908 4.56971C92.2142 4.77682 92.1849 4.99777 92.2049 5.21711V8.99595H90.8981L90.898 0Z" fill="white"/>
<path d="M104.216 7.249C104.038 7.84034 103.654 8.35185 103.129 8.69404C102.605 9.03623 101.974 9.18732 101.347 9.12088C100.91 9.13213 100.477 9.05048 100.076 8.88161C99.6754 8.71273 99.3171 8.46068 99.0261 8.14293C98.7351 7.82518 98.5183 7.44935 98.3908 7.04153C98.2633 6.63371 98.2282 6.20367 98.2879 5.78126C98.2298 5.35754 98.2655 4.92657 98.3927 4.51753C98.5199 4.10849 98.7355 3.73092 99.025 3.41039C99.3145 3.08986 99.6711 2.83385 100.071 2.65969C100.47 2.48553 100.903 2.39728 101.341 2.40093C103.183 2.40093 104.295 3.6309 104.295 5.66265V6.10822H99.6191V6.17977C99.5986 6.41721 99.6292 6.65621 99.7088 6.88144C99.7883 7.10667 99.9152 7.31317 100.081 7.48769C100.247 7.6622 100.449 7.80089 100.673 7.89486C100.897 7.98883 101.139 8.036 101.383 8.03336C101.695 8.07002 102.012 8.01502 102.292 7.87535C102.573 7.73567 102.805 7.51764 102.958 7.24896L104.216 7.249ZM99.6191 5.16384H102.964C102.98 4.94669 102.95 4.72857 102.875 4.5235C102.8 4.31843 102.682 4.13094 102.529 3.97309C102.375 3.81524 102.189 3.69051 101.984 3.60692C101.778 3.52333 101.556 3.48272 101.334 3.48771C101.108 3.48494 100.883 3.5264 100.674 3.60966C100.465 3.69292 100.274 3.81629 100.115 3.9725C99.9549 4.12871 99.8287 4.3146 99.7436 4.5192C99.6585 4.72381 99.6161 4.94299 99.6191 5.16384H99.6191Z" fill="white"/>
</svg>
