<svg viewBox="0 0 56 50" fill="none" xmlns="http://www.w3.org/2000/svg">
<path d="M35.8098 22.988L51.786 21.4969V21.4469C53.7176 19.9884 55.0907 17.9235 55.6801 15.5911C56.2694 13.2587 56.04 10.7973 55.0294 8.61095C54.0188 6.42457 52.2872 4.64306 50.1186 3.55878C47.95 2.47449 45.4733 2.15185 43.095 2.64379L27.0209 5.96676C27.0209 5.93237 27.0209 5.90109 27.0209 5.86983L26.2374 1.63096C26.126 1.10696 25.8121 0.646736 25.3628 0.348376C24.9134 0.0500152 24.364 -0.062901 23.8318 0.0337121C23.2995 0.130325 22.8264 0.428836 22.5133 0.86559C22.2002 1.30234 22.0719 1.84281 22.1557 2.37182L22.9392 6.60761C22.9516 6.67297 22.9674 6.73766 22.9866 6.80142L6.11633 10.2838C4.53856 10.587 3.12016 11.4329 2.11238 12.6717C1.1046 13.9106 0.572502 15.4625 0.610344 17.0524C0.648186 18.6423 1.25353 20.1676 2.31913 21.3581C3.38473 22.5487 4.84181 23.3276 6.43225 23.5569C3.83952 25.2904 1.87754 27.8016 0.834993 30.721C-0.207552 33.6403 -0.275611 36.8137 0.64082 39.7742C1.55725 42.7347 3.40978 45.326 5.92585 47.1668C8.44191 49.0076 11.4887 50.0007 14.6178 50H37.4147C45.4897 50 51.7797 43.526 51.7797 35.539C51.7797 35.2264 51.7797 31.1626 51.7797 26.1422L35.8098 22.988ZM16.5639 36.1642C16.576 36.5069 16.5182 36.8485 16.3941 37.1687C16.2699 37.4888 16.0818 37.7809 15.8411 38.0276C15.6004 38.2743 15.3119 38.4705 14.9929 38.6045C14.6739 38.7384 14.3309 38.8075 13.9844 38.8075C13.6378 38.8075 13.2948 38.7384 12.9758 38.6045C12.6568 38.4705 12.3683 38.2743 12.1276 38.0276C11.8869 37.7809 11.6988 37.4888 11.5747 37.1687C11.4505 36.8485 11.3927 36.5069 11.4049 36.1642V29.6464C11.4283 28.9849 11.7103 28.3583 12.1915 27.8985C12.6727 27.4388 13.3155 27.1818 13.9844 27.1818C14.6533 27.1818 15.2961 27.4388 15.7773 27.8985C16.2585 28.3583 16.5405 28.9849 16.5639 29.6464V36.1642ZM34.8684 36.1642C34.8684 36.8415 34.5965 37.4912 34.1124 37.9701C33.6284 38.4491 32.9719 38.7182 32.2873 38.7182C31.6028 38.7182 30.9463 38.4491 30.4622 37.9701C29.9782 37.4912 29.7062 36.8415 29.7062 36.1642V29.6464C29.7062 28.9691 29.9782 28.3195 30.4622 27.8405C30.9463 27.3615 31.6028 27.0924 32.2873 27.0924C32.9719 27.0924 33.6284 27.3615 34.1124 27.8405C34.5965 28.3195 34.8684 28.9691 34.8684 29.6464V36.1642Z" fill="#15171C"/>
</svg>
