<svg width="1415" height="298" viewBox="0 0 1415 298" fill="none" xmlns="http://www.w3.org/2000/svg">
<g opacity="0.05" clip-path="url(#clip0_101_1986)">
<path d="M301.291 263.652C301.933 264.28 302.791 264.631 303.683 264.629H304.216C332.809 260.057 361.015 253.262 388.586 244.303C389.307 244.065 389.93 243.591 390.359 242.956C390.807 242.327 391.026 241.56 390.978 240.785C389.801 214.941 386.552 189.238 381.262 163.932C381.161 163.451 380.957 162.999 380.664 162.607C380.377 162.217 380.013 161.892 379.596 161.652C379.174 161.412 378.707 161.265 378.225 161.22C377.743 161.175 377.257 161.233 376.799 161.391C375.069 164.431 373.361 167.428 371.589 170.425L375.496 169.122C379.995 191.95 382.85 215.081 384.038 238.331C359.055 246.311 333.553 252.501 307.718 256.854C309.683 241.653 311.349 224.65 312.694 206.213L305.818 205.8C304.366 225.974 302.508 244.368 300.287 260.568C300.226 261.11 300.284 261.659 300.458 262.175C300.626 262.723 300.911 263.227 301.291 263.652Z" fill="#8B8FA2"/>
<path d="M432.789 144.257C432.333 144.08 431.846 143.999 431.358 144.018C430.872 144.038 430.397 144.171 429.97 144.409C417.653 150.579 404.715 155.377 391.384 158.72C390.944 158.81 390.529 158.995 390.166 159.263C389.426 159.811 388.922 160.627 388.757 161.543C388.683 161.989 388.683 162.444 388.757 162.89C390.615 171.163 395.163 194.877 397.598 236.507C397.626 237.043 397.78 237.564 398.046 238.027C398.302 238.501 398.669 238.903 399.114 239.2C399.554 239.504 400.059 239.698 400.587 239.764C401.111 239.832 401.644 239.78 402.146 239.612C420.382 233.206 438.726 225.779 456.684 217.505C457.469 217.138 458.093 216.488 458.435 215.681C458.755 214.865 458.755 213.956 458.435 213.14L434.69 146.234C434.514 145.763 434.245 145.334 433.9 144.974C433.577 144.666 433.2 144.423 432.789 144.257ZM404.175 231.577C403.036 209.157 400.368 186.845 396.188 164.801C407.691 161.709 418.886 157.536 429.629 152.336L450.983 212.511C435.544 219.568 419.827 225.953 404.175 231.577Z" fill="#8B8FA2"/>
<path d="M190.72 207.95C190.972 208.469 191.337 208.922 191.787 209.275C192.251 209.622 192.796 209.839 193.368 209.905C216.683 213.027 240.171 214.623 263.687 214.682C273.979 214.682 284.635 214.357 295.462 213.531C296.283 213.48 297.058 213.125 297.64 212.533C298.222 211.941 298.571 211.153 298.622 210.317C298.75 208.667 298.878 207.06 299.006 205.453C296.721 205.301 294.437 205.149 292.13 204.954L292.002 206.778C261.11 208.598 230.118 207.558 199.411 203.672C201.995 199.329 204.066 195.681 205.411 193.205C203.041 192.749 200.649 192.337 198.279 191.815C196.464 195.029 193.901 199.459 190.805 204.584C190.505 205.088 190.336 205.662 190.313 206.251C190.291 206.839 190.416 207.424 190.677 207.95H190.72Z" fill="#8B8FA2"/>
<path d="M293.796 220.633C283.973 221.328 273.723 221.697 263.323 221.697C237.561 221.655 211.835 219.739 186.342 215.964C185.683 215.853 185.007 215.944 184.399 216.224C183.794 216.505 183.282 216.957 182.925 217.527C179.701 222.609 176.861 227.842 174.085 232.924C169.195 241.958 164.539 250.47 158.368 257.333C157.966 257.788 157.687 258.342 157.557 258.94C157.395 259.529 157.395 260.152 157.557 260.742C157.742 261.325 158.073 261.848 158.518 262.262C158.963 262.675 159.508 262.96 160.098 263.087C160.482 263.087 188.584 269.124 235.734 269.124C251.664 269.124 269.794 268.429 289.738 266.627C290.534 266.574 291.288 266.244 291.874 265.693C292.445 265.157 292.815 264.435 292.92 263.652C294.628 251.817 296.145 238.613 297.426 224.411C297.482 223.908 297.424 223.397 297.258 222.92C297.091 222.442 296.82 222.009 296.465 221.653C296.121 221.284 295.697 221.001 295.226 220.828C294.764 220.647 294.268 220.573 293.774 220.611L293.796 220.633ZM286.535 259.96C225.313 265.259 182.221 259.765 167.337 257.333C172.116 250.652 176.399 243.618 180.149 236.29C182.498 231.947 184.933 227.603 187.559 223.26C212.669 226.842 237.99 228.67 263.345 228.733C272.484 228.733 281.517 228.45 290.251 227.929C289.098 239.33 287.859 250.101 286.535 259.96Z" fill="#8B8FA2"/>
<path d="M244.127 121.803C244.276 122.326 244.539 122.809 244.896 123.215C245.26 123.612 245.704 123.923 246.199 124.127C310.581 149.491 342.292 151.532 359.375 152.618H359.589C360.239 152.618 360.877 152.43 361.425 152.075C361.98 151.715 362.425 151.203 362.707 150.598C370.415 133.703 374.195 124.908 374.216 124.822C374.43 124.337 374.532 123.81 374.515 123.28C374.495 122.745 374.349 122.224 374.088 121.76C373.843 121.298 373.501 120.897 373.085 120.587C372.658 120.279 372.169 120.071 371.654 119.979C340.477 114.289 312.589 104.43 288.095 95.7439C281.305 93.3334 274.877 91.0749 268.492 88.9033C267.77 88.6619 266.989 88.6694 266.271 88.9245C265.553 89.1797 264.938 89.6683 264.521 90.3149C260.527 96.6343 253.844 106.689 244.683 118.806C244.366 119.245 244.148 119.749 244.042 120.283C243.965 120.79 243.994 121.308 244.127 121.803ZM268.877 96.3085C274.407 98.1978 280.024 100.174 285.96 102.259C309.642 110.641 336.334 120.131 366.294 126.146C364.586 129.968 361.724 136.505 357.56 145.691C340.776 144.561 310.773 141.782 252.925 119.458C259.887 110.098 265.225 102.085 268.898 96.4606L268.877 96.3085Z" fill="#8B8FA2"/>
<path d="M281.069 144.301C280.875 143.819 280.575 143.388 280.193 143.042C279.811 142.694 279.359 142.434 278.869 142.281C260.12 136.614 245.172 131.228 239.599 129.252C238.932 129.006 238.206 128.977 237.522 129.167C236.838 129.358 236.228 129.759 235.777 130.316C224.656 144.143 212.703 157.255 199.987 169.578C199.54 170.02 199.215 170.575 199.048 171.185C198.879 171.798 198.88 172.447 199.05 173.06C199.219 173.672 199.551 174.226 200.009 174.66C200.464 175.091 201.024 175.391 201.631 175.529C219.142 179.329 236.652 182.543 253.671 185.062H254.163C254.657 185.063 255.146 184.951 255.593 184.736C256.03 184.516 256.421 184.214 256.746 183.846C265.931 172.491 274.012 160.259 280.876 147.32C281.115 146.861 281.26 146.359 281.304 145.843C281.348 145.317 281.267 144.788 281.069 144.301ZM252.796 177.83C238.574 175.659 224.011 173.053 209.404 169.969C220.016 159.366 230.08 148.211 239.556 136.548C245.813 138.829 257.921 143.063 272.826 147.689C267.006 158.298 260.305 168.382 252.796 177.83Z" fill="#8B8FA2"/>
<path d="M354.761 157.07C337.165 155.224 314.188 152.336 292.343 146.212C291.592 146.01 290.795 146.072 290.082 146.387C289.369 146.703 288.782 147.253 288.414 147.949C282.288 159.712 275.263 170.966 267.402 181.609C267.04 182.107 266.805 182.689 266.718 183.303C266.637 183.914 266.718 184.536 266.953 185.105C267.19 185.669 267.565 186.163 268.042 186.538C268.534 186.9 269.106 187.131 269.708 187.212C290.663 189.986 311.763 191.487 332.895 191.707C336.076 191.707 337.849 191.707 338.105 191.707C338.563 191.686 339.012 191.576 339.429 191.381C339.843 191.193 340.214 190.92 340.518 190.578C346.049 184.475 350.149 176.375 353.779 169.252C355.039 166.799 356.213 164.475 357.388 162.282C357.659 161.774 357.813 161.209 357.836 160.631C357.838 160.051 357.707 159.478 357.452 158.959C357.183 158.451 356.803 158.013 356.341 157.678C355.868 157.356 355.326 157.155 354.761 157.092V157.07ZM347.693 165.973C344.607 172.607 340.827 178.883 336.418 184.693C316.353 184.708 296.307 183.467 276.392 180.979C282.495 172.211 288.092 163.089 293.155 153.66C311.468 158.324 330.098 161.598 348.889 163.454L347.693 165.973Z" fill="#8B8FA2"/>
<path d="M564.78 96.7213C564.032 92.8341 563.136 88.9251 562.068 85.1031C561.901 84.4715 561.533 83.914 561.021 83.5179C560.515 83.1121 559.894 82.8836 559.249 82.8665C524.036 82.1498 503.088 89.5115 502.212 89.8589C501.516 90.0936 500.935 90.5911 500.589 91.2488C500.224 91.9082 500.11 92.6811 500.269 93.4204C500.795 95.7867 501.067 98.2041 501.081 100.63C501.074 101.269 501.19 101.904 501.422 102.498C501.908 103.687 502.837 104.632 504.006 105.125C504.582 105.366 505.198 105.492 505.821 105.494C506.084 105.516 506.348 105.516 506.611 105.494C525.004 102.406 543.648 101.133 562.281 101.694C562.784 101.734 563.287 101.629 563.733 101.39C564.181 101.169 564.564 100.832 564.844 100.413C565.135 100.003 565.319 99.525 565.378 99.0231C565.444 98.5152 565.377 97.9985 565.186 97.5247C565.082 97.2416 564.946 96.9719 564.78 96.7213ZM507.124 99.1752C507.057 97.7208 506.914 96.271 506.697 94.832C523.093 90.4952 540.006 88.5142 556.943 88.9469C557.498 91.1185 558.011 93.2901 558.438 95.4617C541.238 95.1731 524.046 96.4157 507.06 99.1752H507.124Z" fill="#8B8FA2"/>
<path d="M501.763 84.6042C506.846 82.9538 525.659 77.5248 555.362 77.5248H555.533C555.976 77.5141 556.412 77.4105 556.814 77.2207C557.219 77.028 557.576 76.7463 557.861 76.3956C558.133 76.0347 558.329 75.6208 558.437 75.1796C558.544 74.7373 558.544 74.2753 558.437 73.833C557.417 69.9947 555.94 66.2975 554.038 62.8232C553.632 61.9545 553.12 60.9773 552.971 60.6516C552.821 59.9248 552.42 59.2771 551.839 58.8274C551.267 58.3779 550.552 58.161 549.831 58.2193C531.528 59.4975 513.382 62.5222 495.635 67.2532C495.213 67.384 494.822 67.598 494.482 67.8829C493.987 68.3136 493.645 68.8967 493.506 69.5434C493.367 70.1901 493.44 70.8651 493.713 71.4661C495.322 75.1253 496.747 78.8652 497.984 82.6714C498.16 83.2982 498.536 83.848 499.051 84.2351C499.574 84.6179 500.201 84.823 500.845 84.8213C501.162 84.8049 501.472 84.7314 501.763 84.6042ZM548.123 64.3867L548.721 65.6027C549.532 67.2097 550.6 69.3596 551.433 71.4443C535.005 71.5028 518.651 73.6921 502.767 77.9591C502.105 76.0916 501.315 74.0285 500.632 72.2043C516.225 68.2815 532.109 65.6669 548.123 64.3867Z" fill="#8B8FA2"/>
<path d="M619.915 68.2735C605.352 61.2158 586.795 57.6328 564.694 57.6328C564.16 57.6336 563.634 57.7599 563.156 58.0019C562.696 58.2609 562.301 58.6252 562.003 59.0659C561.727 59.5009 561.572 60.0037 561.555 60.521C561.517 61.0365 561.613 61.5528 561.832 62.0193C566.218 74.1399 569.827 86.5367 572.637 99.1319C572.551 99.8156 572.686 100.509 573.022 101.108C573.291 101.563 573.674 101.938 574.132 102.194C574.581 102.454 575.089 102.589 575.606 102.585C606.078 102.759 624.869 110.033 625.062 110.098C625.406 110.248 625.777 110.322 626.151 110.316C626.718 110.311 627.272 110.145 627.752 109.838C628.151 109.577 628.487 109.229 628.734 108.817C628.965 108.396 629.103 107.93 629.14 107.449C630.147 94.2539 627.389 81.0434 621.196 69.4028C620.882 68.9117 620.438 68.5204 619.915 68.2735ZM578.275 96.5042C577.762 93.7463 576.545 89.0775 574.239 80.8688C572.637 75.2878 570.566 68.4473 568.964 63.7567C587.82 64.191 603.836 67.4049 616.499 73.3551C621.051 82.5672 623.372 92.7528 623.268 103.062C608.643 98.7682 593.497 96.5826 578.275 96.5694V96.5042Z" fill="#8B8FA2"/>
<path d="M435.352 135.984C432.79 137.287 430.142 138.503 427.515 139.654C422.262 141.956 416.967 143.997 411.628 145.93C406.289 147.863 400.951 149.578 395.548 151.25L387.455 153.639L379.746 155.811C378.743 157.7 377.718 159.589 376.693 161.457C377.151 161.291 377.64 161.232 378.123 161.283C378.605 161.321 379.073 161.47 379.49 161.717C379.911 161.952 380.276 162.278 380.558 162.673C380.85 163.064 381.055 163.517 381.156 163.997C386.446 189.303 389.695 215.006 390.872 240.85C390.911 241.615 390.7 242.371 390.271 243C389.842 243.629 389.219 244.095 388.501 244.325C360.931 253.291 332.725 260.094 304.132 264.673H303.598C302.695 264.677 301.828 264.318 301.185 263.674C300.8 263.295 300.514 262.825 300.352 262.306C300.174 261.79 300.122 261.239 300.202 260.699C302.338 244.52 304.281 226.105 305.754 205.953L301.825 205.714L298.9 205.497C298.772 207.104 298.665 208.711 298.537 210.361C298.459 211.181 298.105 211.949 297.533 212.533C296.96 213.112 296.203 213.466 295.398 213.532C284.571 214.357 273.873 214.683 263.601 214.683C240.085 214.622 216.597 213.027 193.282 209.905C192.729 209.819 192.202 209.604 191.745 209.275C191.289 208.935 190.921 208.485 190.676 207.966C190.43 207.448 190.313 206.875 190.336 206.3C190.363 205.727 190.524 205.169 190.805 204.671C193.88 199.546 196.443 195.073 198.279 191.903C196.635 191.577 194.991 191.273 193.368 190.925C189.197 197.889 184.926 204.795 180.555 211.642C175.729 219.156 170.747 226.59 165.608 233.945C160.461 241.285 155.208 248.538 149.72 255.661C146.56 259.678 143.314 263.63 140.025 267.561C143.463 268.169 146.901 268.734 150.382 269.255C157.6 270.297 164.839 271.209 172.099 271.948C186.62 273.402 201.248 274.249 215.875 274.553C230.503 274.857 245.152 274.553 259.779 273.772C274.407 272.99 289.098 271.47 303.555 269.472L314.446 267.93L325.272 266.106C328.902 265.541 332.49 264.781 336.077 264.086L341.48 263.022L344.192 262.479L346.861 261.893L357.538 259.461C359.332 259.07 361.104 258.592 362.877 258.136L368.215 256.768C375.347 255.031 382.352 252.837 389.398 250.84C416.519 242.513 442.957 232.043 468.473 219.525L436.441 135.289L435.352 135.984ZM292.942 263.695C292.832 264.471 292.462 265.184 291.896 265.715C291.312 266.272 290.558 266.61 289.76 266.671C269.816 268.473 251.707 269.146 235.734 269.146C188.585 269.146 160.504 263.218 160.12 263.131C159.53 263.003 158.985 262.718 158.539 262.306C158.088 261.898 157.756 261.372 157.578 260.785C157.418 260.196 157.418 259.573 157.578 258.983C157.704 258.384 157.984 257.829 158.39 257.376C164.561 250.47 169.195 241.958 174.106 232.967C176.883 227.886 179.723 222.631 182.926 217.571C183.289 217 183.807 216.549 184.417 216.271C185.027 215.994 185.703 215.902 186.364 216.007C211.859 219.758 237.585 221.659 263.345 221.697C273.745 221.697 283.995 221.349 293.817 220.654C294.311 220.618 294.807 220.692 295.27 220.872C295.743 221.057 296.17 221.348 296.517 221.724C296.865 222.1 297.124 222.551 297.277 223.043C297.446 223.515 297.512 224.019 297.469 224.52C296.166 238.635 294.65 251.839 292.942 263.695ZM456.728 217.592C438.748 225.866 420.426 233.293 402.168 239.699C401.667 239.87 401.134 239.922 400.609 239.851C400.088 239.785 399.59 239.591 399.157 239.287C398.711 238.985 398.339 238.584 398.068 238.114C397.808 237.65 397.661 237.128 397.641 236.594C395.249 194.964 390.658 171.251 388.8 162.977C388.715 162.532 388.715 162.075 388.8 161.631C388.87 161.175 389.03 160.739 389.27 160.349C389.513 159.961 389.824 159.623 390.188 159.35C390.553 159.086 390.968 158.902 391.406 158.807C404.757 155.444 417.709 150.616 430.035 144.41C430.47 144.174 430.952 144.041 431.445 144.019C431.932 144.001 432.419 144.082 432.875 144.258C433.325 144.437 433.732 144.711 434.071 145.061C434.41 145.422 434.672 145.851 434.84 146.321L458.586 213.228C458.895 214.045 458.895 214.951 458.586 215.768C458.214 216.592 457.551 217.244 456.728 217.592Z" fill="white"/>
<path d="M205.496 193.249C204.108 195.681 202.058 199.286 199.475 203.716C230.168 207.598 261.145 208.637 292.023 206.821C292.023 206.213 292.13 205.605 292.173 204.997C282.051 204.172 271.943 203.158 261.85 201.957C243.001 199.727 224.217 196.825 205.496 193.249Z" fill="white"/>
<path d="M187.537 223.195C184.91 227.539 182.497 231.882 180.127 236.225C176.369 243.549 172.086 250.582 167.314 257.268C182.262 259.7 225.269 265.194 286.513 259.895C287.858 250.036 289.075 239.265 290.207 227.799C281.473 228.342 272.441 228.603 263.301 228.603C237.954 228.57 212.64 226.764 187.537 223.195Z" fill="white"/>
<path d="M362.385 184.888C359.801 188.667 357.047 192.38 354.121 195.963C351.198 199.627 347.992 203.047 344.533 206.191C343.953 206.742 343.191 207.051 342.398 207.06H342.27C335.415 207.06 328.774 207.06 322.047 206.691C318.93 206.582 315.812 206.43 312.716 206.278C311.37 224.715 309.705 241.719 307.74 256.92C333.575 252.559 359.077 246.362 384.06 238.374C382.825 215.141 379.913 192.031 375.347 169.231L371.461 170.534C370.906 171.468 370.372 172.401 369.795 173.335C367.425 177.244 364.969 181.153 362.385 184.888Z" fill="white"/>
<path d="M396.209 164.801C400.388 186.845 403.057 209.157 404.195 231.577C419.848 225.953 435.565 219.568 451.004 212.554L429.649 152.379C418.907 157.569 407.711 161.727 396.209 164.801Z" fill="white"/>
<path d="M635.033 94.3112C634.562 88.6317 633.415 83.0313 631.616 77.6332C629.924 72.5446 627.334 67.8126 623.971 63.6699L622.583 63.0836C621.879 62.7796 621.174 62.519 620.448 62.1932C619.017 61.6503 617.587 61.1292 616.177 60.6515C613.273 59.6743 610.326 58.8056 607.337 58.0238C601.376 56.4755 595.338 55.2505 589.25 54.3538C577.04 52.5745 564.691 51.9855 552.371 52.5948C550.834 52.5948 549.296 52.7903 547.759 52.8771C546.221 52.964 544.684 53.0943 543.146 53.268L538.555 53.7241L533.985 54.3321C532.448 54.5275 530.932 54.7664 529.415 55.027L524.846 55.8087L520.319 56.6774L518.055 57.1334L515.813 57.6547C505.623 60.0079 495.593 63.0328 485.789 66.7102L486.238 67.948C487.028 70.1196 487.775 72.4866 488.501 74.7884C489.91 79.3705 491.149 84.0396 492.195 88.7519C493.249 93.5076 494.027 98.3224 494.523 103.171C494.758 105.603 494.907 108.057 494.95 110.555V112.466L499.221 111.814C502.381 111.336 505.627 110.902 508.723 110.511C515.13 109.729 521.408 109.078 527.793 108.578C540.605 107.558 553.289 107.015 566.123 107.254C579.034 107.422 591.91 108.656 604.625 110.946C611.143 112.118 617.567 113.78 623.843 115.918C627.493 117.202 631.059 118.717 634.52 120.457V120.349C634.905 117.482 635.161 114.572 635.374 111.662C635.725 105.879 635.61 100.076 635.033 94.3112ZM497.961 82.7148C497.021 79.6094 494.865 74.0285 493.69 71.5094C493.514 71.1099 493.423 70.6769 493.423 70.239C493.423 69.8011 493.514 69.3682 493.69 68.9686C493.872 68.5647 494.143 68.2083 494.48 67.9263C494.809 67.6373 495.195 67.4227 495.612 67.2965C513.368 62.5798 531.52 59.5697 549.83 58.3061C550.554 58.2546 551.273 58.473 551.85 58.9206C552.428 59.3682 552.826 60.0143 552.969 60.7383C553.119 61.1292 553.631 62.1498 554.037 62.9099C555.938 66.3842 557.415 70.0815 558.436 73.9199C558.542 74.3621 558.542 74.824 558.436 75.2663C558.332 75.709 558.135 76.1238 557.859 76.4823C557.575 76.833 557.217 77.1149 556.813 77.3076C556.411 77.4974 555.975 77.6009 555.531 77.6116H555.361C525.657 77.6116 506.844 83.0405 501.762 84.6909C501.467 84.7958 501.156 84.8473 500.844 84.8429C500.196 84.8504 499.564 84.6423 499.043 84.2502C498.523 83.8581 498.143 83.3036 497.961 82.6713V82.7148ZM564.842 100.435C564.562 100.854 564.179 101.191 563.731 101.412C563.285 101.651 562.782 101.756 562.279 101.716C543.654 101.16 525.018 102.425 506.631 105.495H505.862C505.232 105.494 504.608 105.369 504.025 105.126C503.453 104.879 502.932 104.525 502.488 104.083C502.046 103.63 501.698 103.091 501.463 102.498C501.224 101.905 501.1 101.271 501.1 100.63C501.103 98.2047 500.838 95.7862 500.31 93.4208C500.154 92.6837 500.26 91.9144 500.609 91.2492C500.966 90.601 501.543 90.107 502.232 89.8593C503.086 89.5336 524.077 82.172 559.268 82.8886C559.907 82.8974 560.527 83.1125 561.037 83.5029C561.548 83.8933 561.923 84.4386 562.109 85.0602C563.155 88.8822 564.073 92.791 564.799 96.6782C564.945 96.9031 565.067 97.1434 565.162 97.3948C565.359 97.8672 565.433 98.3834 565.376 98.8932C565.321 99.4095 565.137 99.9029 564.842 100.326V100.435ZM629.16 107.558C629.134 108.04 628.995 108.509 628.755 108.926C628.513 109.342 628.176 109.692 627.772 109.947C627.294 110.257 626.738 110.423 626.171 110.424C625.797 110.43 625.426 110.356 625.082 110.207C624.89 110.207 606.098 102.867 575.626 102.694C575.109 102.696 574.602 102.561 574.152 102.303C573.624 102.01 573.197 101.56 572.929 101.012C572.662 100.464 572.567 99.8454 572.658 99.2406C572.294 95.3969 564.372 67.4268 561.852 62.1281C561.631 61.6623 561.536 61.1454 561.575 60.6297C561.592 60.1125 561.747 59.6096 562.023 59.1747C562.327 58.7389 562.72 58.3757 563.176 58.1106C563.654 57.8686 564.18 57.7423 564.714 57.7415C586.815 57.7415 605.415 61.3247 619.957 68.3823C620.465 68.6432 620.898 69.0318 621.217 69.5115C627.352 81.1343 630.107 94.293 629.16 107.449V107.558Z" fill="white"/>
<path d="M551.433 71.4439C550.579 69.2723 549.533 67.2093 548.721 65.6023L548.123 64.3862C532.067 65.6522 516.14 68.2598 500.504 72.1823C501.23 74.0065 502.02 76.0694 502.639 77.937C518.563 73.6552 534.962 71.473 551.433 71.4439Z" fill="white"/>
<path d="M568.965 63.7998C570.566 68.4687 572.638 75.3092 574.218 80.8902C576.588 89.1206 577.763 93.7678 578.275 96.5258C593.495 96.595 608.634 98.787 623.268 103.041C623.37 92.7381 621.049 82.5602 616.499 73.3549C603.836 67.5133 587.863 64.2124 568.965 63.7998Z" fill="white"/>
<path d="M506.631 94.8103C506.848 96.2494 506.991 97.6991 507.058 99.1535C524.004 96.4124 541.151 95.1699 558.308 95.44C557.881 93.2684 557.368 91.0968 556.813 88.9252C539.9 88.5434 523.015 90.5236 506.631 94.8103Z" fill="white"/>
<path d="M386.174 114.529L382.117 113.877L378.06 113.139L369.945 111.662L361.873 109.99C356.492 108.926 351.196 107.601 345.794 106.385L337.829 104.387L333.814 103.388L329.863 102.303L321.92 100.131L314.019 97.8291C311.371 97.069 308.766 96.2437 306.139 95.4402C303.513 94.6368 300.886 93.8115 298.302 92.9646C287.86 89.5769 277.503 85.9286 267.232 82.1066C257.466 78.4149 247.785 74.5278 238.19 70.4452C237.281 72.5516 236.255 74.6035 235.115 76.5908C241.493 79.1099 248.191 81.6434 255.21 84.1914C255.7 84.3715 256.145 84.6609 256.512 85.0384C256.878 85.418 257.155 85.8771 257.321 86.3812C257.488 86.8852 257.54 87.4209 257.473 87.9482C257.408 88.472 257.217 88.9716 256.918 89.4033C237.398 119.292 214.389 146.666 188.393 170.925C187.981 171.306 187.482 171.575 186.941 171.707C186.408 171.847 185.85 171.847 185.318 171.707C148.332 162.868 109.852 147.124 65.3718 128.883L59.1791 126.342C58.7102 126.145 58.288 125.849 57.9406 125.473C57.5995 125.101 57.3442 124.656 57.1932 124.171C57.0279 123.683 56.9767 123.162 57.0437 122.65C57.114 122.141 57.2886 121.653 57.5562 121.217C58.9869 119.045 92.7264 66.3409 148.033 35.8734C148.581 35.5861 149.19 35.4442 149.806 35.4608C150.412 35.4882 151.001 35.6753 151.514 36.0037C151.728 36.134 216.068 69.1205 238.233 80.0871C238.788 79.1967 242.504 73.9632 243.145 72.5082C239.023 70.3366 181.431 43.7346 177.353 41.563C172.498 39.0005 167.686 36.3585 162.917 33.6367C160.526 32.2904 158.134 30.9222 155.764 29.5324L152.219 27.3608L150.446 26.275L149.87 25.9492C148.909 26.6441 147.991 27.2739 147.051 27.8385L143.186 30.0101C141.755 30.9004 140.303 31.6171 138.915 32.5075L134.644 35.1134C129.114 38.6965 123.668 42.4316 118.458 46.4491C107.977 54.5228 98.0322 63.2936 88.6904 72.7037C79.3223 82.107 70.4277 91.9858 62.0405 102.303C57.8551 107.442 53.7908 112.69 49.8474 118.047C47.8828 120.718 45.9396 123.41 44.0604 126.125L43.3984 127.08C52.7088 131.641 62.1046 136.093 71.6926 140.11C77.6931 142.803 83.9285 145.213 90.0571 147.711C93.1107 148.948 96.2284 150.078 99.3248 151.272C102.421 152.466 105.496 153.661 108.635 154.768L118.01 158.091C121.127 159.198 124.288 160.262 127.427 161.261L132.146 162.847L136.887 164.323L146.346 167.19C159.059 170.968 171.872 174.457 184.784 177.657C210.58 183.933 236.653 189.058 262.961 192.858C276.094 194.726 289.291 196.333 302.53 197.549C309.122 198.171 315.734 198.692 322.368 199.112C328.518 199.503 334.711 199.807 340.818 199.937C343.508 197.173 346.012 194.227 348.313 191.121C350.876 187.624 353.374 183.976 355.702 180.263C358.03 176.549 360.25 172.684 362.407 168.797C364.564 164.91 366.678 160.957 368.6 156.983C372.572 149.014 376.309 140.892 379.832 132.683C382.395 126.69 384.893 120.631 387.221 114.572L386.174 114.529ZM256.768 183.781C256.454 184.167 256.061 184.478 255.615 184.693C255.169 184.888 254.691 184.998 254.206 185.019H253.715C236.632 182.499 219.185 179.286 201.654 175.464C201.047 175.325 200.487 175.025 200.031 174.595C199.584 174.161 199.26 173.614 199.091 173.01C198.925 172.398 198.925 171.752 199.09 171.141C199.256 170.529 199.581 169.974 200.031 169.535C212.722 157.205 224.639 144.077 235.713 130.229C236.165 129.672 236.774 129.271 237.459 129.081C238.143 128.89 238.868 128.92 239.536 129.165C245.109 131.337 260.057 136.614 278.806 142.195C279.3 142.339 279.753 142.599 280.13 142.955C280.517 143.297 280.817 143.729 281.005 144.214C281.195 144.689 281.283 145.2 281.262 145.713C281.228 146.238 281.082 146.749 280.835 147.211C273.993 160.163 265.933 172.41 256.768 183.781ZM357.432 162.26C356.236 164.432 355.061 166.734 353.823 169.231C350.193 176.376 346.114 184.432 340.54 190.556C340.244 190.902 339.88 191.183 339.473 191.381C339.054 191.567 338.605 191.67 338.149 191.685C337.893 191.685 336.12 191.685 332.917 191.685C311.793 191.464 290.7 189.963 269.752 187.19C269.148 187.119 268.573 186.887 268.086 186.517C267.609 186.141 267.234 185.648 266.997 185.084C266.76 184.516 266.679 183.893 266.762 183.281C266.826 182.669 267.064 182.088 267.445 181.609C275.297 170.96 282.322 159.706 288.458 147.949C288.815 147.24 289.404 146.68 290.124 146.364C290.837 146.047 291.635 145.986 292.387 146.19C312.862 151.527 333.729 155.158 354.784 157.048C355.35 157.109 355.893 157.31 356.364 157.635C356.837 157.963 357.225 158.403 357.496 158.916C357.753 159.427 357.884 159.993 357.88 160.566C357.87 161.16 357.716 161.742 357.432 162.26ZM374.408 124.865C374.408 124.865 370.607 133.747 362.898 150.642C362.62 151.244 362.179 151.754 361.627 152.111C361.075 152.468 360.435 152.66 359.781 152.662H359.567C342.484 151.576 310.752 149.535 246.39 124.171C245.896 123.967 245.451 123.656 245.088 123.258C244.702 122.847 244.416 122.348 244.255 121.803C244.127 121.276 244.127 120.724 244.255 120.196C244.36 119.665 244.586 119.167 244.917 118.742C254.078 106.624 260.762 96.5694 264.755 90.2501C265.172 89.6035 265.788 89.1149 266.506 88.8597C267.224 88.6046 268.004 88.5972 268.727 88.8386C275.133 91.0102 281.539 93.1818 288.33 95.6791C312.887 104.365 340.711 114.268 371.91 120.001C372.42 120.096 372.903 120.305 373.324 120.613C373.745 120.921 374.093 121.32 374.344 121.782C374.597 122.248 374.736 122.769 374.75 123.302C374.736 123.854 374.581 124.392 374.301 124.865H374.408Z" fill="white"/>
<path d="M366.228 126.147C336.226 120.218 309.576 110.75 285.894 102.259C280.022 100.087 274.427 98.1764 268.811 96.2871C265.138 101.998 259.799 109.925 252.859 119.263C310.515 141.608 340.625 144.388 357.494 145.495C361.701 136.418 364.541 129.903 366.228 126.147Z" fill="white"/>
<path d="M272.826 147.71C257.878 143.107 245.813 138.829 239.535 136.57C230.059 148.233 219.995 159.388 209.383 169.991C223.968 173.053 238.553 175.681 252.774 177.852C260.273 168.391 266.98 158.308 272.826 147.71Z" fill="white"/>
<path d="M276.285 180.979C296.227 183.501 316.302 184.77 336.397 184.78C340.82 178.98 344.601 172.702 347.672 166.06L348.953 163.541C330.142 161.676 311.492 158.403 293.155 153.747C288.062 163.154 282.429 172.247 276.285 180.979Z" fill="white"/>
<path d="M476.266 220.22L445.623 124.453V124.236C445.399 123.529 445.044 122.873 444.577 122.303C443.586 121.089 442.163 120.323 440.618 120.172C439.074 120.022 437.534 120.499 436.334 121.499C435.903 121.856 435.454 122.189 434.989 122.498L433.387 123.606C432.277 124.322 431.252 125.017 430.013 125.777C427.728 127.167 425.379 128.514 422.988 129.795C418.204 132.422 413.272 134.79 408.275 137.048C403.278 139.306 398.174 141.391 393.049 143.563L385.191 146.342L384.55 146.581C386.109 143.476 387.668 140.349 389.184 137.178C393.135 128.97 396.914 120.739 400.438 112.205C400.58 111.804 400.68 111.389 400.737 110.967C400.848 110.206 400.809 109.43 400.622 108.684C400.435 107.939 400.104 107.238 399.648 106.624C399.194 106.013 398.628 105.497 397.982 105.104C397.326 104.714 396.6 104.463 395.847 104.365L387.86 103.236L383.91 102.672L379.917 102.02L371.952 100.696L364.008 99.1754C358.712 98.2416 353.459 97.0038 348.184 95.9397L340.283 94.0938L336.354 93.2252L332.425 92.2262L324.567 90.25L316.751 88.0784C314.189 87.3835 311.562 86.6235 308.957 85.9068C306.352 85.1902 303.768 84.4084 301.184 83.6049C290.849 80.4561 280.599 77.0902 270.349 73.4419C260.569 69.9456 241.2 62.3234 231.548 58.458C230.673 61.2159 232.616 64.3864 231.548 67.0141C241.158 71.0749 257.558 78.4366 267.295 82.2152C277.588 86.0372 287.923 89.6855 298.365 93.0732C300.928 93.9418 303.597 94.7235 306.202 95.5487C308.808 96.3739 311.434 97.1775 314.082 97.9375L321.983 100.261L329.927 102.433L333.899 103.519L337.892 104.517L345.878 106.537C351.238 107.731 356.555 109.078 361.958 110.12L370.008 111.792L378.123 113.291L382.18 114.029L386.259 114.68L387.305 114.854C384.978 120.913 382.479 126.972 379.917 132.965C376.393 141.152 372.656 149.274 368.684 157.244C366.698 161.24 364.627 165.17 362.492 169.079C360.356 172.988 358.221 176.788 355.808 180.523C353.395 184.258 351.003 187.907 348.398 191.381C346.092 194.49 343.588 197.443 340.903 200.22C334.817 200.089 328.603 199.785 322.453 199.394C315.833 198.96 309.22 198.439 302.615 197.831C289.397 196.615 276.2 195.008 263.046 193.119C236.759 189.362 210.686 184.237 184.89 177.917C171.992 174.732 159.179 171.243 146.452 167.45L136.993 164.497L132.252 163.02L127.533 161.435C124.394 160.393 121.233 159.263 118.094 158.264L108.698 154.942C105.559 153.856 102.463 152.662 99.3667 151.446C96.2703 150.23 93.174 149.122 90.099 147.884C83.9704 145.387 77.7991 142.976 71.7559 140.284C62.1892 136.244 52.8148 131.793 43.4404 127.254L44.1023 126.299C45.9815 123.584 47.9247 120.891 49.8893 118.22C53.8469 112.878 57.9184 107.63 62.1038 102.476C70.4777 92.1543 79.3655 82.2751 88.7324 72.8773C98.0789 63.4723 108.023 54.702 118.5 46.6228C123.732 42.5836 129.177 38.8484 134.708 35.287L138.979 32.6812C140.367 31.8125 141.819 31.0307 143.249 30.1838L147.136 28.0122C148.075 27.4476 148.994 26.8178 149.954 26.1229L150.51 26.4487L152.282 27.5345L155.848 29.7061C158.197 31.0959 160.589 32.4639 162.98 33.8103C167.764 36.5248 172.59 39.1525 177.416 41.7367C181.537 43.9083 236.204 69.9674 242.332 71.8567C243.023 69.4144 243.579 66.935 243.998 64.4299C240.069 62.5189 184.783 36.9592 180.897 34.983C176.071 32.5291 171.266 29.9884 166.483 27.4042L159.372 23.4735L155.848 21.4539L154.14 20.4551L153.286 19.9339L152.837 19.6732H152.731L152.154 19.3693C151.736 19.1935 151.299 19.0695 150.851 19C148.93 19.6515 146.944 20.4115 145 21.1716L143.548 21.8232L142.822 22.1488L142.246 22.4529L139.961 23.6039C138.445 24.3857 136.886 25.1022 135.412 25.9491L130.928 28.4248C125.013 31.8559 119.183 35.4173 113.589 39.2828C102.366 47.0552 91.6653 55.5795 81.5574 64.799C71.4373 73.9904 61.7869 83.7029 52.644 93.8984C48.0742 98.9799 43.6183 104.177 39.2763 109.49C37.0982 112.169 34.9628 114.861 32.8701 117.569L29.731 121.695C28.6847 123.106 27.7024 124.453 26.6133 126.038L26.4852 126.255C26.2868 126.561 26.1084 126.88 25.9514 127.211C25.5591 128.094 25.3345 129.044 25.2894 130.012C25.2663 130.98 25.4182 131.945 25.7378 132.857C26.4185 134.687 27.7746 136.175 29.5175 137.005C41.7961 142.738 54.1174 148.34 66.7163 153.313C72.9517 155.941 79.3152 158.199 85.6147 160.61C88.7964 161.782 92.0209 162.781 95.1599 163.997C98.299 165.214 101.566 166.169 104.727 167.277L114.357 170.447C117.56 171.468 120.763 172.423 124.009 173.422L128.835 174.899L133.704 176.289L143.42 179.047C156.418 182.521 169.486 185.721 182.626 188.645L186.235 189.383C182.242 195.247 178.121 201.067 173.956 206.756C168.775 213.893 163.472 220.929 158.048 227.864C152.624 234.813 147.029 241.567 141.285 248.19C135.54 254.814 129.604 261.22 123.433 267.105L123.283 267.278C122.489 268.113 121.929 269.147 121.66 270.275C121.408 271.41 121.444 272.591 121.767 273.706C122.121 274.797 122.751 275.772 123.595 276.535C124.439 277.298 125.466 277.82 126.572 278.05C128.579 278.484 130.373 278.831 132.273 279.157C134.174 279.483 135.989 279.809 137.847 280.113C141.562 280.721 145.278 281.242 148.994 281.741C156.425 282.697 163.941 283.5 171.287 284.108C186.235 285.368 201.183 285.954 216.131 285.998C231.079 286.041 246.026 285.498 260.846 284.412C275.666 283.327 290.528 281.589 305.284 279.374L316.324 277.637L327.322 275.465C330.994 274.836 334.625 274.01 338.255 273.294L343.743 272.121L346.476 271.535L349.188 270.862L360.036 268.256C361.872 267.843 363.645 267.322 365.46 266.822L370.841 265.324C378.059 263.457 385.148 260.981 392.195 258.94C420.559 249.703 448.14 238.141 474.665 224.368C475.393 223.994 475.967 223.371 476.288 222.609C476.543 221.832 476.535 220.992 476.266 220.22ZM389.462 250.905C382.415 252.924 375.39 255.118 368.257 256.833L362.94 258.201C361.146 258.657 359.374 259.157 357.58 259.526L346.903 261.958L344.213 262.566L341.522 263.087L336.119 264.151C332.532 264.868 328.944 265.606 325.314 266.193L314.466 267.995L303.597 269.559C289.055 271.47 274.427 272.925 259.864 273.75C245.3 274.575 230.588 274.836 215.96 274.553C201.332 274.271 186.705 273.402 172.184 271.926C164.909 271.187 157.663 270.29 150.446 269.233C147.029 268.712 143.57 268.147 140.11 267.539C143.42 263.63 146.666 259.656 149.805 255.639C155.293 248.516 160.482 241.263 165.692 233.923C170.903 226.583 175.772 219.091 180.64 211.599C185.018 204.758 189.31 197.896 193.453 190.904L198.364 191.881L205.496 193.249C224.188 196.796 242.973 199.691 261.85 201.935C271.929 203.108 282.051 204.107 292.151 204.954C294.436 205.149 296.721 205.301 299.027 205.453L301.953 205.67C303.255 205.779 304.558 205.822 305.861 205.909L312.715 206.322L322.068 206.756C328.795 206.995 335.457 207.169 342.291 207.104H342.483C343.278 207.104 344.043 206.793 344.618 206.235C348.053 203.047 351.237 199.591 354.142 195.898C357.068 192.315 359.801 188.602 362.406 184.823C365.011 181.044 367.446 177.179 369.816 173.27C370.393 172.336 370.927 171.403 371.482 170.469C373.254 167.472 375.005 164.453 376.692 161.435C377.738 159.567 378.828 157.678 379.746 155.789L387.476 153.617L395.569 151.228C400.95 149.556 406.246 147.841 411.649 145.908C417.051 143.975 422.326 141.934 427.536 139.632C430.163 138.481 432.768 137.265 435.373 135.962L436.59 135.332L468.621 219.547C443.089 232.104 416.62 242.589 389.462 250.905Z" fill="black"/>
<path d="M639.111 74.6363C636.663 68.5934 633.105 63.0804 628.626 58.3927C628.363 58.1072 628.052 57.8719 627.708 57.6978C626.854 57.2635 626.149 56.9377 625.381 56.612C624.612 56.2862 623.886 55.9389 623.117 55.6349C621.622 55.0051 620.106 54.3969 618.59 53.8758C615.536 52.7465 612.461 51.7043 609.365 50.8573C603.184 49.0622 596.91 47.6123 590.573 46.5142C577.88 44.3126 565.011 43.331 552.136 43.5824C550.534 43.5824 548.933 43.7128 547.31 43.7562C545.687 43.7996 544.107 43.8865 542.484 44.0168L537.679 44.3643L532.875 44.842C531.273 44.994 529.693 45.2112 528.091 45.4284L523.308 46.1015L518.546 46.905L516.176 47.3176L513.805 47.7953C501.168 50.3118 488.739 53.8111 476.628 58.2624L476.372 58.371C475.027 58.9508 473.962 60.048 473.41 61.4232C472.858 62.7983 472.863 64.3397 473.425 65.711V65.9282C473.852 66.7969 474.279 67.9044 474.749 68.925C475.219 69.9457 475.624 71.0966 476.073 72.0521C476.927 74.2237 477.717 76.265 478.486 78.3931C480.023 82.7363 481.369 87.0795 482.543 91.4227C483.719 95.7495 484.639 100.144 485.298 104.583C485.618 106.754 485.853 108.926 486.002 111.097C486.002 112.183 486.109 113.269 486.109 114.355V116.809C486.238 118.336 486.69 119.818 487.433 121.152C488.345 121.739 489.388 122.083 490.465 122.151H491.704H491.96H492.259L493.391 121.977L495.676 121.63L500.31 121C503.406 120.587 506.502 120.24 509.62 119.914C515.834 119.284 522.069 118.763 528.326 118.394C540.797 117.656 553.31 117.395 565.739 117.873C578.073 118.173 590.363 119.488 602.489 121.803C608.417 123.003 614.248 124.651 619.935 126.733C625.429 128.748 630.646 131.471 635.46 134.833L635.951 135.137C636.903 135.727 638.007 136.015 639.121 135.965C640.236 135.915 641.31 135.528 642.207 134.855C642.818 134.412 643.335 133.85 643.727 133.201C644.12 132.552 644.38 131.829 644.492 131.076C644.642 130.142 644.727 129.404 644.834 128.6L645.09 126.212C645.24 124.648 645.368 123.063 645.453 121.499C645.646 118.35 645.731 115.202 645.71 112.075C645.71 105.754 645.217 99.4443 644.236 93.2034C643.265 86.8281 641.544 80.5945 639.111 74.6363ZM635.246 111.553C635.075 114.463 634.819 117.352 634.392 120.24C634.403 120.26 634.409 120.282 634.409 120.305C634.409 120.328 634.403 120.35 634.392 120.37C630.939 118.612 627.371 117.095 623.715 115.831C617.441 113.678 611.017 112.009 604.496 110.837C591.751 108.58 578.846 107.382 565.909 107.254C553.097 107.036 540.284 107.558 527.472 108.578C521.066 109.078 514.66 109.729 508.424 110.533C505.242 110.924 502.018 111.358 498.922 111.814L494.651 112.465V110.554C494.651 108.079 494.459 105.603 494.224 103.171C493.718 98.322 492.934 93.5073 491.875 88.7517C490.828 84.0393 489.611 79.392 488.181 74.81C487.476 72.5081 486.728 70.228 485.917 67.9478L485.469 66.71C495.276 63.0424 505.305 60.0178 515.492 57.6544L517.756 57.1331L520.019 56.6772L524.547 55.8085L529.095 55.0485C530.611 54.7879 532.127 54.5273 533.665 54.3536L538.235 53.7455L542.847 53.2678C544.363 53.0941 545.901 52.9855 547.438 52.8986C548.976 52.8118 550.513 52.6598 552.051 52.6163C564.37 52.0106 576.718 52.5922 588.929 54.3536C595.027 55.2492 601.072 56.4816 607.037 58.0453C610.006 58.8271 612.974 59.674 615.857 60.6513C617.28 61.158 618.704 61.6791 620.127 62.2147C620.832 62.497 621.537 62.7577 622.263 63.0834L623.651 63.6914C627.021 67.8209 629.612 72.5472 631.296 77.633C633.087 83.0342 634.241 88.6328 634.734 94.311C635.366 100.056 635.537 105.845 635.246 111.619V111.553Z" fill="black"/>
<path d="M233.577 83.4961C238.431 85.4071 243.471 87.3254 248.695 89.2509C230.358 116.712 209.009 141.964 185.06 164.518C149.1 155.832 111.41 140.283 67.8691 122.433L65.627 121.499C74.1686 109.295 104.726 68.2515 149.506 43.0176C153.435 45.4715 210.92 72.5513 231.1 82.4321L232.103 82.8229L233.555 83.5396L233.577 83.4961Z" fill="white"/>
<path d="M237.186 77.633C235.99 79.5874 234.816 81.5419 233.641 83.4963L232.125 82.8884L231.164 82.4323C232.616 80.5908 233.936 78.6459 235.115 76.6124L237.186 77.633Z" fill="#8B8FA2"/>
<path d="M256.511 85.038C256.88 85.4149 257.157 85.8743 257.32 86.3796C257.483 86.8849 257.528 87.4219 257.45 87.9479C257.382 88.4676 257.2 88.9651 256.916 89.4029C237.408 119.3 214.397 146.675 188.391 170.925C187.972 171.295 187.475 171.562 186.938 171.705C186.401 171.848 185.839 171.864 185.295 171.75C148.31 162.911 109.872 147.146 65.3702 128.904L59.1562 126.363C58.6903 126.161 58.2691 125.866 57.9177 125.495C57.5766 125.122 57.3213 124.677 57.1703 124.192C57.022 123.7 56.9784 123.182 57.0421 122.672C57.1029 122.16 57.2782 121.67 57.5546 121.238C58.964 119.067 92.6821 66.3623 148.032 35.8948C148.569 35.6042 149.175 35.469 149.783 35.5039C150.396 35.5276 150.993 35.7148 151.513 36.0468C151.726 36.1771 211.304 64.9073 235.114 76.6122C233.935 78.6456 232.615 80.5905 231.163 82.432C210.984 72.5513 153.499 45.5149 149.569 43.0175C104.726 68.2515 74.1468 109.295 65.6905 121.499L67.9327 122.433C111.474 140.283 149.078 155.723 185.124 164.518C209.074 141.957 230.423 116.698 248.759 89.2292C243.534 87.2892 238.495 85.3709 233.64 83.4744C234.815 81.5199 235.989 79.5656 237.185 77.6112L235.05 76.5905C241.428 79.1095 248.126 81.643 255.144 84.191C255.658 84.3623 256.125 84.6522 256.511 85.038Z" fill="#8B8FA2"/>
</g>
<g opacity="0.05" clip-path="url(#clip1_101_1986)">
<path d="M1113.71 40.3484C1113.07 39.7196 1112.21 39.3692 1111.32 39.3712H1110.78C1082.19 43.9429 1053.98 50.7383 1026.41 59.6974C1025.69 59.9354 1025.07 60.4087 1024.64 61.0438C1024.19 61.6726 1023.97 62.4404 1024.02 63.2154C1025.2 89.0592 1028.45 114.762 1033.74 140.068C1033.84 140.549 1034.04 141.001 1034.34 141.393C1034.62 141.783 1034.99 142.108 1035.4 142.348C1035.83 142.588 1036.29 142.735 1036.78 142.78C1037.26 142.825 1037.74 142.767 1038.2 142.609C1039.93 139.569 1041.64 136.572 1043.41 133.575L1039.5 134.878C1035.01 112.05 1032.15 88.9194 1030.96 65.6693C1055.94 57.6887 1081.45 51.4989 1107.28 47.1455C1105.32 62.3467 1103.65 79.3503 1102.31 97.7871L1109.18 98.1997C1110.63 78.0256 1112.49 59.6321 1114.71 43.4321C1114.77 42.8901 1114.72 42.3412 1114.54 41.8251C1114.37 41.2769 1114.09 40.7729 1113.71 40.3484Z" fill="#8B8FA2"/>
<path d="M982.211 159.743C982.667 159.92 983.154 160.001 983.642 159.982C984.128 159.962 984.603 159.829 985.03 159.591C997.347 153.421 1010.28 148.623 1023.62 145.28C1024.06 145.19 1024.47 145.005 1024.83 144.737C1025.57 144.189 1026.08 143.373 1026.24 142.457C1026.32 142.011 1026.32 141.556 1026.24 141.11C1024.39 132.837 1019.84 109.123 1017.4 67.4932C1017.37 66.9574 1017.22 66.4362 1016.95 65.9731C1016.7 65.4992 1016.33 65.0965 1015.89 64.8005C1015.45 64.496 1014.94 64.3024 1014.41 64.2359C1013.89 64.1677 1013.36 64.2197 1012.85 64.3879C994.618 70.7941 976.274 78.2209 958.316 86.4947C957.531 86.8622 956.907 87.512 956.565 88.3189C956.245 89.1346 956.245 90.0439 956.565 90.8596L980.31 157.766C980.486 158.237 980.755 158.666 981.1 159.026C981.423 159.334 981.8 159.577 982.211 159.743ZM1010.83 72.4228C1011.96 94.8429 1014.63 117.155 1018.81 139.199C1007.31 142.291 996.114 146.464 985.371 151.664L964.017 91.4893C979.456 84.4317 995.173 78.0472 1010.83 72.4228Z" fill="#8B8FA2"/>
<path d="M1224.28 96.0496C1224.03 95.5312 1223.66 95.078 1223.21 94.7249C1222.75 94.378 1222.2 94.1609 1221.63 94.0952C1198.32 90.9729 1174.83 89.3771 1151.31 89.3176C1141.02 89.3176 1130.37 89.6434 1119.54 90.4686C1118.72 90.52 1117.94 90.8751 1117.36 91.4671C1116.78 92.059 1116.43 92.847 1116.38 93.6825C1116.25 95.333 1116.12 96.9399 1115.99 98.5469C1118.28 98.6989 1120.56 98.851 1122.87 99.0465L1123 97.2223C1153.89 95.4025 1184.88 96.4419 1215.59 100.328C1213.01 104.671 1210.93 108.319 1209.59 110.795C1211.96 111.251 1214.35 111.663 1216.72 112.185C1218.54 108.971 1221.1 104.541 1224.19 99.4156C1224.5 98.9116 1224.66 98.3382 1224.69 97.7494C1224.71 97.1606 1224.58 96.5757 1224.32 96.0496H1224.28Z" fill="#8B8FA2"/>
<path d="M1121.2 83.3674C1131.03 82.6724 1141.28 82.3033 1151.68 82.3033C1177.44 82.3447 1203.16 84.2607 1228.66 88.0363C1229.32 88.1469 1229.99 88.0563 1230.6 87.7758C1231.21 87.4954 1231.72 87.0427 1232.07 86.4727C1235.3 81.3912 1238.14 76.1577 1240.92 71.0762C1245.81 62.0424 1250.46 53.5297 1256.63 46.6675C1257.03 46.2116 1257.31 45.6581 1257.44 45.0604C1257.6 44.4708 1257.6 43.8477 1257.44 43.2581C1257.26 42.6753 1256.93 42.1515 1256.48 41.7379C1256.04 41.3251 1255.49 41.0403 1254.9 40.9127C1254.52 40.9127 1226.42 34.8756 1179.27 34.8756C1163.34 34.8756 1145.21 35.5706 1125.26 37.373C1124.47 37.4262 1123.71 37.7559 1123.13 38.3068C1122.56 38.8433 1122.19 39.5648 1122.08 40.3481C1120.37 52.1833 1118.86 65.3866 1117.57 79.5888C1117.52 80.0925 1117.58 80.6025 1117.74 81.0803C1117.91 81.5581 1118.18 81.9912 1118.54 82.3468C1118.88 82.7164 1119.3 82.9991 1119.77 83.172C1120.24 83.3525 1120.73 83.4267 1121.23 83.3891L1121.2 83.3674ZM1128.46 44.0398C1189.69 38.7411 1232.78 44.2353 1247.66 46.6675C1242.88 53.3481 1238.6 60.3819 1234.85 67.7102C1232.5 72.0534 1230.07 76.3966 1227.44 80.7398C1202.33 77.1585 1177.01 75.33 1151.66 75.2673C1142.52 75.2673 1133.48 75.5496 1124.75 76.0708C1125.9 64.67 1127.14 53.8988 1128.46 44.0398Z" fill="#8B8FA2"/>
<path d="M1170.87 182.197C1170.72 181.674 1170.46 181.191 1170.1 180.785C1169.74 180.388 1169.3 180.077 1168.8 179.873C1104.42 154.509 1072.71 152.468 1055.62 151.382H1055.41C1054.76 151.382 1054.12 151.57 1053.57 151.925C1053.02 152.285 1052.58 152.797 1052.29 153.402C1044.58 170.297 1040.8 179.092 1040.78 179.178C1040.57 179.663 1040.47 180.19 1040.48 180.72C1040.5 181.255 1040.65 181.776 1040.91 182.24C1041.16 182.702 1041.5 183.103 1041.92 183.413C1042.34 183.721 1042.83 183.929 1043.35 184.021C1074.52 189.711 1102.41 199.57 1126.9 208.256C1133.7 210.667 1140.12 212.925 1146.51 215.097C1147.23 215.338 1148.01 215.331 1148.73 215.075C1149.45 214.82 1150.06 214.332 1150.48 213.685C1154.47 207.366 1161.16 197.311 1170.32 185.194C1170.63 184.755 1170.85 184.251 1170.96 183.717C1171.03 183.21 1171.01 182.692 1170.87 182.197ZM1146.12 207.691C1140.59 205.802 1134.98 203.826 1129.04 201.741C1105.36 193.359 1078.67 183.869 1048.71 177.854C1050.41 174.032 1053.28 167.495 1057.44 158.309C1074.22 159.439 1104.23 162.218 1162.07 184.542C1155.11 193.902 1149.77 201.915 1146.1 207.539L1146.12 207.691Z" fill="#8B8FA2"/>
<path d="M1133.93 159.699C1134.13 160.181 1134.42 160.612 1134.81 160.958C1135.19 161.306 1135.64 161.566 1136.13 161.719C1154.88 167.386 1169.83 172.772 1175.4 174.748C1176.07 174.994 1176.79 175.023 1177.48 174.833C1178.16 174.642 1178.77 174.241 1179.22 173.684C1190.34 159.857 1202.3 146.745 1215.01 134.422C1215.46 133.98 1215.78 133.425 1215.95 132.815C1216.12 132.202 1216.12 131.553 1215.95 130.94C1215.78 130.328 1215.45 129.774 1214.99 129.34C1214.54 128.909 1213.98 128.609 1213.37 128.471C1195.86 124.671 1178.35 121.457 1161.33 118.938H1160.84C1160.34 118.937 1159.85 119.049 1159.41 119.264C1158.97 119.484 1158.58 119.786 1158.25 120.154C1149.07 131.509 1140.99 143.741 1134.12 156.68C1133.89 157.139 1133.74 157.641 1133.7 158.157C1133.65 158.683 1133.73 159.212 1133.93 159.699ZM1162.2 126.17C1176.43 128.341 1190.99 130.947 1205.6 134.031C1194.98 144.634 1184.92 155.789 1175.44 167.452C1169.19 165.171 1157.08 160.937 1142.17 156.311C1147.99 145.702 1154.7 135.618 1162.2 126.17Z" fill="#8B8FA2"/>
<path d="M1060.24 146.93C1077.83 148.776 1100.81 151.664 1122.66 157.788C1123.41 157.99 1124.2 157.928 1124.92 157.613C1125.63 157.297 1126.22 156.747 1126.59 156.051C1132.71 144.288 1139.74 133.034 1147.6 122.391C1147.96 121.893 1148.19 121.311 1148.28 120.697C1148.36 120.086 1148.28 119.464 1148.05 118.895C1147.81 118.331 1147.43 117.837 1146.96 117.462C1146.47 117.1 1145.89 116.869 1145.29 116.788C1124.34 114.014 1103.24 112.513 1082.11 112.293C1078.92 112.293 1077.15 112.293 1076.9 112.293C1076.44 112.314 1075.99 112.424 1075.57 112.619C1075.16 112.807 1074.79 113.08 1074.48 113.422C1068.95 119.525 1064.85 127.625 1061.22 134.748C1059.96 137.201 1058.79 139.525 1057.61 141.718C1057.34 142.226 1057.19 142.791 1057.16 143.369C1057.16 143.949 1057.29 144.522 1057.55 145.041C1057.82 145.549 1058.2 145.987 1058.66 146.322C1059.13 146.644 1059.67 146.845 1060.24 146.908V146.93ZM1067.31 138.027C1070.39 131.393 1074.17 125.117 1078.58 119.307C1098.65 119.292 1118.69 120.533 1138.61 123.021C1132.51 131.789 1126.91 140.911 1121.85 150.34C1103.53 145.676 1084.9 142.402 1066.11 140.546L1067.31 138.027Z" fill="#8B8FA2"/>
<path d="M850.22 207.279C850.968 211.166 851.864 215.075 852.932 218.897C853.099 219.529 853.467 220.086 853.979 220.482C854.485 220.888 855.106 221.116 855.751 221.134C890.964 221.85 911.912 214.489 912.788 214.141C913.484 213.906 914.065 213.409 914.411 212.751C914.776 212.092 914.89 211.319 914.731 210.58C914.205 208.213 913.933 205.796 913.919 203.37C913.926 202.731 913.81 202.096 913.578 201.502C913.092 200.313 912.163 199.368 910.994 198.875C910.418 198.634 909.802 198.508 909.179 198.506C908.916 198.484 908.652 198.484 908.389 198.506C889.996 201.594 871.352 202.867 852.719 202.306C852.216 202.266 851.713 202.371 851.267 202.61C850.819 202.831 850.436 203.168 850.156 203.587C849.865 203.997 849.681 204.475 849.622 204.977C849.556 205.485 849.623 206.001 849.814 206.475C849.918 206.758 850.054 207.028 850.22 207.279ZM907.876 204.825C907.943 206.279 908.086 207.729 908.303 209.168C891.907 213.505 874.994 215.486 858.057 215.053C857.502 212.881 856.989 210.71 856.562 208.538C873.762 208.827 890.954 207.584 907.94 204.825H907.876Z" fill="#8B8FA2"/>
<path d="M913.237 219.396C908.154 221.046 889.341 226.475 859.638 226.475H859.467C859.024 226.486 858.588 226.589 858.186 226.779C857.781 226.972 857.424 227.254 857.139 227.604C856.867 227.965 856.671 228.379 856.563 228.82C856.456 229.263 856.456 229.725 856.563 230.167C857.583 234.005 859.06 237.703 860.962 241.177C861.368 242.045 861.88 243.023 862.029 243.348C862.179 244.075 862.58 244.723 863.161 245.173C863.733 245.622 864.448 245.839 865.169 245.781C883.472 244.502 901.618 241.478 919.365 236.747C919.787 236.616 920.178 236.402 920.518 236.117C921.013 235.686 921.355 235.103 921.494 234.457C921.633 233.81 921.56 233.135 921.287 232.534C919.678 228.875 918.253 225.135 917.016 221.329C916.84 220.702 916.464 220.152 915.949 219.765C915.426 219.382 914.799 219.177 914.155 219.179C913.838 219.195 913.528 219.269 913.237 219.396ZM866.877 239.613L866.279 238.397C865.468 236.79 864.4 234.64 863.567 232.556C879.995 232.497 896.349 230.308 912.233 226.041C912.895 227.908 913.685 229.972 914.368 231.796C898.775 235.718 882.891 238.333 866.877 239.613Z" fill="#8B8FA2"/>
<path d="M795.085 235.727C809.648 242.784 828.205 246.367 850.306 246.367C850.84 246.366 851.366 246.24 851.844 245.998C852.304 245.739 852.699 245.375 852.997 244.934C853.273 244.499 853.428 243.996 853.445 243.479C853.483 242.963 853.387 242.447 853.168 241.981C848.782 229.86 845.173 217.463 842.363 204.868C842.449 204.184 842.314 203.491 841.978 202.892C841.709 202.437 841.326 202.062 840.868 201.806C840.419 201.546 839.911 201.411 839.394 201.415C808.922 201.241 790.131 193.967 789.938 193.902C789.594 193.752 789.223 193.678 788.849 193.684C788.282 193.689 787.728 193.855 787.248 194.162C786.849 194.423 786.513 194.771 786.266 195.183C786.035 195.604 785.897 196.07 785.86 196.551C784.853 209.746 787.611 222.957 793.804 234.597C794.118 235.088 794.562 235.48 795.085 235.727ZM836.725 207.496C837.238 210.254 838.455 214.923 840.761 223.131C842.363 228.712 844.434 235.553 846.036 240.243C827.18 239.809 811.164 236.595 798.501 230.645C793.949 221.433 791.628 211.247 791.732 200.938C806.357 205.232 821.503 207.417 836.725 207.431V207.496Z" fill="#8B8FA2"/>
<path d="M979.648 168.016C982.21 166.713 984.858 165.497 987.485 164.346C992.738 162.044 998.033 160.003 1003.37 158.07C1008.71 156.137 1014.05 154.422 1019.45 152.75L1027.54 150.361L1035.25 148.189C1036.26 146.3 1037.28 144.411 1038.31 142.543C1037.85 142.709 1037.36 142.768 1036.88 142.717C1036.39 142.679 1035.93 142.53 1035.51 142.283C1035.09 142.048 1034.72 141.722 1034.44 141.327C1034.15 140.936 1033.95 140.483 1033.84 140.003C1028.55 114.697 1025.3 88.9935 1024.13 63.1497C1024.09 62.3853 1024.3 61.6292 1024.73 61.0003C1025.16 60.3713 1025.78 59.9053 1026.5 59.6752C1054.07 50.709 1082.27 43.9065 1110.87 39.3274H1111.4C1112.3 39.3232 1113.17 39.6823 1113.82 40.3263C1114.2 40.7055 1114.49 41.1755 1114.65 41.6944C1114.83 42.2096 1114.88 42.7613 1114.8 43.3013C1112.66 59.4797 1110.72 77.8949 1109.25 98.0473L1113.17 98.2861L1116.1 98.5034C1116.23 96.8964 1116.34 95.2893 1116.46 93.6389C1116.54 92.8188 1116.9 92.0513 1117.47 91.4673C1118.04 90.888 1118.8 90.5341 1119.6 90.4684C1130.43 89.6432 1141.13 89.3174 1151.4 89.3174C1174.91 89.3776 1198.4 90.9734 1221.72 94.095C1222.27 94.1807 1222.8 94.3963 1223.26 94.7247C1223.71 95.0654 1224.08 95.515 1224.32 96.0337C1224.57 96.5524 1224.69 97.1246 1224.66 97.6999C1224.64 98.2729 1224.48 98.8311 1224.19 99.3286C1221.12 104.454 1218.56 108.927 1216.72 112.097C1218.36 112.423 1220.01 112.727 1221.63 113.075C1225.8 106.111 1230.07 99.2055 1234.44 92.3577C1239.27 84.844 1244.25 77.4099 1249.39 70.0554C1254.54 62.7154 1259.79 55.4623 1265.28 48.3394C1268.44 44.322 1271.69 40.3697 1274.97 36.4391C1271.54 35.8311 1268.1 35.2664 1264.62 34.7452C1257.4 33.7029 1250.16 32.7908 1242.9 32.0525C1228.38 30.5975 1213.75 29.7506 1199.12 29.4465C1184.5 29.1425 1169.85 29.4467 1155.22 30.2284C1140.59 31.0102 1125.9 32.5303 1111.45 34.5281L1100.55 36.07L1089.73 37.8941C1086.1 38.4587 1082.51 39.2187 1078.92 39.9137L1073.52 40.9777L1070.81 41.5206L1068.14 42.107L1057.46 44.5392C1055.67 44.93 1053.9 45.4078 1052.12 45.8638L1046.78 47.2319C1039.65 48.9692 1032.65 51.1626 1025.6 53.1605C998.481 61.4872 972.043 71.9572 946.527 84.4748L978.559 168.711L979.648 168.016ZM1122.06 40.3045C1122.17 39.5291 1122.54 38.8159 1123.1 38.285C1123.69 37.7276 1124.44 37.3904 1125.24 37.3295C1145.18 35.527 1163.29 34.8539 1179.27 34.8539C1226.42 34.8539 1254.5 40.7823 1254.88 40.8692C1255.47 40.9967 1256.02 41.2816 1256.46 41.6944C1256.91 42.1018 1257.24 42.6277 1257.42 43.2145C1257.58 43.8043 1257.58 44.4272 1257.42 45.017C1257.3 45.6164 1257.02 46.171 1256.61 46.6239C1250.44 53.5296 1245.8 62.0422 1240.89 71.0326C1238.12 76.1142 1235.28 81.3695 1232.07 86.4293C1231.71 86.9998 1231.19 87.451 1230.58 87.7285C1229.97 88.006 1229.3 88.0978 1228.64 87.9928C1203.14 84.2424 1177.42 82.341 1151.65 82.3032C1141.26 82.3032 1131.01 82.6506 1121.18 83.3456C1120.69 83.3817 1120.19 83.3076 1119.73 83.1284C1119.26 82.9433 1118.83 82.6518 1118.48 82.2758C1118.14 81.8998 1117.88 81.449 1117.72 80.9568C1117.55 80.4849 1117.49 79.9808 1117.53 79.4802C1118.83 65.3648 1120.35 52.1614 1122.06 40.3045ZM958.272 86.4076C976.252 78.1338 994.574 70.707 1012.83 64.3008C1013.33 64.1303 1013.87 64.0783 1014.39 64.1487C1014.91 64.2154 1015.41 64.4091 1015.84 64.7134C1016.29 65.015 1016.66 65.416 1016.93 65.886C1017.19 66.3504 1017.34 66.8718 1017.36 67.4061C1019.75 109.036 1024.34 132.749 1026.2 141.023C1026.28 141.468 1026.28 141.925 1026.2 142.369C1026.13 142.825 1025.97 143.261 1025.73 143.651C1025.49 144.039 1025.18 144.377 1024.81 144.65C1024.45 144.914 1024.03 145.098 1023.59 145.193C1010.24 148.556 997.291 153.384 984.965 159.59C984.53 159.826 984.048 159.959 983.555 159.981C983.068 159.999 982.581 159.918 982.125 159.742C981.675 159.563 981.268 159.289 980.929 158.939C980.59 158.578 980.328 158.149 980.16 157.679L956.414 90.7725C956.105 89.9548 956.105 89.0494 956.414 88.2316C956.786 87.4077 957.449 86.7564 958.272 86.4076Z" fill="white"/>
<path d="M1209.5 110.751C1210.89 108.319 1212.94 104.714 1215.53 100.284C1184.83 96.4025 1153.86 95.363 1122.98 97.1787C1122.98 97.7867 1122.87 98.3948 1122.83 99.0029C1132.95 99.8281 1143.06 100.842 1153.15 102.043C1172 104.273 1190.78 107.175 1209.5 110.751Z" fill="white"/>
<path d="M1227.46 80.8047C1230.09 76.4615 1232.5 72.1183 1234.87 67.7751C1238.63 60.4512 1242.91 53.418 1247.69 46.7324C1232.74 44.3002 1189.73 38.806 1128.49 44.1047C1127.14 53.9637 1125.92 64.7349 1124.79 76.2009C1133.53 75.658 1142.56 75.3974 1151.7 75.3974C1177.05 75.4296 1202.36 77.2363 1227.46 80.8047Z" fill="white"/>
<path d="M1052.61 119.112C1055.2 115.333 1057.95 111.62 1060.88 108.037C1063.8 104.373 1067.01 100.953 1070.47 97.8086C1071.05 97.2584 1071.81 96.9485 1072.6 96.9399H1072.73C1079.58 96.9399 1086.23 96.9399 1092.95 97.309C1096.07 97.4176 1099.19 97.5696 1102.28 97.7216C1103.63 79.2848 1105.3 62.2813 1107.26 47.0802C1081.43 51.4409 1055.92 57.6378 1030.94 65.6255C1032.17 88.8593 1035.09 111.969 1039.65 134.769L1043.54 133.466C1044.09 132.532 1044.63 131.599 1045.2 130.665C1047.58 126.756 1050.03 122.847 1052.61 119.112Z" fill="white"/>
<path d="M1018.79 139.199C1014.61 117.155 1011.94 94.8427 1010.8 72.4226C995.152 78.047 979.435 84.4315 963.996 91.4458L985.351 151.621C996.093 146.431 1007.29 142.273 1018.79 139.199Z" fill="white"/>
<path d="M779.967 209.689C780.438 215.368 781.585 220.969 783.384 226.367C785.076 231.455 787.666 236.187 791.029 240.33L792.417 240.916C793.121 241.22 793.826 241.481 794.552 241.807C795.983 242.35 797.413 242.871 798.823 243.349C801.727 244.326 804.674 245.194 807.663 245.976C813.624 247.524 819.662 248.75 825.75 249.646C837.96 251.426 850.309 252.015 862.629 251.405C864.166 251.405 865.704 251.21 867.241 251.123C868.779 251.036 870.316 250.906 871.854 250.732L876.445 250.276L881.015 249.668C882.552 249.472 884.068 249.234 885.585 248.973L890.154 248.191L894.681 247.323L896.945 246.867L899.187 246.345C909.377 243.992 919.407 240.967 929.211 237.29L928.762 236.052C927.972 233.88 927.225 231.513 926.499 229.212C925.09 224.629 923.851 219.96 922.805 215.248C921.751 210.492 920.973 205.678 920.477 200.829C920.242 198.397 920.093 195.943 920.05 193.445V191.534L915.779 192.186C912.619 192.664 909.373 193.098 906.277 193.489C899.87 194.271 893.592 194.922 887.207 195.422C874.395 196.442 861.711 196.985 848.877 196.746C835.966 196.578 823.09 195.344 810.375 193.054C803.857 191.882 797.433 190.22 791.157 188.082C787.507 186.798 783.941 185.283 780.48 183.543V183.651C780.095 186.518 779.839 189.428 779.626 192.338C779.275 198.121 779.39 203.924 779.967 209.689ZM917.039 221.285C917.979 224.391 920.135 229.972 921.31 232.491C921.486 232.89 921.577 233.323 921.577 233.761C921.577 234.199 921.486 234.632 921.31 235.031C921.128 235.435 920.857 235.792 920.52 236.074C920.191 236.363 919.805 236.577 919.388 236.703C901.632 241.42 883.48 244.43 865.17 245.694C864.446 245.745 863.727 245.527 863.15 245.079C862.572 244.632 862.174 243.986 862.031 243.262C861.881 242.871 861.369 241.85 860.963 241.09C859.062 237.616 857.585 233.918 856.564 230.08C856.458 229.638 856.458 229.176 856.564 228.734C856.668 228.291 856.865 227.876 857.141 227.518C857.425 227.167 857.783 226.885 858.187 226.692C858.589 226.503 859.025 226.399 859.469 226.388H859.639C889.343 226.388 908.156 220.96 913.238 219.309C913.533 219.204 913.844 219.153 914.156 219.157C914.804 219.15 915.436 219.358 915.957 219.75C916.477 220.142 916.857 220.696 917.039 221.329V221.285ZM850.158 203.565C850.438 203.146 850.821 202.809 851.269 202.588C851.715 202.349 852.218 202.244 852.721 202.284C871.346 202.84 889.982 201.575 908.369 198.505H909.138C909.768 198.506 910.392 198.631 910.975 198.874C911.547 199.121 912.068 199.475 912.512 199.917C912.954 200.37 913.302 200.909 913.537 201.502C913.776 202.095 913.9 202.729 913.9 203.37C913.897 205.795 914.162 208.214 914.69 210.579C914.846 211.316 914.74 212.086 914.391 212.751C914.034 213.399 913.457 213.893 912.768 214.141C911.914 214.466 890.923 221.828 855.732 221.111C855.093 221.103 854.473 220.887 853.963 220.497C853.452 220.107 853.077 219.561 852.891 218.94C851.845 215.118 850.927 211.209 850.201 207.322C850.055 207.097 849.933 206.857 849.838 206.605C849.641 206.133 849.567 205.617 849.624 205.107C849.679 204.591 849.863 204.097 850.158 203.674V203.565ZM785.84 196.442C785.866 195.96 786.005 195.491 786.245 195.074C786.487 194.658 786.824 194.308 787.228 194.053C787.706 193.743 788.262 193.577 788.829 193.576C789.203 193.57 789.574 193.644 789.918 193.793C790.11 193.793 808.902 201.133 839.374 201.306C839.891 201.304 840.398 201.439 840.848 201.697C841.376 201.99 841.803 202.44 842.071 202.988C842.338 203.536 842.433 204.155 842.342 204.759C842.706 208.603 850.628 236.573 853.148 241.872C853.369 242.338 853.464 242.855 853.425 243.37C853.408 243.888 853.253 244.39 852.977 244.825C852.673 245.261 852.28 245.624 851.824 245.889C851.346 246.131 850.82 246.258 850.286 246.259C828.185 246.259 809.585 242.675 795.043 235.618C794.535 235.357 794.102 234.968 793.783 234.489C787.648 222.866 784.893 209.707 785.84 196.551V196.442Z" fill="white"/>
<path d="M863.567 232.556C864.421 234.728 865.467 236.791 866.279 238.398L866.877 239.614C882.933 238.348 898.86 235.74 914.496 231.818C913.77 229.994 912.98 227.931 912.361 226.063C896.437 230.345 880.038 232.527 863.567 232.556Z" fill="white"/>
<path d="M846.035 240.2C844.434 235.531 842.362 228.691 840.782 223.11C838.412 214.879 837.237 210.232 836.725 207.474C821.505 207.405 806.366 205.213 791.732 200.959C791.63 211.262 793.951 221.44 798.501 230.645C811.164 236.487 827.137 239.788 846.035 240.2Z" fill="white"/>
<path d="M908.369 209.19C908.152 207.751 908.009 206.301 907.942 204.847C890.996 207.588 873.849 208.83 856.692 208.56C857.119 210.732 857.632 212.903 858.187 215.075C875.1 215.457 891.985 213.476 908.369 209.19Z" fill="white"/>
<path d="M1028.83 189.471L1032.88 190.123L1036.94 190.861L1045.05 192.338L1053.13 194.01C1058.51 195.074 1063.8 196.399 1069.21 197.615L1077.17 199.613L1081.19 200.612L1085.14 201.697L1093.08 203.869L1100.98 206.171C1103.63 206.931 1106.23 207.756 1108.86 208.56C1111.49 209.363 1114.11 210.188 1116.7 211.035C1127.14 214.423 1137.5 218.071 1147.77 221.893C1157.53 225.585 1167.21 229.472 1176.81 233.555C1177.72 231.448 1178.75 229.397 1179.88 227.409C1173.51 224.89 1166.81 222.357 1159.79 219.809C1159.3 219.629 1158.85 219.339 1158.49 218.962C1158.12 218.582 1157.85 218.123 1157.68 217.619C1157.51 217.115 1157.46 216.579 1157.53 216.052C1157.59 215.528 1157.78 215.028 1158.08 214.597C1177.6 184.708 1200.61 157.334 1226.61 133.075C1227.02 132.694 1227.52 132.425 1228.06 132.293C1228.59 132.153 1229.15 132.153 1229.68 132.293C1266.67 141.132 1305.15 156.876 1349.63 175.117L1355.82 177.658C1356.29 177.855 1356.71 178.151 1357.06 178.527C1357.4 178.899 1357.66 179.344 1357.81 179.829C1357.97 180.317 1358.02 180.838 1357.96 181.35C1357.89 181.859 1357.71 182.347 1357.44 182.783C1356.01 184.955 1322.27 237.659 1266.97 268.127C1266.42 268.414 1265.81 268.556 1265.19 268.539C1264.59 268.512 1264 268.325 1263.49 267.996C1263.27 267.866 1198.93 234.879 1176.77 223.913C1176.21 224.803 1172.5 230.037 1171.86 231.492C1175.98 233.663 1233.57 260.265 1237.65 262.437C1242.5 264.999 1247.31 267.642 1252.08 270.363C1254.47 271.71 1256.87 273.078 1259.24 274.468L1262.78 276.639L1264.55 277.725L1265.13 278.051C1266.09 277.356 1267.01 276.726 1267.95 276.162L1271.81 273.99C1273.24 273.1 1274.7 272.383 1276.08 271.493L1280.36 268.887C1285.89 265.303 1291.33 261.568 1296.54 257.551C1307.02 249.477 1316.97 240.706 1326.31 231.296C1335.68 221.893 1344.57 212.014 1352.96 201.697C1357.14 196.558 1361.21 191.31 1365.15 185.953C1367.12 183.282 1369.06 180.59 1370.94 177.875L1371.6 176.92C1362.29 172.359 1352.9 167.907 1343.31 163.89C1337.31 161.197 1331.07 158.787 1324.94 156.289C1321.89 155.052 1318.77 153.922 1315.68 152.728C1312.58 151.534 1309.5 150.339 1306.36 149.232L1296.99 145.909C1293.87 144.802 1290.71 143.738 1287.57 142.739L1282.85 141.153L1278.11 139.677L1268.65 136.81C1255.94 133.032 1243.13 129.543 1230.22 126.343C1204.42 120.067 1178.35 114.942 1152.04 111.142C1138.91 109.274 1125.71 107.667 1112.47 106.451C1105.88 105.829 1099.27 105.308 1092.63 104.888C1086.48 104.497 1080.29 104.193 1074.18 104.063C1071.49 106.827 1068.99 109.773 1066.69 112.879C1064.12 116.376 1061.63 120.024 1059.3 123.737C1056.97 127.451 1054.75 131.316 1052.59 135.203C1050.44 139.09 1048.32 143.043 1046.4 147.017C1042.43 154.986 1038.69 163.108 1035.17 171.317C1032.61 177.31 1030.11 183.369 1027.78 189.428L1028.83 189.471ZM1158.23 120.219C1158.55 119.833 1158.94 119.522 1159.38 119.307C1159.83 119.112 1160.31 119.002 1160.79 118.981H1161.29C1178.37 121.501 1195.81 124.714 1213.35 128.536C1213.95 128.675 1214.51 128.975 1214.97 129.405C1215.42 129.839 1215.74 130.386 1215.91 130.99C1216.07 131.602 1216.08 132.248 1215.91 132.859C1215.74 133.471 1215.42 134.026 1214.97 134.465C1202.28 146.795 1190.36 159.923 1179.29 173.771C1178.84 174.328 1178.23 174.729 1177.54 174.919C1176.86 175.11 1176.13 175.08 1175.46 174.835C1169.89 172.663 1154.94 167.386 1136.19 161.805C1135.7 161.661 1135.25 161.401 1134.87 161.045C1134.48 160.703 1134.18 160.271 1133.99 159.786C1133.8 159.311 1133.72 158.8 1133.74 158.287C1133.77 157.762 1133.92 157.251 1134.17 156.789C1141.01 143.837 1149.07 131.59 1158.23 120.219ZM1057.57 141.74C1058.76 139.568 1059.94 137.266 1061.18 134.769C1064.81 127.624 1068.89 119.568 1074.46 113.444C1074.76 113.098 1075.12 112.817 1075.53 112.619C1075.95 112.433 1076.39 112.33 1076.85 112.315C1077.11 112.315 1078.88 112.315 1082.08 112.315C1103.21 112.536 1124.3 114.037 1145.25 116.81C1145.85 116.881 1146.43 117.113 1146.91 117.483C1147.39 117.859 1147.77 118.352 1148 118.916C1148.24 119.484 1148.32 120.107 1148.24 120.719C1148.17 121.331 1147.94 121.912 1147.55 122.391C1139.7 133.04 1132.68 144.294 1126.54 156.051C1126.18 156.76 1125.6 157.32 1124.88 157.636C1124.16 157.953 1123.37 158.014 1122.61 157.81C1102.14 152.473 1081.27 148.842 1060.22 146.952C1059.65 146.891 1059.11 146.69 1058.64 146.365C1058.16 146.037 1057.77 145.597 1057.5 145.084C1057.25 144.573 1057.12 144.007 1057.12 143.434C1057.13 142.84 1057.28 142.258 1057.57 141.74ZM1040.59 179.135C1040.59 179.135 1044.39 170.253 1052.1 153.358C1052.38 152.756 1052.82 152.246 1053.37 151.889C1053.92 151.532 1054.57 151.34 1055.22 151.338H1055.43C1072.52 152.424 1104.25 154.465 1168.61 179.829C1169.1 180.033 1169.55 180.344 1169.91 180.742C1170.3 181.153 1170.58 181.652 1170.75 182.197C1170.87 182.724 1170.87 183.276 1170.75 183.804C1170.64 184.335 1170.41 184.833 1170.08 185.258C1160.92 197.376 1154.24 207.431 1150.25 213.75C1149.83 214.396 1149.21 214.885 1148.49 215.14C1147.78 215.395 1147 215.403 1146.27 215.161C1139.87 212.99 1133.46 210.818 1126.67 208.321C1102.11 199.635 1074.29 189.732 1043.09 183.999C1042.58 183.904 1042.1 183.695 1041.68 183.387C1041.26 183.079 1040.91 182.68 1040.66 182.218C1040.4 181.752 1040.26 181.231 1040.25 180.698C1040.26 180.146 1040.42 179.608 1040.7 179.135H1040.59Z" fill="white"/>
<path d="M1048.77 177.853C1078.77 183.782 1105.42 193.25 1129.11 201.741C1134.98 203.913 1140.57 205.824 1146.19 207.713C1149.86 202.002 1155.2 194.075 1162.14 184.737C1104.48 162.392 1074.38 159.612 1057.51 158.505C1053.3 167.582 1050.46 174.097 1048.77 177.853Z" fill="white"/>
<path d="M1142.17 156.29C1157.12 160.893 1169.19 165.171 1175.47 167.43C1184.94 155.767 1195.01 144.612 1205.62 134.009C1191.03 130.947 1176.45 128.319 1162.23 126.148C1154.73 135.609 1148.02 145.692 1142.17 156.29Z" fill="white"/>
<path d="M1138.71 123.021C1118.77 120.499 1098.7 119.23 1078.6 119.22C1074.18 125.02 1070.4 131.298 1067.33 137.94L1066.05 140.459C1084.86 142.324 1103.51 145.597 1121.85 150.253C1126.94 140.846 1132.57 131.753 1138.71 123.021Z" fill="white"/>
<path d="M938.734 83.78L969.377 179.547V179.764C969.601 180.471 969.956 181.127 970.423 181.697C971.414 182.911 972.837 183.677 974.382 183.828C975.926 183.978 977.466 183.501 978.666 182.501C979.097 182.144 979.546 181.811 980.011 181.502L981.613 180.394C982.723 179.678 983.748 178.983 984.987 178.223C987.272 176.833 989.621 175.486 992.012 174.205C996.796 171.578 1001.73 169.21 1006.73 166.952C1011.72 164.694 1016.83 162.609 1021.95 160.437L1029.81 157.658L1030.45 157.419C1028.89 160.524 1027.33 163.651 1025.82 166.822C1021.87 175.03 1018.09 183.261 1014.56 191.795C1014.42 192.196 1014.32 192.611 1014.26 193.033C1014.15 193.794 1014.19 194.57 1014.38 195.316C1014.57 196.061 1014.9 196.762 1015.35 197.376C1015.81 197.987 1016.37 198.503 1017.02 198.896C1017.67 199.286 1018.4 199.537 1019.15 199.635L1027.14 200.764L1031.09 201.328L1035.08 201.98L1043.05 203.304L1050.99 204.825C1056.29 205.758 1061.54 206.996 1066.82 208.06L1074.72 209.906L1078.65 210.775L1082.57 211.774L1090.43 213.75L1098.25 215.922C1100.81 216.616 1103.44 217.377 1106.04 218.093C1108.65 218.81 1111.23 219.592 1113.82 220.395C1124.15 223.544 1134.4 226.91 1144.65 230.558C1154.43 234.054 1173.8 241.677 1183.45 245.542C1184.33 242.784 1182.38 239.614 1183.45 236.986C1173.84 232.925 1157.44 225.563 1147.7 221.785C1137.41 217.963 1127.08 214.314 1116.63 210.927C1114.07 210.058 1111.4 209.276 1108.8 208.451C1106.19 207.626 1103.57 206.823 1100.92 206.062L1093.02 203.739L1085.07 201.567L1081.1 200.481L1077.11 199.483L1069.12 197.463C1063.76 196.269 1058.44 194.922 1053.04 193.88L1044.99 192.208L1036.88 190.709L1032.82 189.971L1028.74 189.32L1027.69 189.146C1030.02 183.087 1032.52 177.028 1035.08 171.035C1038.61 162.848 1042.34 154.726 1046.32 146.756C1048.3 142.76 1050.37 138.83 1052.51 134.921C1054.64 131.012 1056.78 127.212 1059.19 123.477C1061.61 119.742 1064 116.093 1066.6 112.619C1068.91 109.51 1071.41 106.557 1074.1 103.78C1080.18 103.911 1086.4 104.215 1092.55 104.606C1099.17 105.04 1105.78 105.561 1112.39 106.169C1125.6 107.385 1138.8 108.992 1151.95 110.881C1178.24 114.638 1204.31 119.763 1230.11 126.083C1243.01 129.268 1255.82 132.757 1268.55 136.55L1278.01 139.503L1282.75 140.98L1287.47 142.565C1290.61 143.607 1293.77 144.737 1296.91 145.736L1306.3 149.058C1309.44 150.144 1312.54 151.338 1315.63 152.554C1318.73 153.77 1321.83 154.878 1324.9 156.116C1331.03 158.613 1337.2 161.024 1343.24 163.716C1352.81 167.756 1362.19 172.207 1371.56 176.746L1370.9 177.701C1369.02 180.416 1367.08 183.109 1365.11 185.78C1361.15 191.122 1357.08 196.37 1352.9 201.524C1344.52 211.846 1335.63 221.725 1326.27 231.123C1316.92 240.528 1306.98 249.298 1296.5 257.377C1291.27 261.416 1285.82 265.152 1280.29 268.713L1276.02 271.319C1274.63 272.187 1273.18 272.969 1271.75 273.816L1267.86 275.988C1266.92 276.552 1266.01 277.182 1265.05 277.877L1264.49 277.551L1262.72 276.466L1259.15 274.294C1256.8 272.904 1254.41 271.536 1252.02 270.19C1247.24 267.475 1242.41 264.848 1237.58 262.263C1233.46 260.092 1178.8 234.033 1172.67 232.143C1171.98 234.586 1171.42 237.065 1171 239.57C1174.93 241.481 1230.22 267.041 1234.1 269.017C1238.93 271.471 1243.73 274.012 1248.52 276.596L1255.63 280.527L1259.15 282.546L1260.86 283.545L1261.71 284.066L1262.16 284.327H1262.27L1262.85 284.631C1263.26 284.806 1263.7 284.931 1264.15 285C1266.07 284.349 1268.06 283.588 1270 282.828L1271.45 282.177L1272.18 281.851L1272.75 281.547L1275.04 280.396C1276.56 279.614 1278.11 278.898 1279.59 278.051L1284.07 275.575C1289.99 272.144 1295.82 268.583 1301.41 264.717C1312.63 256.945 1323.33 248.42 1333.44 239.201C1343.56 230.01 1353.21 220.297 1362.36 210.102C1366.93 205.02 1371.38 199.823 1375.72 194.51C1377.9 191.831 1380.04 189.139 1382.13 186.431L1385.27 182.305C1386.32 180.894 1387.3 179.547 1388.39 177.962L1388.51 177.745C1388.71 177.439 1388.89 177.12 1389.05 176.789C1389.44 175.906 1389.67 174.956 1389.71 173.988C1389.73 173.02 1389.58 172.055 1389.26 171.143C1388.58 169.313 1387.23 167.825 1385.48 166.995C1373.2 161.262 1360.88 155.66 1348.28 150.687C1342.05 148.059 1335.68 145.801 1329.39 143.39C1326.2 142.218 1322.98 141.219 1319.84 140.003C1316.7 138.786 1313.43 137.831 1310.27 136.723L1300.64 133.553C1297.44 132.532 1294.24 131.577 1290.99 130.578L1286.16 129.101L1281.3 127.711L1271.58 124.953C1258.58 121.479 1245.51 118.279 1232.37 115.355L1228.76 114.617C1232.76 108.753 1236.88 102.933 1241.04 97.2439C1246.23 90.1066 1251.53 83.0705 1256.95 76.1359C1262.38 69.1868 1267.97 62.4332 1273.72 55.8098C1279.46 49.1865 1285.4 42.7803 1291.57 36.8953L1291.72 36.7216C1292.51 35.8875 1293.07 34.8529 1293.34 33.7247C1293.59 32.5905 1293.56 31.4093 1293.23 30.2936C1292.88 29.2033 1292.25 28.2275 1291.41 27.4648C1290.56 26.7021 1289.53 26.1796 1288.43 25.9504C1286.42 25.5161 1284.63 25.1686 1282.73 24.8429C1280.83 24.5171 1279.01 24.1914 1277.15 23.8874C1273.44 23.2793 1269.72 22.7581 1266.01 22.2587C1258.58 21.3032 1251.06 20.4997 1243.71 19.8917C1228.76 18.6322 1213.82 18.0458 1198.87 18.0024C1183.92 17.959 1168.97 18.5018 1154.15 19.5876C1139.33 20.6734 1124.47 22.4107 1109.72 24.6258L1098.68 26.363L1087.68 28.5346C1084.01 29.1644 1080.38 29.9896 1076.75 30.7062L1071.26 31.8789L1068.52 32.4652L1065.81 33.1384L1054.96 35.7443C1053.13 36.1569 1051.36 36.678 1049.54 37.1775L1044.16 38.6759C1036.94 40.5435 1029.85 43.0191 1022.8 45.0604C994.441 54.2966 966.86 65.8586 940.335 79.6323C939.607 80.0058 939.033 80.6288 938.712 81.3913C938.457 82.1677 938.465 83.0084 938.734 83.78ZM1025.54 53.0953C1032.58 51.0757 1039.61 48.8825 1046.74 47.1669L1052.06 45.7988C1053.85 45.3428 1055.63 44.8433 1057.42 44.4742L1068.1 42.042L1070.79 41.4339L1073.48 40.9127L1078.88 39.8486C1082.47 39.132 1086.06 38.3937 1089.69 37.8073L1100.53 36.0049L1111.4 34.4414C1125.94 32.5304 1140.57 31.0754 1155.14 30.2502C1169.7 29.425 1184.41 29.1643 1199.04 29.4466C1213.67 29.7289 1228.3 30.5976 1242.82 32.0743C1250.09 32.8127 1257.34 33.7102 1264.55 34.7671C1267.97 35.2882 1271.43 35.8529 1274.89 36.461C1271.58 40.3698 1268.33 44.3438 1265.19 48.3613C1259.71 55.4841 1254.52 62.7372 1249.31 70.0772C1244.1 77.4172 1239.23 84.9093 1234.36 92.4013C1229.98 99.2418 1225.69 106.104 1221.55 113.096L1216.64 112.119L1209.5 110.751C1190.81 107.204 1172.03 104.309 1153.15 102.065C1143.07 100.892 1132.95 99.8933 1122.85 99.0463C1120.56 98.8509 1118.28 98.6988 1115.97 98.5468L1113.05 98.3297C1111.74 98.2211 1110.44 98.1777 1109.14 98.0908L1102.28 97.6782L1092.93 97.2439C1086.21 97.005 1079.54 96.8312 1072.71 96.8963H1072.52C1071.72 96.8963 1070.96 97.2074 1070.38 97.765C1066.95 100.953 1063.76 104.409 1060.86 108.102C1057.93 111.685 1055.2 115.398 1052.59 119.177C1049.99 122.956 1047.55 126.821 1045.18 130.73C1044.61 131.664 1044.07 132.597 1043.52 133.531C1041.75 136.528 1039.99 139.547 1038.31 142.565C1037.26 144.433 1036.17 146.322 1035.25 148.211L1027.52 150.383L1019.43 152.772C1014.05 154.444 1008.75 156.159 1003.35 158.092C997.949 160.025 992.674 162.066 987.464 164.368C984.837 165.519 982.232 166.735 979.627 168.038L978.41 168.668L946.379 84.4532C971.911 71.896 998.38 61.4108 1025.54 53.0953Z" fill="black"/>
<path d="M775.889 229.364C778.337 235.407 781.895 240.92 786.374 245.607C786.637 245.893 786.948 246.128 787.292 246.302C788.146 246.737 788.851 247.062 789.619 247.388C790.388 247.714 791.114 248.061 791.883 248.365C793.378 248.995 794.894 249.603 796.41 250.124C799.464 251.253 802.539 252.296 805.635 253.143C811.816 254.938 818.09 256.388 824.427 257.486C837.12 259.687 849.989 260.669 862.864 260.418C864.466 260.418 866.067 260.287 867.69 260.244C869.313 260.2 870.893 260.114 872.516 259.983L877.321 259.636L882.125 259.158C883.727 259.006 885.307 258.789 886.909 258.572L891.692 257.898L896.454 257.095L898.824 256.682L901.195 256.205C913.832 253.688 926.261 250.189 938.372 245.738L938.628 245.629C939.973 245.049 941.038 243.952 941.59 242.577C942.142 241.202 942.137 239.66 941.575 238.289V238.072C941.148 237.203 940.721 236.096 940.251 235.075C939.781 234.054 939.376 232.903 938.927 231.948C938.073 229.776 937.283 227.735 936.514 225.607C934.977 221.264 933.631 216.92 932.457 212.577C931.281 208.25 930.361 203.856 929.702 199.417C929.382 197.246 929.147 195.074 928.998 192.903C928.998 191.817 928.891 190.731 928.891 189.645V187.191C928.762 185.664 928.31 184.182 927.567 182.848C926.655 182.261 925.612 181.917 924.535 181.849H923.296H923.04H922.741L921.609 182.023L919.324 182.37L914.69 183C911.594 183.413 908.498 183.76 905.38 184.086C899.166 184.716 892.931 185.237 886.674 185.606C874.203 186.344 861.69 186.605 849.261 186.127C836.927 185.827 824.637 184.512 812.511 182.197C806.583 180.997 800.752 179.349 795.065 177.267C789.571 175.252 784.354 172.529 779.54 169.167L779.049 168.863C778.097 168.273 776.993 167.985 775.879 168.035C774.764 168.085 773.69 168.472 772.793 169.145C772.182 169.588 771.665 170.15 771.273 170.799C770.88 171.448 770.62 172.171 770.508 172.924C770.358 173.858 770.273 174.596 770.166 175.4L769.91 177.788C769.76 179.352 769.632 180.937 769.547 182.501C769.354 185.65 769.269 188.798 769.29 191.925C769.29 198.246 769.783 204.556 770.764 210.797C771.735 217.172 773.456 223.405 775.889 229.364ZM779.754 192.447C779.925 189.537 780.181 186.648 780.608 183.76C780.597 183.74 780.591 183.718 780.591 183.695C780.591 183.672 780.597 183.65 780.608 183.63C784.061 185.388 787.629 186.905 791.285 188.169C797.559 190.322 803.983 191.991 810.504 193.163C823.249 195.42 836.154 196.618 849.091 196.746C861.903 196.964 874.716 196.442 887.528 195.422C893.934 194.922 900.34 194.271 906.576 193.467C909.758 193.076 912.982 192.642 916.078 192.186L920.349 191.535V193.446C920.349 195.921 920.541 198.397 920.776 200.829C921.282 205.678 922.066 210.493 923.125 215.248C924.172 219.961 925.389 224.608 926.819 229.19C927.524 231.492 928.272 233.772 929.083 236.052L929.531 237.29C919.724 240.958 909.695 243.982 899.508 246.346L897.244 246.867L894.981 247.323L890.453 248.191L885.905 248.951C884.389 249.212 882.873 249.473 881.335 249.646L876.765 250.255L872.153 250.732C870.637 250.906 869.099 251.014 867.562 251.101C866.024 251.188 864.487 251.34 862.949 251.384C850.63 251.989 838.282 251.408 826.071 249.646C819.973 248.751 813.928 247.518 807.963 245.955C804.994 245.173 802.026 244.326 799.143 243.349C797.72 242.842 796.296 242.321 794.873 241.785C794.168 241.503 793.463 241.242 792.737 240.917L791.349 240.309C787.979 236.179 785.388 231.453 783.704 226.367C781.913 220.966 780.759 215.367 780.266 209.689C779.634 203.944 779.463 198.155 779.754 192.381V192.447Z" fill="black"/>
<path d="M1181.42 220.504C1176.57 218.593 1171.53 216.675 1166.3 214.749C1184.64 187.288 1205.99 162.036 1229.94 139.482C1265.9 148.168 1303.59 163.717 1347.13 181.567L1349.37 182.501C1340.83 194.705 1310.27 235.748 1265.49 260.982C1261.57 258.529 1204.08 231.449 1183.9 221.568L1182.9 221.177L1181.44 220.46L1181.42 220.504Z" fill="white"/>
<path d="M1177.81 226.367C1179.01 224.413 1180.18 222.458 1181.36 220.504L1182.87 221.112L1183.84 221.568C1182.38 223.409 1181.06 225.354 1179.89 227.388L1177.81 226.367Z" fill="#8B8FA2"/>
<path d="M1158.49 218.962C1158.12 218.585 1157.84 218.126 1157.68 217.62C1157.52 217.115 1157.47 216.578 1157.55 216.052C1157.62 215.532 1157.8 215.035 1158.08 214.597C1177.59 184.7 1200.6 157.325 1226.61 133.075C1227.03 132.705 1227.53 132.438 1228.06 132.295C1228.6 132.152 1229.16 132.136 1229.71 132.25C1266.69 141.089 1305.13 156.854 1349.63 175.096L1355.84 177.637C1356.31 177.839 1356.73 178.134 1357.08 178.505C1357.42 178.878 1357.68 179.323 1357.83 179.808C1357.98 180.3 1358.02 180.818 1357.96 181.328C1357.9 181.84 1357.72 182.33 1357.45 182.762C1356.04 184.933 1322.32 237.638 1266.97 268.105C1266.43 268.396 1265.82 268.531 1265.22 268.496C1264.6 268.472 1264.01 268.285 1263.49 267.953C1263.27 267.823 1203.7 239.093 1179.89 227.388C1181.06 225.354 1182.38 223.409 1183.84 221.568C1204.02 231.449 1261.5 258.485 1265.43 260.982C1310.27 235.749 1340.85 194.705 1349.31 182.501L1347.07 181.567C1303.53 163.717 1265.92 148.277 1229.88 139.482C1205.93 162.043 1184.58 187.302 1166.24 214.771C1171.47 216.711 1176.51 218.629 1181.36 220.526C1180.19 222.48 1179.01 224.434 1177.81 226.389L1179.95 227.41C1173.57 224.89 1166.87 222.357 1159.86 219.809C1159.34 219.638 1158.87 219.348 1158.49 218.962Z" fill="#8B8FA2"/>
</g>
<defs>
<clipPath id="clip0_101_1986">
<rect width="601" height="304" fill="white"/>
</clipPath>
<clipPath id="clip1_101_1986">
<rect width="601" height="304" fill="white" transform="matrix(-1 0 0 -1 1415 304)"/>
</clipPath>
</defs>
</svg>
