<svg width="186" height="110" viewBox="0 0 186 110" fill="none" xmlns="http://www.w3.org/2000/svg">
<path d="M92.9689 64.5951C139.867 64.5951 178.674 74.4602 185.023 87.2818C185.614 86.0681 185.956 84.8233 185.956 83.5785C185.956 68.9831 144.317 57.1574 93 57.1574C41.6827 57.1574 0.0437775 68.9831 0.0437775 83.5785C0.0437775 84.8544 0.35498 86.0681 0.977385 87.2818C7.26368 74.4602 46.0395 64.5951 92.9689 64.5951Z" fill="#2E333F"/>
<path d="M92.9694 110C143.809 110 185.023 99.843 185.023 87.3135C185.023 74.784 143.809 64.6268 92.9694 64.6268C42.1295 64.6268 0.915688 74.784 0.915688 87.3135C0.915688 99.843 42.1295 110 92.9694 110Z" fill="black"/>
<path d="M55.8115 73.6521C55.9982 73.9011 56.185 74.1811 56.3406 74.4301C56.3406 74.4301 56.3406 74.4301 56.3406 74.4612C56.185 74.15 55.9982 73.9011 55.8115 73.6521C55.8115 73.621 55.8115 73.621 55.8115 73.6521Z" fill="white"/>
<path d="M80.3037 84.0455C80.3971 84.0455 80.4904 84.0455 80.5527 84.0144C81.3929 83.8588 82.2643 83.7032 83.1356 83.5787C82.2643 83.7032 81.424 83.8588 80.5527 84.0144C80.4904 84.0144 80.3971 84.0455 80.3037 84.0455Z" fill="white"/>
<path d="M74.6382 81.9609C74.6382 81.992 74.6693 81.992 74.6693 82.0231C74.7315 82.1476 74.7938 82.2409 74.8249 82.3343C74.856 82.4277 74.9183 82.4899 74.9494 82.5521C74.9805 82.6144 75.0116 82.6766 75.0427 82.7077C75.0739 82.77 75.105 82.8634 75.1361 82.8945C75.1672 82.9567 75.1672 82.9878 75.1672 82.9878C75.1672 82.9878 66.3291 65.9339 59.6071 54.5439C65.3643 64.2534 72.6465 78.102 74.6382 81.9609Z" fill="white"/>
<path d="M61.1629 81.6809C61.443 82.0855 61.692 82.5212 61.9409 82.9568C61.692 82.5523 61.443 82.1166 61.1629 81.6809Z" fill="white"/>
<path d="M79.4926 83.89C79.337 83.89 79.2125 83.8278 79.0881 83.7967C79.2125 83.8278 79.3681 83.8589 79.4926 83.89Z" fill="black"/>
<path d="M54.7226 78.5996C54.1313 77.7904 53.54 77.0124 52.9487 76.2033C53.54 76.9813 54.1313 77.7904 54.7226 78.5996Z" fill="black"/>
<path d="M45.5724 66.8988L43.6741 64.627C43.0517 63.849 42.3982 63.1021 41.7446 62.3553C42.3982 63.1021 43.0206 63.849 43.6741 64.627L45.5724 66.8988Z" fill="black"/>
<path d="M79.1512 76.0783C78.9645 75.6115 78.7777 75.1447 78.5599 74.6779C78.7466 75.1447 78.9645 75.6115 79.1512 76.0783Z" fill="black"/>
<path d="M86.8081 53.0807C91.7251 62.6346 95.6151 71.7218 98.3848 80.3109C95.6463 71.7218 91.7562 62.6346 86.8081 53.0807Z" fill="black"/>
<path d="M37.7002 57.6864C38.416 58.4956 39.1006 59.2736 39.8164 60.0827C39.1006 59.2736 38.3848 58.4956 37.7002 57.6864Z" fill="black"/>
<path d="M135.603 98.0806C135.229 97.7072 134.856 97.3648 134.482 97.0225C130.686 94.1906 126.64 91.7321 122.345 89.7404C121.847 89.5225 121.35 89.3047 120.883 89.0868C119.482 90.9229 115.499 94.035 104.794 92.7902C102.273 92.479 100.063 91.981 98.0716 91.3586C94.0571 90.0827 91.1006 88.2466 89.0467 86.5661C87.4907 85.2902 86.4015 84.1076 85.748 83.2362C84.9077 83.3296 84.0363 83.423 83.1961 83.5474C82.3247 83.6719 81.4845 83.8275 80.6131 83.9831C80.5198 84.0142 80.4264 84.0142 80.3642 84.0142C80.1774 84.0142 79.9907 83.9831 79.804 83.952C79.7106 83.9209 79.6484 83.8898 79.555 83.8586C79.3994 83.8275 79.2749 83.7964 79.1193 83.7342C78.6837 83.5786 78.3413 83.2362 78.1857 82.7694L78.1546 82.7072C77.999 82.2715 77.8434 81.8358 77.6878 81.369C77.5322 80.9022 77.3455 80.4665 77.1588 79.9997C76.7853 79.0972 76.4119 78.1948 76.0073 77.2923C75.2293 75.4873 74.3891 73.7134 73.5177 71.9396L72.1795 69.2944C71.7438 68.423 71.2459 67.5516 70.7791 66.6803C69.8455 64.9375 68.8497 63.257 67.8227 61.5454C63.7771 54.7612 59.358 48.1948 54.5966 41.8774C53.414 40.2903 52.2314 38.7031 50.9866 37.1783L47.2833 32.5725C44.7003 29.5538 42.2107 26.504 39.5033 23.5787L37.5116 21.3692L36.5157 20.28L36.0178 19.7198C35.9555 19.6575 35.8933 19.5953 35.8311 19.5019C35.7688 19.4397 35.6755 19.3463 35.6132 19.2841C34.3373 18.0393 32.9058 16.9812 31.3497 16.141C29.8871 15.3007 28.2688 14.7405 26.5883 14.4916C26.4016 14.4605 26.1838 14.4293 25.9971 14.4293C25.4058 14.3671 24.8145 14.3982 24.2232 14.4605C23.8186 14.4916 23.4452 14.5538 23.0406 14.6472C22.6672 14.7405 22.2626 14.8339 21.8892 14.9895C21.5157 15.1451 21.1423 15.3007 20.7689 15.4874C20.3954 15.6742 20.0531 15.8609 19.7108 16.0787C19.3684 16.2966 19.0572 16.5144 18.746 16.7634C18.4348 17.0123 18.1547 17.2613 17.8747 17.5414C17.7502 17.6658 17.6257 17.7903 17.5323 17.9148C17.0655 18.475 16.6921 19.0974 16.4431 19.7509C16.2564 20.2488 16.1319 20.7779 16.0386 21.338C15.6651 24.2633 17.1589 27.8111 19.3062 30.4874C19.5863 30.8297 19.8664 31.1409 20.1464 31.421L21.2045 32.4791L23.2896 34.6575C24.69 36.1202 26.0593 37.5828 27.4286 39.0455C30.1672 41.9708 32.8746 44.9272 35.5199 47.977C38.1651 50.9956 40.7792 54.0454 43.3622 57.1263C43.9846 57.9043 44.6381 58.6823 45.2605 59.4604C45.8829 60.2384 46.5364 61.0164 47.1277 61.8255L48.9949 64.1906L50.831 66.5869C51.4534 67.3649 52.0758 68.2051 52.636 68.9832L54.4099 71.4417C54.9078 72.1263 55.4057 72.8421 55.9036 73.5578C56.0903 73.8379 56.2771 74.0869 56.4638 74.367C56.9306 75.0516 57.3974 75.7051 57.8642 76.3898L58.7356 77.6346L59.5758 78.9105L61.2252 81.4624C61.2563 81.5246 61.2874 81.5557 61.3186 81.618C61.5986 82.0537 61.8476 82.4582 62.0966 82.8939C62.3144 83.2674 62.5322 83.6719 62.7812 84.0454L64.2127 86.5039L64.3061 86.6595C64.3061 86.6906 64.3061 86.6906 64.3372 86.7217C64.3995 86.8151 64.4306 86.9395 64.4617 87.0329C64.4617 87.064 64.4928 87.0951 64.4928 87.1263C64.5239 87.2507 64.5239 87.3752 64.5239 87.4997C64.5239 87.4997 64.5239 87.4997 64.5239 87.5308C64.4928 88.0599 64.2127 88.5578 63.7459 88.8379C63.6837 88.869 63.6526 88.869 63.5903 88.9001C63.5281 88.9312 63.497 88.9312 63.4347 88.9624C63.3725 88.9935 63.2791 88.9935 63.2169 89.0246C63.1546 89.0246 63.1235 89.0246 63.0613 89.0246C62.999 89.0246 62.9368 89.0557 62.8434 89.0557C58.6111 90.7051 54.6588 93.0391 51.1734 95.9022L51.1422 95.9333C49.3373 97.3648 47.6568 98.952 46.0696 100.632C45.5406 101.193 45.0427 101.784 44.5447 102.375C50.2397 103.309 56.3082 104.056 62.6567 104.616C71.4015 105.394 80.7376 105.798 90.3849 105.798C108.31 105.798 125.022 104.367 139.213 101.877C138.03 100.57 136.847 99.2943 135.603 98.0806ZM53.0717 62.9147C52.7605 62.5101 52.4493 62.0745 52.1381 61.6699C48.7771 57.1886 45.7273 53.2985 43.8912 51.1201C41.7128 48.5683 41.4016 46.5766 41.8061 45.145C42.3974 43.0289 44.4825 42.0641 44.4825 42.0641C44.4825 42.0641 46.163 40.7571 48.8704 41.7529C50.302 42.282 52.0447 43.4645 53.9431 45.8297C55.3123 47.5413 57.3352 50.7156 59.5758 54.5122C66.3289 65.9022 75.1359 82.9561 75.1359 82.9561L67.7916 85.1346C67.7916 85.1346 67.7916 85.1034 67.7604 85.1034C65.9866 80.9333 59.2024 71.1927 53.0717 62.9147Z" fill="white"/>
<path d="M109.617 82.1472C108.279 81.8049 106.94 81.5248 105.571 81.2758V81.3069C105.633 81.5559 105.664 81.7737 105.696 81.9916L112.698 83.5165C112.698 83.5165 112.698 83.3298 112.667 82.9563C111.671 82.6762 110.644 82.3961 109.617 82.1472Z" fill="#F7C1C7"/>
<path d="M91.289 30.7364C84.2247 33.0081 89.8263 41.5662 89.8263 41.5662C89.8263 41.5662 103.208 70.0724 105.604 81.2757C106.942 81.5246 108.312 81.8047 109.65 82.147C110.677 82.396 111.704 82.6761 112.7 82.9562C112.42 79.1906 110.552 57.3131 102.959 39.699C102.461 38.5164 101.932 37.365 101.372 36.2446C101.372 36.2446 100.532 34.0662 98.6645 32.3235C98.3533 32.0123 97.9798 31.7322 97.5753 31.4832C97.3263 31.2965 97.0462 31.1409 96.7661 31.0164C96.486 30.8608 96.1748 30.7364 95.8636 30.643C95.5524 30.5496 95.2101 30.4563 94.8678 30.394C93.7786 30.2384 92.596 30.3007 91.289 30.7364Z" fill="#F7C1C7"/>
<path d="M43.8919 51.1205C49.2446 57.3757 64.898 78.413 67.7922 85.1038C67.7922 85.1038 67.7922 85.135 67.8234 85.135L75.1677 82.9565C75.1677 82.9565 75.1677 82.9254 75.1366 82.8632C75.1055 82.8321 75.0744 82.7698 75.0433 82.6765C75.0121 82.6142 74.981 82.5831 74.9499 82.5209C74.9188 82.4586 74.8877 82.3652 74.8254 82.303C74.7632 82.2096 74.7321 82.1163 74.6698 81.9918C74.6698 81.9607 74.6387 81.9607 74.6387 81.9296C71.8379 76.5458 58.8607 51.8985 53.9437 45.8612C52.0143 43.496 50.3026 42.3135 48.8711 41.7844C46.1637 40.7886 44.4832 42.0956 44.4832 42.0956C44.4832 42.0956 42.3981 43.0604 41.8068 45.1765C41.4023 46.6081 41.7135 48.5686 43.8919 51.1205Z" fill="#F7C1C7"/>
<path d="M153.249 92.6038C152.875 91.8258 151.91 91.4834 151.132 91.8569C151.101 91.8569 151.101 91.888 151.07 91.888C145.655 94.6888 142.45 97.1784 140.8 98.6722C139.493 97.2096 138.093 95.8403 136.599 94.5643H136.568L136.475 94.5021C132.429 91.5768 128.134 89.0872 123.591 87.0332C123.249 86.8776 122.875 86.722 122.502 86.5664C121.817 86.2552 121.132 85.9752 120.448 85.6951C119.701 85.3839 118.954 85.1038 118.207 84.8237C118.207 84.7303 118.207 84.5747 118.207 84.4191C118.207 84.3258 118.207 84.2635 118.207 84.1702C118.176 81.4316 117.834 73.0602 115.593 61.5146C115.033 58.7138 114.348 55.5707 113.477 52.2097C113.228 51.2449 112.979 50.2802 112.699 49.2532C112.419 48.2574 112.139 47.2304 111.827 46.2035C111.205 44.1495 110.52 42.0022 109.774 39.8238C109.4 38.7346 108.996 37.6143 108.591 36.4939C106.724 31.4525 104.483 26.1931 101.776 20.8404C101.184 19.6579 100.562 18.4442 99.9084 17.2616C98.6325 14.8654 97.2321 12.4691 95.7383 10.0728L95.6761 9.97948C94.9914 9.01475 94.12 7.95666 93.0931 6.86745C88.6429 2.23053 81.1118 -2.53087 73.5496 1.54589C69.8151 3.53759 67.45 6.33841 66.5475 9.855C64.8981 16.2035 68.5703 22.6143 69.7218 24.4193C69.9396 24.7927 70.3131 25.3218 70.7487 25.9753C76.9728 35.3425 82.3255 44.3985 86.8068 53.081C91.7238 62.635 95.6138 71.7221 98.3835 80.3113C97.201 80.2179 96.0495 80.1245 94.8669 80.0934C93.6844 80.0623 92.5018 80.0312 91.3504 80.0312C87.8338 80.0312 84.2861 80.2179 80.7695 80.5913C80.5827 80.0312 80.396 79.5021 80.2093 78.9731C79.9292 78.2573 79.6803 77.5416 79.4002 76.8258C79.3068 76.5768 79.2134 76.359 79.1201 76.11C78.9334 75.6432 78.7466 75.1764 78.5288 74.7096C77.9375 73.3092 77.3462 71.9088 76.7238 70.5084L75.479 67.7076C75.0433 66.8051 74.5765 65.9026 74.1408 65.0001C73.2384 63.1951 72.2736 61.4213 71.3089 59.6474C70.811 58.776 70.3131 57.8736 69.8151 57.0022C66.2985 50.8715 62.4396 44.9586 58.2695 39.2325C57.0869 37.5831 55.9355 35.9338 54.6596 34.3778C53.4148 32.7906 52.2011 31.1724 50.9562 29.5852C50.3027 28.8072 49.6803 28.0292 49.0268 27.2512C47.7509 25.6952 46.4438 24.1392 45.1368 22.6143C44.4832 21.8674 43.8297 21.0894 43.1451 20.3425L41.1845 18.1019L40.1886 16.9504L39.6907 16.3903C39.4729 16.1413 39.255 15.9546 39.0683 15.7367C37.8857 14.5853 36.5787 13.5272 35.1783 12.6247C34.7115 12.3135 34.2447 12.0334 33.7467 11.7533C33.4978 11.5977 33.2488 11.4733 32.9687 11.3488C31.1638 10.4152 29.2343 9.79276 27.2426 9.48155C25.4376 9.23259 23.6327 9.29483 21.8588 9.66828C21.5787 9.73052 21.2675 9.79276 20.9874 9.88612C20.7074 9.97948 20.3962 10.0728 20.1161 10.1662C18.9957 10.5708 17.9065 11.0998 16.9107 11.7222C16.1327 12.189 15.4169 12.7492 14.7323 13.3405C14.5144 13.5272 14.2966 13.745 14.0787 13.9629C13.6431 14.4297 13.2385 14.8965 12.8651 15.4255C12.4916 15.9546 12.1804 16.4836 11.9003 17.0749C11.7758 17.355 11.6202 17.6662 11.5269 17.9463C11.309 18.5375 11.1223 19.16 10.9978 19.7824C10.9356 20.0936 10.8734 20.4048 10.8422 20.716C10.7489 21.6185 10.7489 22.5209 10.8111 23.4234C10.9356 24.9172 11.2779 26.3799 11.8381 27.7803C12.6472 29.8964 13.7987 31.8881 15.2302 33.6309C15.6036 34.0977 15.9771 34.5022 16.4128 34.9379L17.4709 35.996L19.5559 38.1122C20.9563 39.5437 22.3256 40.9441 23.6949 42.4068C25.0642 43.8383 26.4335 45.301 27.8028 46.7325C29.1721 48.1952 30.5102 49.6578 31.8484 51.0893C33.809 53.2366 35.7384 55.4151 37.6679 57.5935C38.3837 58.4026 39.0683 59.1806 39.7841 59.9897C40.4376 60.7366 41.0911 61.4835 41.7447 62.2304C42.3982 62.9773 43.0206 63.7242 43.6741 64.5022L45.5724 66.7739L47.4397 69.0769L49.3069 71.3797L50.2094 72.5623L51.1119 73.7449C51.7343 74.5229 52.3255 75.3009 52.9168 76.11C53.5081 76.888 54.0994 77.6972 54.6907 78.5063L55.562 79.6889L56.4334 80.9025L58.1139 83.3299C58.394 83.7345 58.6741 84.1391 58.9542 84.5436C59.2342 84.9482 59.4832 85.3839 59.7633 85.7884L60.2301 86.4731C56.3089 88.4337 52.5123 90.7366 48.9334 93.2884C46.9417 94.7199 45.0434 96.3071 43.3007 98.0187C42.1181 99.139 40.9978 100.322 39.9397 101.566C41.4023 101.846 42.8961 102.095 44.3899 102.344C44.8878 101.753 45.3857 101.193 45.9148 100.602C47.5019 98.9212 49.1824 97.3652 50.9874 95.9025L51.0185 95.8714C54.5351 92.9772 58.4562 90.6743 62.6886 89.0249C62.7508 89.0249 62.8131 89.0249 62.9064 89.0249C62.9687 89.0249 62.9998 89.0249 63.062 89.0249C63.1243 89.0249 63.2176 88.9938 63.2799 88.9627C63.3421 88.9316 63.3732 88.9316 63.4355 88.9005C63.9645 88.6515 64.338 88.1536 64.3691 87.5312C64.3691 87.5312 64.3691 87.5312 64.3691 87.5C64.3691 87.3756 64.3691 87.2511 64.338 87.1266C64.338 87.0955 64.338 87.0644 64.3068 87.0332C64.2757 86.9088 64.2446 86.8154 64.1824 86.722C64.1824 86.6909 64.1824 86.6909 64.1512 86.6598L64.0579 86.5042L62.6263 84.0457C62.4085 83.6723 62.1907 83.2677 61.9417 82.8942C61.6927 82.4586 61.4438 82.0229 61.1637 81.6183C61.1326 81.5561 61.1015 81.525 61.0703 81.4627L59.421 78.9109L58.5807 77.6349L57.7094 76.3901C57.2425 75.7055 56.7757 75.0519 56.3089 74.3673C56.3089 74.3673 56.3089 74.3673 56.3089 74.3362C56.2156 74.1806 56.0911 74.025 55.9977 73.8694C55.9355 73.7449 55.8421 73.6515 55.7799 73.5582C55.282 72.8424 54.784 72.1266 54.2861 71.442L52.5123 68.9835C51.921 68.1744 51.2986 67.3652 50.7073 66.5872L48.8712 64.191L47.004 61.8258C46.3816 61.0478 45.7592 60.2387 45.1368 59.4607C44.5144 58.6827 43.8608 57.9047 43.2384 57.1267C40.6866 54.0146 38.0413 50.996 35.3961 47.9773C32.7509 44.9586 30.0434 42.0022 27.3049 39.0458C25.9356 37.5831 24.5663 36.1205 23.1659 34.6578L21.0808 32.4794L20.0227 31.4213C19.7426 31.1101 19.4626 30.7989 19.1825 30.4877C17.0352 27.8114 15.5725 24.2948 15.9148 21.3384C15.9771 20.8093 16.1016 20.2803 16.3194 19.7512C16.5684 19.0666 16.9418 18.4442 17.4086 17.9151C17.5331 17.7907 17.6265 17.6662 17.7509 17.5417C18.031 17.2616 18.3111 17.0127 18.6223 16.7637C18.9335 16.5147 19.2447 16.2969 19.587 16.079C19.9294 15.8612 20.3028 15.6745 20.6451 15.4878C21.0186 15.301 21.392 15.1454 21.7654 14.9898C22.1389 14.8654 22.5123 14.7409 22.9169 14.6475C23.2903 14.5542 23.6949 14.4919 24.0995 14.4608C24.6908 14.3986 25.282 14.3986 25.8733 14.4297C26.06 14.4608 26.2779 14.4608 26.4646 14.4919C28.1451 14.7409 29.7322 15.3322 31.226 16.1413C32.782 17.0127 34.2136 18.0707 35.4895 19.2844C35.5517 19.3467 35.6451 19.44 35.7073 19.5023C35.7696 19.5645 35.8629 19.6579 35.894 19.7201L36.392 20.2803L37.3878 21.3695L39.3795 23.579C42.087 26.5043 44.5766 29.5541 47.1596 32.5728L50.8629 37.1786C52.1077 38.7035 53.2903 40.2906 54.4728 41.8777C59.2342 48.1952 63.6533 54.7615 67.699 61.5457C68.6948 63.2574 69.7218 64.9379 70.6554 66.6806C71.1222 67.552 71.6201 68.3922 72.0558 69.2947L73.394 71.9399C74.2653 73.7138 75.1056 75.4876 75.8836 77.2926C76.2881 78.1951 76.6616 79.0976 77.035 80.0001C77.2218 80.4357 77.4085 80.9025 77.5641 81.3694C77.7197 81.8362 77.8753 82.2718 78.0309 82.7075L78.062 82.7698C78.2176 83.2054 78.5599 83.5478 78.9956 83.7345C79.1201 83.7967 79.2446 83.8279 79.4002 83.8279C79.4002 83.8279 79.4002 83.8279 79.4313 83.8279C79.5247 83.859 79.5869 83.8901 79.6803 83.9212C79.9292 83.9835 80.2093 84.0146 80.4583 83.9523C81.2985 83.7967 82.1699 83.6411 83.0412 83.5167C83.9126 83.3922 84.7529 83.2988 85.6242 83.2055C85.6242 83.2055 85.6242 83.2054 85.6242 83.2366C86.2777 84.0768 87.367 85.2905 88.923 86.5664C91.008 88.2469 93.9333 90.083 97.9478 91.359C99.9084 91.9814 102.118 92.4793 104.608 92.7905C115.344 94.0353 119.327 90.9233 120.697 89.0872C120.697 89.0872 120.728 89.0872 120.728 89.1183C121.226 89.3361 121.724 89.554 122.191 89.7718C126.485 91.7635 130.562 94.1909 134.327 97.054C134.701 97.3963 135.074 97.7386 135.448 98.0809C136.693 99.2946 137.875 100.571 138.964 101.94C140.271 101.722 141.578 101.473 142.823 101.224C142.792 101.193 142.761 101.131 142.73 101.1C144.161 99.8237 147.149 97.4274 152.377 94.7511C153.311 94.3465 153.622 93.4129 153.249 92.6038ZM112.699 83.5167L105.697 81.9918C105.666 81.7739 105.603 81.5561 105.572 81.3071V81.276C105.23 79.6889 104.67 77.7905 103.985 75.6432C103.736 74.9275 103.487 74.2117 103.238 73.4337C103.052 72.9358 102.865 72.4067 102.678 71.9088C102.585 71.6598 102.491 71.3797 102.398 71.1308C102.118 70.3528 101.807 69.5437 101.496 68.7345C100.469 66.0271 99.3171 63.2262 98.1657 60.4565C97.481 58.8072 96.7964 57.1889 96.1117 55.6329C95.4271 54.0769 94.7736 52.5831 94.1512 51.1827C91.6616 45.5811 89.7943 41.5665 89.7943 41.5665C89.7943 41.5665 84.1927 32.9773 91.257 30.7367C92.3462 30.3944 93.3732 30.2699 94.2757 30.3321C94.4624 30.3321 94.6491 30.3632 94.8047 30.3944C95.147 30.4566 95.4893 30.5189 95.8005 30.6433C96.1117 30.7367 96.423 30.8612 96.703 31.0168C96.9831 31.1724 97.2632 31.328 97.5122 31.4836C97.9167 31.7325 98.259 32.0437 98.6014 32.3238C100.437 34.0354 101.309 36.245 101.309 36.245C101.869 37.3653 102.398 38.5168 102.896 39.6993C110.489 57.3134 112.357 79.1909 112.637 82.9565C112.699 83.3299 112.699 83.5167 112.699 83.5167Z" fill="black"/>
</svg>
