<svg width="254" height="197" viewBox="0 0 254 197" fill="none" xmlns="http://www.w3.org/2000/svg">
<g clip-path="url(#clip0_101_3696)">
<path d="M70.1828 189.772C70.1828 189.772 146.783 207.461 187.165 184.604C187.165 184.604 181.53 159.465 171.223 155.812L158.288 159.557C158.288 159.557 151.301 155.771 148.104 157.163C144.908 158.554 143.694 166.112 141.532 166.695C139.37 167.279 125.242 165.529 125.242 165.529L126.574 172.221L111.103 169.407L110.007 162.423L89.3571 157.818V175.246L93.7064 181.693L81.0379 173.721L82.3288 165.263C82.3288 165.263 79.9314 152.731 65.4238 159.578C50.9163 166.424 70.1828 189.772 70.1828 189.772Z" fill="white"/>
<path d="M152.669 0.326294L157.238 0.720293C171.469 5.32545 168.293 21.116 161.485 30.5003C155.338 39.0198 147.556 45.9532 140.482 53.6284L131.573 64.2152L123.623 75.2317C123.346 75.6206 123.443 75.7997 123.92 75.7741C129.36 75.4928 134.814 75.743 140.205 76.5212C140.327 76.5379 140.451 76.5227 140.565 76.4769C140.679 76.4312 140.779 76.3565 140.856 76.2602L145.517 70.294L155.358 59.0932C163.247 50.6753 172.004 43.1133 181.484 36.5331C190.249 30.3929 205.32 22.1547 216.165 27.2767C220.299 29.2313 223.967 33.463 224.074 38.2216C224.259 46.3113 215.98 51.9348 209.92 55.5472C201.765 60.4151 193.874 65.1908 186.248 69.8744L177.473 75.4057L165.127 82.9172C165.063 82.9575 165.017 83.0207 164.998 83.0939C164.978 83.1671 164.988 83.2449 165.025 83.3112C165.059 83.3622 165.107 83.4028 165.163 83.4289C168.705 84.9619 172.102 86.8115 175.311 88.9551C179.097 91.6606 182.553 94.7999 185.608 98.3087C187.59 100.933 189.306 103.747 190.73 106.711L191.919 109.55C191.967 109.662 192.058 109.751 192.171 109.796C192.284 109.842 192.41 109.842 192.523 109.796H192.554C193.963 109.08 197.805 107.289 199.275 108.2C200.423 108.906 200.259 110.18 198.973 110.702C197.176 111.439 195.404 112.078 193.655 112.62C193.493 112.67 193.355 112.777 193.265 112.921C193.176 113.065 193.142 113.236 193.169 113.403L194.065 119.032C194.067 119.067 194.076 119.101 194.092 119.133C194.108 119.164 194.131 119.191 194.159 119.212C194.187 119.234 194.219 119.249 194.253 119.257C194.287 119.264 194.323 119.265 194.357 119.257C196.406 119.047 199.178 118.576 201.048 119.677C201.291 119.819 201.468 120.051 201.54 120.324C201.612 120.596 201.573 120.886 201.432 121.13C201.384 121.211 201.325 121.285 201.258 121.35C200.146 122.445 196.258 122.373 194.7 122.486C194.546 122.499 194.401 122.568 194.294 122.68C194.186 122.792 194.123 122.94 194.116 123.095C193.64 136.782 186.883 147.297 175.798 154.983C175.749 155.017 175.716 155.068 175.704 155.127C175.693 155.185 175.704 155.245 175.736 155.295L175.762 155.326C178.772 158.48 181.352 162.017 183.436 165.846C183.522 166.002 183.663 166.12 183.832 166.176C184.001 166.233 184.185 166.225 184.347 166.153C186.745 165.083 189.147 164.981 191.944 165.043C195.892 165.1 199.74 166.29 203.03 168.471C206.387 170.648 208.859 173.947 210.002 177.778C207.91 179.957 205.378 181.666 202.574 182.793C198.117 184.599 192.18 184.886 187.17 184.609C187.036 184.601 186.908 184.552 186.802 184.469C186.697 184.386 186.62 184.272 186.581 184.144C183.696 174.377 178.903 165.278 172.478 157.372C172.454 157.336 172.424 157.305 172.387 157.281C172.351 157.257 172.311 157.241 172.268 157.233C172.225 157.225 172.181 157.226 172.139 157.236C172.097 157.246 172.057 157.265 172.022 157.291C168.953 159.107 165.705 160.604 162.33 161.758C162.135 161.824 162.094 161.942 162.197 162.116C164.038 165.104 164.073 168.109 162.304 171.132C162.284 171.162 162.27 171.196 162.263 171.231C162.256 171.267 162.256 171.304 162.263 171.339C162.27 171.375 162.284 171.409 162.305 171.439C162.325 171.469 162.351 171.495 162.381 171.515C165.305 173.763 168.784 175.177 172.447 175.609C172.763 175.614 173.072 175.703 173.342 175.867C173.612 176.03 173.834 176.263 173.984 176.54C174.092 176.761 174.108 177.016 174.029 177.249C173.949 177.482 173.78 177.674 173.559 177.783C173.435 177.846 173.298 177.879 173.159 177.881C168.221 177.957 164.364 176.591 159.815 174.979C159.625 174.913 159.422 174.889 159.221 174.911C159.021 174.934 158.828 175.001 158.657 175.107C157.366 175.911 153.586 178.106 152.576 175.921C151.142 172.815 163.908 170.292 157.889 163.241C154.139 158.861 147.741 158.708 144.057 163.364C140.446 167.934 141.086 174.621 143.642 179.482C145.789 183.576 148.494 185.996 150.983 189.383C151.021 189.435 151.048 189.493 151.063 189.555C151.078 189.617 151.081 189.681 151.071 189.743C151.061 189.806 151.038 189.867 151.005 189.921C150.971 189.975 150.927 190.022 150.876 190.059C150.812 190.105 150.738 190.135 150.66 190.146L146.695 190.734C146.609 190.749 146.521 190.742 146.439 190.714C146.356 190.685 146.282 190.636 146.224 190.57C139.934 183.99 136.066 176.243 137.685 166.905C137.715 166.726 137.644 166.639 137.459 166.649L127.634 167.161C127.49 167.161 127.429 167.243 127.455 167.386C127.66 168.424 127.927 169.45 128.254 170.456C128.981 172.672 125.718 173.393 124.197 173.194C119.566 172.576 114.907 172.194 110.237 172.048C109.749 172.033 109.267 171.932 108.813 171.751C108.745 171.726 108.686 171.683 108.642 171.626C108.599 171.569 108.573 171.5 108.567 171.428L107.942 165.043C107.93 164.895 107.869 164.755 107.771 164.644C107.672 164.534 107.54 164.458 107.394 164.429C102.454 163.415 97.6578 161.799 93.1119 159.619C92.9223 159.532 92.8199 159.588 92.8097 159.798C92.4928 164.82 91.8925 169.82 91.0116 174.775C90.99 174.902 91.0085 175.033 91.0644 175.149C91.1204 175.266 91.2111 175.362 91.3241 175.425C92.7584 176.187 99.3053 179.984 95.581 181.877C95.1302 182.107 94.5104 182.051 93.7215 181.703C89.2385 179.73 85.1028 177.048 81.4731 173.762C81.4195 173.705 81.3467 173.671 81.269 173.665C81.1913 173.659 81.1143 173.683 81.053 173.731C78.4201 175.548 75.277 176.481 72.078 176.397C70.8588 176.376 70.2287 175.865 70.1877 174.862C70.1757 174.561 70.2574 174.263 70.4216 174.01C70.5858 173.757 70.8245 173.561 71.1047 173.45C72.6449 172.835 74.2074 172.256 75.792 171.71C79.9977 170.262 82.6411 166.593 79.3113 162.499C75.4744 157.802 67.7493 158.559 64.6347 163.656C62.391 167.33 62.8418 172.6 63.9483 176.376C65.3102 181.047 67.5475 185.418 70.5412 189.255C70.5676 189.289 70.5871 189.326 70.5985 189.367C70.61 189.408 70.6132 189.45 70.6079 189.492C70.6027 189.534 70.5891 189.575 70.5679 189.611C70.5468 189.648 70.5186 189.68 70.4849 189.706C70.4453 189.738 70.3987 189.76 70.3488 189.771C70.299 189.782 70.2473 189.78 70.198 189.767L65.2546 188.432C62.2185 184.079 60.3129 179.677 59.5376 175.225C58.1647 168.425 59.2251 161.138 65.5158 157.239C70.1263 154.374 76.8319 154.625 81.1504 158.426C84.6953 161.548 86.355 166.358 83.6502 170.645C83.5672 170.777 83.5394 170.937 83.573 171.089C83.6065 171.241 83.6987 171.374 83.8295 171.459H83.8756L87.0107 173.096C87.0543 173.122 87.1026 173.138 87.1528 173.144C87.2029 173.149 87.2536 173.145 87.3018 173.13C87.35 173.115 87.3945 173.09 87.4326 173.057C87.4707 173.024 87.5015 172.983 87.523 172.938C87.5425 172.901 87.5547 172.861 87.5589 172.82L89.3877 157.771C89.4001 157.711 89.3917 157.649 89.3638 157.594C89.3359 157.539 89.2901 157.495 89.234 157.47C71.1867 147.461 62.9442 126.769 69.4552 107.105C69.488 107.027 69.4905 106.939 69.462 106.86C69.4336 106.78 69.3763 106.714 69.3015 106.675L66.2279 104.654C64.6841 103.369 63.3196 101.884 62.1707 100.238C62.0289 100.064 61.927 99.861 61.8721 99.6436C61.8172 99.4261 61.8107 99.1992 61.8531 98.979C61.8819 98.8593 61.9341 98.7465 62.0066 98.6471C62.0792 98.5476 62.1706 98.4633 62.2758 98.3992C62.3809 98.335 62.4977 98.2922 62.6194 98.2732C62.7412 98.2541 62.8654 98.2592 62.9852 98.2882C63.1059 98.3177 63.2192 98.3717 63.3182 98.4468L68.4102 102.218L70.4593 103.804C70.6334 103.937 70.7666 103.907 70.8639 103.712L72.8669 99.8386C72.9051 99.7675 72.9225 99.687 72.9171 99.6065C72.9116 99.526 72.8836 99.4486 72.8362 99.3832L70.7461 96.4564C69.6533 94.6689 68.528 92.6887 67.3702 90.5157C66.7043 89.257 66.5557 87.8345 68.3026 87.4456C68.3861 87.4273 68.4732 87.4351 68.5521 87.4681C68.6309 87.5011 68.6976 87.5575 68.7431 87.6298L71.5299 92.1224L74.3832 96.8043C74.4085 96.8464 74.4418 96.883 74.4814 96.912C74.5209 96.941 74.5658 96.9618 74.6135 96.9732C74.6613 96.9846 74.7108 96.9865 74.7592 96.9786C74.8076 96.9706 74.8539 96.9532 74.8955 96.9271C74.9251 96.906 74.9526 96.882 74.9775 96.8555L79.8441 91.3703C82.768 88.8392 85.8891 86.5448 89.1776 84.5086L96.79 80.9575C96.8703 80.9236 96.9398 80.8685 96.9913 80.7982C97.0427 80.728 97.074 80.6451 97.082 80.5584L98.1065 73.1389C99.2769 67.4027 100.773 61.7377 102.589 56.1715L104.054 52.2725L105.642 48.3018L108.885 41.2201L115.032 30.091L119.765 23.2139L126.425 15.2931C131.402 9.91522 137.36 5.53534 143.98 2.38838L147.566 1.14499L152.669 0.326294ZM78.5326 100.427C73.9513 106.362 71.3353 113.575 71.0483 121.063C71.3181 134.026 76.183 144.21 85.643 151.616C91.7185 156.364 99.4743 159.608 107.097 161.435C107.157 161.451 107.222 161.442 107.275 161.41C107.329 161.378 107.368 161.327 107.384 161.266C107.394 161.233 107.394 161.197 107.384 161.164L103.849 143.409C103.833 143.32 103.79 143.24 103.726 143.177C103.661 143.115 103.579 143.074 103.491 143.061C102.188 142.895 100.958 142.367 99.9412 141.538C98.9242 140.708 98.1607 139.61 97.7377 138.368C97.6995 138.242 97.6995 138.106 97.7377 137.98C97.7944 137.666 97.9562 137.382 98.1964 137.172C98.4366 136.963 98.7409 136.842 99.0593 136.828C99.1461 136.822 99.2331 136.838 99.312 136.875C99.3908 136.912 99.459 136.968 99.5102 137.038C102.533 141.449 108.577 141.92 111.805 137.396C112.025 137.212 112.348 137.243 112.778 137.488C116.226 142.093 121.343 144.243 125.585 139.238C126.215 138.491 126.917 138.379 127.449 139.295C129.053 142.063 124.325 144.509 122.27 144.882C122.245 144.887 122.221 144.896 122.199 144.909C122.178 144.923 122.159 144.941 122.144 144.962C122.129 144.983 122.119 145.006 122.113 145.031C122.108 145.056 122.107 145.082 122.112 145.107L126.635 163.63C126.666 163.752 126.737 163.859 126.838 163.934C126.939 164.008 127.063 164.046 127.188 164.04L138.484 163.349C138.618 163.342 138.75 163.303 138.866 163.235C138.983 163.168 139.082 163.073 139.155 162.96C144.042 155.37 150.553 153.762 158.688 158.135C158.754 158.173 158.828 158.196 158.904 158.203C158.98 158.209 159.057 158.198 159.128 158.171C165.333 156.066 171.129 152.913 176.264 148.848C183.538 143.134 187.872 135.767 189.265 126.748L189.45 123.284C189.45 123.072 189.352 122.975 189.158 122.992C188.038 123.074 186.914 123.149 185.787 123.217C184.942 123.269 184.537 122.829 184.578 121.902C184.584 121.739 184.64 121.581 184.738 121.449C184.836 121.318 184.971 121.219 185.126 121.166L189.019 119.851C189.04 119.846 189.06 119.838 189.078 119.826C189.095 119.814 189.11 119.798 189.121 119.779C189.132 119.761 189.14 119.741 189.142 119.719C189.145 119.698 189.143 119.677 189.137 119.656L188.394 115.517C188.382 115.445 188.356 115.377 188.317 115.316C188.278 115.255 188.227 115.202 188.167 115.16C188.108 115.119 188.041 115.09 187.97 115.074C187.899 115.059 187.825 115.058 187.754 115.071C187.712 115.079 187.671 115.091 187.631 115.107C186.222 115.706 184.834 116.269 183.471 116.786C182.555 117.134 181.822 116.903 181.873 115.793C181.883 115.628 181.955 115.473 182.073 115.358C183.452 114.024 185.077 112.969 186.858 112.252C186.9 112.242 186.939 112.222 186.972 112.194C187.005 112.166 187.031 112.131 187.048 112.091C187.065 112.052 187.072 112.008 187.07 111.965C187.067 111.922 187.054 111.88 187.032 111.843C185.982 109.206 184.545 106.74 182.77 104.526C179.555 100.256 175.664 96.5398 171.249 93.5244C171.1 93.417 171.008 93.4579 170.967 93.637C169.977 98.44 167.18 101.72 162.576 103.477C156.067 105.869 149.065 106.611 142.198 105.636C130.318 103.953 121.102 93.2891 127.808 81.3208C127.832 81.2786 127.839 81.2287 127.826 81.1817C127.814 81.1348 127.783 81.0946 127.741 81.0701C127.711 81.0514 127.675 81.0425 127.639 81.0445C125.006 81.1434 122.339 81.2696 119.637 81.4231C117.004 81.5766 117.455 86.2841 115.083 85.1533C114.335 84.7951 114.013 84.3141 114.12 83.7154C114.726 80.7956 115.882 78.0173 117.527 75.5285C123.501 66.0577 130.309 57.1378 137.869 48.8749C141.906 44.4642 145.96 40.0722 150.03 35.699C152.879 32.6442 155.433 29.3274 157.658 25.7928C160.173 21.7966 162.781 14.6074 160.353 10.0841C157.279 4.3993 148.57 6.50232 144.17 8.61557C116.851 21.7914 103.24 55.0714 100.238 83.3215C100.151 83.9732 99.9061 84.5939 99.5239 85.1291C99.1417 85.6643 98.6339 86.0978 98.0451 86.3916C90.3149 89.9426 84.0549 93.7035 78.5326 100.427ZM172.883 70.1405C177.37 67.9812 182.98 65.6069 183.528 60.6794C183.912 57.2307 179.942 55.01 177.135 55.3016C175.769 55.4381 173.935 56.2124 171.633 57.6247C158.835 65.4355 148.048 76.1345 140.138 88.863C139.923 89.2058 140.015 89.4105 140.41 89.477L145.983 90.5004C146.127 90.5252 146.274 90.5128 146.411 90.4644C146.549 90.416 146.671 90.3333 146.767 90.2241C151.111 85.1698 156.117 80.7226 161.649 77.0022C166.655 73.6182 170.4 71.331 172.883 70.1405ZM119.238 145.02C116.19 144.744 114.146 143.588 112.066 141.331C112.043 141.299 112.013 141.272 111.979 141.252C111.945 141.233 111.907 141.22 111.868 141.216C111.828 141.213 111.789 141.217 111.751 141.23C111.714 141.243 111.68 141.263 111.651 141.29C110.195 142.388 108.462 143.059 106.646 143.229C106.472 143.229 106.405 143.342 106.446 143.516C108.237 150.631 109.523 157.864 110.293 165.16C110.437 166.496 110.524 167.754 110.55 168.926C110.541 168.994 110.549 169.063 110.572 169.127C110.595 169.192 110.634 169.25 110.684 169.297C110.733 169.343 110.794 169.378 110.859 169.397C110.925 169.416 110.995 169.42 111.062 169.407C115.621 169.074 120.205 169.407 124.668 170.395C125.108 170.492 125.277 170.318 125.18 169.883L119.545 145.322C119.536 145.244 119.501 145.172 119.445 145.117C119.389 145.062 119.316 145.028 119.238 145.02Z" fill="#15171C"/>
<path d="M182.76 104.526C177.094 106.825 172.082 108.617 167.725 109.904C158.063 112.759 147.982 113.634 137.967 114.37C137.301 113.71 136.343 113.762 135.083 114.524L132.342 114.555L125.032 114.637C126.398 111.839 127.629 109.158 128.725 106.593C129.18 105.535 129.026 104.749 128.264 104.234C128.192 104.174 128.102 104.141 128.008 104.141C127.915 104.141 127.824 104.174 127.752 104.234C125.652 105.728 123.613 110.932 121.758 114.713C120.153 114.389 118.503 114.358 116.887 114.621C116.205 111.072 115.749 107.483 115.519 103.876C115.37 101.543 112.522 101.988 112.604 104.229C112.724 107.487 112.993 110.801 113.414 114.171L104.121 112.636C103.702 112.272 103.213 111.997 102.685 111.825C102.157 111.654 101.6 111.59 101.047 111.638C92.9875 109.094 85.3805 105.295 78.5073 100.381C84.0142 93.6575 90.2896 89.8813 98.0198 86.2995C98.6086 86.0058 99.1164 85.5723 99.4986 85.0371C99.8808 84.5018 100.126 83.8812 100.212 83.2294C103.214 54.9691 116.825 21.6892 144.145 8.52354C148.545 6.40005 157.243 4.30726 160.327 9.99207C162.776 14.5154 160.148 21.7045 157.633 25.7008C155.408 29.2353 152.854 32.5521 150.005 35.607C145.938 39.9802 141.884 44.3721 137.844 48.7828C130.283 57.0458 123.476 65.9656 117.501 75.4365C115.857 77.9253 114.701 80.7035 114.095 83.6234C113.987 84.2221 114.31 84.703 115.058 85.0612C117.43 86.1921 116.979 81.4795 119.612 81.3311C122.245 81.1827 124.981 81.0496 127.614 80.9524C127.638 80.951 127.662 80.9544 127.685 80.9624C127.708 80.9704 127.729 80.9829 127.747 80.999C127.765 81.0152 127.78 81.0348 127.79 81.0566C127.801 81.0785 127.807 81.1022 127.808 81.1264C127.818 81.1598 127.818 81.1953 127.808 81.2287C121.103 93.197 130.318 103.861 142.198 105.544C149.065 106.519 156.067 105.777 162.576 103.385C167.183 101.628 169.98 98.348 170.967 93.545C171.008 93.3659 171.1 93.3249 171.249 93.4324C175.668 96.4764 179.556 100.224 182.76 104.526ZM104.515 77.0687C103.549 80.7529 102.76 84.4933 102.149 88.29C102.118 88.4793 102.2 88.556 102.384 88.51L108.532 87.0619C108.69 87.0255 108.836 86.9445 108.95 86.8285C109.064 86.7125 109.143 86.5662 109.177 86.407C110.616 79.5919 113.288 73.0963 117.061 67.2393C120.1 62.3781 123.648 57.8533 127.644 53.7411C129.535 51.8222 130.774 49.8011 129.914 47.0585C129.693 46.296 129.321 45.5857 128.819 44.9703C128.318 44.3548 127.697 43.8468 126.994 43.4767C123.767 41.7318 120.678 43.185 118.736 46.0709C112.283 55.5307 107.476 66.0105 104.515 77.0687Z" fill="white"/>
<path d="M104.515 77.0686C107.479 66.0115 112.29 55.5335 118.746 46.0759C120.688 43.19 123.777 41.7368 127.004 43.4817C127.707 43.8518 128.328 44.3598 128.829 44.9753C129.331 45.5907 129.703 46.3009 129.924 47.0635C130.784 49.8061 129.545 51.8272 127.654 53.7461C123.658 57.8583 120.11 62.3831 117.071 67.2443C113.298 73.1013 110.626 79.5969 109.187 86.412C109.153 86.5712 109.074 86.7175 108.96 86.8335C108.846 86.9495 108.7 87.0305 108.542 87.0669L102.394 88.515C102.21 88.561 102.128 88.4843 102.159 88.2949C102.763 84.4948 103.549 80.7527 104.515 77.0686Z" fill="#FAC4C7"/>
<path d="M155.363 59.0932L145.528 70.294C145.046 69.7209 144.549 69.5316 144.037 69.726C143.561 69.9102 143.304 70.0075 143.263 70.0126C140.415 70.5822 137.444 71.1383 134.35 71.6807C134.282 71.6931 134.213 71.6917 134.145 71.6767C134.078 71.6616 134.015 71.6332 133.959 71.593C133.903 71.5529 133.855 71.5019 133.82 71.4431C133.784 71.3843 133.76 71.3189 133.751 71.2509C133.743 71.2 133.743 71.1482 133.751 71.0974C133.844 70.5856 134.026 70.0939 134.288 69.6442C135.716 66.98 137.229 64.338 138.827 61.7182C138.842 61.6955 138.852 61.6701 138.857 61.6435C138.861 61.6168 138.86 61.5895 138.854 61.5632C138.848 61.5369 138.836 61.5121 138.82 61.4904C138.804 61.4686 138.784 61.4504 138.761 61.4368C138.734 61.4161 138.702 61.4053 138.668 61.4061H138.499C138.458 61.4015 138.417 61.4105 138.381 61.4316L132.014 64.6808C131.978 64.6994 131.939 64.7107 131.898 64.7141C131.858 64.7174 131.817 64.7128 131.779 64.7005C131.74 64.6881 131.704 64.6682 131.674 64.642C131.643 64.6158 131.617 64.5838 131.599 64.5478C131.574 64.4986 131.562 64.4441 131.563 64.3892C131.556 64.3365 131.556 64.2832 131.563 64.2305L140.487 53.6131C140.656 54.0378 141.05 53.9611 141.665 53.3777C141.931 53.1169 142.237 52.9009 142.572 52.7381C147.087 50.6914 151.526 48.5304 155.891 46.2551C156.107 46.1406 156.357 46.107 156.595 46.1605C156.834 46.214 157.046 46.351 157.192 46.5467C157.335 46.7565 157.391 47.0128 157.351 47.2631C157.318 47.4978 157.224 47.72 157.079 47.9078C154.084 52.2424 150.799 56.3708 147.249 60.265C147.134 60.3866 147.069 60.5478 147.069 60.7153C147.069 60.8828 147.134 61.0439 147.249 61.1656C147.361 61.2625 147.505 61.3136 147.654 61.3088C147.788 61.3032 147.919 61.2626 148.033 61.1911C150.252 59.8667 152.779 59.1435 155.363 59.0932Z" fill="#FFFCAF"/>
<path d="M102.589 56.1716C100.77 61.7426 99.2695 67.4127 98.0964 73.1544C94.5177 76.4226 91.5043 80.2591 89.1778 84.5086C85.8745 86.5479 82.7397 88.8476 79.8032 91.3857C78.6698 87.2538 78.2676 82.9558 78.6147 78.6857C78.6352 78.4537 78.5071 78.3514 78.2305 78.3787C78.1667 78.3843 78.105 78.4042 78.05 78.437C77.995 78.4698 77.9482 78.5146 77.9129 78.568C75.7153 81.94 72.8875 86.7959 72.1703 90.7614C72.1195 91.295 71.8754 91.7917 71.4839 92.1583L68.6972 87.6657C68.6517 87.5934 68.5849 87.5369 68.5061 87.504C68.4272 87.471 68.3401 87.4632 68.2566 87.4815C66.5097 87.8858 66.6583 89.3082 67.3243 90.5516C68.482 92.728 69.6073 94.7082 70.7001 96.4923L68.3693 101.026C68.3316 101.096 68.3119 101.174 68.3119 101.254C68.3119 101.333 68.3316 101.411 68.3693 101.481C68.651 101.957 68.6408 102.213 68.3386 102.254L63.2466 98.4827C63.1481 98.4096 63.0361 98.3567 62.9171 98.3269C62.7981 98.2971 62.6744 98.291 62.553 98.3091C62.4317 98.3271 62.3151 98.369 62.2099 98.4321C62.1048 98.4953 62.0131 98.5786 61.9403 98.6772C61.8671 98.7791 61.8133 98.8936 61.7815 99.0149C61.7392 99.2351 61.7457 99.462 61.8005 99.6794C61.8554 99.8969 61.9573 100.1 62.0991 100.274C63.248 101.92 64.6125 103.405 66.1563 104.689C63.562 107.127 61.9741 110.445 61.7046 113.992C61.2231 118.94 61.51 124.737 59.2304 129.209C58.4107 130.823 56.9063 133.417 54.7172 136.992C52.8803 139.894 52.0555 143.321 52.3711 146.74C52.0655 147.036 51.8126 147.382 51.6231 147.763C51.5568 147.948 51.5394 148.147 51.5726 148.34C51.6058 148.534 51.6885 148.716 51.8127 148.868C52.3953 149.743 53.1069 150.524 53.9232 151.186C53.721 151.939 53.721 152.731 53.9232 153.484C53.9949 153.755 53.9232 153.811 53.6825 153.653C48.9542 150.485 44.1235 145.466 42.9248 139.694C42.9051 139.607 42.8524 139.531 42.7778 139.483C42.7033 139.434 42.6127 139.416 42.5252 139.433C42.483 139.442 42.4431 139.46 42.4074 139.484C42.3298 139.539 42.2642 139.609 42.2149 139.69C42.1655 139.771 42.1334 139.861 42.1205 139.955C41.4984 143.501 41.3092 147.109 41.557 150.7C42.3151 161.671 49.7021 170.963 59.4865 175.261C60.2583 179.696 62.164 184.098 65.2035 188.467C58.1569 187.13 51.4163 184.511 45.3171 180.741C35.8247 174.872 28.366 165.171 26.5628 153.995C26.2862 152.297 26.9675 149.564 27.741 147.661C30.077 141.909 31.5148 137.975 32.0543 135.856C33.8422 128.887 35.5634 121.933 38.3502 115.43C38.7187 114.52 39.2518 113.685 39.9228 112.969C40.0852 112.806 40.3054 112.715 40.535 112.715C40.7646 112.715 40.9848 112.806 41.1472 112.969C41.3052 113.123 41.3986 113.331 41.4084 113.552C41.6799 119.579 42.5918 127.03 45.3939 132.428C45.4239 132.494 45.4676 132.552 45.522 132.6C45.5764 132.648 45.6403 132.684 45.7095 132.705C45.7787 132.726 45.8517 132.733 45.9235 132.724C45.9954 132.715 46.0646 132.691 46.1265 132.653C46.1931 132.62 46.2519 132.574 46.2988 132.517C46.3457 132.459 46.3795 132.392 46.398 132.32C46.4641 132.027 46.4831 131.725 46.4543 131.425C45.942 123.463 45.9676 113.849 49.5638 106.352C51.1006 103.103 53.9898 99.414 56.3053 96.1188C61.1411 89.1957 60.7108 80.231 64.1021 72.6222C65.9576 68.3905 68.6296 64.5653 71.9655 61.3652C75.851 57.6575 79.9713 54.2033 84.3009 51.024C85.1923 50.3691 85.8617 50.5038 86.3091 51.4283C86.4059 51.6277 86.4224 51.8567 86.3551 52.0679C84.2209 59.2008 83.6668 66.7122 84.7313 74.0805C84.7509 74.2151 84.8044 74.3426 84.8869 74.4509C84.9693 74.5591 85.0779 74.6448 85.2025 74.6997C85.7148 74.9197 86.0427 74.8174 86.2271 74.3875C86.3193 74.1675 86.3756 74.0447 86.3859 74.0191C90.2486 66.8389 95.8114 60.7116 102.589 56.1716Z" fill="#FFFCAF"/>
<path d="M172.883 70.1404C170.4 71.3309 166.655 73.6131 161.649 76.9868C156.117 80.7072 151.111 85.1544 146.767 90.2087C146.671 90.3179 146.549 90.4006 146.412 90.449C146.274 90.4974 146.127 90.5098 145.984 90.485L140.41 89.4616C140.016 89.3951 139.923 89.1904 140.139 88.8476C148.056 76.1224 158.85 65.4286 171.654 57.6246C173.959 56.2192 175.793 55.4449 177.155 55.3016C179.978 55.0099 183.933 57.2306 183.548 60.6794C182.98 65.6069 177.37 67.9811 172.883 70.1404Z" fill="#FAC4C7"/>
<path d="M209.997 177.778C208.854 173.947 206.382 170.648 203.025 168.471C204.173 167.253 204.844 166.32 205.038 165.672C206.452 161.059 207.075 156.241 206.882 151.422C206.883 151.352 206.868 151.283 206.841 151.218C206.813 151.154 206.773 151.096 206.722 151.048C206.671 151 206.611 150.963 206.545 150.94C206.479 150.916 206.409 150.906 206.339 150.91C206.21 150.914 206.088 150.967 205.996 151.058C203.609 153.391 199.367 156.861 196.089 157.485C196 157.502 195.908 157.483 195.833 157.434C195.757 157.384 195.704 157.307 195.684 157.219C195.667 157.129 195.685 157.035 195.735 156.958C197.969 153.56 199.946 151.161 200.484 146.724C200.833 143.833 200.93 140.63 201.606 138.067C202.803 133.425 205.312 129.226 208.834 125.97C209.597 125.254 210.202 124.405 209.859 123.448C207.091 115.913 206.305 107.795 207.574 99.8693C213.083 96.1652 217.984 91.6308 222.102 86.4274C222.278 86.231 222.392 85.9872 222.43 85.7264C222.435 85.6796 222.43 85.6323 222.417 85.5872C222.403 85.5422 222.381 85.5003 222.351 85.4641C222.32 85.4278 222.283 85.398 222.242 85.3763C222.2 85.3545 222.154 85.3413 222.107 85.3375H222.035C214.539 86.0731 207.277 88.35 200.704 92.0252C200.465 92.1617 200.378 92.0952 200.443 91.8257C200.633 91.0735 201.355 90.2139 201.57 89.6868C203.87 84.0599 205.495 78.1806 206.411 72.1719C206.42 72.113 206.417 72.0531 206.402 71.9954C206.387 71.9378 206.362 71.8836 206.326 71.8361C206.29 71.7885 206.245 71.7485 206.194 71.7183C206.143 71.6881 206.086 71.6683 206.027 71.6602C205.944 71.6448 205.858 71.6556 205.781 71.6909C201.585 73.4944 197.706 75.9616 194.296 78.9977C188.548 84.0941 185.654 90.5311 185.613 98.3087C182.558 94.7999 179.102 91.6606 175.316 88.9551L177.478 75.4057L186.253 69.8744C185.398 73.0863 184.235 76.2084 182.78 79.1973C182.679 79.4082 182.661 79.6491 182.729 79.8727C182.949 80.5789 183.359 80.6761 183.963 80.1695C189.086 75.8816 194.46 70.8824 200.008 67.7305C202.874 66.1094 205.849 64.6886 208.911 63.4784C214.49 61.2781 217.778 59.8301 221.964 57.1693C222.185 57.0291 222.454 56.9821 222.71 57.0386C222.966 57.0952 223.19 57.2507 223.332 57.4712C223.741 58.1364 223.214 58.6685 223.014 59.1598C220.425 65.4003 217.377 71.441 213.895 77.2324C213.831 77.3162 213.797 77.4187 213.797 77.5241C213.797 77.6295 213.831 77.732 213.895 77.8158C213.968 77.9051 214.069 77.9673 214.181 77.9924C214.294 78.0174 214.411 78.0039 214.515 77.9539C218.371 75.9618 222.097 73.799 225.693 71.4658C226.403 71.0053 226.957 71.0666 227.353 71.65C227.434 71.7704 227.489 71.9059 227.517 72.0483C227.544 72.1907 227.542 72.3372 227.512 72.4789C225.975 79.3713 226.021 85.2966 225.975 93.11C225.931 96.2179 225.518 99.3096 224.745 102.32C222.696 110.564 216.749 117.241 221.631 126.451C221.725 126.629 221.752 126.834 221.707 127.029C221.661 127.225 221.547 127.397 221.385 127.516C216.38 131.174 213.066 136.654 213.352 142.866C213.557 147.323 216.021 152.107 216.39 156.932C216.886 163.273 215.482 169.617 212.359 175.159C211.812 176.221 210.998 177.124 209.997 177.778Z" fill="#FFFCAF"/>
<path d="M145.528 70.294L140.866 76.2602C140.79 76.3565 140.689 76.4311 140.575 76.4769C140.461 76.5227 140.337 76.5379 140.215 76.5212C134.824 75.7429 129.37 75.4927 123.93 75.7741C123.454 75.7997 123.356 75.6206 123.633 75.2317L131.584 64.2152C131.577 64.2678 131.577 64.3211 131.584 64.3738C131.581 64.4562 131.61 64.5366 131.666 64.5977C131.721 64.6588 131.798 64.696 131.881 64.7013C131.934 64.7022 131.987 64.6899 132.034 64.6654L138.402 61.4162C138.437 61.3951 138.479 61.3862 138.52 61.3907H138.689C138.716 61.3926 138.742 61.3998 138.766 61.412C138.79 61.4241 138.812 61.4409 138.829 61.4613C138.847 61.4818 138.86 61.5055 138.869 61.5311C138.877 61.5567 138.88 61.5838 138.878 61.6107C138.878 61.6438 138.867 61.6759 138.848 61.7028C137.249 64.3226 135.736 66.9646 134.309 69.6288C134.047 70.0785 133.865 70.5702 133.771 71.082C133.761 71.15 133.765 71.2194 133.782 71.2859C133.799 71.3525 133.83 71.4149 133.872 71.4693C133.914 71.5238 133.967 71.5692 134.027 71.6029C134.087 71.6365 134.153 71.6578 134.222 71.6653C134.272 71.6755 134.325 71.6755 134.375 71.6653C137.47 71.1229 140.441 70.5669 143.289 69.9972C143.33 69.9972 143.586 69.8948 144.062 69.7106C144.539 69.5264 145.041 69.7209 145.528 70.294Z" fill="#FF9D49"/>
<path d="M207.564 99.8643C205.395 101.161 203.3 102.288 201.278 103.246C197.93 104.839 194.393 106 190.751 106.7C189.327 103.737 187.611 100.922 185.628 98.2985C185.669 90.5209 188.564 84.0839 194.311 78.9875C197.722 75.9514 201.6 73.4842 205.796 71.6807C205.908 71.6344 206.033 71.6336 206.145 71.6786C206.257 71.7236 206.347 71.8107 206.396 71.9212C206.431 71.9979 206.442 72.0837 206.427 72.1668C205.511 78.1755 203.886 84.0548 201.586 89.6817C201.37 90.1934 200.648 91.0684 200.459 91.8206C200.394 92.0901 200.481 92.1566 200.72 92.0201C207.285 88.3501 214.538 86.0749 222.025 85.3375C222.12 85.3275 222.214 85.3553 222.288 85.4147C222.362 85.4742 222.409 85.5605 222.42 85.6548C222.425 85.6784 222.425 85.7028 222.42 85.7264C222.382 85.9872 222.268 86.231 222.092 86.4274C217.973 91.629 213.072 96.1617 207.564 99.8643Z" fill="#E76459"/>
<path d="M98.0965 73.1389L97.0719 80.5583C97.064 80.645 97.0326 80.7279 96.9812 80.7982C96.9298 80.8685 96.8603 80.9235 96.78 80.9574L89.1779 84.5085C91.5029 80.2535 94.5165 76.4118 98.0965 73.1389Z" fill="#FF9D49"/>
<path d="M177.468 75.3954L175.306 88.9448C172.097 86.8012 168.7 84.9516 165.158 83.4186C165.088 83.3893 165.033 83.3335 165.004 83.2635C164.975 83.1935 164.975 83.115 165.004 83.0451C165.029 82.9884 165.07 82.9403 165.122 82.907L177.468 75.3954Z" fill="#FF9D49"/>
<path d="M79.7878 91.3856L74.9212 96.8709C74.8572 96.9426 74.7674 96.9861 74.6714 96.9918C74.5754 96.9976 74.481 96.9651 74.4089 96.9016C74.3812 96.8779 74.357 96.8503 74.3372 96.8197L71.4839 92.1378C71.8754 91.7712 72.1195 91.2745 72.1703 90.7409C72.8875 86.7753 75.7152 81.9195 77.9129 78.5475C77.9481 78.4941 77.995 78.4493 78.05 78.4165C78.105 78.3837 78.1667 78.3638 78.2305 78.3581C78.5071 78.3308 78.6352 78.4332 78.6147 78.6651C78.2601 82.9412 78.6571 87.2462 79.7878 91.3856Z" fill="#FF9D49"/>
<path d="M70.7005 96.4871L72.7909 99.4143C72.8383 99.4797 72.8663 99.5571 72.8718 99.6376C72.8772 99.7182 72.8598 99.7986 72.8216 99.8698L70.8184 103.744C70.721 103.938 70.5878 103.969 70.4136 103.836L68.3643 102.249C68.6666 102.208 68.6768 101.953 68.395 101.477C68.3574 101.407 68.3376 101.328 68.3376 101.249C68.3376 101.169 68.3574 101.091 68.395 101.021L70.7005 96.4871Z" fill="#FF9D49"/>
<path d="M207.564 99.8643C206.294 107.79 207.081 115.908 209.849 123.443C210.202 124.4 209.598 125.249 208.824 125.965C205.309 129.217 202.804 133.408 201.606 138.041C200.93 140.599 200.833 143.808 200.484 146.699C199.972 151.155 197.969 153.555 195.735 156.932C195.686 157.008 195.668 157.1 195.685 157.189C195.702 157.278 195.753 157.356 195.828 157.408C195.905 157.458 195.999 157.476 196.089 157.459C199.367 156.82 203.609 153.366 205.996 151.028C206.044 150.978 206.101 150.939 206.165 150.912C206.228 150.885 206.296 150.871 206.365 150.871C206.434 150.871 206.502 150.885 206.565 150.912C206.629 150.939 206.686 150.978 206.734 151.028C206.825 151.119 206.878 151.241 206.882 151.37C207.075 156.19 206.452 161.008 205.038 165.621C204.844 166.269 204.173 167.202 203.025 168.42C199.735 166.239 195.887 165.049 191.94 164.991C189.143 164.93 186.74 165.032 184.343 166.102C184.18 166.174 183.996 166.182 183.827 166.125C183.658 166.069 183.517 165.951 183.431 165.795C181.357 161.959 178.785 158.413 175.782 155.249C175.741 155.207 175.717 155.15 175.717 155.09C175.717 155.031 175.741 154.974 175.782 154.932L175.813 154.906C186.899 147.231 193.656 136.706 194.132 123.018C194.139 122.863 194.202 122.716 194.309 122.604C194.417 122.492 194.561 122.423 194.716 122.409C196.253 122.286 200.161 122.368 201.273 121.273C201.372 121.175 201.451 121.058 201.505 120.93C201.559 120.801 201.587 120.663 201.587 120.524C201.587 120.384 201.559 120.246 201.505 120.117C201.451 119.989 201.372 119.872 201.273 119.774C201.209 119.705 201.135 119.646 201.053 119.6C199.183 118.5 196.442 118.971 194.363 119.18C194.328 119.188 194.293 119.188 194.258 119.18C194.224 119.172 194.192 119.157 194.164 119.136C194.136 119.114 194.113 119.087 194.097 119.056C194.081 119.025 194.072 118.99 194.071 118.955L193.174 113.327C193.147 113.159 193.181 112.988 193.271 112.844C193.36 112.7 193.499 112.594 193.661 112.544C195.406 112.001 197.178 111.362 198.978 110.625C200.264 110.113 200.428 108.829 199.28 108.123C197.81 107.212 193.968 109.003 192.559 109.719C192.451 109.775 192.324 109.785 192.208 109.748C192.092 109.71 191.995 109.628 191.94 109.52V109.489L190.751 106.649C194.39 105.965 197.928 104.821 201.278 103.246C203.303 102.291 205.399 101.164 207.564 99.8643Z" fill="#FF9D49"/>
<path d="M78.5327 100.427C85.4059 105.341 93.0129 109.14 101.073 111.684C100.963 112.007 100.93 112.352 100.976 112.69C101.022 113.028 101.147 113.351 101.339 113.634C104.598 117.608 108.265 121.23 112.281 124.44C112.55 124.69 112.867 124.882 113.214 125.003C113.469 125.056 113.736 125.024 113.972 124.913C114.208 124.801 114.402 124.616 114.523 124.385C114.645 124.153 114.688 123.889 114.645 123.631C114.603 123.374 114.478 123.137 114.289 122.956C111.041 119.504 107.655 116.081 104.131 112.687L113.424 114.222C113.498 115.229 113.643 116.229 113.859 117.215C114.371 119.569 117.255 118.669 117.056 116.637C116.989 115.967 116.938 115.307 116.897 114.657C118.513 114.394 120.163 114.425 121.768 114.749C121.461 115.537 121.157 116.357 120.857 117.21C120.124 119.293 122.506 119.651 123.418 117.983C124.074 116.77 124.612 115.66 125.032 114.662L132.342 114.58C133.051 114.554 133.758 114.671 134.422 114.923C128.244 118.44 123.893 120.983 121.369 122.552C120.712 122.999 120.189 123.616 119.858 124.338C119.786 124.482 119.771 124.649 119.817 124.804C120.401 126.671 123.054 125.008 124.161 124.358C128.6 121.756 133.013 119.126 137.398 116.468C138.269 115.94 138.458 115.249 137.966 114.396C147.981 113.659 158.063 112.784 167.724 109.929C172.079 108.646 177.09 106.854 182.759 104.551C184.533 106.758 185.969 109.215 187.022 111.843C187.044 111.88 187.057 111.922 187.059 111.965C187.062 112.008 187.055 112.051 187.038 112.091C187.021 112.131 186.995 112.166 186.962 112.194C186.929 112.222 186.89 112.242 186.847 112.252C185.067 112.969 183.442 114.024 182.063 115.358C181.945 115.473 181.873 115.628 181.863 115.793C181.812 116.903 182.544 117.133 183.461 116.786C184.824 116.274 186.212 115.706 187.621 115.107C187.755 115.049 187.908 115.046 188.044 115.1C188.18 115.154 188.29 115.259 188.348 115.394C188.365 115.433 188.377 115.474 188.384 115.517L189.127 119.656C189.133 119.677 189.135 119.698 189.132 119.719C189.129 119.741 189.122 119.761 189.111 119.779C189.1 119.798 189.085 119.813 189.068 119.826C189.05 119.838 189.03 119.846 189.009 119.851L185.116 121.166C184.961 121.219 184.826 121.318 184.728 121.449C184.63 121.581 184.574 121.739 184.568 121.902C184.527 122.829 184.932 123.269 185.777 123.217C186.904 123.153 188.027 123.078 189.148 122.992C189.352 122.992 189.45 123.089 189.44 123.284L189.255 126.748C175.686 132.827 161.11 136.355 146.26 137.156C151.895 134.735 156.813 129.48 156.654 123.151C156.646 122.83 156.511 122.526 156.279 122.304C156.046 122.083 155.736 121.962 155.414 121.969C155.351 121.964 155.288 121.964 155.225 121.969C147.343 123.412 139.338 124.645 131.21 125.668C127.327 126.16 124.171 126.632 121.743 127.086C121.226 127.207 120.758 127.482 120.401 127.874C120.341 127.929 120.296 127.998 120.268 128.075C120.24 128.151 120.231 128.233 120.242 128.314C120.437 130.294 122.716 132.847 124.125 134.127C125.621 135.477 127.711 136.526 129.622 137.575C129.19 137.848 128.682 137.975 128.172 137.939C122.537 138 117.87 138.128 112.968 137.248C112.927 137.239 112.884 137.244 112.847 137.262C112.809 137.279 112.778 137.308 112.758 137.345C112.746 137.363 112.739 137.385 112.739 137.406C112.739 137.428 112.746 137.45 112.758 137.468C112.327 137.222 112.005 137.192 111.784 137.376C111.592 137.214 111.354 137.117 111.103 137.099C106.042 136.726 101.05 135.708 96.2471 134.07C102.07 133.804 107.022 131.834 111.103 128.16C112.517 126.886 112.338 125.837 110.55 125.09C102.514 121.85 94.4507 118.674 86.3602 115.563C85.3767 115.184 84.3778 114.834 83.3635 114.514C81.048 113.787 80.9353 116.514 81.1248 118.044C81.6781 122.421 83.5035 126.53 86.601 130.371C80.9832 128.024 75.7372 124.873 71.028 121.017C71.3303 113.542 73.953 106.346 78.5327 100.427Z" fill="#E76459"/>
<path d="M116.907 114.631C116.948 115.281 116.999 115.941 117.066 116.612C117.266 118.658 114.376 119.544 113.869 117.19C113.654 116.203 113.508 115.203 113.434 114.196C113.014 110.83 112.744 107.516 112.624 104.254C112.542 102.013 115.391 101.568 115.539 103.901C115.77 107.503 116.226 111.087 116.907 114.631Z" fill="#15171C"/>
<path d="M125.037 114.637C124.617 115.634 124.079 116.745 123.423 117.957C122.522 119.625 120.14 119.267 120.862 117.185C121.162 116.332 121.466 115.511 121.774 114.723C123.628 110.942 125.667 105.738 127.767 104.244C127.839 104.184 127.93 104.151 128.023 104.151C128.117 104.151 128.208 104.184 128.279 104.244C129.044 104.756 129.198 105.542 128.741 106.603C127.637 109.161 126.403 111.839 125.037 114.637Z" fill="#15171C"/>
<path d="M66.1717 104.684L69.2453 106.705C69.3201 106.745 69.3774 106.811 69.4059 106.891C69.4343 106.97 69.4319 107.057 69.399 107.135C62.9085 126.784 71.151 147.492 89.1778 157.485C89.2339 157.51 89.2797 157.554 89.3076 157.609C89.3356 157.664 89.344 157.727 89.3315 157.787L87.5232 172.836C87.5175 172.883 87.5025 172.928 87.479 172.97C87.4555 173.011 87.424 173.047 87.3863 173.076C87.3486 173.105 87.3056 173.127 87.2596 173.139C87.2136 173.151 87.1656 173.154 87.1185 173.148C87.0757 173.143 87.0341 173.131 86.9955 173.112L83.8604 171.474C83.7219 171.402 83.6177 171.279 83.5706 171.13C83.5235 170.981 83.5375 170.82 83.6094 170.681V170.635C86.3142 166.347 84.634 161.538 81.1095 158.416C76.7911 154.614 70.1008 154.364 65.475 157.229C59.1843 161.128 58.1239 168.415 59.4968 175.215C49.7022 170.937 42.3152 161.645 41.5673 150.654C41.3195 147.063 41.5087 143.455 42.1308 139.909C42.1437 139.815 42.1758 139.724 42.2252 139.643C42.2746 139.562 42.34 139.493 42.4176 139.438C42.4927 139.389 42.584 139.371 42.6721 139.388C42.7602 139.405 42.8381 139.456 42.889 139.53C42.9096 139.567 42.925 139.607 42.935 139.648C44.1286 145.409 48.9594 150.439 53.6927 153.606C53.9284 153.765 54.0052 153.709 53.9335 153.438C53.7313 152.685 53.7313 151.893 53.9335 151.14C55.298 152.394 56.7647 153.532 58.3186 154.543C59.2253 155.126 60.132 155.055 60.5316 153.98C60.5621 153.902 60.5715 153.818 60.5589 153.735C60.5463 153.652 60.5122 153.574 60.4599 153.509C58.3187 150.663 55.5511 148.347 52.3711 146.74C52.0509 143.314 52.876 139.879 54.7173 136.972C56.903 133.393 58.4074 130.799 59.2304 129.189C61.51 124.732 61.2231 118.919 61.7047 113.971C61.982 110.428 63.5752 107.115 66.1717 104.684ZM59.8247 142.979C60.7314 145.634 61.9813 149.119 63.9228 151.053C63.9827 151.115 64.0556 151.163 64.1362 151.193C64.2169 151.223 64.3032 151.235 64.389 151.227C65.5057 151.135 65.8387 150.301 65.4955 149.278C64.5665 146.551 63.3018 143.951 61.7303 141.536C61.5995 141.335 61.3995 141.189 61.1681 141.126C60.9367 141.063 60.6901 141.087 60.4752 141.193C60.311 141.263 60.1629 141.365 60.0401 141.495C59.9173 141.624 59.8225 141.777 59.7615 141.945C59.7004 142.112 59.6746 142.29 59.6855 142.468C59.6963 142.646 59.7437 142.82 59.8247 142.979ZM56.0953 161.399C56.4078 160.535 54.4355 159.02 51.6847 158.022C48.9338 157.024 46.4441 156.912 46.1316 157.777C45.814 158.641 47.7914 160.156 50.5423 161.154C53.2932 162.152 55.7777 162.264 56.0953 161.399Z" fill="#FF9D49"/>
<path d="M101.083 111.684C101.636 111.636 102.193 111.7 102.721 111.871C103.249 112.043 103.737 112.318 104.157 112.682C107.681 116.073 111.067 119.496 114.315 122.951C114.504 123.132 114.629 123.369 114.671 123.626C114.713 123.884 114.671 124.148 114.549 124.38C114.428 124.611 114.234 124.796 113.998 124.908C113.761 125.019 113.495 125.051 113.239 124.998C112.893 124.877 112.575 124.685 112.307 124.435C108.291 121.225 104.624 117.603 101.365 113.629C101.171 113.348 101.044 113.027 100.995 112.689C100.946 112.352 100.976 112.008 101.083 111.684Z" fill="#15171C"/>
<path d="M137.967 114.37C138.458 115.223 138.269 115.914 137.398 116.443C133.003 119.1 128.59 121.73 124.161 124.333C123.054 124.983 120.401 126.646 119.817 124.778C119.771 124.623 119.786 124.457 119.858 124.312C120.189 123.591 120.712 122.973 121.369 122.527C123.896 120.957 128.247 118.414 134.422 114.897L135.082 114.524C136.343 113.762 137.301 113.71 137.967 114.37Z" fill="#15171C"/>
<path d="M96.2625 134.091C92.789 133.696 89.4713 132.432 86.6164 130.417C83.5427 126.572 81.7191 122.462 81.1453 118.085C80.9558 116.55 81.0685 113.828 83.3839 114.555C84.4085 114.875 85.4074 115.225 86.3807 115.604C94.4712 118.715 102.534 121.89 110.57 125.131C112.358 125.853 112.537 126.902 111.123 128.201C107.042 131.862 102.089 133.825 96.2625 134.091ZM84.4802 117.456C84.2446 117.359 84.1524 117.456 84.1933 117.691C84.6032 120.04 85.2179 122.736 86.4268 124.763C91.2422 133.047 100.919 131.809 107.85 127.178C107.878 127.16 107.902 127.136 107.92 127.109C107.939 127.081 107.951 127.051 107.958 127.018C107.964 126.986 107.963 126.952 107.956 126.92C107.949 126.888 107.936 126.857 107.917 126.83C107.889 126.789 107.85 126.757 107.804 126.738L84.4802 117.456Z" fill="#15171C"/>
<path d="M132.342 114.555L135.083 114.524L134.422 114.898C133.759 114.645 133.051 114.529 132.342 114.555Z" fill="#FAC4C7"/>
<path d="M84.4701 117.456L107.794 126.738C107.825 126.75 107.852 126.769 107.876 126.792C107.9 126.815 107.918 126.843 107.931 126.873C107.944 126.903 107.951 126.936 107.951 126.969C107.951 127.002 107.945 127.035 107.932 127.065C107.913 127.111 107.881 127.151 107.84 127.178C100.909 131.809 91.2321 133.047 86.4167 124.763C85.2334 122.716 84.5931 120.04 84.1832 117.691C84.1423 117.441 84.2345 117.359 84.4701 117.456Z" fill="white"/>
<path d="M71.0485 121.063C75.7561 124.919 81.0004 128.07 86.6164 130.417C89.4699 132.431 92.7857 133.695 96.2574 134.091C101.06 135.728 106.052 136.746 111.113 137.12C111.364 137.137 111.603 137.234 111.795 137.396C108.552 141.919 102.507 141.449 99.5 137.038C99.4489 136.968 99.3807 136.912 99.3018 136.875C99.2229 136.838 99.136 136.822 99.0492 136.828C98.7308 136.842 98.4265 136.963 98.1863 137.172C97.9461 137.382 97.7843 137.666 97.7276 137.98C97.6894 138.106 97.6894 138.242 97.7276 138.368C98.1506 139.61 98.914 140.708 99.9311 141.538C100.948 142.367 102.178 142.895 103.48 143.061C103.569 143.074 103.651 143.115 103.715 143.177C103.78 143.24 103.823 143.32 103.839 143.408L107.374 161.164C107.386 161.224 107.374 161.286 107.34 161.337C107.306 161.387 107.254 161.423 107.194 161.435C107.159 161.446 107.122 161.446 107.087 161.435C99.4744 159.608 91.7186 156.364 85.6329 151.616C76.1831 144.224 71.3217 134.04 71.0485 121.063Z" fill="white"/>
<path d="M146.26 137.156C141.322 138.733 136.062 139.026 130.979 138.005L129.622 137.596C127.736 136.547 125.621 135.498 124.125 134.147C122.716 132.868 120.437 130.315 120.242 128.334C120.231 128.254 120.24 128.172 120.268 128.095C120.296 128.019 120.341 127.95 120.401 127.894C120.758 127.502 121.226 127.228 121.743 127.106C124.171 126.653 127.327 126.18 131.21 125.689C139.334 124.666 147.339 123.432 155.225 121.989C155.381 121.96 155.542 121.962 155.698 121.995C155.854 122.028 156.002 122.091 156.133 122.182C156.264 122.272 156.375 122.388 156.461 122.522C156.547 122.655 156.606 122.805 156.634 122.962C156.641 123.025 156.641 123.088 156.634 123.151C156.798 129.47 151.875 134.735 146.26 137.156ZM129.647 134.229C134.203 136.084 139.277 136.226 143.929 134.628C149.001 132.975 152.172 130.187 153.545 125.075C153.553 125.047 153.556 125.017 153.553 124.988C153.55 124.958 153.541 124.93 153.526 124.904C153.512 124.878 153.493 124.856 153.469 124.838C153.446 124.82 153.42 124.806 153.391 124.799C153.347 124.781 153.297 124.781 153.253 124.799C152.678 125.05 152.081 125.247 151.47 125.387C142.362 127.093 133.192 128.467 123.961 129.511C123.828 129.511 123.807 129.588 123.889 129.69C125.778 131.942 127.697 133.455 129.647 134.229Z" fill="#15171C"/>
<path d="M129.647 134.229C127.69 133.451 125.771 131.94 123.889 129.695C123.807 129.593 123.828 129.532 123.961 129.516C133.182 128.493 142.352 127.118 151.47 125.392C152.081 125.252 152.678 125.055 153.253 124.804C153.28 124.793 153.309 124.788 153.338 124.789C153.368 124.789 153.396 124.796 153.423 124.808C153.45 124.819 153.474 124.837 153.494 124.858C153.514 124.879 153.529 124.904 153.54 124.932C153.555 124.978 153.555 125.028 153.54 125.075C152.167 130.192 148.996 132.975 143.924 134.628C139.274 136.224 134.201 136.083 129.647 134.229Z" fill="white"/>
<path d="M189.255 126.748C187.862 135.764 183.528 143.131 176.254 148.848C171.115 152.92 165.313 156.078 159.103 158.186C159.031 158.213 158.955 158.224 158.878 158.218C158.802 158.212 158.728 158.189 158.662 158.15C150.527 153.78 144.016 155.389 139.129 162.975C139.056 163.089 138.957 163.183 138.841 163.251C138.724 163.318 138.593 163.357 138.458 163.364L127.163 164.055C127.037 164.061 126.914 164.024 126.813 163.949C126.712 163.874 126.64 163.767 126.609 163.646L122.086 145.123C122.075 145.071 122.084 145.018 122.112 144.973C122.14 144.928 122.184 144.896 122.235 144.882C124.284 144.509 129.017 142.063 127.414 139.295C126.901 138.379 126.179 138.491 125.549 139.238C121.328 144.243 116.21 142.114 112.742 137.488C112.73 137.47 112.724 137.449 112.724 137.427C112.724 137.405 112.73 137.384 112.742 137.366C112.762 137.329 112.793 137.3 112.831 137.282C112.869 137.265 112.911 137.26 112.952 137.268C117.855 138.148 122.537 138.021 128.156 137.959L130.964 138.005C136.047 139.026 141.307 138.733 146.245 137.156C161.1 136.357 175.681 132.829 189.255 126.748Z" fill="white"/>
<path d="M129.647 137.596L131.005 138.005L128.197 137.959C128.707 137.996 129.215 137.869 129.647 137.596Z" fill="#FAC4C7"/>
<path d="M63.9382 151.053C61.9813 149.093 60.7313 145.634 59.84 142.979C59.7595 142.819 59.7128 142.644 59.703 142.466C59.6932 142.287 59.7204 142.108 59.7829 141.941C59.8454 141.773 59.9419 141.62 60.0663 141.491C60.1907 141.363 60.3404 141.261 60.506 141.193C60.7209 141.086 60.9674 141.063 61.1988 141.126C61.4302 141.189 61.6303 141.335 61.761 141.536C63.3286 143.958 64.5883 146.565 65.5108 149.298C65.8541 150.321 65.5109 151.155 64.4043 151.247C64.317 151.252 64.2296 151.237 64.1489 151.204C64.0682 151.17 63.9961 151.119 63.9382 151.053Z" fill="#15171C"/>
<path d="M112.086 141.331C114.136 143.588 116.185 144.744 119.258 145.02C119.339 145.022 119.416 145.051 119.477 145.103C119.538 145.156 119.578 145.228 119.591 145.307L125.226 169.868C125.329 170.303 125.16 170.477 124.714 170.379C120.251 169.391 115.667 169.059 111.108 169.392C111.041 169.404 110.971 169.401 110.906 169.382C110.84 169.363 110.78 169.328 110.73 169.281C110.68 169.234 110.642 169.176 110.618 169.112C110.595 169.048 110.587 168.979 110.596 168.911C110.57 167.739 110.483 166.48 110.34 165.145C109.569 157.849 108.283 150.616 106.492 143.501C106.451 143.327 106.518 143.229 106.692 143.214C108.508 143.044 110.241 142.373 111.697 141.275C111.726 141.253 111.76 141.237 111.795 141.228C111.83 141.219 111.867 141.217 111.904 141.222C111.94 141.227 111.975 141.239 112.006 141.258C112.037 141.277 112.065 141.302 112.086 141.331Z" fill="white"/>
<path d="M52.3711 146.74C55.5507 148.357 58.3148 150.684 60.4496 153.54C60.5019 153.605 60.5361 153.683 60.5487 153.766C60.5613 153.848 60.5518 153.933 60.5214 154.011C60.1218 155.106 59.2151 155.157 58.3083 154.573C56.7545 153.563 55.2878 152.425 53.9233 151.171C53.1069 150.509 52.3954 149.727 51.8127 148.853C51.6886 148.701 51.6059 148.519 51.5727 148.325C51.5395 148.131 51.5569 147.933 51.6232 147.748C51.8142 147.372 52.067 147.031 52.3711 146.74Z" fill="#15171C"/>
<path d="M56.0927 161.377C56.4082 160.511 54.4333 158.999 51.6816 157.998C48.93 156.998 46.4436 156.889 46.1282 157.754C45.8127 158.62 47.7876 160.133 50.5393 161.133C53.2909 162.134 55.7773 162.243 56.0927 161.377Z" fill="#15171C"/>
</g>
<defs>
<clipPath id="clip0_101_3696">
<rect width="253" height="196" fill="white" transform="translate(0.5 0.418579)"/>
</clipPath>
</defs>
</svg>
