<svg width="296" height="252" viewBox="0 0 296 252" fill="none" xmlns="http://www.w3.org/2000/svg">
<ellipse cx="244.3" cy="69.084" rx="6.29972" ry="13.084" fill="#00FFA3"/>
<ellipse cx="291.882" cy="104.72" rx="3.39216" ry="6.78431" fill="#00FFA3"/>
<ellipse cx="260.383" cy="126.527" rx="13.5686" ry="28.591" fill="#00FFA3"/>
<path d="M240.677 175.731C242.12 175.283 243.463 174.587 244.607 173.691C245.055 173.343 245.453 172.995 245.801 172.597C247.244 171.005 248.438 169.164 249.283 167.224C249.532 166.677 249.781 166.08 249.98 165.483C250.079 165.235 250.179 164.986 250.228 164.737C250.278 164.488 250.427 164.19 250.527 163.891C249.184 164.986 247.094 166.528 244.856 167.125C243.463 167.573 241.921 167.473 240.578 166.876C240.329 166.777 240.08 166.627 239.881 166.428C234.807 162.897 239.583 158.718 239.583 158.718C233.812 158.618 233.912 155.335 234.907 152.798L233.464 153.544C232.967 153.793 232.519 154.092 232.071 154.39L231.375 154.838L230.778 155.236C229.186 156.33 227.893 157.823 227.047 159.564C226.201 161.354 225.803 163.344 225.853 165.334C225.853 166.379 225.953 167.423 226.152 168.468C226.251 168.965 226.351 169.513 226.5 170.01C226.948 169.562 227.594 169.413 228.241 169.513C228.689 169.612 229.037 169.712 229.385 169.811C229.733 169.911 230.131 170.01 230.48 170.159C231.226 170.408 231.972 170.756 232.668 171.104C233.464 171.502 234.161 172.05 234.758 172.647C235.504 173.393 236.051 174.338 236.3 175.333C236.349 175.631 236.349 175.979 236.3 176.278C236.747 176.278 237.195 176.278 237.643 176.278C238.588 176.228 239.483 176.079 240.379 175.88L240.677 175.731Z" fill="#9B7256"/>
<path d="M230.728 174.537C230.23 174.238 229.733 174.04 229.186 173.841C228.937 173.741 228.738 173.691 228.489 173.592L228.041 174.04L231.772 176.477C231.922 176.179 232.071 175.88 232.22 175.631C232.17 175.532 232.071 175.432 231.971 175.333C231.573 175.034 231.175 174.786 230.728 174.537Z" fill="#414758"/>
<path d="M217.098 185.232C219.436 186.028 222.371 187.421 224.46 190.057C224.908 189.262 225.356 188.466 225.804 187.67C226.401 186.625 226.948 185.58 227.545 184.536C228.142 183.491 228.689 182.446 229.236 181.352C229.783 180.258 230.33 179.213 230.878 178.168C231.126 177.621 231.425 177.124 231.674 176.576L227.943 174.139C224.311 177.77 220.68 181.452 217.098 185.232Z" fill="#414758"/>
<path d="M239.633 158.718C239.633 158.718 234.857 162.896 239.931 166.428C240.18 166.578 240.379 166.727 240.628 166.876C241.971 167.473 243.513 167.573 244.906 167.125C247.144 166.528 249.234 164.986 250.577 163.891C250.676 163.643 250.726 163.394 250.826 163.145C250.925 162.896 250.975 162.648 251.074 162.349C251.224 161.802 251.373 161.305 251.472 160.757C252.467 156.181 253.014 151.555 253.114 146.879C253.164 145.685 253.164 144.491 253.164 143.347C252.069 144.391 250.925 145.287 249.681 146.132C248.438 146.928 247.095 147.674 245.752 148.271C244.806 148.719 243.812 149.117 242.866 149.515L241.125 150.211C239.533 150.858 237.942 151.455 236.449 152.152C235.952 152.4 235.454 152.599 234.957 152.848C233.962 155.335 233.813 158.618 239.633 158.718Z" fill="#00FFA3"/>
<path d="M214.014 188.516C213.118 189.51 212.223 190.456 211.327 191.45C208.89 194.186 206.452 196.922 204.114 199.708C205.059 200.106 205.955 200.703 206.701 201.449C207.547 202.295 208.243 203.34 208.741 204.434C208.84 204.683 208.989 204.931 209.039 205.18C209.089 205.329 209.139 205.429 209.188 205.578C209.238 205.727 209.288 205.877 209.338 206.076C209.537 206.772 209.636 207.419 209.636 208.165C209.636 209.508 209.288 210.801 208.691 211.995C208.442 212.493 208.144 213.04 207.795 213.488L208.989 214.333C212.322 209.707 215.456 204.931 218.491 200.106C219.137 199.111 219.784 198.067 220.381 197.072L222.222 193.987C220.381 190.257 216.003 188.913 214.014 188.516Z" fill="#8B8FA2"/>
<path d="M206.751 214.682C205.358 216.124 203.816 217.318 202.075 218.313C200.483 219.258 198.841 220.104 197.15 220.8C193.867 222.143 190.434 223.238 187.002 224.084L185.709 224.382C184.017 227.018 182.425 229.754 180.933 232.49C180.485 233.286 180.038 234.082 179.64 234.928C179.441 236.619 179.192 238.51 178.794 240.649C179.192 240.649 179.59 240.748 179.938 240.947C180.535 241.345 181.033 241.644 181.58 242.042C182.127 242.44 182.624 242.788 183.122 243.186C183.52 243.484 183.868 243.832 184.216 244.131L184.465 243.882C184.913 243.434 185.261 242.987 185.709 242.589L188.146 239.952L190.584 237.316C191.38 236.42 192.126 235.525 192.922 234.63L195.26 231.894C196.006 230.998 196.852 230.103 197.548 229.158L202.025 223.536C204.413 220.452 206.701 217.368 208.94 214.184L207.795 213.339C207.447 213.836 207.099 214.284 206.751 214.682Z" fill="#8B8FA2"/>
<path d="M189.888 106.336C189.49 105.938 189.042 105.59 188.644 105.192C187.202 103.948 185.66 102.754 184.068 101.66C182.178 100.367 180.238 99.2226 178.198 98.2277C175.81 98.7251 172.079 99.6205 167.304 100.914L168.448 101.362C169.493 101.76 169.99 102.904 169.592 103.948C169.294 104.695 168.547 105.242 167.751 105.242C167.503 105.242 167.254 105.192 167.005 105.093L160.986 102.705C144.918 107.48 121.339 116.086 97.8097 130.413C97.3123 131.308 96.8646 132.204 96.4169 133.149C96.1184 133.895 95.3722 134.343 94.5763 134.343C93.9296 134.343 93.2829 133.994 92.9347 133.447C85.7714 138.024 78.9065 143.048 72.3899 148.47C73.4843 148.62 74.2802 149.565 74.131 150.659C74.0315 151.555 73.3351 152.251 72.4397 152.4C72.2407 152.45 70.1514 152.748 67.1169 152.997L66.4205 153.644C66.321 155.484 66.321 157.325 66.4205 159.166C67.6641 158.569 68.3606 158.171 68.4103 158.121C69.4052 157.623 70.5991 157.972 71.0965 158.967C71.594 159.862 71.2955 161.006 70.4001 161.553C70.2509 161.653 68.9575 162.349 66.8682 163.344C67.2662 165.881 67.9129 168.418 68.858 170.806C78.9065 161.255 122.533 123.797 195.41 112.455C193.768 110.266 191.928 108.226 189.888 106.336ZM124.821 128.871C109.5 130.463 98.5062 142.302 98.4067 142.401C97.6605 143.197 96.4169 143.247 95.5712 142.501C94.7255 141.755 94.7255 140.511 95.4717 139.665C95.9692 139.118 107.61 126.632 124.423 124.891C125.518 124.792 126.513 125.588 126.612 126.682C126.712 127.826 125.916 128.821 124.821 128.871ZM171.482 112.704C154.718 112.704 147.306 120.414 147.207 120.514C146.461 121.309 145.217 121.359 144.371 120.613C143.575 119.867 143.526 118.623 144.272 117.778C144.62 117.429 152.977 108.724 171.433 108.724C172.527 108.724 173.422 109.619 173.422 110.714C173.422 111.808 172.577 112.704 171.482 112.704Z" fill="#E36359"/>
<path d="M181.53 242.041C180.983 241.643 180.486 241.345 179.889 240.947C179.54 240.748 179.142 240.649 178.744 240.649C178.496 241.892 178.247 243.235 177.949 244.678L178.446 245.325C178.794 245.772 179.142 246.22 179.491 246.668C179.839 247.115 180.088 247.464 180.386 247.862L183.122 245.175L184.167 244.18C183.818 243.832 183.421 243.534 183.072 243.235C182.575 242.788 182.077 242.39 181.53 242.041Z" fill="#8B8FA2"/>
<path d="M178.496 245.325L177.949 244.678C177.501 246.867 176.904 249.255 176.208 251.841C176.854 251.294 177.451 250.747 178.098 250.15L180.436 247.812C180.137 247.414 179.839 247.016 179.541 246.618C179.242 246.22 178.844 245.772 178.496 245.325Z" fill="#8B8FA2"/>
<path d="M177.451 244.081L177.351 243.932C176.655 243.086 176.754 241.842 177.6 241.146C177.948 240.897 178.346 240.698 178.794 240.698C179.192 238.559 179.441 236.669 179.64 234.978C176.904 240.251 174.466 245.673 172.327 251.244C172.228 252.189 172.874 253.085 173.77 253.334C173.919 253.383 174.118 253.383 174.267 253.383C174.367 253.383 174.466 253.383 174.566 253.383C175.113 252.886 175.66 252.438 176.207 251.941C176.904 249.304 177.5 246.916 177.948 244.728L177.451 244.081Z" fill="#8B8FA2"/>
<path d="M177.303 243.931L177.402 244.081L177.9 244.727C178.198 243.285 178.496 241.942 178.695 240.698C178.248 240.698 177.85 240.897 177.502 241.146C176.755 241.792 176.606 243.036 177.303 243.931Z" fill="#8B8FA2"/>
<path d="M173.769 253.284C172.824 253.035 172.227 252.14 172.326 251.195C171.73 252.687 171.182 254.229 170.635 255.771C170.486 256.269 170.337 256.716 170.187 257.164L170.237 257.114L170.436 256.965L170.735 256.716L171.381 256.119L172.724 254.925L174.565 253.284C174.466 253.284 174.366 253.284 174.267 253.284C174.117 253.334 173.918 253.334 173.769 253.284Z" fill="#8B8FA2"/>
<path d="M183.669 252.886L182.077 254.428C180.286 256.07 178.396 257.661 176.555 259.303L175.162 260.497L174.466 261.094L174.267 261.243C174.217 261.293 174.167 261.343 174.068 261.392C173.869 261.542 173.72 261.641 173.57 261.79C172.924 262.238 172.277 262.636 171.581 262.934C170.685 263.382 169.74 263.631 168.795 263.73C168.596 263.73 168.496 263.73 168.297 263.73C168.098 263.73 167.899 263.681 167.7 263.681C167.501 263.631 167.253 263.581 167.054 263.531C166.805 263.432 166.606 263.332 166.357 263.233C165.91 262.984 165.512 262.636 165.163 262.238C164.865 261.89 164.666 261.492 164.467 261.094C164.318 260.795 164.218 260.447 164.168 260.099C164.119 259.85 164.119 259.552 164.069 259.253C164.069 259.005 164.069 258.756 164.069 258.557C164.069 258.358 164.119 258.109 164.119 257.91C164.318 256.517 164.666 255.124 165.163 253.781C168.049 245.673 171.63 237.813 175.859 230.302C175.908 228.909 175.859 227.466 175.66 226.073C172.526 226.521 169.392 226.819 166.308 227.018C165.213 227.118 164.268 226.322 164.168 225.228C164.069 224.183 164.815 223.238 165.86 223.089L166.954 222.89C172.177 221.994 177.401 220.95 182.475 219.656C183.519 219.407 184.564 219.109 185.559 218.81L186.305 218.611C187.698 218.214 189.041 217.766 190.384 217.268C191.877 216.721 193.369 216.124 194.812 215.527C196.254 214.881 197.647 214.134 198.99 213.338C200.234 212.592 201.378 211.697 202.373 210.652C202.771 210.254 203.119 209.757 203.368 209.259C203.567 208.911 203.666 208.513 203.666 208.165C203.666 208.016 203.616 207.867 203.616 207.717L203.567 207.618L203.467 207.419C203.417 207.27 203.368 207.12 203.268 206.971C203.069 206.523 202.771 206.076 202.472 205.678C202.174 205.379 201.875 205.18 201.477 205.031C200.98 204.882 200.433 204.782 199.886 204.782H199.836C198.692 204.782 197.597 204.882 196.503 205.031C196.105 205.081 195.757 205.131 195.359 205.23C194.563 205.379 193.717 205.528 192.871 205.678C190.384 206.125 187.748 206.623 185.111 206.872C181.53 207.27 177.948 207.27 174.416 206.772C174.217 206.722 173.968 206.673 173.819 206.573V206.623C173.272 206.424 172.874 205.976 172.725 205.429C171.929 203.141 170.685 200.206 169.392 197.321C169.193 197.122 169.043 196.823 168.944 196.574C168.894 196.425 168.894 196.326 168.845 196.176C166.805 191.6 164.815 187.62 164.765 187.57C164.716 187.222 164.566 186.924 164.417 186.625C164.119 185.68 164.467 184.636 165.263 184.088C169.441 181.352 173.62 178.766 177.649 175.98C177.799 175.88 177.898 175.781 178.047 175.681C178.943 175.084 179.788 174.487 180.634 173.841C181.629 173.144 182.624 172.398 183.569 171.652C185.459 170.16 187.3 168.568 189.041 166.926L190.285 165.683L190.931 165.036L191.528 164.389L192.722 163.096L193.866 161.753L194.414 161.056L194.961 160.36L196.005 158.917L197 157.425L197.498 156.679L197.945 155.933L198.841 154.39L199.637 152.848L200.035 152.052C200.184 151.804 200.283 151.505 200.383 151.256L201.079 149.665C201.278 149.117 201.477 148.57 201.676 148.023L201.975 147.227C202.074 146.978 202.124 146.68 202.224 146.381L202.721 144.69C202.87 144.143 202.97 143.546 203.119 142.999L203.318 142.153C203.368 141.855 203.417 141.606 203.467 141.307L203.716 139.566C203.766 139.019 203.766 138.422 203.815 137.825L203.865 136.98C203.865 136.681 203.865 136.383 203.865 136.134V134.393C203.815 133.796 203.766 133.249 203.716 132.652C203.616 131.508 203.417 130.314 203.169 129.17L202.97 128.274L202.771 127.429C202.621 126.881 202.472 126.284 202.323 125.737C202.174 125.19 201.975 124.593 201.826 124.046L201.527 123.2L201.378 122.852C201.328 122.752 201.278 122.603 201.229 122.454C200.98 121.907 200.781 121.409 200.532 120.862C200.283 120.315 200.035 119.818 199.736 119.27C199.438 118.723 199.189 118.226 198.891 117.728C198.592 117.231 198.294 116.684 197.995 116.186C197.249 114.942 196.403 113.749 195.508 112.555C122.532 123.847 78.9549 161.355 68.9064 170.856C69.4536 172.299 70.15 173.692 70.946 175.035C72.2891 177.323 73.8809 179.462 75.6717 181.402C75.9205 181.651 76.1195 181.9 76.3682 182.148C76.6169 182.397 76.8656 182.596 77.0646 182.845C77.5123 183.342 78.0098 183.74 78.5072 184.188C79.0047 184.636 79.5021 185.033 80.0493 185.431L80.8453 186.028L81.6909 186.625C83.9295 188.217 86.3172 189.56 88.8045 190.754C91.3415 191.948 93.9282 192.943 96.6145 193.689C102.086 195.231 107.757 196.127 113.478 196.276C119.249 196.525 125.069 195.977 130.889 195.281C132.083 195.132 133.177 196.027 133.326 197.221C133.426 198.315 132.779 199.31 131.735 199.559C125.765 201.051 119.696 201.947 113.528 202.146C113.13 202.146 112.782 202.146 112.384 202.196L112.284 202.544C112.085 203.19 111.936 203.787 111.687 204.384C111.439 204.981 111.24 205.578 111.041 206.175C110.842 206.772 110.543 207.369 110.294 207.916C110.046 208.463 109.797 209.06 109.498 209.657C109.2 210.254 108.951 210.801 108.653 211.349L107.807 213.04L106.912 214.682C106.315 215.776 105.668 216.821 105.021 217.915C104.375 219.009 103.678 220.004 103.032 221.099L100.942 224.183L98.7535 227.217L94.3262 233.038C92.9333 234.928 91.6897 236.868 90.4958 238.858C89.3517 240.848 88.307 242.937 87.4116 245.026C87.2126 245.573 86.9639 246.071 86.7649 246.618L86.168 248.21C85.8695 249.304 85.4716 250.349 85.2726 251.493C84.7254 253.682 84.4269 255.871 84.3772 258.109C84.3274 260.298 84.4766 262.487 84.9244 264.576C85.8695 268.854 87.9091 272.784 90.844 276.067C93.9282 279.45 97.5099 282.335 101.49 284.574C105.618 286.912 109.946 288.901 114.374 290.543C115.418 290.891 115.965 292.035 115.617 293.08C115.269 294.075 114.175 294.672 113.18 294.373C110.891 293.776 108.603 293.13 106.315 292.284C106.315 292.533 106.365 292.782 106.365 293.03C106.464 293.727 106.663 294.373 106.961 295.02C107.558 296.313 108.454 297.458 109.648 298.303C110.941 299.199 112.384 299.945 113.876 300.542C115.468 301.188 117.11 301.835 118.801 302.432C122.134 303.626 125.516 304.671 128.899 305.566C132.282 306.511 135.714 307.257 139.147 307.805C140.838 308.103 142.579 308.252 144.221 308.402L145.464 308.451C145.663 308.451 145.862 308.451 146.061 308.451H146.608C147.305 308.402 148.001 308.302 148.648 308.153C149.195 308.004 149.742 307.755 150.24 307.456C150.588 307.257 150.886 306.909 151.036 306.561C151.185 306.213 151.284 305.865 151.235 305.516C151.185 305.019 150.986 304.571 150.737 304.123C150.439 303.626 150.091 303.178 149.643 302.78C149.394 302.581 149.145 302.333 148.847 302.183C148.698 302.084 148.598 301.984 148.399 301.885L147.902 301.586C146.459 300.741 144.917 299.995 143.375 299.348C140.191 298.005 136.858 296.861 133.525 295.816C132.58 295.667 131.884 294.871 131.884 293.876C131.884 293.776 131.884 293.677 131.884 293.577C131.983 293.03 132.282 292.583 132.729 292.284L133.028 292.085L134.023 291.438C136.112 290.046 138.152 288.653 140.042 287.16C141.136 286.265 142.231 285.419 143.176 284.474C144.171 283.579 145.066 282.584 145.962 281.589C147.603 279.699 148.847 277.51 149.643 275.122C150.339 272.883 150.439 270.446 149.941 268.158C149.394 265.67 148.399 263.283 147.006 261.094C145.564 258.756 143.922 256.567 142.082 254.527C140.191 252.438 138.201 250.399 136.062 248.508C135.018 247.513 133.923 246.618 132.829 245.673C131.735 244.728 130.59 243.832 129.496 242.987L129.446 242.937C128.551 242.29 128.302 241.047 128.949 240.151C129.546 239.305 130.64 239.057 131.536 239.554C132.978 240.251 134.272 240.997 135.615 241.793C136.958 242.589 138.201 243.434 139.445 244.28C140.689 245.126 141.932 246.121 143.126 247.066C144.32 248.011 145.464 249.056 146.608 250.15C148.897 252.339 150.986 254.776 152.777 257.413C154.667 260.198 156.01 263.332 156.806 266.616C157.602 270.098 157.403 273.779 156.259 277.162C155.115 280.395 153.274 283.38 150.837 285.817C149.991 286.663 149.145 287.459 148.2 288.205C149.991 287.558 151.732 286.762 153.374 285.867C160.985 281.688 164.467 276.913 164.517 276.863C165.064 275.918 166.258 274.973 167.203 275.52C168.148 276.067 168.447 277.311 167.85 278.256C167.651 278.604 165.362 283.778 158.846 288.056C162.328 289.996 165.959 291.737 169.64 293.229C170.735 293.677 171.879 294.075 172.973 294.423C173.521 294.572 174.068 294.771 174.665 294.921C175.262 295.07 175.759 295.219 176.406 295.319C178.744 295.866 181.082 296.313 183.42 296.662C184.514 296.811 185.609 296.861 186.653 296.861C187.499 296.861 188.345 296.711 189.141 296.413C189.588 296.264 189.936 295.916 190.086 295.468L190.185 295.269C190.185 295.169 190.235 295.12 190.235 295.02C190.235 294.871 190.285 294.672 190.334 294.523C190.384 294.224 190.384 293.926 190.334 293.627C190.285 293.279 190.135 292.931 189.986 292.632C189.787 292.234 189.588 291.886 189.29 291.588C188.643 290.792 187.947 290.095 187.151 289.449C186.255 288.752 185.36 288.106 184.415 287.509C183.917 287.21 183.42 286.912 182.922 286.613L181.729 285.917C181.331 286.215 180.883 286.514 180.485 286.812C179.44 287.459 178.346 288.155 177.301 288.802C176.257 289.449 175.112 289.946 173.968 290.543C173.023 291.09 171.779 290.742 171.282 289.747C170.785 288.852 171.033 287.757 171.879 287.16L171.929 287.111C175.61 284.225 179.192 281.241 181.927 277.808L182.922 276.515C183.271 276.117 183.519 275.619 183.818 275.172L184.266 274.525C184.415 274.326 184.514 274.077 184.663 273.829C184.912 273.381 185.161 272.933 185.41 272.436C186.305 270.645 186.902 268.705 187.2 266.715C187.748 262.835 186.803 258.756 184.962 254.876C184.465 254.378 184.067 253.632 183.669 252.886ZM158.696 155.087C158.647 156.679 158.249 158.221 157.552 159.614C157.154 160.41 156.607 161.106 156.01 161.703C155.364 162.3 154.617 162.847 153.772 163.195C153.026 163.544 152.18 163.743 151.384 163.892C150.538 163.991 149.742 163.991 148.897 163.892C147.106 163.693 145.464 162.897 144.171 161.603C143.524 160.907 143.027 160.161 142.679 159.265C142.579 159.066 142.529 158.867 142.48 158.619C142.43 158.42 142.33 158.171 142.33 158.072L142.131 157.276C141.833 156.231 141.485 155.137 141.087 154.042C139.694 150.063 138.052 146.083 136.411 142.103C136.062 142.253 135.764 142.352 135.416 142.452C134.371 142.75 133.326 142.899 132.232 142.899C131.187 142.899 130.143 142.75 129.148 142.452C128.203 142.203 127.258 141.855 126.362 141.407C125.914 141.158 125.516 140.959 125.118 140.661C124.919 140.512 124.721 140.412 124.522 140.263C124.323 140.114 124.124 139.964 123.875 139.765C123.129 139.168 122.979 138.024 123.576 137.278C124.074 136.631 124.969 136.432 125.715 136.781L125.964 136.88L126.412 137.079L126.909 137.328C127.258 137.477 127.606 137.626 127.954 137.726C128.65 137.975 129.347 138.124 130.093 138.273C131.436 138.522 132.779 138.422 134.073 138.074C134.719 137.875 135.316 137.626 135.863 137.278C136.46 136.93 137.008 136.482 137.505 136.034C138.649 134.99 139.694 133.846 140.639 132.652C141.136 132.005 141.883 131.309 143.723 131.756C144.022 131.806 144.32 131.856 144.619 131.906C145.216 131.955 145.812 132.005 146.409 132.005C147.504 132.005 148.598 131.756 149.593 131.309C150.091 131.11 150.538 130.811 150.886 130.463C151.085 130.264 151.284 130.115 151.483 129.916C151.682 129.717 151.881 129.518 152.031 129.269C152.777 128.274 153.423 127.18 153.971 125.986V125.936C154.369 125.041 155.463 124.693 156.309 125.091C157.005 125.439 157.403 126.135 157.304 126.931C157.055 128.622 156.508 130.214 155.612 131.657C154.966 132.751 154.12 133.746 153.075 134.542C153.921 136.432 154.667 138.372 155.413 140.313C156.309 142.601 157.055 144.939 157.652 147.327C157.95 148.57 158.199 149.814 158.348 151.107C158.448 151.754 158.498 152.401 158.498 153.047C158.498 153.346 158.547 153.694 158.547 153.992C158.547 154.291 158.696 154.689 158.696 155.087Z" fill="white"/>
<path d="M186.654 180.457C185.36 180.357 184.017 180.258 182.724 180.208C178.396 183.044 173.819 185.431 168.994 187.272C169.641 188.665 170.685 190.854 171.83 193.291C175.909 191.6 180.187 190.456 184.515 189.958C185.758 189.809 187.052 189.66 188.345 189.61C188.992 189.56 189.638 189.56 190.285 189.56C190.932 189.56 191.479 189.56 191.976 189.511C192.922 189.461 193.916 189.312 194.812 189.013C195.16 188.914 195.508 188.764 195.857 188.565C196.105 188.416 196.304 188.217 196.503 188.018C196.851 187.521 197.1 186.874 197.1 186.227V185.879C197.1 185.78 197.1 185.63 197.1 185.531C197.1 185.382 197.1 185.183 197.1 185.033C197.05 184.685 197.001 184.387 196.851 184.088C196.553 183.442 196.105 182.894 195.508 182.496C194.762 181.999 193.966 181.601 193.121 181.352C192.126 181.054 191.131 180.855 190.086 180.755C189.539 180.706 189.041 180.656 188.445 180.606L186.654 180.457Z" fill="white"/>
<path d="M92.7349 131.607C93.9785 128.771 95.6201 126.085 97.6597 123.697C98.4058 122.852 99.6495 122.802 100.495 123.548C101.341 124.294 101.391 125.538 100.644 126.384C99.55 127.677 98.6048 129.02 97.8089 130.463C121.338 116.136 144.967 107.53 160.985 102.755L159.592 102.208C158.548 101.81 158.05 100.665 158.448 99.6208C158.846 98.5761 159.99 98.0787 161.035 98.4767L167.303 100.964C172.078 99.6705 175.809 98.8249 178.197 98.2777C177.65 97.9792 177.053 97.7305 176.456 97.432C170.885 95.4422 165.064 94.0493 159.194 93.2534C158.498 93.1539 157.802 93.0544 157.105 93.0047C156.11 95.7407 152.479 100.964 139.197 103.451C124.97 106.088 116.165 101.412 112.882 99.0736C110.892 99.9193 108.902 100.864 106.962 101.909C106.564 102.108 106.116 102.208 105.669 102.158C104.922 102.307 104.127 102.009 103.679 101.362L103.629 101.312C102.982 100.417 102.186 99.4218 101.44 98.4767C100.694 97.5315 99.8982 96.5863 99.0525 95.6909C97.4607 93.8504 95.7693 92.0098 94.078 90.219L91.4415 87.5327C90.5958 86.6373 89.6507 85.7916 88.7553 84.946C87.0142 83.2049 85.1736 81.5633 83.333 79.872C75.9707 73.2558 68.2105 67.0377 60.1518 61.2673C58.162 59.8246 56.1224 58.3323 54.0829 56.9892L47.9145 52.8106C43.6861 50.1741 39.5573 47.4381 35.2792 44.9508L32.0955 43.0605L30.5036 42.1153L29.7077 41.6179C29.5087 41.5184 29.26 41.3692 29.061 41.2697C27.0712 40.2748 24.9819 39.5286 22.7931 39.0809C20.7038 38.6332 18.5648 38.5337 16.4755 38.8819C14.4857 39.1804 12.6451 39.9763 11.0533 41.2199C10.2573 41.8666 9.51115 42.5631 8.81472 43.3092C8.16803 44.0554 7.57109 44.9011 7.12338 45.7965C6.27771 47.3883 5.97924 49.2787 6.32746 51.0695C6.97415 54.7009 10.0583 58.4318 13.64 60.8195C14.0877 61.118 14.5354 61.3667 14.9831 61.6652L16.6247 62.5606L19.9576 64.3515C22.1464 65.5453 24.385 66.789 26.524 68.0326C30.9016 70.5199 35.2294 73.0569 39.5573 75.6934C43.8353 78.3299 48.1134 80.9664 52.3418 83.7521C54.4311 85.1449 56.5701 86.5378 58.6097 87.9804L61.7436 90.1195L64.8278 92.3083C65.8725 93.0544 66.8674 93.7509 67.912 94.497L70.9465 96.7853C72.986 98.2777 74.9758 99.8695 76.9657 101.412L78.458 102.606L79.9006 103.849L82.8356 106.287C83.8305 107.083 84.7259 107.978 85.6711 108.824L88.4568 111.41C89.2527 112.157 89.3025 113.4 88.5563 114.246C88.3076 114.544 87.9593 114.743 87.6111 114.843C83.134 118.424 79.2539 122.653 76.12 127.428C74.4784 129.816 73.0358 132.353 71.7922 134.94C70.5485 137.527 69.5039 140.213 68.6582 142.949C68.0115 144.988 67.5141 147.078 67.1161 149.217C70.0013 148.968 71.8916 148.719 71.9414 148.67C72.0906 148.67 72.2896 148.67 72.4388 148.67C78.9555 143.247 85.8203 138.223 92.9836 133.647C92.5359 132.9 92.4862 132.204 92.7349 131.607ZM50.7997 76.1908C42.0445 70.6691 48.1134 65.1474 48.1134 65.1474C48.1134 65.1474 51.7448 60.0236 60.8979 66.0925C70.0511 72.1615 100.147 102.655 100.147 102.655L92.1379 107.978C86.268 101.113 59.6046 81.7125 50.7997 76.1908Z" fill="white"/>
<path d="M153.375 151.704C153.275 150.609 153.076 149.515 152.877 148.47C152.43 146.282 151.783 144.043 151.136 141.805C150.589 139.964 150.042 138.173 149.445 136.333L149.047 136.432C148.152 136.581 147.256 136.681 146.311 136.631C145.416 136.581 144.57 136.432 143.724 136.233C143.476 136.183 143.277 136.084 143.028 136.034C142.381 137.228 141.585 138.273 140.69 139.268C140.441 139.566 140.143 139.815 139.844 140.064C142.033 144.043 144.023 148.172 145.714 152.4C146.162 153.544 146.61 154.689 146.958 155.932L147.207 156.877C147.256 157.076 147.256 157.126 147.306 157.176C147.306 157.226 147.356 157.325 147.405 157.375C147.505 157.624 147.654 157.823 147.853 158.022C148.301 158.419 148.848 158.668 149.445 158.718C149.793 158.768 150.141 158.768 150.539 158.718C150.888 158.668 151.236 158.569 151.534 158.419C151.783 158.32 152.032 158.121 152.281 157.922C152.529 157.723 152.678 157.474 152.828 157.176C153.176 156.479 153.375 155.684 153.425 154.888C153.425 154.689 153.425 154.39 153.425 154.141C153.425 153.893 153.425 153.594 153.425 153.345C153.474 152.798 153.425 152.251 153.375 151.704Z" fill="white"/>
<path d="M135.915 89.274C136.064 89.5227 136.213 89.8212 136.362 90.0699L145.316 89.3238C145.316 89.3238 145.217 89.075 145.068 88.6771C143.725 88.7268 142.431 88.7766 141.088 88.8263C139.397 88.9258 137.656 89.075 135.915 89.274Z" fill="#F7C1C7"/>
<path d="M141.086 88.8263C142.38 88.7268 143.723 88.677 145.066 88.677C143.225 84.001 131.535 55.2483 114.075 36.942C114.075 36.942 107.608 28.7341 99.9969 34.1066C92.3859 39.479 102.285 47.6372 102.285 47.6372C102.285 47.6372 128.899 76.8377 135.963 89.3237C137.654 89.075 139.395 88.9258 141.086 88.8263Z" fill="#F7C1C7"/>
<path d="M60.9488 66.0922C51.7957 59.9736 48.1643 65.0973 48.1643 65.0973C48.1643 65.0973 42.0456 70.619 50.8505 76.1408C59.6057 81.6625 86.2691 101.113 92.1888 107.978L100.198 102.655C100.148 102.655 70.0522 72.1611 60.9488 66.0922Z" fill="#F7C1C7"/>
<path d="M61.0981 169.214C60.8991 168.12 60.7002 166.976 60.5509 165.882C56.7205 167.175 52.7907 168.021 48.7613 168.468H48.5623C47.4679 168.518 46.5228 167.672 46.473 166.578C46.4233 165.484 47.269 164.538 48.3633 164.489C52.3927 164.041 56.3723 163.146 60.2027 161.753C60.153 161.255 60.153 160.708 60.153 160.211C53.4871 158.271 35.3301 155.336 17.3223 172C17.3223 172 32.5444 180.009 54.482 172.547C54.482 172.547 36.3748 188.565 51.5968 213.488C51.5968 213.488 64.1326 203.141 65.1772 180.606C64.7793 179.91 64.431 179.213 64.1326 178.517C62.7397 175.532 61.7448 172.398 61.0981 169.214Z" fill="#E36359"/>
<path d="M171.481 108.724C152.976 108.724 144.669 117.43 144.32 117.778C143.574 118.574 143.624 119.867 144.42 120.613C145.216 121.359 146.509 121.31 147.255 120.514C147.305 120.414 154.717 112.704 171.531 112.704C172.625 112.704 173.521 111.808 173.521 110.714C173.521 109.62 172.576 108.724 171.481 108.724Z" fill="black"/>
<path d="M158.448 99.571C158.051 100.616 158.548 101.76 159.593 102.158L160.986 102.705L167.005 105.093C167.253 105.192 167.502 105.242 167.751 105.242C168.845 105.242 169.741 104.347 169.741 103.252C169.741 102.407 169.243 101.71 168.447 101.412L167.303 100.964L161.035 98.4766C159.991 98.0289 158.846 98.5264 158.448 99.571Z" fill="black"/>
<path d="M158.648 153.097C158.598 152.45 158.548 151.804 158.498 151.157C158.349 149.863 158.1 148.62 157.802 147.376C157.205 144.988 156.459 142.65 155.563 140.362C154.817 138.422 154.071 136.482 153.225 134.592C154.22 133.796 155.066 132.851 155.762 131.706C156.608 130.264 157.205 128.622 157.454 126.981C157.603 126.036 156.906 125.14 155.961 124.991C155.215 124.891 154.469 125.289 154.121 125.986V126.036C153.574 127.18 152.927 128.274 152.131 129.319C151.932 129.567 151.733 129.766 151.584 129.965C151.385 130.164 151.186 130.363 150.987 130.513C150.589 130.861 150.141 131.159 149.693 131.358C148.699 131.806 147.604 132.055 146.51 132.055C145.913 132.055 145.316 132.005 144.719 131.955C144.42 131.905 144.122 131.856 143.823 131.806C141.983 131.358 141.237 132.055 140.739 132.701C139.794 133.895 138.7 135.039 137.605 136.084C137.108 136.581 136.561 136.979 135.964 137.328C135.417 137.676 134.82 137.974 134.173 138.124C132.88 138.522 131.536 138.571 130.193 138.323C129.497 138.173 128.751 138.024 128.054 137.775C127.706 137.676 127.358 137.527 127.01 137.377L126.512 137.129L126.064 136.93L125.816 136.83C124.92 136.432 123.876 136.78 123.478 137.676C123.129 138.422 123.328 139.317 123.975 139.815C124.224 140.014 124.423 140.163 124.622 140.312C124.821 140.462 125.02 140.611 125.219 140.71C125.617 140.959 126.064 141.208 126.462 141.457C127.358 141.904 128.303 142.252 129.248 142.501C130.243 142.75 131.288 142.899 132.332 142.949C133.427 142.949 134.471 142.8 135.516 142.501C135.864 142.402 136.163 142.302 136.511 142.153C138.153 146.133 139.794 150.112 141.187 154.092C141.585 155.186 141.933 156.281 142.232 157.325L142.431 158.121C142.431 158.221 142.53 158.469 142.58 158.668C142.63 158.867 142.729 159.066 142.779 159.315C143.127 160.161 143.625 160.957 144.271 161.653C145.515 162.946 147.206 163.742 148.997 163.991C149.843 164.091 150.639 164.091 151.484 163.991C152.33 163.892 153.126 163.643 153.872 163.295C154.718 162.946 155.464 162.399 156.111 161.802C156.757 161.205 157.255 160.509 157.653 159.713C158.399 158.32 158.747 156.728 158.797 155.186C158.797 154.788 158.797 154.49 158.797 154.142C158.797 153.793 158.648 153.445 158.648 153.097ZM153.474 154.888C153.424 155.684 153.225 156.48 152.877 157.176C152.728 157.474 152.529 157.723 152.33 157.922C152.131 158.121 151.882 158.27 151.584 158.42C151.285 158.569 150.937 158.619 150.589 158.718C150.241 158.768 149.892 158.768 149.494 158.718C148.897 158.668 148.35 158.42 147.903 158.022C147.704 157.823 147.554 157.624 147.455 157.375C147.405 157.325 147.405 157.226 147.355 157.176C147.355 157.077 147.306 157.077 147.256 156.878L147.007 155.932C146.609 154.689 146.211 153.545 145.764 152.4C144.072 148.172 142.082 144.043 139.894 140.064C140.192 139.815 140.441 139.516 140.739 139.268C141.635 138.323 142.431 137.228 143.077 136.034C143.326 136.134 143.525 136.184 143.774 136.233C144.619 136.432 145.465 136.581 146.36 136.631C147.256 136.681 148.201 136.631 149.096 136.432L149.494 136.333C150.042 138.173 150.639 140.014 151.186 141.805C151.882 144.043 152.479 146.282 152.927 148.471C153.126 149.565 153.325 150.61 153.424 151.704C153.474 152.251 153.524 152.749 153.524 153.296C153.524 153.545 153.524 153.843 153.524 154.092C153.524 154.341 153.474 154.738 153.474 154.888Z" fill="black"/>
<path d="M124.422 124.941C107.609 126.732 95.9681 139.218 95.4707 139.715C94.7245 140.511 94.7743 141.805 95.5702 142.551C96.3661 143.297 97.6595 143.247 98.4057 142.451C98.5052 142.352 109.499 130.512 124.82 128.921C125.915 128.821 126.711 127.826 126.611 126.732C126.512 125.588 125.517 124.792 124.422 124.941Z" fill="black"/>
<path d="M100.495 123.548C99.699 122.802 98.4056 122.902 97.7092 123.698C95.7194 126.085 94.028 128.722 92.7844 131.607C92.3367 132.602 92.7844 133.796 93.8291 134.244C94.0778 134.343 94.3265 134.393 94.625 134.393C95.4209 134.393 96.1173 133.945 96.4656 133.199C96.8635 132.254 97.3112 131.358 97.8584 130.463C98.7041 129.02 99.6492 127.628 100.694 126.384C101.341 125.538 101.291 124.245 100.495 123.548Z" fill="black"/>
<path d="M260.028 135.935L259.978 134.044V133.845C259.978 133.298 259.929 132.751 259.879 132.104V132.054C259.63 130.015 257.839 128.572 255.8 128.821C254.506 128.97 253.362 129.816 252.815 131.06L252.218 132.502L252.168 132.651L251.92 133.248C251.82 133.497 251.671 133.696 251.572 133.945L250.875 135.288L250.079 136.532C246.796 142.6 236.499 145.784 233.962 147.127C233.415 147.426 232.867 147.724 232.32 148.023L230.728 148.968C230.181 149.316 229.684 149.664 229.186 150.013L228.39 150.56L227.594 151.157C226.55 152.002 225.555 152.997 224.709 154.092C223.863 155.186 223.167 156.38 222.62 157.673C221.625 160.161 221.177 162.897 221.426 165.583C221.525 166.876 221.724 168.17 222.073 169.413C222.222 170.01 222.421 170.657 222.62 171.254C222.719 171.552 222.819 171.851 222.968 172.149C223.068 172.448 223.217 172.696 223.366 173.045C219.386 176.875 215.407 180.755 211.527 184.735C210.333 185.929 209.189 187.172 208.044 188.366C204.811 191.848 201.578 195.38 198.493 199.012C197.101 199.161 195.708 199.36 194.315 199.658C192.574 200.006 190.932 200.454 189.291 200.802C187.649 201.151 186.057 201.549 184.415 201.847C181.63 202.394 178.745 202.693 175.909 202.792C175.262 201.101 174.466 199.211 173.621 197.27C177.352 196.276 181.232 195.629 185.062 195.38C186.206 195.33 187.4 195.281 188.544 195.281H190.285C190.882 195.281 191.529 195.281 192.225 195.281C192.922 195.281 193.668 195.181 194.365 195.131C195.111 195.032 195.857 194.883 196.603 194.634C197.399 194.385 198.195 194.037 198.891 193.639C199.687 193.142 200.433 192.545 201.03 191.848C201.627 191.102 202.125 190.256 202.423 189.361C202.722 188.565 202.871 187.719 202.97 186.874C202.97 186.675 203.02 186.476 203.02 186.277C203.02 186.078 203.02 185.929 203.02 185.68C203.02 185.232 203.02 184.784 202.921 184.337C202.821 183.441 202.572 182.596 202.224 181.75C201.528 180.158 200.384 178.765 198.941 177.77C197.697 176.875 196.255 176.228 194.762 175.781C193.419 175.383 192.027 175.184 190.634 175.034C190.335 175.034 189.987 174.985 189.688 174.985C190.982 173.89 192.275 172.796 193.519 171.602C197.449 167.971 200.831 163.792 203.567 159.166L204.562 157.425C204.861 156.828 205.159 156.231 205.458 155.634C206.104 154.44 206.552 153.146 207.099 151.903C207.348 151.256 207.547 150.609 207.746 149.963L208.094 149.018C208.194 148.719 208.293 148.371 208.343 148.023L208.89 146.033C209.039 145.386 209.139 144.69 209.288 144.043L209.487 143.048C209.537 142.7 209.587 142.352 209.636 142.053L209.885 140.014C209.935 139.317 209.935 138.621 209.985 137.974L210.034 136.93C210.034 136.581 210.034 136.233 209.985 135.885L209.885 133.845C209.835 133.149 209.736 132.502 209.636 131.806C209.487 130.463 209.238 129.12 208.89 127.826L208.691 126.881L208.442 125.886C208.293 125.239 208.094 124.593 207.895 123.946C207.696 123.299 207.497 122.653 207.249 122.006L206.9 121.061L206.701 120.563C206.652 120.364 206.552 120.265 206.502 120.066C206.204 119.469 205.905 118.822 205.607 118.225C205.308 117.628 205.01 117.031 204.662 116.484C204.015 115.34 203.269 114.196 202.523 113.102C200.234 109.769 197.548 106.734 194.514 104.098C197.648 100.914 201.329 98.3272 205.408 96.5364C206.403 96.0887 206.851 94.9446 206.453 93.8999C206.005 92.905 204.861 92.4573 203.816 92.8553C199.14 94.8948 194.961 97.8298 191.479 101.511C190.385 100.665 189.241 99.8196 188.097 99.0734C189.34 96.9841 192.027 93.0542 197.299 87.8807C198.095 87.1346 198.145 85.8909 197.399 85.0453C196.653 84.2493 195.409 84.1996 194.564 84.9458L194.514 84.9955C189.092 90.368 186.157 94.5466 184.764 96.9344C182.625 95.6907 180.436 94.5964 178.197 93.6014H178.148L177.998 93.5517C172.079 91.5619 165.96 90.169 159.792 89.4228C157.404 89.1244 154.966 88.9254 152.529 88.7762C151.882 86.7366 148.45 76.1409 140.689 61.8143C132.879 47.3384 119.1 26.1967 97.7593 7.59199L97.6599 7.54224C91.4417 2.7667 77.2643 -3.79966 67.962 5.60218C64.2311 9.38282 62.4402 13.6112 62.689 18.138C63.0869 26.3459 69.8523 32.6636 71.9416 34.4047C72.3395 34.7529 72.9862 35.2503 73.7822 35.897C96.7644 54.6012 114.673 73.0567 127.109 90.7162C125.666 91.0147 124.224 91.3629 122.831 91.7609C117.11 93.303 111.539 95.2928 106.117 97.5811C105.719 96.9841 105.271 96.4369 104.873 95.84C104.077 94.8451 103.331 93.8004 102.535 92.8055C100.943 90.8157 99.3014 88.8756 97.6101 86.9853L95.0731 84.1001C94.2274 83.1549 93.332 82.2595 92.4366 81.3641C90.6955 79.5236 88.8549 77.7825 87.0641 75.9916C79.7516 68.9776 71.9913 62.4609 63.8331 56.4418C61.7936 54.8997 59.8038 53.3576 57.7145 51.9647C55.6252 50.5221 53.5856 49.0297 51.4963 47.6369C47.2182 44.9009 43.0396 42.0654 38.7118 39.4787L35.4783 37.5386L33.8865 36.5437L33.0906 36.0462C32.7424 35.8473 32.4439 35.6483 32.0957 35.499C29.6084 34.2554 26.9719 33.3103 24.2359 32.7133C21.4005 32.1164 18.4655 31.9671 15.63 32.4148C12.6453 32.9123 9.80982 34.1062 7.37231 35.897C6.17842 36.7924 5.08403 37.8371 4.13887 38.9812C3.14397 40.1254 2.2983 41.369 1.60187 42.7121C0.855687 44.1547 0.358234 45.6471 0.159254 47.2389C-0.0894723 48.8308 -0.0397268 50.4724 0.258744 52.0145C0.855687 54.9992 2.19881 57.7352 4.08913 60.1229C5.83021 62.3615 7.96925 64.3015 10.357 65.8934C10.954 66.2913 11.6007 66.6893 12.2473 66.9878L13.9387 67.8832L17.2219 69.6243C19.4106 70.8181 21.5994 72.012 23.7882 73.2059C28.1658 75.5937 32.4936 78.0809 36.7717 80.6179C41.0996 83.1052 45.3279 85.692 49.5562 88.3285C51.6455 89.6218 53.7846 90.9649 55.8739 92.3081L59.0078 94.3476L62.092 96.4369L65.1762 98.5262L68.2604 100.665C70.3 102.058 72.2898 103.55 74.3293 104.993L75.8217 106.087L77.3141 107.232L80.249 109.52C81.2439 110.266 82.1891 111.062 83.1342 111.858L83.9302 112.505C79.9506 116.335 76.2694 120.464 72.9365 124.841C71.0959 127.329 69.4046 129.915 67.962 132.651C66.4696 135.387 65.1265 138.173 64.0321 141.108C63.0372 143.794 62.1915 146.58 61.5448 149.366C57.5652 149.465 53.0384 149.366 49.208 148.62C48.1136 148.421 47.069 149.117 46.87 150.211C46.671 151.306 47.3674 152.351 48.4618 152.55C51.944 153.146 55.4262 153.445 58.9581 153.395H60.8981C60.6494 155.484 60.5002 157.524 60.5002 159.613V160.21C60.5002 160.708 60.5002 161.255 60.5499 161.752C56.7195 163.096 52.7399 164.041 48.7106 164.488C47.6162 164.538 46.7705 165.483 46.8203 166.578C46.87 167.672 47.8152 168.518 48.9096 168.468H49.1085C53.1379 168.02 57.0678 167.125 60.8981 165.831C61.0474 166.926 61.2464 168.07 61.4453 169.164C62.092 172.398 63.0869 175.482 64.4798 178.467C64.828 179.163 65.1762 179.86 65.5245 180.556C66.7183 182.795 68.1609 184.884 69.8523 186.824C70.3995 187.471 70.9467 188.068 71.5436 188.665C72.1406 189.261 72.7375 189.809 73.3842 190.356C74.0309 190.903 74.6776 191.401 75.3242 191.898L76.3192 192.644L77.3141 193.291C80.0003 195.082 82.8855 196.624 85.92 197.867C88.9047 199.061 91.9391 200.006 95.0731 200.653C99.3512 201.549 103.729 202.046 108.156 202.145C108.057 202.394 107.957 202.593 107.858 202.842C107.41 203.887 106.863 204.931 106.316 205.976C105.221 208.065 104.027 210.105 102.734 212.095C102.435 212.592 102.087 213.089 101.739 213.587L100.744 215.079L98.6548 218.014L96.5157 220.899L94.3269 223.735C93.6305 224.63 92.8843 225.476 92.1879 226.371C87.4123 223.188 73.6827 216.721 57.615 233.087C38.2641 252.786 65.5742 282.633 82.5373 274.823C83.7312 276.763 85.0743 278.554 86.6164 280.196L88.0093 281.638C88.5067 282.086 89.0042 282.534 89.5016 282.932L90.2478 283.578C90.4965 283.777 90.7453 283.976 90.994 284.175L92.5858 285.369C93.0833 285.767 93.6802 286.115 94.1777 286.464C94.7249 286.812 95.2721 287.16 95.8193 287.508L97.5106 288.453C98.0578 288.752 98.605 289.1 99.202 289.349C100.296 289.896 101.44 290.393 102.585 290.891C102.585 290.941 102.585 291.04 102.535 291.09C102.485 291.388 102.435 291.637 102.435 291.936C102.386 292.483 102.386 293.03 102.435 293.577C102.485 294.672 102.734 295.766 103.132 296.811C103.928 298.85 105.221 300.691 106.912 302.084C107.708 302.78 108.604 303.377 109.499 303.874L110.146 304.272C110.395 304.372 110.544 304.471 110.793 304.621L112.036 305.218C113.728 306.013 115.419 306.76 117.16 307.406C124.025 310.142 131.138 312.232 138.451 313.525C140.341 313.873 142.232 314.072 144.122 314.221L145.614 314.271H147.156C148.251 314.221 149.345 314.072 150.44 313.774C151.633 313.475 152.778 312.978 153.772 312.281C154.32 311.883 154.867 311.436 155.315 310.938C155.812 310.391 156.21 309.794 156.508 309.147C157.155 307.854 157.404 306.362 157.205 304.919C157.056 303.626 156.608 302.332 155.911 301.238C155.265 300.193 154.469 299.298 153.524 298.552C153.076 298.203 152.628 297.855 152.131 297.557C151.882 297.408 151.633 297.258 151.434 297.159L150.788 296.811C149.047 295.915 147.306 295.169 145.465 294.572C144.719 294.323 143.923 294.075 143.177 293.826C147.554 292.98 151.932 292.035 155.066 290.443C155.116 290.493 155.165 290.543 155.215 290.592C156.26 291.438 156.608 291.737 157.653 292.483C158.697 293.229 159.792 293.925 160.886 294.572C163.075 295.965 165.363 297.209 167.701 298.303C168.298 298.601 168.895 298.85 169.492 299.099C170.089 299.348 170.686 299.596 171.333 299.845C171.979 300.094 172.576 300.293 173.223 300.492C173.87 300.691 174.516 300.89 175.113 301.089C177.65 301.785 180.187 302.382 182.774 302.78C184.167 302.979 185.56 303.078 187.002 303.078C188.644 303.078 190.335 302.78 191.828 302.133C192.773 301.735 193.618 301.138 194.315 300.442C195.061 299.696 195.608 298.85 196.006 297.855C196.354 297.01 196.553 296.064 196.653 295.119C196.703 294.174 196.653 293.229 196.454 292.284C196.205 291.438 195.857 290.592 195.409 289.797C194.961 289.1 194.464 288.404 193.917 287.807C192.872 286.712 191.728 285.767 190.435 285.021C189.241 284.325 187.997 283.678 186.704 283.18C186.356 283.031 186.057 282.932 185.709 282.832L185.808 282.733C186.057 282.534 186.256 282.285 186.505 282.036L187.848 280.594C188.296 280.096 188.694 279.549 189.092 279.052L189.688 278.256C189.887 278.007 190.086 277.708 190.236 277.41C190.584 276.813 190.982 276.266 191.33 275.669C192.723 273.231 193.618 270.595 194.066 267.809C194.514 265.023 194.414 262.188 193.817 259.402C193.22 256.766 192.225 254.179 190.833 251.841C190.086 250.597 189.291 249.403 188.395 248.259C194.961 241.544 201.13 234.38 206.801 226.869C212.671 219.059 218.093 210.901 223.068 202.444C223.664 201.399 224.311 200.355 224.908 199.26L226.699 196.077C226.898 195.778 227.047 195.43 227.246 195.131C228.241 193.291 229.186 191.45 230.181 189.659C230.728 188.565 231.275 187.471 231.823 186.376C232.37 185.282 232.917 184.187 233.415 183.093C233.912 182.048 234.409 181.054 234.857 180.009C235.852 180.158 240.876 180.705 244.607 179.014C246.348 178.218 247.99 177.173 249.432 175.88C251.422 173.99 253.064 171.801 254.307 169.363C255.501 167.025 256.447 164.588 257.193 162.101C258.586 157.226 259.481 152.201 259.879 147.127C260.078 144.64 260.227 142.103 260.277 139.616C260.028 138.422 260.028 137.178 260.028 135.935ZM190.086 180.755C191.131 180.855 192.126 181.054 193.121 181.352C193.967 181.601 194.762 181.999 195.509 182.496C196.106 182.894 196.553 183.441 196.852 184.088C197.001 184.386 197.051 184.685 197.101 185.033C197.101 185.182 197.15 185.381 197.101 185.531V185.879V186.227C197.101 186.874 196.902 187.471 196.504 188.018C196.305 188.217 196.106 188.416 195.857 188.565C195.509 188.764 195.16 188.913 194.812 189.013C193.867 189.311 192.922 189.46 191.977 189.51C191.479 189.56 190.932 189.56 190.285 189.56C189.589 189.56 188.992 189.61 188.395 189.61C187.102 189.659 185.858 189.809 184.565 189.958C180.187 190.455 175.909 191.6 171.88 193.291C170.736 190.804 169.691 188.615 169.044 187.272C173.87 185.431 178.496 183.093 182.774 180.208C184.117 180.307 185.41 180.357 186.704 180.457L188.445 180.606C188.992 180.656 189.539 180.705 190.086 180.755ZM102.286 47.5871C102.286 47.5871 92.3869 39.3792 99.9979 34.0564C107.609 28.7337 114.076 36.8919 114.076 36.8919C131.536 55.1981 143.226 83.9509 145.067 88.6269C145.216 89.0746 145.316 89.2736 145.316 89.2736L136.362 90.0198C136.212 89.7711 136.063 89.5223 135.914 89.2239C128.9 76.7876 102.286 47.5871 102.286 47.5871ZM187.002 266.914C186.704 268.904 186.107 270.844 185.211 272.634C184.963 273.082 184.714 273.53 184.465 274.027C184.316 274.276 184.217 274.475 184.067 274.724L183.62 275.37C183.321 275.818 183.023 276.266 182.724 276.714L181.729 278.007C178.993 281.439 175.412 284.424 171.73 287.309L171.681 287.359C170.785 288.006 170.586 289.249 171.233 290.145C171.83 290.99 172.924 291.239 173.82 290.742C174.914 290.194 176.058 289.598 177.153 289.001C178.247 288.404 179.292 287.707 180.336 287.011C180.784 286.712 181.182 286.414 181.58 286.115L182.774 286.812C183.271 287.11 183.769 287.409 184.266 287.707C185.211 288.304 186.157 288.951 187.002 289.647C187.798 290.294 188.495 290.99 189.141 291.786C189.39 292.135 189.639 292.483 189.838 292.831C189.987 293.129 190.086 293.478 190.186 293.826C190.236 294.124 190.236 294.423 190.186 294.721C190.186 294.871 190.136 295.02 190.086 295.219C190.086 295.318 190.037 295.368 190.037 295.467L189.937 295.666C189.788 296.114 189.44 296.462 188.992 296.612C188.196 296.91 187.35 297.059 186.505 297.059C185.41 297.059 184.316 297.01 183.271 296.86C180.933 296.562 178.546 296.114 176.257 295.517C175.66 295.368 175.113 295.219 174.516 295.119C173.969 294.97 173.422 294.821 172.825 294.622C171.73 294.274 170.586 293.876 169.492 293.428C165.761 291.985 162.13 290.244 158.647 288.304L158.697 288.254C165.214 283.976 167.552 278.803 167.751 278.455C168.298 277.509 168 276.316 167.104 275.719C166.159 275.122 165.015 276.117 164.418 277.062C164.368 277.161 160.886 281.887 153.275 286.066C151.633 286.961 149.892 287.757 148.101 288.404C148.997 287.657 149.892 286.862 150.738 286.016C153.175 283.578 155.016 280.643 156.16 277.36C157.304 273.978 157.503 270.296 156.707 266.814C155.961 263.531 154.568 260.397 152.678 257.611C150.887 254.975 148.848 252.537 146.559 250.349C145.465 249.254 144.271 248.21 143.077 247.264C141.883 246.319 140.64 245.324 139.396 244.479C138.152 243.583 136.859 242.738 135.566 241.991C134.272 241.245 132.929 240.449 131.487 239.753C130.541 239.206 129.298 239.604 128.8 240.549C128.303 241.444 128.601 242.539 129.397 243.136L129.447 243.185C130.541 244.031 131.686 244.926 132.78 245.872C133.874 246.767 134.969 247.712 136.013 248.707C138.103 250.597 140.142 252.587 142.033 254.726C143.873 256.766 145.515 258.954 146.957 261.293C148.3 263.481 149.295 265.819 149.892 268.356C150.39 270.645 150.29 273.082 149.594 275.321C148.798 277.708 147.554 279.897 145.913 281.788C145.067 282.832 144.122 283.777 143.127 284.673C142.132 285.618 141.087 286.513 139.993 287.359C138.103 288.851 136.063 290.244 133.974 291.637L132.979 292.284L132.68 292.483C132.233 292.781 131.934 293.229 131.835 293.776C131.835 293.876 131.835 293.975 131.835 294.075C131.835 295.02 132.531 295.865 133.476 296.015C136.809 297.059 140.192 298.203 143.326 299.547C144.868 300.193 146.41 300.939 147.853 301.785L148.35 302.084C148.549 302.183 148.649 302.283 148.798 302.382C149.096 302.581 149.345 302.78 149.594 302.979C150.042 303.377 150.44 303.825 150.738 304.372C150.987 304.77 151.186 305.267 151.235 305.765C151.285 306.113 151.235 306.511 151.036 306.809C150.837 307.158 150.539 307.456 150.191 307.705C149.693 308.003 149.146 308.252 148.599 308.351C147.903 308.501 147.256 308.65 146.559 308.65H145.415L144.172 308.6C142.48 308.501 140.789 308.302 139.098 308.003C135.615 307.456 132.233 306.71 128.85 305.765C125.467 304.869 122.085 303.775 118.752 302.631C117.11 302.034 115.469 301.387 113.827 300.74C112.335 300.144 110.942 299.397 109.599 298.502C108.455 297.656 107.509 296.512 106.912 295.219C106.614 294.572 106.415 293.925 106.316 293.229C106.266 292.98 106.266 292.731 106.266 292.483C108.504 293.279 110.842 293.975 113.131 294.572C114.175 294.871 115.27 294.274 115.618 293.229C115.916 292.184 115.369 291.14 114.324 290.791C109.897 289.15 105.569 287.16 101.44 284.822C97.4609 282.583 93.8295 279.698 90.795 276.316C87.86 273.032 85.8205 269.103 84.8753 264.824C84.4276 262.685 84.2286 260.497 84.3281 258.358C84.4276 256.119 84.7261 253.93 85.2235 251.741C85.4723 250.647 85.8205 249.553 86.119 248.458L86.7159 246.866C86.9149 246.319 87.1636 245.822 87.3626 245.275C88.258 243.136 89.2529 241.096 90.397 239.056C91.5412 237.017 92.8346 235.077 94.2274 233.236L98.6548 227.416L100.844 224.382L102.933 221.297C103.58 220.253 104.276 219.208 104.923 218.114C105.569 217.019 106.216 215.975 106.813 214.88L107.708 213.239L108.554 211.547C108.853 211 109.101 210.403 109.4 209.856C109.648 209.309 109.947 208.712 110.196 208.115C110.444 207.518 110.693 206.971 110.942 206.374C111.191 205.777 111.39 205.18 111.589 204.583C111.787 203.986 111.986 203.339 112.185 202.742L112.285 202.394C112.683 202.394 113.031 202.394 113.429 202.344C119.548 202.096 125.666 201.25 131.636 199.758C132.78 199.459 133.476 198.265 133.178 197.071C132.879 196.027 131.885 195.33 130.84 195.48C125.02 196.226 119.2 196.723 113.429 196.475C107.708 196.276 102.037 195.43 96.5655 193.888C93.8792 193.142 91.2925 192.147 88.7555 190.953C86.2682 189.809 83.8804 188.416 81.6419 186.824L80.7962 186.227L80.0003 185.63C79.4531 185.232 78.9557 184.834 78.4582 184.386C78.0105 183.939 77.4633 183.541 77.0156 183.043C76.7669 182.795 76.5679 182.546 76.3192 182.347C76.0704 182.148 75.8715 181.849 75.6227 181.601C73.8319 179.661 72.2401 177.472 70.9467 175.184C70.1507 173.84 69.5041 172.448 68.9071 171.005C67.962 168.617 67.3153 166.08 66.9173 163.543C69.0564 162.548 70.3 161.852 70.4492 161.752C71.3944 161.155 71.6431 159.912 71.0462 159.016C70.499 158.121 69.3548 157.823 68.4594 158.32C68.4097 158.32 67.7132 158.768 66.4696 159.365C66.3701 157.524 66.3701 155.683 66.4696 153.843C66.4696 153.644 66.4696 153.445 66.5194 153.296L67.166 153.246C70.2005 152.997 72.2401 152.699 72.4888 152.649C73.5832 152.5 74.3791 151.555 74.2299 150.46C74.0806 149.366 73.1355 148.57 72.0411 148.719C71.9913 148.719 71.9416 148.719 71.9416 148.719C71.8918 148.719 69.9518 149.018 67.1163 149.266C67.5143 147.177 68.0117 145.088 68.6584 142.998C69.5041 140.262 70.5985 137.576 71.7924 134.989C73.036 132.403 74.4786 129.866 76.1202 127.478C79.2541 122.702 83.1342 118.424 87.6113 114.843C88.656 114.544 89.3027 113.5 89.0539 112.405C88.9544 112.057 88.7555 111.709 88.457 111.46L85.6713 108.873C84.7261 108.028 83.8307 107.132 82.8358 106.336L79.9506 103.899L78.5079 102.655L77.0156 101.461C75.0258 99.9191 73.036 98.3272 70.9964 96.8349L67.962 94.5466C66.9671 93.8004 65.9224 93.0542 64.8778 92.3578L61.7936 90.169L58.7094 88.03C56.6201 86.5874 54.5308 85.1945 52.4415 83.8016C48.2131 81.0657 43.935 78.3794 39.6569 75.7429C35.3789 73.1064 31.0013 70.5694 26.6237 68.0822C24.4349 66.8385 22.2461 65.5949 20.0573 64.401L16.7244 62.6102L15.0828 61.7148C14.6351 61.466 14.1874 61.1676 13.7397 60.8691C10.158 58.4813 7.07384 54.8002 6.42715 51.119C6.07893 49.3282 6.3774 47.4876 7.22307 45.846C7.67078 44.9506 8.26772 44.1547 8.91441 43.4085C9.5611 42.6126 10.3073 41.9162 11.1529 41.3192C12.7448 40.1254 14.6351 39.3294 16.5752 38.9812C18.6645 38.6827 20.8035 38.7325 22.8928 39.2299C25.0816 39.6776 27.1709 40.4238 29.1607 41.4187C29.4094 41.5182 29.6582 41.6674 29.8074 41.7669L30.6033 42.2644L32.1952 43.2096L35.3789 45.0999C39.7067 47.5871 43.8355 50.3231 48.0639 52.9596L54.2323 57.0885C56.3216 58.4316 58.3114 59.9239 60.3012 61.3666C68.3599 67.137 76.1202 73.3551 83.4825 79.9713C85.323 81.6626 87.1636 83.3042 88.9047 85.0453C89.8001 85.8909 90.6955 86.7366 91.5412 87.632L94.1279 90.2685C95.8193 92.0593 97.5106 93.8502 99.1025 95.7405C99.9481 96.6359 100.694 97.6308 101.49 98.5262C102.286 99.4216 103.032 100.466 103.729 101.362L103.779 101.411C104.226 102.058 105.022 102.357 105.768 102.207C106.216 102.257 106.664 102.207 107.062 101.959C109.002 100.914 110.942 99.9688 112.981 99.1232C116.265 101.411 125.069 106.137 139.297 103.501C152.628 101.013 156.21 95.7902 157.205 93.0542C157.901 93.1537 158.598 93.2035 159.294 93.303C165.164 94.0989 170.984 95.4918 176.556 97.4816C177.153 97.7303 177.7 98.0288 178.297 98.3272C180.336 99.3719 182.276 100.516 184.167 101.76C185.759 102.854 187.301 103.998 188.743 105.292C189.141 105.64 189.589 106.038 189.987 106.436C192.027 108.326 193.867 110.415 195.558 112.604C196.454 113.798 197.25 114.992 198.046 116.236C198.344 116.733 198.643 117.28 198.941 117.778C199.24 118.275 199.488 118.822 199.787 119.32C200.085 119.817 200.334 120.364 200.583 120.912C200.831 121.459 201.03 121.956 201.279 122.503C201.329 122.653 201.379 122.752 201.428 122.901L201.578 123.25L201.876 124.095C202.075 124.642 202.224 125.19 202.374 125.787C202.523 126.334 202.672 126.931 202.821 127.478L203.02 128.324L203.219 129.219C203.468 130.363 203.667 131.507 203.766 132.701C203.816 133.298 203.916 133.845 203.916 134.442V136.183C203.916 136.482 203.916 136.78 203.916 137.029V137.875C203.866 138.472 203.866 139.019 203.816 139.616L203.567 141.357C203.518 141.655 203.518 141.904 203.418 142.202L203.219 143.048C203.07 143.595 202.97 144.192 202.821 144.74L202.324 146.431C202.224 146.729 202.175 146.978 202.075 147.277L201.777 148.122C201.578 148.669 201.379 149.217 201.18 149.764L200.483 151.356C200.384 151.604 200.234 151.903 200.135 152.152L199.737 152.947L198.941 154.539L198.046 156.081L197.598 156.828L197.101 157.574L196.106 159.066L195.061 160.509L194.564 161.205L194.016 161.902L192.872 163.245L191.678 164.538L191.081 165.185L190.435 165.831L189.191 167.075C187.45 168.766 185.609 170.309 183.719 171.801C182.774 172.547 181.779 173.293 180.784 173.99C179.938 174.636 179.093 175.233 178.197 175.83C178.048 175.93 177.949 176.029 177.799 176.129C173.77 178.914 169.591 181.501 165.413 184.237C164.567 184.784 164.219 185.829 164.567 186.774C164.716 187.073 164.866 187.421 164.915 187.719C164.965 187.769 166.905 191.798 168.994 196.325C168.994 196.475 169.044 196.574 169.094 196.723C169.193 197.022 169.343 197.27 169.542 197.469C170.835 200.305 172.079 203.29 172.875 205.578C173.074 206.125 173.472 206.523 173.969 206.772V206.722C174.168 206.822 174.367 206.871 174.566 206.921C178.098 207.369 181.729 207.418 185.261 207.021C187.898 206.772 190.534 206.274 193.021 205.827C193.867 205.677 194.713 205.528 195.509 205.379C195.907 205.329 196.305 205.23 196.653 205.18C197.747 204.981 198.891 204.881 199.986 204.931H200.035C200.583 204.931 201.08 205.031 201.627 205.18C202.025 205.279 202.324 205.528 202.622 205.827C202.97 206.175 203.269 206.623 203.418 207.12C203.468 207.269 203.518 207.418 203.617 207.568L203.717 207.767L203.766 207.866C203.816 208.015 203.816 208.165 203.866 208.314C203.866 208.712 203.766 209.11 203.567 209.408C203.319 209.906 202.97 210.403 202.572 210.801C201.578 211.846 200.433 212.741 199.19 213.487C197.847 214.333 196.454 215.079 195.011 215.676C193.569 216.323 192.126 216.92 190.584 217.417C189.241 217.915 187.848 218.362 186.505 218.76L185.759 218.959C184.714 219.258 183.719 219.556 182.674 219.805C177.6 221.148 172.427 222.143 167.154 223.038L166.06 223.237C164.965 223.387 164.219 224.431 164.368 225.476C164.517 226.521 165.463 227.267 166.507 227.167C169.641 226.968 172.775 226.67 175.859 226.222C176.058 227.615 176.158 229.008 176.058 230.451C171.88 237.962 168.298 245.822 165.363 253.93C164.866 255.273 164.517 256.666 164.318 258.059C164.318 258.258 164.269 258.507 164.269 258.706C164.269 258.905 164.269 259.203 164.269 259.402C164.269 259.701 164.318 259.949 164.368 260.248C164.418 260.596 164.517 260.944 164.667 261.243C164.816 261.641 165.065 262.039 165.313 262.387C165.662 262.785 166.06 263.133 166.507 263.382C166.706 263.481 166.955 263.581 167.204 263.68C167.403 263.73 167.651 263.78 167.85 263.829C168.049 263.879 168.248 263.879 168.447 263.879C168.646 263.879 168.795 263.879 168.945 263.879C169.94 263.78 170.885 263.531 171.73 263.083C172.427 262.735 173.074 262.337 173.72 261.939C173.87 261.84 174.019 261.69 174.218 261.541C174.317 261.442 174.367 261.442 174.417 261.392L174.566 261.243L175.262 260.646L176.655 259.452C178.496 257.81 180.386 256.219 182.177 254.577L183.769 253.035C184.167 253.781 184.565 254.477 184.913 255.224C186.654 259.004 187.599 263.034 187.002 266.914ZM222.222 193.888L220.381 196.972C219.784 198.017 219.088 199.012 218.491 200.006C215.456 204.832 212.273 209.607 208.99 214.234C206.751 217.417 204.413 220.501 202.075 223.586L197.598 229.207C196.852 230.152 196.056 231.047 195.31 231.943L192.972 234.679C192.176 235.574 191.43 236.519 190.634 237.365L188.196 240.002L185.759 242.638C185.361 243.086 184.963 243.533 184.515 243.931L184.266 244.18L183.222 245.175L180.535 247.911L178.197 250.249C177.6 250.796 176.954 251.393 176.307 251.94C175.76 252.438 175.213 252.935 174.665 253.383L172.825 255.025L171.482 256.219L170.835 256.815L170.537 257.064L170.338 257.213L170.288 257.263C170.387 256.815 170.537 256.318 170.736 255.87C171.283 254.328 171.83 252.786 172.427 251.294C174.516 245.722 176.954 240.3 179.739 235.027C180.137 234.231 180.585 233.435 181.033 232.59C182.525 229.854 184.167 227.118 185.808 224.481L187.102 224.183C190.584 223.337 193.967 222.243 197.25 220.899C198.941 220.203 200.583 219.357 202.175 218.412C203.916 217.417 205.458 216.174 206.851 214.731C207.249 214.333 207.597 213.885 207.895 213.487C208.243 213.04 208.542 212.492 208.791 211.995C209.388 210.801 209.736 209.508 209.736 208.165C209.736 207.468 209.636 206.772 209.437 206.075C209.388 205.926 209.338 205.727 209.288 205.578C209.238 205.429 209.189 205.329 209.139 205.18C209.039 204.931 208.94 204.682 208.84 204.434C208.343 203.339 207.646 202.295 206.801 201.449C206.055 200.703 205.159 200.106 204.214 199.708C206.552 196.922 208.99 194.186 211.427 191.45C212.323 190.455 213.218 189.51 214.113 188.515C216.103 188.963 220.431 190.256 222.321 193.888H222.222ZM231.723 176.527C231.474 177.074 231.176 177.571 230.927 178.119C230.38 179.163 229.833 180.258 229.286 181.302C228.738 182.347 228.191 183.441 227.594 184.486C226.997 185.531 226.45 186.575 225.853 187.62C225.406 188.416 224.958 189.212 224.51 190.008C222.421 187.421 219.436 185.978 217.148 185.182C220.729 181.402 224.361 177.721 228.042 174.039L228.49 173.592C228.738 173.641 228.987 173.741 229.186 173.84C229.733 174.039 230.231 174.238 230.728 174.537C231.176 174.736 231.574 175.034 231.922 175.383C232.022 175.482 232.071 175.582 232.171 175.681C232.022 175.98 231.872 176.228 231.723 176.527ZM253.114 146.879C253.014 151.555 252.467 156.181 251.472 160.757C251.373 161.305 251.223 161.802 251.074 162.349C251.024 162.598 250.925 162.847 250.825 163.145C250.726 163.444 250.676 163.643 250.577 163.891C250.477 164.14 250.378 164.439 250.278 164.737C250.179 165.036 250.129 165.235 250.029 165.483C249.83 166.08 249.582 166.627 249.333 167.224C248.487 169.214 247.293 171.005 245.851 172.597C245.453 172.995 245.055 173.343 244.657 173.691C243.513 174.636 242.17 175.333 240.727 175.781L240.379 175.88C239.483 176.129 238.538 176.228 237.593 176.278H236.25C236.3 175.979 236.3 175.631 236.25 175.333C236.001 174.288 235.454 173.393 234.708 172.647C234.111 172.05 233.415 171.502 232.668 171.104C231.972 170.707 231.275 170.408 230.529 170.159C230.181 170.06 229.783 169.911 229.435 169.811C229.037 169.712 228.738 169.612 228.291 169.513C227.694 169.413 227.047 169.562 226.55 170.01C226.4 169.513 226.301 169.015 226.201 168.468C226.002 167.423 225.903 166.379 225.903 165.334C225.853 163.344 226.251 161.354 227.097 159.564C227.943 157.823 229.236 156.33 230.828 155.236L231.425 154.838L232.121 154.44C232.569 154.191 233.017 153.893 233.514 153.594L234.957 152.848C235.454 152.599 235.952 152.351 236.449 152.152C237.941 151.455 239.483 150.858 241.125 150.211L242.866 149.515C243.811 149.117 244.756 148.719 245.751 148.271C247.094 147.625 248.438 146.928 249.681 146.132C250.925 145.336 252.069 144.391 253.163 143.347C253.114 144.491 253.114 145.685 253.114 146.879Z" fill="black"/>
</svg>
