<svg width="242" height="257" viewBox="0 0 242 257" fill="none" xmlns="http://www.w3.org/2000/svg">
<ellipse cx="199.923" cy="56.1475" rx="5.14361" ry="10.6829" fill="#00FFA3"/>
<ellipse cx="238.774" cy="85.2435" rx="2.76963" ry="5.53927" fill="#00FFA3"/>
<ellipse cx="213.055" cy="103.048" rx="11.0785" ry="23.3441" fill="#00FFA3"/>
<path d="M196.966 143.223C198.143 142.857 199.24 142.288 200.174 141.557C200.54 141.273 200.865 140.989 201.149 140.664C202.327 139.364 203.302 137.861 203.992 136.277C204.195 135.83 204.398 135.343 204.561 134.856C204.642 134.653 204.723 134.45 204.764 134.246C204.805 134.043 204.926 133.8 205.008 133.556C203.911 134.45 202.205 135.709 200.377 136.196C199.24 136.562 197.981 136.48 196.884 135.993C196.681 135.912 196.478 135.79 196.316 135.627C192.173 132.744 196.072 129.332 196.072 129.332C191.361 129.251 191.442 126.57 192.254 124.499L191.076 125.108C190.67 125.311 190.305 125.555 189.939 125.798L189.37 126.164L188.883 126.489C187.583 127.382 186.527 128.601 185.837 130.022C185.146 131.485 184.821 133.109 184.862 134.734C184.862 135.587 184.943 136.44 185.106 137.293C185.187 137.699 185.268 138.146 185.39 138.552C185.756 138.186 186.284 138.064 186.812 138.146C187.177 138.227 187.461 138.308 187.746 138.389C188.03 138.471 188.355 138.552 188.639 138.674C189.249 138.877 189.858 139.161 190.426 139.445C191.076 139.77 191.645 140.217 192.132 140.704C192.742 141.314 193.188 142.085 193.391 142.898C193.432 143.141 193.432 143.426 193.391 143.669C193.757 143.669 194.122 143.669 194.488 143.669C195.26 143.629 195.991 143.507 196.722 143.344L196.966 143.223Z" fill="#9B7256"/>
<path d="M188.842 142.248C188.436 142.004 188.03 141.842 187.583 141.679C187.38 141.598 187.217 141.557 187.014 141.476L186.649 141.842L189.695 143.832C189.817 143.588 189.938 143.345 190.06 143.141C190.02 143.06 189.938 142.979 189.857 142.898C189.532 142.654 189.207 142.451 188.842 142.248Z" fill="#414758"/>
<path d="M177.714 150.98C179.622 151.63 182.019 152.767 183.725 154.92C184.09 154.27 184.456 153.62 184.821 152.971C185.309 152.118 185.755 151.265 186.243 150.412C186.73 149.559 187.177 148.706 187.624 147.812C188.071 146.919 188.517 146.066 188.964 145.213C189.167 144.766 189.411 144.36 189.614 143.913L186.568 141.923C183.603 144.888 180.638 147.893 177.714 150.98Z" fill="#414758"/>
<path d="M196.113 129.332C196.113 129.332 192.214 132.744 196.357 135.627C196.56 135.749 196.722 135.871 196.925 135.993C198.022 136.48 199.281 136.562 200.418 136.196C202.246 135.709 203.952 134.45 205.048 133.556C205.13 133.353 205.17 133.15 205.251 132.947C205.333 132.744 205.373 132.541 205.455 132.297C205.576 131.85 205.698 131.444 205.779 130.997C206.592 127.26 207.039 123.483 207.12 119.665C207.16 118.691 207.16 117.716 207.16 116.782C206.267 117.634 205.333 118.366 204.317 119.056C203.302 119.706 202.205 120.315 201.109 120.803C200.337 121.168 199.525 121.493 198.753 121.818L197.331 122.387C196.032 122.915 194.732 123.402 193.513 123.971C193.107 124.174 192.701 124.336 192.295 124.539C191.483 126.57 191.361 129.251 196.113 129.332Z" fill="#00FFA3"/>
<path d="M175.195 153.661C174.464 154.473 173.733 155.245 173.002 156.057C171.012 158.291 169.021 160.525 167.112 162.8C167.884 163.125 168.615 163.612 169.224 164.221C169.915 164.912 170.484 165.765 170.89 166.658C170.971 166.861 171.093 167.064 171.133 167.267C171.174 167.389 171.215 167.471 171.255 167.592C171.296 167.714 171.336 167.836 171.377 167.999C171.54 168.567 171.621 169.095 171.621 169.704C171.621 170.801 171.336 171.857 170.849 172.832C170.646 173.238 170.402 173.685 170.118 174.05L171.093 174.741C173.814 170.964 176.373 167.064 178.85 163.125C179.378 162.312 179.906 161.459 180.394 160.647L181.897 158.129C180.394 155.083 176.82 153.986 175.195 153.661Z" fill="#8B8FA2"/>
<path d="M169.265 175.025C168.128 176.203 166.869 177.178 165.447 177.99C164.148 178.762 162.807 179.452 161.426 180.021C158.746 181.118 155.943 182.011 153.141 182.702L152.085 182.945C150.704 185.098 149.404 187.332 148.185 189.566C147.82 190.216 147.454 190.866 147.129 191.556C146.967 192.937 146.764 194.48 146.439 196.227C146.764 196.227 147.089 196.308 147.373 196.471C147.861 196.796 148.267 197.039 148.713 197.364C149.16 197.689 149.566 197.973 149.973 198.298C150.297 198.542 150.582 198.826 150.866 199.07L151.069 198.867C151.435 198.501 151.719 198.136 152.085 197.811L154.075 195.658L156.065 193.506C156.715 192.775 157.324 192.043 157.974 191.312L159.883 189.079C160.492 188.347 161.183 187.616 161.751 186.845L165.407 182.255C167.356 179.737 169.225 177.219 171.052 174.619L170.118 173.929C169.834 174.335 169.549 174.7 169.265 175.025Z" fill="#8B8FA2"/>
<path d="M155.497 86.5632C155.172 86.2382 154.807 85.9539 154.482 85.629C153.304 84.6136 152.045 83.6388 150.745 82.7453C149.202 81.6892 147.618 80.7551 145.952 79.9427C144.003 80.3489 140.957 81.08 137.057 82.136L137.992 82.5016C138.845 82.8265 139.251 83.7607 138.926 84.6136C138.682 85.2228 138.073 85.6696 137.423 85.6696C137.22 85.6696 137.017 85.629 136.814 85.5478L131.899 83.5982C118.78 87.4973 99.5282 94.5239 80.3168 106.221C79.9106 106.952 79.5451 107.684 79.1795 108.455C78.9358 109.064 78.3266 109.43 77.6767 109.43C77.1487 109.43 76.6207 109.146 76.3364 108.699C70.4877 112.436 64.8827 116.538 59.562 120.965C60.4555 121.087 61.1054 121.859 60.9835 122.752C60.9023 123.483 60.3337 124.052 59.6026 124.174C59.4401 124.214 57.7343 124.458 55.2567 124.661L54.6881 125.189C54.6068 126.692 54.6068 128.195 54.6881 129.697C55.7035 129.21 56.2721 128.885 56.3127 128.844C57.125 128.438 58.0998 128.723 58.506 129.535C58.9121 130.266 58.6684 131.2 57.9373 131.647C57.8155 131.728 56.7595 132.297 55.0536 133.109C55.3785 135.181 55.9065 137.252 56.6782 139.202C64.8827 131.403 100.503 100.819 160.005 91.5589C158.665 89.7718 157.162 88.1066 155.497 86.5632ZM102.371 104.962C89.8616 106.262 80.8854 115.929 80.8042 116.01C80.1949 116.66 79.1795 116.7 78.4891 116.091C77.7986 115.482 77.7986 114.466 78.4078 113.776C78.814 113.329 88.3181 103.135 102.046 101.713C102.94 101.632 103.752 102.282 103.833 103.175C103.915 104.109 103.265 104.922 102.371 104.962ZM140.469 91.762C126.782 91.762 120.73 98.0575 120.649 98.1387C120.039 98.7886 119.024 98.8292 118.333 98.22C117.684 97.6107 117.643 96.5953 118.252 95.9049C118.536 95.6206 125.36 88.5127 140.429 88.5127C141.322 88.5127 142.053 89.2438 142.053 90.1374C142.053 91.0309 141.363 91.762 140.469 91.762Z" fill="#E36359"/>
<path d="M148.673 197.364C148.226 197.039 147.82 196.795 147.333 196.47C147.048 196.308 146.723 196.227 146.398 196.227C146.195 197.242 145.992 198.339 145.749 199.517L146.155 200.045C146.439 200.41 146.723 200.776 147.008 201.141C147.292 201.507 147.495 201.791 147.739 202.116L149.973 199.923L150.826 199.111C150.541 198.826 150.216 198.583 149.932 198.339C149.526 197.973 149.12 197.648 148.673 197.364Z" fill="#8B8FA2"/>
<path d="M146.196 200.045L145.749 199.517C145.383 201.304 144.896 203.253 144.327 205.366C144.855 204.919 145.343 204.472 145.871 203.985L147.78 202.076C147.536 201.751 147.292 201.426 147.049 201.101C146.805 200.776 146.48 200.41 146.196 200.045Z" fill="#8B8FA2"/>
<path d="M145.342 199.029L145.261 198.907C144.692 198.217 144.774 197.202 145.464 196.633C145.748 196.43 146.073 196.267 146.439 196.267C146.764 194.521 146.967 192.978 147.129 191.597C144.895 195.902 142.905 200.329 141.159 204.878C141.078 205.65 141.606 206.381 142.337 206.584C142.458 206.625 142.621 206.624 142.743 206.624C142.824 206.624 142.905 206.624 142.986 206.624C143.433 206.218 143.88 205.853 144.327 205.447C144.895 203.294 145.383 201.344 145.748 199.557L145.342 199.029Z" fill="#8B8FA2"/>
<path d="M145.221 198.907L145.302 199.029L145.709 199.557C145.952 198.379 146.196 197.283 146.358 196.267C145.993 196.267 145.668 196.43 145.384 196.633C144.774 197.161 144.653 198.176 145.221 198.907Z" fill="#8B8FA2"/>
<path d="M142.336 206.543C141.565 206.34 141.077 205.609 141.158 204.837C140.671 206.056 140.224 207.315 139.777 208.574C139.656 208.98 139.534 209.346 139.412 209.711L139.452 209.671L139.615 209.549L139.859 209.346L140.387 208.858L141.483 207.884L142.986 206.543C142.905 206.543 142.824 206.543 142.742 206.543C142.621 206.584 142.458 206.584 142.336 206.543Z" fill="#8B8FA2"/>
<path d="M150.419 206.218L149.119 207.477C147.657 208.818 146.114 210.118 144.611 211.458L143.474 212.433L142.905 212.92L142.742 213.042C142.702 213.082 142.661 213.123 142.58 213.164C142.418 213.286 142.296 213.367 142.174 213.489C141.646 213.854 141.118 214.179 140.549 214.423C139.818 214.788 139.046 214.991 138.275 215.073C138.112 215.073 138.031 215.073 137.869 215.073C137.706 215.073 137.544 215.032 137.381 215.032C137.219 214.991 137.016 214.951 136.853 214.91C136.65 214.829 136.488 214.748 136.284 214.666C135.919 214.463 135.594 214.179 135.31 213.854C135.066 213.57 134.904 213.245 134.741 212.92C134.619 212.676 134.538 212.392 134.497 212.108C134.457 211.905 134.457 211.661 134.416 211.417C134.416 211.214 134.416 211.011 134.416 210.849C134.416 210.686 134.457 210.483 134.457 210.321C134.619 209.183 134.904 208.046 135.31 206.949C137.665 200.329 140.59 193.912 144.042 187.779C144.083 186.641 144.042 185.464 143.88 184.326C141.321 184.692 138.762 184.936 136.244 185.098C135.35 185.179 134.579 184.529 134.497 183.636C134.416 182.783 135.025 182.011 135.878 181.889L136.772 181.727C141.037 180.996 145.301 180.143 149.444 179.087C150.297 178.884 151.15 178.64 151.962 178.396L152.572 178.234C153.709 177.909 154.805 177.543 155.902 177.137C157.121 176.691 158.339 176.203 159.517 175.716C160.695 175.188 161.832 174.578 162.929 173.929C163.944 173.319 164.878 172.588 165.69 171.735C166.015 171.41 166.3 171.004 166.503 170.598C166.665 170.314 166.747 169.989 166.747 169.705C166.747 169.583 166.706 169.461 166.706 169.339L166.665 169.258L166.584 169.095C166.543 168.973 166.503 168.852 166.422 168.73C166.259 168.364 166.015 167.999 165.772 167.674C165.528 167.43 165.284 167.268 164.959 167.146C164.553 167.024 164.106 166.943 163.66 166.943H163.619C162.685 166.943 161.791 167.024 160.898 167.146C160.573 167.186 160.289 167.227 159.964 167.308C159.314 167.43 158.623 167.552 157.933 167.674C155.902 168.039 153.749 168.445 151.597 168.649C148.672 168.973 145.748 168.973 142.864 168.567C142.702 168.527 142.499 168.486 142.377 168.405V168.445C141.93 168.283 141.605 167.917 141.483 167.471C140.833 165.602 139.818 163.206 138.762 160.85C138.6 160.688 138.478 160.444 138.397 160.241C138.356 160.119 138.356 160.038 138.315 159.916C136.65 156.179 135.025 152.93 134.985 152.89C134.944 152.605 134.822 152.361 134.7 152.118C134.457 151.346 134.741 150.493 135.391 150.046C138.803 147.812 142.214 145.7 145.504 143.426C145.626 143.345 145.707 143.264 145.829 143.182C146.56 142.695 147.251 142.207 147.941 141.679C148.754 141.111 149.566 140.502 150.338 139.892C151.881 138.674 153.384 137.374 154.805 136.034L155.821 135.018L156.349 134.49L156.836 133.962L157.811 132.906L158.745 131.81L159.192 131.241L159.639 130.673L160.492 129.495L161.304 128.276L161.71 127.667L162.076 127.058L162.807 125.799L163.457 124.54L163.782 123.89C163.903 123.687 163.985 123.443 164.066 123.24L164.634 121.94C164.797 121.493 164.959 121.047 165.122 120.6L165.366 119.95C165.447 119.747 165.487 119.503 165.569 119.259L165.975 117.878C166.097 117.432 166.178 116.944 166.3 116.498L166.462 115.807C166.503 115.563 166.543 115.36 166.584 115.117L166.787 113.695C166.828 113.248 166.828 112.761 166.868 112.273L166.909 111.583C166.909 111.339 166.909 111.096 166.909 110.893V109.471C166.868 108.984 166.828 108.537 166.787 108.049C166.706 107.115 166.543 106.14 166.34 105.206L166.178 104.475L166.015 103.785C165.894 103.338 165.772 102.851 165.65 102.404C165.528 101.957 165.366 101.47 165.244 101.023L165 100.332L164.878 100.048C164.838 99.9668 164.797 99.8449 164.756 99.7231C164.553 99.2763 164.391 98.8702 164.188 98.4234C163.985 97.9766 163.782 97.5705 163.538 97.1237C163.294 96.6769 163.091 96.2707 162.847 95.8646C162.604 95.4584 162.36 95.0116 162.116 94.6055C161.507 93.5901 160.817 92.6153 160.085 91.6405C100.502 100.86 64.9221 131.485 56.7177 139.243C57.1644 140.42 57.733 141.558 58.3829 142.654C59.4795 144.523 60.7793 146.269 62.2414 147.853C62.4445 148.056 62.607 148.259 62.8101 148.462C63.0131 148.665 63.2162 148.828 63.3787 149.031C63.7442 149.437 64.1504 149.762 64.5565 150.128C64.9627 150.493 65.3689 150.818 65.8156 151.143L66.4655 151.63L67.156 152.118C68.9837 153.418 70.9333 154.514 72.9641 155.489C75.0355 156.464 77.1475 157.276 79.3408 157.885C83.8086 159.144 88.4388 159.875 93.1096 159.997C97.8211 160.2 102.573 159.754 107.325 159.185C108.3 159.063 109.194 159.794 109.315 160.769C109.397 161.663 108.869 162.475 108.016 162.678C103.142 163.896 98.1866 164.628 93.1502 164.79C92.8253 164.79 92.541 164.79 92.2161 164.831L92.1348 165.115C91.9724 165.643 91.8505 166.13 91.6474 166.618C91.4444 167.105 91.2819 167.593 91.1194 168.08C90.957 168.567 90.7133 169.055 90.5102 169.501C90.3071 169.948 90.104 170.436 89.8603 170.923C89.6166 171.41 89.4136 171.857 89.1699 172.304L88.4794 173.685L87.7483 175.025C87.2609 175.919 86.7329 176.772 86.2049 177.665C85.6769 178.559 85.1083 179.371 84.5803 180.265L82.8744 182.783L81.0873 185.26L77.4724 190.013C76.3352 191.556 75.3198 193.14 74.345 194.765C73.4108 196.389 72.5579 198.095 71.8268 199.801C71.6644 200.248 71.4613 200.654 71.2988 201.101L70.8114 202.4C70.5677 203.294 70.2428 204.147 70.0803 205.081C69.6336 206.868 69.3899 208.655 69.3492 210.483C69.3086 212.27 69.4305 214.057 69.796 215.763C70.5677 219.256 72.233 222.465 74.6293 225.145C77.1475 227.907 80.0719 230.263 83.3212 232.091C86.6923 234 90.2259 235.624 93.8407 236.965C94.6937 237.249 95.1404 238.183 94.8561 239.036C94.5718 239.848 93.6782 240.336 92.8659 240.092C90.9976 239.605 89.1293 239.077 87.2609 238.386C87.2609 238.589 87.3015 238.792 87.3015 238.996C87.3828 239.564 87.5452 240.092 87.7889 240.62C88.2763 241.676 89.0074 242.61 89.9822 243.301C91.0382 244.032 92.2161 244.641 93.4346 245.129C94.7343 245.657 96.0746 246.185 97.4555 246.672C100.177 247.647 102.939 248.5 105.701 249.231C108.462 250.002 111.265 250.612 114.068 251.058C115.448 251.302 116.87 251.424 118.21 251.546L119.226 251.586C119.388 251.586 119.551 251.586 119.713 251.586H120.16C120.729 251.546 121.297 251.465 121.825 251.343C122.272 251.221 122.719 251.018 123.125 250.774C123.409 250.612 123.653 250.327 123.775 250.043C123.897 249.759 123.978 249.474 123.937 249.19C123.897 248.784 123.734 248.418 123.531 248.053C123.287 247.647 123.003 247.281 122.637 246.956C122.434 246.794 122.231 246.591 121.988 246.469C121.866 246.388 121.785 246.306 121.622 246.225L121.216 245.981C120.038 245.291 118.779 244.682 117.52 244.154C114.92 243.057 112.199 242.123 109.478 241.27C108.706 241.148 108.138 240.498 108.138 239.686C108.138 239.605 108.138 239.524 108.138 239.442C108.219 238.996 108.462 238.63 108.828 238.386L109.072 238.224L109.884 237.696C111.59 236.559 113.255 235.421 114.799 234.203C115.692 233.472 116.586 232.781 117.357 232.01C118.17 231.278 118.901 230.466 119.632 229.654C120.972 228.11 121.988 226.323 122.637 224.374C123.206 222.546 123.287 220.556 122.881 218.687C122.434 216.657 121.622 214.707 120.485 212.92C119.307 211.011 117.967 209.224 116.464 207.559C114.92 205.853 113.296 204.188 111.549 202.644C110.696 201.832 109.803 201.101 108.909 200.329C108.016 199.557 107.082 198.826 106.188 198.136L106.147 198.095C105.416 197.567 105.213 196.552 105.741 195.821C106.229 195.13 107.122 194.927 107.853 195.333C109.031 195.902 110.087 196.511 111.184 197.161C112.28 197.811 113.296 198.501 114.311 199.192C115.327 199.882 116.342 200.695 117.317 201.466C118.292 202.238 119.226 203.091 120.16 203.984C122.028 205.772 123.734 207.762 125.196 209.914C126.74 212.189 127.836 214.748 128.486 217.428C129.136 220.272 128.974 223.277 128.039 226.039C127.105 228.679 125.602 231.116 123.612 233.106C122.922 233.797 122.231 234.447 121.46 235.056C122.922 234.528 124.343 233.878 125.684 233.147C131.898 229.735 134.741 225.836 134.782 225.795C135.228 225.024 136.203 224.252 136.975 224.699C137.747 225.145 137.99 226.161 137.503 226.933C137.341 227.217 135.472 231.441 130.151 234.934C132.995 236.518 135.96 237.94 138.965 239.158C139.859 239.524 140.793 239.848 141.686 240.133C142.133 240.255 142.58 240.417 143.067 240.539C143.555 240.661 143.961 240.783 144.489 240.864C146.398 241.311 148.307 241.676 150.216 241.96C151.109 242.082 152.003 242.123 152.856 242.123C153.546 242.123 154.237 242.001 154.887 241.757C155.252 241.636 155.536 241.351 155.658 240.986L155.74 240.823C155.74 240.742 155.78 240.701 155.78 240.62C155.78 240.498 155.821 240.336 155.861 240.214C155.902 239.97 155.902 239.727 155.861 239.483C155.821 239.199 155.699 238.914 155.577 238.671C155.415 238.346 155.252 238.061 155.008 237.818C154.48 237.168 153.912 236.599 153.262 236.071C152.531 235.503 151.8 234.975 151.028 234.487C150.622 234.243 150.216 234 149.81 233.756L148.835 233.187C148.51 233.431 148.144 233.675 147.819 233.919C146.967 234.447 146.073 235.015 145.22 235.543C144.367 236.071 143.433 236.477 142.499 236.965C141.727 237.411 140.712 237.127 140.305 236.315C139.899 235.584 140.102 234.69 140.793 234.203L140.833 234.162C143.839 231.806 146.763 229.37 148.997 226.567L149.81 225.511C150.094 225.186 150.297 224.78 150.541 224.414L150.906 223.886C151.028 223.724 151.109 223.521 151.231 223.318C151.434 222.952 151.637 222.587 151.84 222.18C152.572 220.718 153.059 219.134 153.303 217.51C153.749 214.342 152.978 211.011 151.475 207.843C151.069 207.437 150.744 206.828 150.419 206.218ZM130.03 126.367C129.989 127.667 129.664 128.926 129.095 130.063C128.771 130.713 128.324 131.282 127.836 131.769C127.308 132.257 126.699 132.703 126.009 132.988C125.399 133.272 124.709 133.434 124.059 133.556C123.369 133.637 122.719 133.637 122.028 133.556C120.566 133.394 119.226 132.744 118.17 131.688C117.642 131.119 117.236 130.51 116.951 129.779C116.87 129.617 116.829 129.454 116.789 129.251C116.748 129.088 116.667 128.885 116.667 128.804L116.504 128.154C116.261 127.301 115.976 126.408 115.652 125.514C114.514 122.265 113.174 119.016 111.834 115.766C111.549 115.888 111.306 115.97 111.021 116.051C110.168 116.294 109.315 116.416 108.422 116.416C107.569 116.416 106.716 116.294 105.904 116.051C105.132 115.848 104.36 115.563 103.629 115.198C103.264 114.995 102.939 114.832 102.614 114.589C102.451 114.467 102.289 114.385 102.126 114.264C101.964 114.142 101.801 114.02 101.598 113.857C100.989 113.37 100.867 112.436 101.355 111.827C101.761 111.299 102.492 111.136 103.101 111.421L103.304 111.502L103.67 111.664L104.076 111.867C104.36 111.989 104.645 112.111 104.929 112.192C105.498 112.395 106.066 112.517 106.675 112.639C107.772 112.842 108.869 112.761 109.925 112.477C110.453 112.314 110.94 112.111 111.387 111.827C111.874 111.542 112.321 111.177 112.727 110.811C113.661 109.958 114.514 109.024 115.286 108.049C115.692 107.521 116.301 106.953 117.804 107.318C118.048 107.359 118.292 107.4 118.535 107.44C119.023 107.481 119.51 107.521 119.997 107.521C120.891 107.521 121.785 107.318 122.597 106.953C123.003 106.79 123.369 106.547 123.653 106.262C123.815 106.1 123.978 105.978 124.14 105.816C124.303 105.653 124.465 105.491 124.587 105.287C125.196 104.475 125.724 103.582 126.171 102.607V102.566C126.496 101.835 127.39 101.551 128.08 101.876C128.649 102.16 128.974 102.729 128.892 103.379C128.689 104.759 128.243 106.059 127.511 107.237C126.983 108.131 126.293 108.943 125.44 109.593C126.13 111.136 126.74 112.72 127.349 114.304C128.08 116.173 128.689 118.082 129.177 120.031C129.42 121.047 129.623 122.062 129.745 123.118C129.827 123.646 129.867 124.174 129.867 124.702C129.867 124.946 129.908 125.23 129.908 125.474C129.908 125.717 130.03 126.042 130.03 126.367Z" fill="white"/>
<path d="M152.856 147.081C151.8 147 150.704 146.919 149.648 146.878C146.114 149.193 142.377 151.143 138.438 152.646C138.966 153.783 139.818 155.57 140.753 157.56C144.083 156.179 147.576 155.245 151.11 154.839C152.125 154.717 153.181 154.595 154.237 154.555C154.765 154.514 155.293 154.514 155.821 154.514C156.349 154.514 156.796 154.514 157.202 154.474C157.974 154.433 158.786 154.311 159.517 154.067C159.802 153.986 160.086 153.864 160.37 153.702C160.573 153.58 160.736 153.418 160.898 153.255C161.182 152.849 161.386 152.321 161.386 151.793V151.509C161.386 151.427 161.386 151.305 161.386 151.224C161.386 151.102 161.386 150.94 161.386 150.818C161.345 150.534 161.304 150.29 161.182 150.046C160.939 149.518 160.573 149.072 160.086 148.747C159.477 148.34 158.827 148.016 158.136 147.812C157.324 147.569 156.512 147.406 155.659 147.325C155.212 147.284 154.806 147.244 154.318 147.203L152.856 147.081Z" fill="white"/>
<path d="M76.1732 107.196C77.1886 104.881 78.5289 102.688 80.1942 100.738C80.8034 100.048 81.8188 100.007 82.5093 100.617C83.1998 101.226 83.2404 102.241 82.6311 102.932C81.7376 103.988 80.9659 105.084 80.316 106.262C99.5274 94.5647 118.82 87.5382 131.898 83.639L130.761 83.1922C129.908 82.8673 129.502 81.9331 129.827 81.0802C130.152 80.2273 131.086 79.8211 131.939 80.146L137.057 82.1768C140.956 81.1208 144.002 80.4303 145.952 79.9836C145.505 79.7399 145.017 79.5368 144.53 79.2931C139.981 77.6685 135.229 76.5312 130.436 75.8813C129.868 75.8001 129.299 75.7189 128.73 75.6783C127.918 77.9121 124.953 82.1768 114.109 84.2076C102.492 86.3603 95.3034 82.5424 92.6227 80.6334C90.9981 81.3239 89.3734 82.0956 87.7894 82.9485C87.4644 83.111 87.0989 83.1922 86.7334 83.1516C86.1241 83.2735 85.4743 83.0298 85.1087 82.5018L85.0681 82.4612C84.5401 81.7301 83.8902 80.9177 83.281 80.146C82.6718 79.3743 82.0219 78.6026 81.3314 77.8715C80.0317 76.3687 78.6508 74.8659 77.2698 73.4038L75.1172 71.2105C74.4267 70.4794 73.655 69.7889 72.9239 69.0985C71.5023 67.6769 69.9995 66.3366 68.4968 64.9556C62.4856 59.5537 56.1495 54.4767 49.5697 49.7652C47.945 48.5874 46.2798 47.3689 44.6145 46.2723L39.5781 42.8605C36.1258 40.7079 32.7546 38.474 29.2616 36.4432L26.6622 34.8998L25.3625 34.1281L24.7127 33.7219C24.5502 33.6407 24.3471 33.5188 24.1846 33.4376C22.56 32.6253 20.8541 32.016 19.067 31.6505C17.3611 31.2849 15.6147 31.2037 13.9088 31.488C12.2841 31.7317 10.7813 32.3816 9.48163 33.397C8.83178 33.925 8.22254 34.4936 7.65391 35.1028C7.1259 35.7121 6.63851 36.4026 6.27296 37.1336C5.58249 38.4334 5.3388 39.9768 5.62311 41.4389C6.15112 44.4039 8.66931 47.4501 11.5937 49.3997C11.9592 49.6434 12.3248 49.8465 12.6903 50.0902L14.0306 50.8212L16.7519 52.2834C18.539 53.2582 20.3667 54.2736 22.1132 55.289C25.6874 57.3198 29.221 59.3912 32.7546 61.5439C36.2476 63.6965 39.7406 65.8492 43.193 68.1237C44.8988 69.2609 46.6453 70.3982 48.3106 71.576L50.8694 73.3225L53.3876 75.1096C54.2405 75.7189 55.0528 76.2875 55.9058 76.8967L58.3834 78.7651C60.0486 79.9836 61.6733 81.2833 63.2979 82.5424L64.5164 83.5172L65.6942 84.5326L68.0906 86.5228C68.9029 87.1726 69.634 87.9037 70.4057 88.5942L72.6802 90.7062C73.3301 91.3154 73.3707 92.3309 72.7614 93.0213C72.5584 93.265 72.274 93.4275 71.9897 93.5087C68.3343 96.4331 65.1662 99.8854 62.6074 103.785C61.2671 105.734 60.0892 107.806 59.0738 109.918C58.0584 112.03 57.2055 114.223 56.515 116.457C55.987 118.122 55.5808 119.828 55.2559 121.574C57.6117 121.371 59.1551 121.168 59.1957 121.128C59.3175 121.128 59.48 121.128 59.6018 121.128C64.9225 116.7 70.5276 112.598 76.3763 108.862C76.0107 108.252 75.9701 107.684 76.1732 107.196ZM41.9339 61.95C34.7854 57.4417 39.7406 52.9333 39.7406 52.9333C39.7406 52.9333 42.7056 48.7498 50.1789 53.705C57.6523 58.6601 82.225 83.5578 82.225 83.5578L75.6858 87.9037C70.8931 82.2987 49.1229 66.4584 41.9339 61.95Z" fill="white"/>
<path d="M125.685 123.605C125.604 122.712 125.441 121.818 125.279 120.965C124.913 119.178 124.385 117.35 123.857 115.522C123.41 114.02 122.964 112.558 122.476 111.055L122.151 111.136C121.42 111.258 120.689 111.339 119.917 111.298C119.186 111.258 118.496 111.136 117.805 110.973C117.602 110.933 117.44 110.852 117.237 110.811C116.709 111.786 116.059 112.639 115.328 113.451C115.125 113.695 114.881 113.898 114.637 114.101C116.424 117.35 118.049 120.721 119.43 124.174C119.795 125.108 120.161 126.042 120.445 127.057L120.648 127.829C120.689 127.992 120.689 128.032 120.73 128.073C120.73 128.113 120.77 128.195 120.811 128.235C120.892 128.438 121.014 128.601 121.176 128.763C121.542 129.088 121.989 129.291 122.476 129.332C122.76 129.373 123.045 129.373 123.37 129.332C123.654 129.291 123.938 129.21 124.182 129.088C124.385 129.007 124.588 128.845 124.791 128.682C124.994 128.52 125.116 128.317 125.238 128.073C125.522 127.504 125.685 126.854 125.725 126.205C125.725 126.042 125.725 125.798 125.725 125.595C125.725 125.392 125.725 125.149 125.725 124.945C125.766 124.499 125.725 124.052 125.685 123.605Z" fill="white"/>
<path d="M111.429 72.6322C111.55 72.8353 111.672 73.079 111.794 73.2821L119.105 72.6728C119.105 72.6728 119.024 72.4698 118.902 72.1448C117.805 72.1855 116.749 72.2261 115.653 72.2667C114.272 72.3479 112.85 72.4698 111.429 72.6322Z" fill="#F7C1C7"/>
<path d="M115.651 72.2667C116.707 72.1855 117.804 72.1448 118.901 72.1448C117.398 68.3269 107.853 44.8508 93.5968 29.9041C93.5968 29.9041 88.3167 23.2025 82.1025 27.589C75.8882 31.9756 83.9708 38.6366 83.9708 38.6366C83.9708 38.6366 105.7 62.4782 111.468 72.6728C112.849 72.4698 114.27 72.3479 115.651 72.2667Z" fill="#F7C1C7"/>
<path d="M50.2205 53.7048C42.7471 48.709 39.7822 52.8924 39.7822 52.8924C39.7822 52.8924 34.7864 57.4008 41.9754 61.9092C49.1239 66.4176 70.8941 82.2985 75.7274 87.9035L82.2665 83.5576C82.2259 83.5576 57.6532 58.6599 50.2205 53.7048Z" fill="#F7C1C7"/>
<path d="M50.3423 137.902C50.1799 137.009 50.0174 136.074 49.8956 135.181C46.7681 136.237 43.5595 136.927 40.2696 137.293H40.1071C39.2135 137.334 38.4418 136.643 38.4012 135.75C38.3606 134.856 39.0511 134.084 39.9446 134.044C43.2345 133.678 46.4838 132.947 49.6113 131.81C49.5706 131.404 49.5706 130.957 49.5706 130.551C44.1281 128.967 29.3032 126.57 14.6002 140.177C14.6002 140.177 27.0287 146.716 44.9404 140.623C44.9404 140.623 30.1562 153.702 42.5847 174.05C42.5847 174.05 52.8199 165.602 53.6729 147.203C53.3479 146.635 53.0636 146.066 52.8199 145.497C51.6827 143.06 50.8703 140.502 50.3423 137.902Z" fill="#E36359"/>
<path d="M140.468 88.5129C125.359 88.5129 118.576 95.6207 118.292 95.905C117.683 96.5549 117.723 97.6109 118.373 98.2201C119.023 98.8294 120.079 98.7888 120.688 98.1389C120.729 98.0577 126.781 91.7622 140.509 91.7622C141.402 91.7622 142.133 91.0311 142.133 90.1376C142.133 89.244 141.362 88.5129 140.468 88.5129Z" fill="black"/>
<path d="M129.827 81.0396C129.502 81.8925 129.908 82.8267 130.761 83.1516L131.899 83.5984L136.813 85.548C137.016 85.6292 137.219 85.6698 137.422 85.6698C138.316 85.6698 139.047 84.9387 139.047 84.0452C139.047 83.3547 138.641 82.7861 137.991 82.5424L137.057 82.1768L131.939 80.146C131.086 79.7805 130.152 80.1866 129.827 81.0396Z" fill="black"/>
<path d="M129.99 124.742C129.949 124.214 129.908 123.686 129.868 123.158C129.746 122.102 129.543 121.087 129.299 120.072C128.812 118.122 128.203 116.213 127.471 114.345C126.862 112.761 126.253 111.177 125.563 109.633C126.375 108.983 127.065 108.212 127.634 107.278C128.324 106.1 128.812 104.759 129.015 103.419C129.137 102.647 128.568 101.916 127.796 101.794C127.187 101.713 126.578 102.038 126.294 102.607V102.647C125.847 103.581 125.319 104.475 124.669 105.328C124.506 105.531 124.344 105.694 124.222 105.856C124.06 106.018 123.897 106.181 123.735 106.303C123.41 106.587 123.044 106.831 122.679 106.993C121.866 107.359 120.973 107.562 120.079 107.562C119.592 107.562 119.105 107.521 118.617 107.481C118.373 107.44 118.13 107.399 117.886 107.359C116.383 106.993 115.774 107.562 115.368 108.09C114.596 109.065 113.703 109.999 112.809 110.852C112.403 111.258 111.956 111.583 111.469 111.867C111.022 112.151 110.535 112.395 110.007 112.517C108.951 112.842 107.854 112.883 106.757 112.679C106.189 112.558 105.579 112.436 105.011 112.233C104.726 112.151 104.442 112.03 104.158 111.908L103.752 111.705L103.386 111.542L103.183 111.461C102.452 111.136 101.599 111.42 101.274 112.151C100.99 112.761 101.152 113.492 101.68 113.898C101.883 114.06 102.046 114.182 102.208 114.304C102.371 114.426 102.533 114.548 102.696 114.629C103.021 114.832 103.386 115.035 103.711 115.238C104.442 115.604 105.214 115.888 105.986 116.091C106.798 116.294 107.651 116.416 108.504 116.457C109.397 116.457 110.25 116.335 111.103 116.091C111.388 116.01 111.631 115.929 111.916 115.807C113.256 119.056 114.596 122.305 115.733 125.555C116.058 126.448 116.343 127.342 116.586 128.195L116.749 128.845C116.749 128.926 116.83 129.129 116.871 129.291C116.911 129.454 116.993 129.616 117.033 129.819C117.317 130.51 117.724 131.16 118.252 131.728C119.267 132.784 120.648 133.434 122.11 133.637C122.801 133.719 123.45 133.719 124.141 133.637C124.831 133.556 125.481 133.353 126.091 133.069C126.781 132.784 127.39 132.338 127.918 131.85C128.446 131.363 128.852 130.794 129.177 130.144C129.787 129.007 130.071 127.707 130.112 126.448C130.112 126.123 130.112 125.88 130.112 125.595C130.112 125.311 129.99 125.027 129.99 124.742ZM125.766 126.205C125.725 126.854 125.563 127.504 125.278 128.073C125.156 128.317 124.994 128.52 124.831 128.682C124.669 128.845 124.466 128.967 124.222 129.088C123.978 129.21 123.694 129.251 123.41 129.332C123.126 129.373 122.841 129.373 122.516 129.332C122.029 129.291 121.582 129.088 121.217 128.763C121.054 128.601 120.932 128.439 120.851 128.235C120.81 128.195 120.81 128.114 120.77 128.073C120.77 127.992 120.729 127.992 120.689 127.829L120.486 127.058C120.161 126.042 119.836 125.108 119.47 124.174C118.089 120.721 116.465 117.35 114.677 114.101C114.921 113.898 115.124 113.654 115.368 113.451C116.099 112.679 116.749 111.786 117.277 110.811C117.48 110.892 117.642 110.933 117.845 110.974C118.536 111.136 119.226 111.258 119.957 111.299C120.689 111.339 121.46 111.299 122.191 111.136L122.516 111.055C122.963 112.558 123.45 114.06 123.897 115.523C124.466 117.35 124.953 119.178 125.319 120.965C125.481 121.859 125.644 122.712 125.725 123.605C125.766 124.052 125.806 124.458 125.806 124.905C125.806 125.108 125.806 125.352 125.806 125.555C125.806 125.758 125.766 126.083 125.766 126.205Z" fill="black"/>
<path d="M102.046 101.754C88.3173 103.216 78.8132 113.41 78.407 113.817C77.7978 114.467 77.8384 115.523 78.4882 116.132C79.1381 116.741 80.1941 116.7 80.8034 116.051C80.8846 115.969 89.8607 106.303 102.37 105.003C103.264 104.922 103.914 104.109 103.833 103.216C103.751 102.282 102.939 101.632 102.046 101.754Z" fill="black"/>
<path d="M82.5091 100.617C81.8592 100.007 80.8032 100.089 80.2346 100.739C78.6099 102.688 77.229 104.841 76.2136 107.196C75.8481 108.009 76.2136 108.984 77.0665 109.349C77.2696 109.43 77.4727 109.471 77.7164 109.471C78.3662 109.471 78.9349 109.105 79.2192 108.496C79.5441 107.725 79.9097 106.993 80.3564 106.262C81.0469 105.084 81.8186 103.947 82.6715 102.932C83.1996 102.241 83.1589 101.185 82.5091 100.617Z" fill="black"/>
<path d="M212.765 110.73L212.724 109.186V109.024C212.724 108.577 212.684 108.13 212.643 107.602V107.562C212.44 105.896 210.978 104.719 209.313 104.922C208.257 105.044 207.323 105.734 206.876 106.749L206.388 107.927L206.348 108.049L206.145 108.536C206.063 108.74 205.942 108.902 205.86 109.105L205.292 110.202L204.642 111.217C201.961 116.172 193.554 118.772 191.482 119.868C191.036 120.112 190.589 120.356 190.142 120.599L188.842 121.371C188.395 121.655 187.989 121.94 187.583 122.224L186.933 122.671L186.283 123.158C185.43 123.849 184.618 124.661 183.928 125.555C183.237 126.448 182.669 127.423 182.222 128.479C181.41 130.51 181.044 132.744 181.247 134.937C181.328 135.993 181.491 137.049 181.775 138.064C181.897 138.552 182.059 139.08 182.222 139.567C182.303 139.811 182.384 140.055 182.506 140.298C182.587 140.542 182.709 140.745 182.831 141.029C179.582 144.157 176.333 147.325 173.164 150.574C172.19 151.549 171.255 152.564 170.321 153.539C167.681 156.382 165.041 159.266 162.523 162.231C161.386 162.353 160.249 162.515 159.111 162.759C157.69 163.043 156.349 163.409 155.009 163.693C153.669 163.977 152.369 164.302 151.029 164.546C148.754 164.993 146.398 165.236 144.083 165.318C143.555 163.937 142.906 162.393 142.215 160.809C145.261 159.997 148.429 159.469 151.557 159.266C152.491 159.225 153.466 159.185 154.4 159.185H155.821C156.309 159.185 156.837 159.185 157.405 159.185C157.974 159.185 158.583 159.103 159.152 159.063C159.761 158.982 160.37 158.86 160.98 158.657C161.63 158.454 162.279 158.169 162.848 157.844C163.498 157.438 164.107 156.951 164.594 156.382C165.082 155.773 165.488 155.082 165.732 154.351C165.975 153.702 166.097 153.011 166.178 152.321C166.178 152.158 166.219 151.996 166.219 151.833C166.219 151.671 166.219 151.549 166.219 151.346C166.219 150.98 166.219 150.615 166.138 150.249C166.057 149.518 165.854 148.828 165.569 148.137C165.001 146.837 164.066 145.7 162.889 144.888C161.873 144.157 160.695 143.629 159.477 143.263C158.38 142.938 157.243 142.776 156.106 142.654C155.862 142.654 155.578 142.613 155.334 142.613C156.39 141.72 157.446 140.826 158.461 139.851C161.67 136.887 164.432 133.475 166.666 129.697L167.478 128.276C167.722 127.789 167.966 127.301 168.209 126.814C168.737 125.839 169.103 124.783 169.55 123.768C169.753 123.24 169.915 122.712 170.078 122.183L170.362 121.412C170.443 121.168 170.524 120.884 170.565 120.599L171.012 118.975C171.134 118.447 171.215 117.878 171.337 117.35L171.499 116.538C171.54 116.254 171.58 115.969 171.621 115.726L171.824 114.06C171.865 113.492 171.865 112.923 171.905 112.395L171.946 111.542C171.946 111.258 171.946 110.973 171.905 110.689L171.824 109.024C171.784 108.455 171.702 107.927 171.621 107.359C171.499 106.262 171.296 105.165 171.012 104.109L170.849 103.338L170.646 102.525C170.524 101.997 170.362 101.469 170.199 100.941C170.037 100.413 169.875 99.8853 169.671 99.3573L169.387 98.5856L169.225 98.1794C169.184 98.0169 169.103 97.9357 169.062 97.7732C168.819 97.2859 168.575 96.7578 168.331 96.2705C168.087 95.7831 167.844 95.2957 167.559 94.8489C167.031 93.9147 166.422 92.9806 165.813 92.087C163.945 89.3657 161.751 86.8881 159.274 84.7355C161.833 82.1361 164.838 80.024 168.169 78.5619C168.981 78.1963 169.347 77.2621 169.022 76.4092C168.656 75.5969 167.722 75.2313 166.869 75.5563C163.051 77.2215 159.639 79.6179 156.796 82.6235C155.903 81.933 154.968 81.2425 154.034 80.6333C155.05 78.9274 157.243 75.7187 161.548 71.4947C162.198 70.8854 162.239 69.87 161.63 69.1796C161.02 68.5297 160.005 68.4891 159.314 69.0983L159.274 69.1389C154.847 73.5255 152.45 76.9372 151.313 78.8868C149.567 77.8714 147.779 76.9778 145.952 76.1655H145.911L145.789 76.1249C140.956 74.5003 135.96 73.363 130.924 72.7538C128.974 72.5101 126.984 72.3476 124.994 72.2258C124.466 70.5605 121.663 61.9093 115.327 50.2119C108.95 38.3926 97.6998 21.1308 80.2756 5.94037L80.1943 5.89975C75.1173 2.00061 63.5417 -3.3607 55.9465 4.31573C52.9003 7.40255 51.4382 10.8549 51.6412 14.551C51.9662 21.2526 57.49 26.4109 59.1958 27.8324C59.5208 28.1167 60.0488 28.5229 60.6986 29.0509C79.4632 44.3225 94.085 59.3911 104.239 73.8098C103.061 74.0535 101.883 74.3378 100.746 74.6627C96.0752 75.9218 91.5262 77.5465 87.0991 79.4148C86.7741 78.9274 86.4086 78.4806 86.0836 77.9932C85.4338 77.1809 84.8245 76.328 84.1747 75.5157C82.875 73.891 81.5347 72.307 80.1537 70.7636L78.0823 68.4078C77.3918 67.6361 76.6607 66.9051 75.9296 66.174C74.5081 64.6712 73.0053 63.2496 71.5431 61.7874C65.5725 56.0606 59.2364 50.7399 52.5754 45.8253C50.9102 44.5662 49.2855 43.3071 47.5796 42.1699C45.8738 40.992 44.2085 39.7735 42.5026 38.6363C39.0097 36.4024 35.5979 34.0873 32.0643 31.9753L29.4243 30.3912L28.1246 29.5789L27.4747 29.1727C27.1904 29.0103 26.9467 28.8478 26.6624 28.726C24.6316 27.7106 22.4789 26.9389 20.245 26.4515C17.9299 25.9641 15.5336 25.8422 13.2185 26.2078C10.7815 26.6139 8.46639 27.5887 6.4762 29.0509C5.50142 29.782 4.60786 30.6349 3.83616 31.5691C3.02384 32.5033 2.33337 33.5187 1.76474 34.6153C1.1555 35.7932 0.74934 37.0116 0.586876 38.3114C0.383796 39.6111 0.424412 40.9514 0.668108 42.2105C1.1555 44.6475 2.25213 46.8813 3.79554 48.8309C5.21711 50.6586 6.96359 52.2427 8.91317 53.5424C9.40056 53.8673 9.92857 54.1922 10.4566 54.4359L11.8375 55.167L14.5182 56.5886C16.3053 57.5634 18.0924 58.5381 19.8795 59.5129C23.4537 61.4625 26.9873 63.4933 30.4803 65.5647C34.0139 67.5955 37.4662 69.7076 40.9186 71.8602C42.6245 72.9162 44.371 74.0129 46.0768 75.1095L48.6357 76.7747L51.1539 78.4806L53.672 80.1865L56.1902 81.933C57.8555 83.0702 59.4801 84.2887 61.1454 85.4666L62.3639 86.3601L63.5824 87.2943L65.9787 89.1626C66.791 89.7719 67.5627 90.4217 68.3344 91.0716L68.9843 91.5996C65.735 94.727 62.7294 98.0982 60.0081 101.672C58.5054 103.703 57.1244 105.815 55.9465 108.049C54.7281 110.283 53.6314 112.557 52.7379 114.954C51.9256 117.147 51.2351 119.422 50.7071 121.696C47.4578 121.777 43.7617 121.696 40.6343 121.087C39.7407 120.924 38.8878 121.493 38.7253 122.387C38.5629 123.28 39.1315 124.133 40.0251 124.296C42.8682 124.783 45.7113 125.027 48.595 124.986H50.1791C49.976 126.692 49.8541 128.357 49.8541 130.063V130.55C49.8541 130.957 49.8541 131.403 49.8948 131.809C46.7673 132.906 43.518 133.678 40.2281 134.043C39.3346 134.084 38.6441 134.856 38.6847 135.749C38.7253 136.643 39.497 137.333 40.3906 137.293H40.5531C43.843 136.927 47.0516 136.196 50.1791 135.14C50.3009 136.034 50.4634 136.968 50.6258 137.861C51.1539 140.501 51.9662 143.02 53.1034 145.456C53.3877 146.025 53.672 146.594 53.9564 147.162C54.9311 148.99 56.109 150.696 57.49 152.28C57.9367 152.808 58.3835 153.295 58.8709 153.783C59.3583 154.27 59.8457 154.717 60.3737 155.164C60.9017 155.611 61.4297 156.017 61.9577 156.423L62.77 157.032L63.5824 157.56C65.7756 159.022 68.1314 160.281 70.6089 161.297C73.0459 162.272 75.5235 163.043 78.0823 163.571C81.5753 164.302 85.1495 164.708 88.7643 164.79C88.6831 164.993 88.6018 165.155 88.5206 165.358C88.1551 166.211 87.7083 167.064 87.2615 167.917C86.368 169.623 85.3932 171.288 84.3372 172.913C84.0935 173.319 83.8092 173.725 83.5248 174.131L82.7125 175.35L81.0066 177.746L79.2602 180.102L77.473 182.417C76.9044 183.148 76.2952 183.839 75.7266 184.57C71.8274 181.97 60.6174 176.69 47.4984 190.053C31.6988 206.137 53.997 230.506 67.847 224.13C68.8218 225.714 69.9185 227.176 71.1776 228.516L72.3148 229.694C72.721 230.06 73.1271 230.425 73.5333 230.75L74.1425 231.278C74.3456 231.441 74.5487 231.603 74.7518 231.766L76.0515 232.74C76.4576 233.065 76.945 233.35 77.3512 233.634C77.798 233.918 78.2448 234.203 78.6915 234.487L80.0725 235.259C80.5192 235.502 80.966 235.787 81.4534 235.99C82.347 236.436 83.2811 236.843 84.2153 237.249C84.2153 237.289 84.2153 237.371 84.1747 237.411C84.1341 237.655 84.0935 237.858 84.0935 238.102C84.0528 238.548 84.0528 238.995 84.0935 239.442C84.1341 240.336 84.3372 241.229 84.6621 242.082C85.312 243.747 86.368 245.25 87.7489 246.387C88.3988 246.956 89.1299 247.443 89.8609 247.85L90.389 248.174C90.592 248.256 90.7139 248.337 90.917 248.459L91.9324 248.946C93.3133 249.596 94.6942 250.205 96.1158 250.733C101.721 252.967 107.529 254.673 113.499 255.729C115.043 256.013 116.586 256.176 118.13 256.298L119.348 256.338H120.607C121.501 256.298 122.394 256.176 123.288 255.932C124.263 255.688 125.197 255.282 126.009 254.714C126.456 254.389 126.903 254.023 127.268 253.617C127.674 253.17 127.999 252.683 128.243 252.155C128.771 251.099 128.974 249.88 128.812 248.702C128.69 247.646 128.324 246.59 127.756 245.697C127.228 244.844 126.578 244.113 125.806 243.504C125.441 243.219 125.075 242.935 124.669 242.691C124.466 242.569 124.263 242.448 124.1 242.366L123.572 242.082C122.151 241.351 120.729 240.742 119.226 240.254C118.617 240.051 117.967 239.848 117.358 239.645C120.932 238.955 124.506 238.183 127.065 236.883C127.106 236.924 127.146 236.964 127.187 237.005C128.04 237.695 128.324 237.939 129.177 238.548C130.03 239.158 130.924 239.726 131.817 240.254C133.604 241.392 135.473 242.407 137.382 243.301C137.869 243.544 138.357 243.747 138.844 243.95C139.331 244.153 139.819 244.357 140.347 244.56C140.875 244.763 141.362 244.925 141.89 245.088C142.418 245.25 142.946 245.413 143.434 245.575C145.505 246.144 147.576 246.631 149.688 246.956C150.826 247.118 151.963 247.2 153.141 247.2C154.481 247.2 155.862 246.956 157.081 246.428C157.852 246.103 158.543 245.616 159.111 245.047C159.721 244.438 160.167 243.747 160.492 242.935C160.777 242.245 160.939 241.473 161.02 240.701C161.061 239.929 161.02 239.158 160.858 238.386C160.655 237.696 160.37 237.005 160.005 236.355C159.639 235.787 159.233 235.218 158.786 234.731C157.933 233.837 156.999 233.065 155.943 232.456C154.968 231.887 153.953 231.359 152.897 230.953C152.613 230.831 152.369 230.75 152.085 230.669L152.166 230.588C152.369 230.425 152.532 230.222 152.735 230.019L153.831 228.841C154.197 228.435 154.522 227.988 154.847 227.582L155.334 226.932C155.496 226.729 155.659 226.485 155.781 226.242C156.065 225.754 156.39 225.308 156.674 224.82C157.812 222.83 158.543 220.677 158.908 218.403C159.274 216.128 159.193 213.813 158.705 211.539C158.218 209.386 157.405 207.274 156.268 205.365C155.659 204.35 155.009 203.375 154.278 202.441C159.639 196.958 164.676 191.109 169.306 184.976C174.099 178.599 178.526 171.938 182.587 165.033C183.075 164.18 183.603 163.328 184.09 162.434L185.552 159.835C185.715 159.591 185.837 159.307 185.999 159.063C186.811 157.56 187.583 156.057 188.395 154.595C188.842 153.702 189.289 152.808 189.736 151.914C190.183 151.021 190.629 150.127 191.036 149.234C191.442 148.381 191.848 147.569 192.213 146.716C193.026 146.837 197.128 147.284 200.174 145.903C201.596 145.253 202.936 144.4 204.114 143.344C205.739 141.801 207.079 140.014 208.094 138.024C209.069 136.115 209.841 134.125 210.45 132.094C211.587 128.113 212.318 124.011 212.643 119.868C212.806 117.838 212.928 115.766 212.968 113.735C212.765 112.761 212.765 111.745 212.765 110.73ZM155.659 147.325C156.512 147.406 157.324 147.569 158.137 147.812C158.827 148.015 159.477 148.34 160.086 148.746C160.573 149.071 160.939 149.518 161.183 150.046C161.305 150.29 161.345 150.533 161.386 150.818C161.386 150.94 161.426 151.102 161.386 151.224V151.508V151.793C161.386 152.321 161.223 152.808 160.898 153.255C160.736 153.417 160.573 153.58 160.37 153.702C160.086 153.864 159.802 153.986 159.517 154.067C158.746 154.311 157.974 154.433 157.202 154.473C156.796 154.514 156.349 154.514 155.821 154.514C155.253 154.514 154.765 154.554 154.278 154.554C153.222 154.595 152.207 154.717 151.151 154.839C147.576 155.245 144.083 156.179 140.793 157.56C139.859 155.529 139.006 153.742 138.478 152.646C142.418 151.143 146.195 149.234 149.688 146.878C150.785 146.959 151.841 147 152.897 147.081L154.319 147.203C154.765 147.244 155.212 147.284 155.659 147.325ZM83.9716 38.5957C83.9716 38.5957 75.889 31.894 82.1033 27.5481C88.3175 23.2022 93.5976 29.8632 93.5976 29.8632C107.854 44.8099 117.399 68.286 118.901 72.1039C119.023 72.4695 119.104 72.6319 119.104 72.6319L111.794 73.2411C111.672 73.0381 111.55 72.835 111.428 72.5913C105.701 62.4373 83.9716 38.5957 83.9716 38.5957ZM153.141 217.672C152.897 219.296 152.41 220.88 151.679 222.343C151.475 222.708 151.272 223.074 151.069 223.48C150.947 223.683 150.866 223.845 150.744 224.049L150.379 224.577C150.135 224.942 149.891 225.308 149.648 225.673L148.835 226.729C146.602 229.532 143.677 231.969 140.672 234.324L140.631 234.365C139.9 234.893 139.737 235.908 140.265 236.639C140.753 237.33 141.646 237.533 142.378 237.127C143.271 236.68 144.205 236.193 145.099 235.705C145.992 235.218 146.845 234.649 147.698 234.081C148.064 233.837 148.389 233.593 148.714 233.35L149.688 233.918C150.095 234.162 150.501 234.406 150.907 234.649C151.679 235.137 152.45 235.665 153.141 236.233C153.791 236.761 154.359 237.33 154.887 237.98C155.09 238.264 155.293 238.548 155.456 238.833C155.578 239.076 155.659 239.361 155.74 239.645C155.781 239.889 155.781 240.132 155.74 240.376C155.74 240.498 155.7 240.62 155.659 240.782C155.659 240.864 155.618 240.904 155.618 240.985L155.537 241.148C155.415 241.513 155.131 241.798 154.765 241.92C154.116 242.163 153.425 242.285 152.735 242.285C151.841 242.285 150.947 242.245 150.095 242.123C148.186 241.879 146.236 241.513 144.368 241.026C143.88 240.904 143.434 240.782 142.946 240.701C142.499 240.579 142.053 240.457 141.565 240.295C140.672 240.011 139.737 239.686 138.844 239.32C135.798 238.142 132.833 236.721 129.99 235.137L130.03 235.096C135.351 231.603 137.26 227.379 137.422 227.095C137.869 226.323 137.625 225.348 136.894 224.861C136.123 224.373 135.188 225.186 134.701 225.957C134.66 226.039 131.817 229.897 125.603 233.309C124.263 234.04 122.841 234.69 121.379 235.218C122.11 234.609 122.841 233.959 123.532 233.268C125.522 231.278 127.025 228.882 127.959 226.201C128.893 223.439 129.055 220.434 128.406 217.591C127.796 214.91 126.659 212.351 125.116 210.077C123.654 207.924 121.988 205.934 120.12 204.147C119.226 203.253 118.252 202.4 117.277 201.628C116.302 200.857 115.287 200.044 114.271 199.354C113.256 198.623 112.2 197.932 111.144 197.323C110.088 196.714 108.991 196.064 107.813 195.495C107.042 195.049 106.026 195.374 105.62 196.145C105.214 196.876 105.458 197.77 106.107 198.257L106.148 198.298C107.042 198.988 107.976 199.72 108.869 200.491C109.763 201.222 110.656 201.994 111.509 202.806C113.215 204.35 114.88 205.974 116.424 207.721C117.927 209.386 119.267 211.173 120.445 213.082C121.541 214.869 122.354 216.778 122.841 218.85C123.247 220.718 123.166 222.708 122.597 224.536C121.948 226.485 120.932 228.273 119.592 229.816C118.901 230.669 118.13 231.441 117.317 232.172C116.505 232.943 115.652 233.675 114.759 234.365C113.215 235.583 111.55 236.721 109.844 237.858L109.032 238.386L108.788 238.548C108.422 238.792 108.179 239.158 108.098 239.604C108.098 239.686 108.098 239.767 108.098 239.848C108.098 240.62 108.666 241.31 109.438 241.432C112.159 242.285 114.921 243.219 117.48 244.316C118.739 244.844 119.998 245.453 121.176 246.144L121.582 246.387C121.745 246.469 121.826 246.55 121.948 246.631C122.191 246.794 122.394 246.956 122.597 247.118C122.963 247.443 123.288 247.809 123.532 248.256C123.735 248.581 123.897 248.987 123.938 249.393C123.978 249.677 123.938 250.002 123.775 250.246C123.613 250.53 123.369 250.774 123.085 250.977C122.679 251.221 122.232 251.424 121.785 251.505C121.217 251.627 120.689 251.749 120.12 251.749H119.186L118.17 251.708C116.789 251.627 115.408 251.464 114.027 251.221C111.184 250.774 108.422 250.165 105.661 249.393C102.899 248.662 100.137 247.768 97.4155 246.834C96.0752 246.347 94.7349 245.819 93.3945 245.291C92.1761 244.803 91.0388 244.194 89.9422 243.463C89.008 242.773 88.2363 241.838 87.7489 240.782C87.5052 240.254 87.3427 239.726 87.2615 239.158C87.2209 238.955 87.2209 238.752 87.2209 238.548C89.0486 239.198 90.9576 239.767 92.8259 240.254C93.6789 240.498 94.5724 240.011 94.8567 239.158C95.1004 238.305 94.6536 237.452 93.8007 237.167C90.1859 235.827 86.6523 234.203 83.2811 232.294C80.0319 230.466 77.0669 228.11 74.5893 225.348C72.193 222.668 70.5277 219.459 69.756 215.966C69.3904 214.219 69.228 212.432 69.3092 210.686C69.3905 208.858 69.6342 207.071 70.0403 205.284C70.2434 204.39 70.5277 203.497 70.7714 202.603L71.2588 201.304C71.4213 200.857 71.6243 200.451 71.7868 200.004C72.5179 198.257 73.3302 196.592 74.2644 194.927C75.1985 193.262 76.2546 191.678 77.3918 190.175L81.0066 185.423L82.7937 182.945L84.4996 180.427C85.0276 179.574 85.5963 178.721 86.1243 177.827C86.6523 176.934 87.1803 176.081 87.6677 175.187L88.3988 173.847L89.0892 172.466C89.3329 172.019 89.536 171.532 89.7797 171.085C89.9828 170.638 90.2265 170.151 90.4296 169.664C90.6326 169.176 90.8357 168.729 91.0388 168.242C91.2419 167.755 91.4044 167.267 91.5668 166.78C91.7293 166.293 91.8917 165.765 92.0542 165.277L92.1354 164.993C92.4604 164.993 92.7447 164.993 93.0696 164.952C98.0654 164.749 103.061 164.059 107.935 162.84C108.869 162.596 109.438 161.622 109.194 160.647C108.95 159.794 108.138 159.225 107.285 159.347C102.533 159.956 97.7811 160.363 93.0696 160.16C88.3988 159.997 83.7685 159.307 79.3008 158.047C77.1075 157.438 74.9955 156.626 72.924 155.651C70.8932 154.717 68.9437 153.58 67.116 152.28L66.4255 151.793L65.7756 151.305C65.3288 150.98 64.9227 150.655 64.5165 150.29C64.151 149.924 63.7042 149.599 63.3387 149.193C63.1356 148.99 62.9731 148.787 62.77 148.625C62.567 148.462 62.4045 148.218 62.2014 148.015C60.7392 146.431 59.4395 144.644 58.3835 142.776C57.7336 141.679 57.2056 140.542 56.7183 139.364C55.9465 137.415 55.4185 135.343 55.0936 133.272C56.8401 132.459 57.8555 131.891 57.9773 131.809C58.7491 131.322 58.9521 130.307 58.4647 129.576C58.018 128.845 57.0838 128.601 56.3527 129.007C56.3121 129.007 55.7435 129.373 54.7281 129.86C54.6468 128.357 54.6468 126.854 54.7281 125.352C54.7281 125.189 54.7281 125.027 54.7687 124.905L55.2967 124.864C57.7743 124.661 59.4395 124.417 59.6426 124.377C60.5362 124.255 61.186 123.483 61.0642 122.59C60.9423 121.696 60.1706 121.046 59.2771 121.168C59.2364 121.168 59.1958 121.168 59.1958 121.168C59.1552 121.168 57.5712 121.412 55.2561 121.615C55.581 119.909 55.9872 118.203 56.5152 116.497C57.2056 114.263 58.0992 112.07 59.074 109.958C60.0894 107.846 61.2672 105.775 62.6076 103.825C65.1664 99.9259 68.3344 96.4329 71.9899 93.5086C72.8428 93.2649 73.3708 92.4119 73.1677 91.5184C73.0865 91.2341 72.9241 90.9498 72.6804 90.7467L70.4059 88.6346C69.6341 87.9442 68.9031 87.2131 68.0907 86.5632L65.735 84.573L64.5572 83.5576L63.3387 82.5828C61.714 81.3237 60.0894 80.024 58.4241 78.8056L55.9465 76.9372C55.1342 76.328 54.2813 75.7187 53.4283 75.1501L50.9102 73.363L48.392 71.6165C46.6861 70.4386 44.9802 69.3014 43.2743 68.1641C39.822 65.9303 36.329 63.737 32.836 61.5843C29.343 59.4317 25.7688 57.3603 22.1946 55.3295C20.4075 54.3141 18.6204 53.2987 16.8333 52.3239L14.112 50.8617L12.7717 50.1306C12.4061 49.9275 12.0406 49.6838 11.6751 49.4402C8.7507 47.4906 6.23251 44.485 5.7045 41.4794C5.42019 40.0172 5.66388 38.5144 6.35435 37.1741C6.7199 36.443 7.20729 35.7932 7.7353 35.1839C8.26331 34.5341 8.87255 33.9654 9.56302 33.478C10.8627 32.5033 12.4061 31.8534 13.9902 31.5691C15.696 31.3254 17.4425 31.366 19.1484 31.7722C20.9355 32.1377 22.6414 32.747 24.266 33.5593C24.4691 33.6405 24.6722 33.7624 24.794 33.8436L25.4439 34.2498L26.7436 35.0215L29.343 36.5649C32.8766 38.5957 36.2478 40.8296 39.7001 42.9822L44.7365 46.3533C46.4424 47.45 48.067 48.6684 49.6917 49.8463C56.2715 54.5578 62.6076 59.6348 68.6188 65.0367C70.1215 66.4177 71.6243 67.758 73.0459 69.1796C73.777 69.87 74.5081 70.5605 75.1985 71.2916L77.3106 73.4442C78.6915 74.9064 80.0725 76.3686 81.3722 77.912C82.0627 78.6431 82.6719 79.4554 83.3218 80.1865C83.9716 80.9176 84.5809 81.7705 85.1495 82.5016L85.1901 82.5422C85.5556 83.0702 86.2055 83.3139 86.8147 83.1921C87.1803 83.2327 87.5458 83.1921 87.8708 82.989C89.4548 82.1361 91.0388 81.3644 92.7041 80.6739C95.3847 82.5422 102.574 86.4007 114.19 84.2481C125.075 82.2173 127.999 77.9526 128.812 75.7187C129.38 75.8 129.949 75.8406 130.518 75.9218C135.31 76.5717 140.062 77.7089 144.611 79.3336C145.099 79.5366 145.546 79.7803 146.033 80.024C147.698 80.877 149.282 81.8111 150.826 82.8265C152.125 83.7201 153.384 84.6543 154.562 85.7103C154.887 85.9946 155.253 86.3195 155.578 86.6444C157.243 88.1879 158.746 89.8937 160.127 91.6808C160.858 92.6556 161.508 93.6304 162.158 94.6458C162.401 95.052 162.645 95.4987 162.889 95.9049C163.132 96.3111 163.335 96.7578 163.579 97.164C163.823 97.5702 164.026 98.0169 164.229 98.4637C164.432 98.9105 164.594 99.3167 164.798 99.7634C164.838 99.8853 164.879 99.9665 164.919 100.088L165.041 100.373L165.285 101.063C165.447 101.51 165.569 101.957 165.691 102.444C165.813 102.891 165.935 103.378 166.057 103.825L166.219 104.516L166.382 105.247C166.585 106.181 166.747 107.115 166.828 108.09C166.869 108.577 166.95 109.024 166.95 109.511V110.933C166.95 111.177 166.95 111.42 166.95 111.623V112.314C166.91 112.801 166.91 113.248 166.869 113.735L166.666 115.157C166.625 115.401 166.625 115.604 166.544 115.847L166.382 116.538C166.26 116.985 166.178 117.472 166.057 117.919L165.65 119.3C165.569 119.543 165.529 119.747 165.447 119.99L165.204 120.681C165.041 121.127 164.879 121.574 164.716 122.021L164.148 123.321C164.066 123.524 163.945 123.768 163.863 123.971L163.538 124.62L162.889 125.92L162.158 127.179L161.792 127.789L161.386 128.398L160.573 129.616L159.721 130.794L159.314 131.363L158.868 131.931L157.933 133.028L156.959 134.084L156.471 134.612L155.943 135.14L154.928 136.155C153.506 137.536 152.003 138.795 150.46 140.014C149.688 140.623 148.876 141.232 148.064 141.801C147.373 142.329 146.683 142.816 145.952 143.304C145.83 143.385 145.749 143.466 145.627 143.548C142.337 145.822 138.925 147.934 135.513 150.168C134.823 150.615 134.539 151.468 134.823 152.239C134.945 152.483 135.067 152.767 135.107 153.011C135.148 153.052 136.732 156.342 138.438 160.038C138.438 160.16 138.478 160.241 138.519 160.363C138.6 160.606 138.722 160.809 138.885 160.972C139.941 163.287 140.956 165.724 141.606 167.592C141.768 168.039 142.093 168.364 142.499 168.567V168.526C142.662 168.608 142.824 168.648 142.987 168.689C145.87 169.054 148.835 169.095 151.719 168.77C153.872 168.567 156.024 168.161 158.055 167.795C158.746 167.673 159.436 167.552 160.086 167.43C160.411 167.389 160.736 167.308 161.02 167.267C161.914 167.105 162.848 167.024 163.742 167.064H163.782C164.229 167.064 164.635 167.145 165.082 167.267C165.407 167.349 165.65 167.552 165.894 167.795C166.178 168.08 166.422 168.445 166.544 168.851C166.585 168.973 166.625 169.095 166.707 169.217L166.788 169.379L166.828 169.461C166.869 169.582 166.869 169.704 166.91 169.826C166.91 170.151 166.828 170.476 166.666 170.72C166.463 171.126 166.178 171.532 165.854 171.857C165.041 172.71 164.107 173.441 163.092 174.05C161.995 174.741 160.858 175.35 159.68 175.837C158.502 176.365 157.324 176.853 156.065 177.259C154.968 177.665 153.831 178.031 152.735 178.355L152.125 178.518C151.272 178.762 150.46 179.005 149.607 179.208C145.464 180.305 141.24 181.117 136.935 181.848L136.041 182.011C135.148 182.133 134.539 182.986 134.66 183.839C134.782 184.692 135.554 185.301 136.407 185.22C138.966 185.057 141.525 184.813 144.043 184.448C144.205 185.585 144.286 186.722 144.205 187.9C140.793 194.033 137.869 200.451 135.473 207.071C135.067 208.168 134.782 209.305 134.62 210.442C134.62 210.605 134.579 210.808 134.579 210.97C134.579 211.133 134.579 211.376 134.579 211.539C134.579 211.782 134.62 211.986 134.66 212.229C134.701 212.514 134.782 212.798 134.904 213.042C135.026 213.366 135.229 213.691 135.432 213.976C135.716 214.301 136.041 214.585 136.407 214.788C136.569 214.869 136.772 214.951 136.976 215.032C137.138 215.072 137.341 215.113 137.504 215.154C137.666 215.194 137.828 215.194 137.991 215.194C138.153 215.194 138.275 215.194 138.397 215.194C139.209 215.113 139.981 214.91 140.672 214.544C141.24 214.26 141.768 213.935 142.296 213.61C142.418 213.529 142.54 213.407 142.702 213.285C142.784 213.204 142.824 213.204 142.865 213.163L142.987 213.042L143.555 212.554L144.693 211.579C146.195 210.239 147.739 208.939 149.201 207.599L150.501 206.34C150.826 206.949 151.151 207.518 151.435 208.127C152.856 211.214 153.628 214.504 153.141 217.672ZM181.897 158.047L180.394 160.566C179.907 161.419 179.338 162.231 178.851 163.043C176.373 166.983 173.774 170.882 171.093 174.659C169.265 177.259 167.356 179.777 165.447 182.295L161.792 186.885C161.183 187.657 160.533 188.388 159.924 189.119L158.015 191.353C157.365 192.084 156.756 192.855 156.106 193.546L154.116 195.699L152.125 197.851C151.8 198.217 151.475 198.582 151.11 198.907L150.907 199.11L150.054 199.923L147.861 202.156L145.952 204.065C145.464 204.512 144.936 205 144.408 205.446C143.962 205.853 143.515 206.259 143.068 206.624L141.565 207.965L140.469 208.939L139.941 209.427L139.697 209.63L139.534 209.752L139.494 209.792C139.575 209.427 139.697 209.021 139.859 208.655C140.306 207.396 140.753 206.137 141.24 204.918C142.946 200.369 144.936 195.942 147.211 191.637C147.536 190.987 147.901 190.337 148.267 189.647C149.485 187.413 150.826 185.179 152.166 183.026L153.222 182.783C156.065 182.092 158.827 181.199 161.508 180.102C162.889 179.533 164.229 178.843 165.529 178.071C166.95 177.259 168.209 176.243 169.347 175.066C169.671 174.741 169.956 174.375 170.199 174.05C170.484 173.685 170.727 173.238 170.931 172.832C171.418 171.857 171.702 170.801 171.702 169.704C171.702 169.136 171.621 168.567 171.459 167.998C171.418 167.877 171.377 167.714 171.337 167.592C171.296 167.47 171.256 167.389 171.215 167.267C171.134 167.064 171.052 166.861 170.971 166.658C170.565 165.765 169.996 164.912 169.306 164.221C168.697 163.612 167.966 163.124 167.194 162.8C169.103 160.525 171.093 158.291 173.083 156.057C173.814 155.245 174.545 154.473 175.276 153.661C176.901 154.026 180.435 155.082 181.978 158.047H181.897ZM189.655 143.872C189.451 144.319 189.208 144.725 189.005 145.172C188.558 146.025 188.111 146.919 187.664 147.772C187.218 148.625 186.771 149.518 186.283 150.371C185.796 151.224 185.349 152.077 184.862 152.93C184.496 153.58 184.131 154.23 183.765 154.879C182.059 152.767 179.622 151.59 177.754 150.94C180.678 147.853 183.643 144.847 186.649 141.842L187.015 141.476C187.218 141.517 187.421 141.598 187.583 141.679C188.03 141.842 188.436 142.004 188.842 142.248C189.208 142.41 189.533 142.654 189.817 142.938C189.898 143.02 189.939 143.101 190.02 143.182C189.898 143.426 189.776 143.629 189.655 143.872ZM207.119 119.665C207.038 123.483 206.591 127.26 205.779 130.997C205.698 131.444 205.576 131.85 205.454 132.297C205.414 132.5 205.332 132.703 205.251 132.947C205.17 133.19 205.129 133.353 205.048 133.556C204.967 133.759 204.886 134.003 204.804 134.246C204.723 134.49 204.683 134.653 204.601 134.856C204.439 135.343 204.236 135.79 204.033 136.277C203.342 137.902 202.367 139.364 201.19 140.664C200.865 140.989 200.54 141.273 200.215 141.557C199.281 142.329 198.184 142.898 197.006 143.263L196.722 143.344C195.991 143.548 195.219 143.629 194.447 143.669H193.351C193.391 143.426 193.391 143.141 193.351 142.898C193.148 142.045 192.701 141.314 192.092 140.704C191.604 140.217 191.036 139.77 190.426 139.445C189.858 139.12 189.289 138.877 188.68 138.674C188.395 138.592 188.071 138.471 187.786 138.389C187.461 138.308 187.218 138.227 186.852 138.146C186.365 138.064 185.837 138.186 185.431 138.552C185.309 138.146 185.227 137.739 185.146 137.293C184.984 136.44 184.902 135.587 184.902 134.734C184.862 133.109 185.187 131.485 185.877 130.022C186.568 128.601 187.624 127.382 188.923 126.489L189.411 126.164L189.979 125.839C190.345 125.636 190.711 125.392 191.117 125.148L192.295 124.539C192.701 124.336 193.107 124.133 193.513 123.971C194.732 123.402 195.991 122.915 197.331 122.387L198.753 121.818C199.524 121.493 200.296 121.168 201.108 120.803C202.205 120.275 203.302 119.706 204.317 119.056C205.332 118.406 206.267 117.634 207.16 116.782C207.119 117.716 207.119 118.691 207.119 119.665Z" fill="black"/>
</svg>
