<svg width="280" height="253" viewBox="0 0 280 253" fill="none" xmlns="http://www.w3.org/2000/svg">
<g clip-path="url(#clip0_101_2139)">
<path d="M60.7997 263.905C60.7997 263.905 167.506 288.546 223.76 256.706C223.76 256.706 215.91 221.686 201.553 216.597L183.534 221.814C183.534 221.814 173.8 216.54 169.347 218.478C164.894 220.417 163.203 230.945 160.192 231.758C157.18 232.57 137.499 230.133 137.499 230.133L139.354 239.456L117.803 235.536L116.276 225.806L87.5102 219.391V243.669L93.5688 252.65L75.9212 241.544L77.7195 229.762C77.7195 229.762 74.3798 212.306 54.1703 221.843C33.9608 231.38 60.7997 263.905 60.7997 263.905Z" fill="white"/>
<path d="M175.706 0L182.071 0.548854C201.895 6.964 197.471 28.9608 187.987 42.0335C179.423 53.9015 168.584 63.5598 158.729 74.2517L146.319 88.9994L135.244 104.346C134.858 104.888 134.994 105.137 135.658 105.101C143.235 104.71 150.833 105.058 158.343 106.142C158.513 106.165 158.686 106.144 158.845 106.08C159.004 106.017 159.143 105.913 159.25 105.779L165.744 97.4674L179.452 81.8644C190.442 70.1379 202.641 59.6038 215.846 50.4373C228.056 41.8838 249.051 30.4078 264.158 37.5429C269.917 40.2657 275.026 46.1605 275.176 52.7895C275.433 64.0588 263.901 71.8924 255.459 76.9247C244.098 83.7058 233.106 90.3585 222.483 96.8829L210.259 104.588L193.061 115.052C192.971 115.108 192.907 115.196 192.88 115.298C192.854 115.4 192.867 115.508 192.918 115.601C192.966 115.672 193.033 115.728 193.111 115.765C198.045 117.9 202.777 120.477 207.247 123.463C212.521 127.232 217.335 131.605 221.591 136.493C224.353 140.148 226.743 144.069 228.727 148.197L230.383 152.153C230.45 152.309 230.576 152.432 230.734 152.496C230.891 152.56 231.067 152.559 231.225 152.495H231.267C233.23 151.497 238.582 149.002 240.63 150.271C242.229 151.255 242 153.03 240.209 153.757C237.707 154.783 235.238 155.674 232.802 156.43C232.576 156.499 232.383 156.648 232.258 156.848C232.133 157.049 232.086 157.287 232.124 157.52L233.373 165.361C233.375 165.41 233.387 165.458 233.41 165.501C233.432 165.545 233.464 165.583 233.503 165.613C233.542 165.642 233.586 165.664 233.634 165.674C233.682 165.685 233.732 165.685 233.779 165.675C236.634 165.382 240.494 164.727 243.099 166.259C243.438 166.457 243.685 166.781 243.786 167.161C243.886 167.54 243.832 167.944 243.634 168.284C243.568 168.396 243.486 168.499 243.392 168.59C241.843 170.115 236.427 170.016 234.257 170.172C234.042 170.191 233.841 170.288 233.691 170.444C233.541 170.6 233.454 170.805 233.444 171.021C232.78 190.088 223.368 204.736 207.925 215.442C207.858 215.489 207.811 215.561 207.795 215.642C207.779 215.723 207.795 215.807 207.84 215.877L207.875 215.919C212.068 220.313 215.663 225.241 218.565 230.575C218.685 230.792 218.882 230.956 219.117 231.035C219.352 231.114 219.608 231.103 219.835 231.002C223.175 229.512 226.522 229.37 230.418 229.455C235.918 229.536 241.278 231.194 245.861 234.231C250.537 237.264 253.98 241.86 255.573 247.197C252.658 250.231 249.131 252.612 245.226 254.182C239.017 256.698 230.746 257.098 223.767 256.713C223.581 256.702 223.402 256.633 223.255 256.517C223.108 256.401 223 256.243 222.947 256.064C218.928 242.459 212.251 229.784 203.301 218.771C203.268 218.72 203.225 218.677 203.175 218.643C203.124 218.61 203.068 218.587 203.008 218.576C202.949 218.566 202.888 218.567 202.829 218.581C202.77 218.595 202.714 218.621 202.666 218.657C198.39 221.187 193.866 223.272 189.164 224.879C188.893 224.972 188.836 225.136 188.979 225.378C191.543 229.541 191.593 233.727 189.129 237.938C189.1 237.98 189.081 238.027 189.071 238.077C189.061 238.126 189.061 238.178 189.071 238.227C189.081 238.277 189.101 238.324 189.129 238.366C189.157 238.408 189.193 238.444 189.236 238.472C193.309 241.603 198.154 243.573 203.258 244.175C203.698 244.182 204.128 244.306 204.504 244.534C204.88 244.762 205.189 245.086 205.399 245.472C205.55 245.78 205.572 246.136 205.461 246.46C205.35 246.785 205.115 247.052 204.807 247.204C204.634 247.291 204.444 247.338 204.25 247.339C197.371 247.446 191.997 245.543 185.66 243.298C185.396 243.205 185.113 243.172 184.834 243.203C184.555 243.234 184.286 243.327 184.048 243.476C182.249 244.595 176.983 247.653 175.577 244.609C173.579 240.283 191.362 236.769 182.977 226.946C177.754 220.845 168.841 220.631 163.71 227.118C158.679 233.483 159.571 242.799 163.132 249.571C166.122 255.273 169.89 258.644 173.358 263.363C173.41 263.435 173.448 263.516 173.469 263.602C173.49 263.688 173.493 263.777 173.479 263.865C173.466 263.952 173.434 264.036 173.388 264.112C173.341 264.187 173.28 264.252 173.208 264.304C173.12 264.369 173.017 264.411 172.908 264.425L167.385 265.245C167.265 265.266 167.142 265.256 167.027 265.216C166.912 265.176 166.809 265.108 166.728 265.017C157.965 255.85 152.577 245.059 154.832 232.05C154.875 231.801 154.775 231.679 154.518 231.694L140.831 232.406C140.632 232.406 140.546 232.52 140.582 232.72C140.867 234.166 141.239 235.595 141.695 236.997C142.708 240.083 138.162 241.088 136.043 240.81C129.592 239.95 123.102 239.417 116.597 239.214C115.917 239.193 115.245 239.053 114.613 238.8C114.519 238.766 114.436 238.706 114.376 238.626C114.315 238.546 114.278 238.451 114.271 238.351L113.4 229.455C113.383 229.25 113.299 229.055 113.161 228.901C113.023 228.746 112.839 228.641 112.637 228.6C105.755 227.188 99.0736 224.938 92.741 221.9C92.477 221.779 92.3343 221.857 92.32 222.149C91.8786 229.145 91.0423 236.111 89.8152 243.013C89.7852 243.19 89.8109 243.372 89.8888 243.535C89.9668 243.697 90.0932 243.831 90.2505 243.918C92.2486 244.98 101.369 250.269 96.1806 252.906C95.5527 253.227 94.6892 253.149 93.5902 252.664C87.3452 249.915 81.584 246.18 76.5278 241.601C76.4531 241.523 76.3517 241.475 76.2435 241.467C76.1352 241.459 76.0279 241.492 75.9426 241.559C72.2749 244.09 67.8965 245.39 63.4401 245.272C61.7417 245.244 60.864 244.531 60.8069 243.134C60.7901 242.714 60.904 242.3 61.1327 241.948C61.3615 241.595 61.6939 241.323 62.0842 241.167C64.2298 240.311 66.4064 239.503 68.6138 238.743C74.4726 236.726 78.1548 231.615 73.5163 225.913C68.1714 219.369 57.4101 220.424 53.0714 227.524C49.9457 232.642 50.5737 239.983 52.1151 245.244C54.0123 251.751 57.1289 257.839 61.2993 263.185C61.336 263.231 61.3632 263.284 61.3791 263.341C61.3951 263.397 61.3995 263.457 61.3922 263.515C61.3849 263.573 61.366 263.63 61.3365 263.681C61.3071 263.732 61.2677 263.776 61.2208 263.812C61.1657 263.857 61.1007 263.888 61.0313 263.903C60.9618 263.918 60.8898 263.916 60.8212 263.898L53.9348 262.037C49.7055 255.974 47.0508 249.841 45.9709 243.64C44.0584 234.167 45.5356 224.017 54.2987 218.585C60.7213 214.594 70.0624 214.943 76.0782 220.239C81.0164 224.587 83.3285 231.287 79.5606 237.261C79.4449 237.444 79.4063 237.666 79.453 237.878C79.4997 238.09 79.6281 238.276 79.8104 238.394H79.8746L84.2419 240.675C84.3026 240.71 84.3699 240.733 84.4398 240.741C84.5096 240.749 84.5803 240.742 84.6474 240.721C84.7145 240.7 84.7765 240.666 84.8296 240.62C84.8826 240.574 84.9255 240.517 84.9555 240.454C84.9827 240.403 84.9997 240.347 85.0055 240.29L87.5531 219.327C87.5704 219.243 87.5587 219.155 87.5198 219.079C87.4809 219.002 87.4171 218.942 87.339 218.906C62.1984 204.964 50.7164 176.138 59.7864 148.746C59.8322 148.637 59.8356 148.516 59.796 148.405C59.7563 148.294 59.6765 148.202 59.5723 148.147L55.2907 145.332C53.1402 143.542 51.2393 141.474 49.6389 139.18C49.4414 138.938 49.2994 138.655 49.2229 138.352C49.1465 138.049 49.1374 137.733 49.1964 137.427C49.2366 137.26 49.3093 137.103 49.4103 136.964C49.5114 136.826 49.6388 136.708 49.7853 136.619C49.9317 136.53 50.0944 136.47 50.264 136.443C50.4336 136.417 50.6067 136.424 50.7735 136.464C50.9416 136.506 51.0995 136.581 51.2374 136.685L58.3307 141.939L61.1851 144.148C61.4277 144.334 61.6133 144.291 61.7489 144.02L64.5391 138.624C64.5923 138.525 64.6165 138.413 64.6089 138.301C64.6013 138.189 64.5623 138.081 64.4962 137.99L61.5847 133.913C60.0624 131.423 58.4948 128.664 56.882 125.637C55.9543 123.884 55.7474 121.902 58.1808 121.36C58.2971 121.335 58.4185 121.346 58.5283 121.392C58.6382 121.437 58.7311 121.516 58.7945 121.617L62.6765 127.875L66.6514 134.397C66.6865 134.456 66.733 134.507 66.788 134.547C66.8431 134.588 66.9057 134.617 66.9722 134.633C67.0386 134.648 67.1076 134.651 67.1751 134.64C67.2425 134.629 67.3071 134.605 67.365 134.568C67.4063 134.539 67.4445 134.506 67.4792 134.469L74.2585 126.827C78.3317 123.302 82.6794 120.105 87.2605 117.269L97.8648 112.322C97.9766 112.275 98.0735 112.198 98.1451 112.1C98.2168 112.002 98.2604 111.887 98.2715 111.766L99.6987 101.431C101.329 93.4398 103.414 85.5482 105.943 77.7943L107.984 72.3628L110.196 66.8315L114.713 56.9665L123.276 41.4632L129.87 31.8833L139.147 20.8492C146.08 13.3577 154.38 7.25638 163.603 2.87256L168.598 1.14047L175.706 0ZM72.4316 139.444C66.0497 147.711 62.4055 157.759 62.0057 168.191C62.3816 186.248 69.1585 200.435 82.3365 210.752C90.8 217.366 101.604 221.886 112.223 224.43C112.307 224.452 112.396 224.439 112.471 224.395C112.546 224.351 112.6 224.279 112.622 224.195C112.637 224.149 112.637 224.099 112.622 224.052L107.698 199.319C107.676 199.196 107.616 199.083 107.526 198.996C107.437 198.909 107.322 198.853 107.199 198.834C105.384 198.603 103.671 197.868 102.254 196.712C100.838 195.557 99.7742 194.027 99.185 192.298C99.1318 192.121 99.1318 191.932 99.185 191.756C99.264 191.319 99.4893 190.923 99.8239 190.631C100.159 190.34 100.582 190.171 101.026 190.152C101.147 190.143 101.268 190.166 101.378 190.217C101.488 190.268 101.583 190.346 101.654 190.444C105.864 196.589 114.285 197.244 118.781 190.943C119.088 190.687 119.537 190.729 120.137 191.072C124.939 197.487 132.068 200.48 137.977 193.509C138.855 192.469 139.832 192.312 140.574 193.588C142.808 197.444 136.221 200.851 133.36 201.371C133.325 201.377 133.291 201.39 133.261 201.409C133.231 201.428 133.205 201.453 133.184 201.482C133.163 201.511 133.149 201.544 133.141 201.579C133.133 201.614 133.132 201.65 133.139 201.685L139.44 227.488C139.482 227.658 139.583 227.807 139.723 227.911C139.864 228.015 140.036 228.067 140.211 228.058L155.946 227.096C156.133 227.086 156.316 227.032 156.479 226.938C156.641 226.844 156.779 226.712 156.88 226.554C163.688 215.981 172.758 213.741 184.091 219.833C184.183 219.886 184.286 219.919 184.392 219.927C184.498 219.936 184.605 219.921 184.704 219.883C193.347 216.951 201.421 212.558 208.575 206.896C218.708 198.936 224.745 188.674 226.686 176.11L226.943 171.284C226.943 170.99 226.807 170.854 226.536 170.878C224.976 170.992 223.411 171.097 221.841 171.192C220.663 171.263 220.099 170.65 220.156 169.36C220.166 169.132 220.243 168.912 220.379 168.729C220.516 168.546 220.704 168.408 220.92 168.333L226.343 166.502C226.373 166.496 226.401 166.484 226.425 166.467C226.449 166.45 226.47 166.428 226.486 166.402C226.501 166.377 226.511 166.348 226.515 166.319C226.519 166.289 226.516 166.259 226.508 166.231L225.473 160.464C225.456 160.365 225.419 160.27 225.365 160.184C225.31 160.099 225.24 160.026 225.157 159.968C225.074 159.91 224.98 159.87 224.881 159.848C224.782 159.827 224.68 159.826 224.581 159.844C224.522 159.854 224.465 159.871 224.41 159.894C222.447 160.728 220.513 161.512 218.615 162.232C217.338 162.717 216.317 162.396 216.389 160.849C216.403 160.62 216.502 160.404 216.667 160.243C218.588 158.384 220.851 156.915 223.332 155.917C223.391 155.903 223.445 155.875 223.492 155.836C223.538 155.797 223.574 155.748 223.598 155.693C223.621 155.637 223.631 155.577 223.627 155.517C223.623 155.457 223.605 155.398 223.575 155.346C222.112 151.674 220.111 148.239 217.637 145.153C213.16 139.205 207.738 134.029 201.588 129.828C201.381 129.679 201.253 129.736 201.196 129.985C199.816 136.676 195.92 141.245 189.507 143.692C180.439 147.025 170.685 148.059 161.119 146.7C144.571 144.355 131.733 129.5 141.074 112.828C141.108 112.769 141.117 112.7 141.1 112.634C141.082 112.569 141.04 112.513 140.981 112.479C140.938 112.453 140.889 112.441 140.838 112.443C137.171 112.581 133.455 112.757 129.692 112.971C126.024 113.185 126.652 119.742 123.348 118.167C122.306 117.668 121.856 116.998 122.006 116.164C122.851 112.096 124.461 108.226 126.752 104.759C135.074 91.5661 144.557 79.1404 155.089 67.6299C160.713 61.4856 166.36 55.3675 172.03 49.2754C175.999 45.0199 179.557 40.3995 182.656 35.4757C186.16 29.9088 189.792 19.8941 186.41 13.593C182.128 5.67383 169.997 8.60342 163.867 11.5473C125.81 29.9017 106.849 76.2618 102.667 115.615C102.547 116.523 102.206 117.388 101.673 118.133C101.141 118.879 100.433 119.483 99.6131 119.892C88.8447 124.839 80.1243 130.078 72.4316 139.444ZM203.865 97.2536C210.116 94.2456 217.93 90.9382 218.694 84.074C219.229 79.2698 213.698 76.1763 209.788 76.5826C207.885 76.7726 205.33 77.8513 202.123 79.8186C184.295 90.6994 169.269 105.604 158.251 123.335C157.951 123.812 158.079 124.097 158.629 124.19L166.393 125.616C166.593 125.65 166.798 125.633 166.989 125.566C167.18 125.498 167.351 125.383 167.485 125.231C173.536 118.19 180.509 111.995 188.215 106.812C195.19 102.098 200.406 98.912 203.865 97.2536ZM129.135 201.564C124.889 201.179 122.042 199.568 119.145 196.425C119.113 196.38 119.072 196.342 119.024 196.315C118.976 196.287 118.923 196.27 118.869 196.265C118.814 196.259 118.759 196.266 118.707 196.284C118.654 196.301 118.607 196.33 118.567 196.368C116.539 197.897 114.125 198.832 111.595 199.069C111.352 199.069 111.259 199.226 111.316 199.468C113.811 209.38 115.602 219.456 116.676 229.619C116.875 231.48 116.997 233.233 117.032 234.866C117.021 234.96 117.031 235.056 117.064 235.146C117.096 235.235 117.149 235.316 117.219 235.382C117.288 235.447 117.372 235.495 117.464 235.522C117.556 235.548 117.652 235.553 117.746 235.536C124.097 235.072 130.482 235.535 136.7 236.911C137.313 237.047 137.549 236.804 137.413 236.198L129.563 201.984C129.551 201.876 129.502 201.775 129.424 201.699C129.346 201.622 129.244 201.575 129.135 201.564Z" fill="#15171C"/>
<path d="M217.623 145.153C209.731 148.356 202.749 150.853 196.679 152.645C183.22 156.622 169.176 157.841 155.225 158.867C154.297 157.948 152.963 158.019 151.207 159.081L147.389 159.124L137.206 159.238C139.109 155.342 140.824 151.606 142.351 148.033C142.984 146.56 142.77 145.465 141.709 144.747C141.609 144.664 141.483 144.618 141.352 144.618C141.222 144.618 141.096 144.664 140.995 144.747C138.07 146.828 135.229 154.077 132.646 159.345C130.41 158.894 128.111 158.85 125.86 159.217C124.911 154.272 124.274 149.273 123.954 144.248C123.747 140.998 119.78 141.618 119.894 144.74C120.06 149.278 120.436 153.895 121.021 158.589L108.077 156.451C107.492 155.945 106.812 155.561 106.077 155.322C105.341 155.083 104.565 154.995 103.795 155.061C92.5673 151.518 81.9705 146.225 72.3959 139.38C80.0673 130.014 88.809 124.753 99.5774 119.764C100.398 119.354 101.105 118.751 101.638 118.005C102.17 117.259 102.511 116.395 102.632 115.487C106.813 76.1192 125.774 29.7592 163.831 11.419C169.961 8.46088 182.078 5.54555 186.374 13.4647C189.785 19.7658 186.124 29.7805 182.62 35.3474C179.521 40.2712 175.964 44.8916 171.995 49.1471C166.329 55.2391 160.682 61.3573 155.054 67.5016C144.522 79.0121 135.038 91.4378 126.716 104.631C124.425 108.098 122.815 111.968 121.971 116.036C121.821 116.87 122.27 117.54 123.312 118.039C126.616 119.614 125.988 113.049 129.656 112.842C133.324 112.636 137.135 112.45 140.803 112.315C140.837 112.313 140.87 112.318 140.902 112.329C140.934 112.34 140.964 112.357 140.989 112.38C141.014 112.402 141.034 112.43 141.049 112.46C141.064 112.491 141.072 112.524 141.074 112.557C141.088 112.604 141.088 112.653 141.074 112.7C131.733 129.372 144.571 144.227 161.119 146.572C170.685 147.93 180.439 146.897 189.507 143.564C195.925 141.117 199.821 136.548 201.196 129.857C201.253 129.607 201.381 129.55 201.588 129.7C207.743 133.94 213.16 139.161 217.623 145.153ZM108.626 106.905C107.28 112.037 106.181 117.247 105.329 122.536C105.286 122.8 105.401 122.907 105.657 122.843L114.221 120.826C114.442 120.775 114.644 120.662 114.804 120.501C114.963 120.339 115.073 120.135 115.12 119.913C117.124 110.42 120.846 101.371 126.102 93.2121C130.336 86.4403 135.278 80.137 140.846 74.4085C143.479 71.7356 145.206 68.92 144.007 65.0995C143.7 64.0373 143.181 63.0479 142.482 62.1905C141.783 61.3332 140.918 60.6255 139.939 60.1099C135.444 57.6793 131.141 59.7036 128.436 63.7238C119.447 76.9016 112.75 91.5003 108.626 106.905Z" fill="white"/>
<path d="M108.626 106.905C112.755 91.5019 119.457 76.9056 128.45 63.7309C131.155 59.7107 135.458 57.6864 139.954 60.117C140.933 60.6327 141.798 61.3403 142.497 62.1977C143.196 63.055 143.714 64.0444 144.021 65.1066C145.22 68.9272 143.493 71.7427 140.86 74.4157C135.293 80.1442 130.35 86.4474 126.117 93.2192C120.86 101.378 117.139 110.427 115.134 119.92C115.087 120.142 114.977 120.346 114.818 120.508C114.659 120.669 114.456 120.782 114.235 120.833L105.672 122.85C105.415 122.914 105.301 122.807 105.343 122.543C106.185 117.25 107.28 112.037 108.626 106.905Z" fill="#FAC4C7"/>
<path d="M179.459 81.8644L165.758 97.4674C165.087 96.6691 164.395 96.4053 163.681 96.6762C163.018 96.9328 162.661 97.0682 162.604 97.0754C158.636 97.8689 154.497 98.6435 150.187 99.3991C150.092 99.4164 149.996 99.4145 149.902 99.3935C149.808 99.3725 149.72 99.3329 149.642 99.277C149.564 99.2211 149.498 99.1501 149.448 99.0682C149.398 98.9863 149.366 98.8952 149.352 98.8003C149.341 98.7295 149.341 98.6574 149.352 98.5865C149.483 97.8736 149.736 97.1886 150.101 96.5622C152.09 92.8509 154.197 89.1705 156.424 85.521C156.444 85.4894 156.458 85.454 156.465 85.4169C156.471 85.3798 156.47 85.3418 156.462 85.3051C156.453 85.2684 156.437 85.2339 156.414 85.2036C156.392 85.1734 156.364 85.148 156.331 85.129C156.295 85.1002 156.249 85.0851 156.203 85.0862H155.967C155.91 85.0799 155.852 85.0924 155.803 85.1218L146.933 89.6481C146.883 89.674 146.828 89.6897 146.772 89.6944C146.715 89.6991 146.659 89.6926 146.605 89.6754C146.551 89.6582 146.502 89.6305 146.459 89.594C146.416 89.5575 146.38 89.5129 146.355 89.4627C146.321 89.3942 146.303 89.3184 146.305 89.2418C146.295 89.1684 146.295 89.0942 146.305 89.0208L158.736 74.2303C158.971 74.822 159.521 74.7151 160.377 73.9025C160.747 73.5392 161.174 73.2383 161.64 73.0115C167.93 70.1603 174.114 67.1499 180.194 63.9804C180.495 63.8209 180.843 63.7741 181.176 63.8486C181.508 63.9232 181.803 64.114 182.007 64.3867C182.205 64.6789 182.285 65.0359 182.228 65.3846C182.182 65.7116 182.051 66.021 181.85 66.2827C177.677 72.321 173.102 78.0719 168.156 83.4967C167.995 83.6661 167.905 83.8906 167.905 84.1239C167.905 84.3573 167.995 84.5817 168.156 84.7512C168.312 84.8862 168.513 84.9574 168.719 84.9508C168.907 84.9429 169.089 84.8864 169.247 84.7868C172.339 82.9418 175.859 81.9344 179.459 81.8644Z" fill="#FFFCAF"/>
<path d="M105.943 77.7943C103.408 85.5549 101.319 93.4536 99.6845 101.452C94.6993 106.005 90.5014 111.349 87.2605 117.269C82.659 120.11 78.292 123.313 74.2014 126.849C72.6225 121.093 72.0622 115.106 72.5458 109.157C72.5744 108.834 72.396 108.692 72.0106 108.73C71.9217 108.737 71.8358 108.765 71.7592 108.811C71.6826 108.857 71.6173 108.919 71.5682 108.993C68.5068 113.691 64.5676 120.455 63.5686 125.979C63.4978 126.723 63.1578 127.414 62.6124 127.925L58.7303 121.667C58.6669 121.566 58.5739 121.487 58.4641 121.441C58.3542 121.395 58.2329 121.385 58.1166 121.41C55.6831 121.973 55.8901 123.955 56.8178 125.687C58.4306 128.719 59.9981 131.477 61.5205 133.962L58.2736 140.278C58.2211 140.375 58.1937 140.484 58.1937 140.595C58.1937 140.706 58.2211 140.815 58.2736 140.912C58.6661 141.575 58.6518 141.931 58.2308 141.989L51.1375 136.735C51.0003 136.633 50.8443 136.56 50.6785 136.518C50.5127 136.477 50.3404 136.468 50.1713 136.493C50.0023 136.518 49.8398 136.577 49.6934 136.665C49.5469 136.753 49.4193 136.869 49.3178 137.006C49.2158 137.148 49.1408 137.308 49.0965 137.477C49.0376 137.783 49.0466 138.099 49.1231 138.402C49.1995 138.705 49.3415 138.988 49.539 139.23C51.1394 141.523 53.0403 143.592 55.1908 145.381C51.5769 148.776 49.3648 153.399 48.9895 158.34C48.3187 165.233 48.7183 173.309 45.5427 179.538C44.4009 181.786 42.3053 185.4 39.2558 190.38C36.6969 194.422 35.5479 199.196 35.9875 203.959C35.5619 204.372 35.2096 204.854 34.9456 205.384C34.8532 205.642 34.829 205.919 34.8752 206.189C34.9215 206.459 35.0367 206.712 35.2096 206.924C36.0213 208.142 37.0125 209.231 38.1497 210.153C37.868 211.201 37.868 212.305 38.1497 213.353C38.2496 213.731 38.1497 213.81 37.8143 213.589C31.2277 209.176 24.4983 202.184 22.8285 194.144C22.8011 194.023 22.7277 193.917 22.6238 193.849C22.5199 193.782 22.3937 193.757 22.2718 193.78C22.2131 193.793 22.1574 193.818 22.1077 193.851C21.9996 193.927 21.9083 194.025 21.8396 194.138C21.7708 194.251 21.7261 194.376 21.7081 194.507C20.8415 199.447 20.5779 204.473 20.9231 209.476C21.9792 224.758 32.2695 237.702 45.8995 243.69C46.9747 249.867 49.6294 256 53.8635 262.087C44.0474 260.224 34.6574 256.576 26.161 251.324C12.9378 243.148 2.54761 229.634 0.0356955 214.066C-0.349655 211.7 0.599441 207.893 1.677 205.242C4.93107 197.23 6.93393 191.749 7.6856 188.798C10.1761 179.089 12.5739 169.403 16.4559 160.343C16.9692 159.075 17.7118 157.913 18.6467 156.914C18.8728 156.689 19.1796 156.562 19.4994 156.562C19.8193 156.562 20.126 156.689 20.3522 156.914C20.5723 157.129 20.7025 157.42 20.7162 157.727C21.0944 166.124 22.3646 176.502 26.2681 184.022C26.3099 184.114 26.3707 184.195 26.4464 184.262C26.5222 184.329 26.6113 184.378 26.7077 184.408C26.8041 184.438 26.9058 184.446 27.0059 184.434C27.106 184.422 27.2024 184.388 27.2886 184.336C27.3814 184.29 27.4633 184.225 27.5286 184.145C27.5939 184.065 27.641 183.972 27.6667 183.872C27.7589 183.463 27.7854 183.042 27.7452 182.625C27.0316 171.534 27.0673 158.14 32.0769 147.698C34.2177 143.172 38.2425 138.033 41.468 133.442C48.2045 123.798 47.6051 111.31 52.3292 100.711C54.914 94.8156 58.6362 89.487 63.2832 85.0292C68.6959 79.8642 74.4356 75.0524 80.4669 70.6236C81.7086 69.7112 82.6411 69.8989 83.2643 71.1867C83.3992 71.4645 83.4222 71.7835 83.3285 72.0777C80.3554 82.0141 79.5835 92.4778 81.0664 102.742C81.0937 102.93 81.1683 103.107 81.2831 103.258C81.398 103.409 81.5493 103.528 81.7229 103.605C82.4365 103.911 82.8932 103.769 83.1501 103.17C83.2785 102.863 83.357 102.692 83.3713 102.657C88.7522 92.6542 96.5014 84.1187 105.943 77.7943Z" fill="#FFFCAF"/>
<path d="M203.865 97.2536C200.406 98.912 195.19 102.091 188.215 106.791C180.509 111.973 173.536 118.169 167.485 125.209C167.351 125.361 167.18 125.477 166.989 125.544C166.798 125.612 166.593 125.629 166.393 125.594L158.629 124.169C158.079 124.076 157.951 123.791 158.251 123.313C169.279 105.587 184.316 90.6898 202.152 79.8186C205.363 77.8608 207.918 76.7821 209.816 76.5825C213.748 76.1763 219.257 79.2698 218.722 84.074C217.93 90.9382 210.116 94.2456 203.865 97.2536Z" fill="#FAC4C7"/>
<path d="M255.566 247.197C253.973 241.86 250.53 237.264 245.854 234.231C247.452 232.535 248.387 231.235 248.658 230.332C250.627 223.907 251.496 217.195 251.227 210.481C251.227 210.384 251.208 210.287 251.169 210.198C251.131 210.108 251.074 210.028 251.003 209.961C250.932 209.894 250.849 209.843 250.757 209.81C250.665 209.776 250.568 209.762 250.471 209.768C250.291 209.774 250.12 209.848 249.993 209.975C246.667 213.225 240.758 218.058 236.191 218.927C236.068 218.951 235.94 218.925 235.834 218.856C235.729 218.787 235.655 218.68 235.628 218.557C235.604 218.431 235.629 218.301 235.699 218.193C238.81 213.46 241.565 210.117 242.314 203.937C242.799 199.91 242.935 195.448 243.877 191.877C245.545 185.411 249.04 179.562 253.946 175.026C255.009 174.029 255.851 172.845 255.373 171.512C251.518 161.016 250.422 149.707 252.191 138.667C259.864 133.507 266.692 127.19 272.429 119.942C272.674 119.668 272.832 119.329 272.885 118.965C272.892 118.9 272.886 118.834 272.867 118.771C272.848 118.709 272.817 118.65 272.775 118.6C272.733 118.549 272.681 118.508 272.623 118.478C272.565 118.447 272.501 118.429 272.436 118.424H272.336C261.894 119.448 251.776 122.62 242.621 127.74C242.288 127.93 242.167 127.837 242.257 127.462C242.521 126.414 243.527 125.216 243.827 124.482C247.031 116.644 249.295 108.454 250.571 100.083C250.583 100.001 250.578 99.9179 250.558 99.8376C250.538 99.7573 250.502 99.6818 250.452 99.6156C250.402 99.5493 250.34 99.4935 250.268 99.4515C250.197 99.4094 250.118 99.3819 250.035 99.3706C249.92 99.3492 249.8 99.3641 249.693 99.4133C243.847 101.926 238.445 105.363 233.694 109.592C225.687 116.691 221.655 125.658 221.598 136.493C217.343 131.605 212.529 127.232 207.254 123.463L210.266 104.588L222.49 96.8829C221.299 101.357 219.679 105.706 217.652 109.87C217.511 110.164 217.486 110.499 217.58 110.811C217.887 111.795 218.458 111.93 219.3 111.224C226.436 105.251 233.922 98.2871 241.651 93.8963C245.643 91.6381 249.787 89.6589 254.053 87.973C261.824 84.908 266.406 82.8908 272.236 79.1843C272.545 78.9889 272.918 78.9234 273.275 79.0022C273.632 79.081 273.944 79.2976 274.141 79.6048C274.712 80.5314 273.977 81.2727 273.699 81.957C270.092 90.6502 265.846 99.0652 260.997 107.133C260.907 107.25 260.859 107.392 260.859 107.539C260.859 107.686 260.907 107.829 260.997 107.945C261.098 108.07 261.238 108.157 261.395 108.191C261.551 108.226 261.715 108.208 261.86 108.138C267.231 105.363 272.421 102.35 277.431 99.0997C278.421 98.4582 279.191 98.5437 279.743 99.3563C279.856 99.5241 279.933 99.7128 279.971 99.9112C280.009 100.11 280.007 100.314 279.964 100.511C277.824 110.112 277.888 118.367 277.824 129.251C277.763 133.58 277.188 137.887 276.111 142.081C273.256 153.564 264.971 162.866 271.772 175.697C271.903 175.943 271.94 176.229 271.878 176.502C271.815 176.774 271.656 177.014 271.43 177.179C264.458 182.276 259.84 189.91 260.24 198.563C260.526 204.771 263.958 211.436 264.472 218.158C265.162 226.99 263.207 235.828 258.856 243.547C258.094 245.028 256.96 246.285 255.566 247.197Z" fill="#FFFCAF"/>
<path d="M165.758 97.4674L159.264 105.779C159.158 105.913 159.018 106.017 158.859 106.08C158.7 106.144 158.527 106.165 158.358 106.142C150.848 105.058 143.25 104.709 135.672 105.101C135.008 105.137 134.873 104.888 135.258 104.346L146.333 88.9994C146.324 89.0727 146.324 89.147 146.333 89.2204C146.329 89.3352 146.37 89.4471 146.448 89.5323C146.525 89.6175 146.632 89.6692 146.747 89.6766C146.822 89.6779 146.895 89.6607 146.961 89.6267L155.831 85.1004C155.881 85.071 155.938 85.0585 155.996 85.0648H156.231C156.269 85.0675 156.305 85.0776 156.339 85.0945C156.372 85.1114 156.402 85.1347 156.427 85.1632C156.451 85.1917 156.47 85.2247 156.482 85.2604C156.494 85.2962 156.498 85.3338 156.495 85.3713C156.494 85.4174 156.479 85.4621 156.452 85.4996C154.226 89.1491 152.118 92.8295 150.13 96.5408C149.765 97.1672 149.511 97.8522 149.38 98.5651C149.366 98.6599 149.372 98.7566 149.396 98.8493C149.42 98.942 149.463 99.0289 149.521 99.1047C149.58 99.1806 149.653 99.2438 149.737 99.2907C149.821 99.3376 149.913 99.3672 150.008 99.3777C150.079 99.3919 150.152 99.3919 150.222 99.3777C154.533 98.6221 158.672 97.8476 162.639 97.054C162.696 97.054 163.053 96.9114 163.717 96.6548C164.381 96.3982 165.08 96.6691 165.758 97.4674Z" fill="#FF9D49"/>
<path d="M252.176 138.66C249.155 140.465 246.237 142.036 243.42 143.371C238.756 145.59 233.828 147.207 228.755 148.183C226.772 144.054 224.381 140.134 221.619 136.479C221.676 125.644 225.708 116.677 233.715 109.578C238.466 105.348 243.868 101.911 249.714 99.3991C249.87 99.3345 250.044 99.3335 250.2 99.3961C250.356 99.4588 250.482 99.5801 250.549 99.7341C250.598 99.841 250.613 99.9605 250.592 100.076C249.316 108.447 247.053 116.637 243.848 124.475C243.549 125.188 242.542 126.407 242.278 127.455C242.188 127.83 242.309 127.923 242.642 127.733C251.788 122.62 261.892 119.451 272.322 118.424C272.453 118.41 272.585 118.448 272.688 118.531C272.791 118.614 272.857 118.734 272.871 118.865C272.878 118.898 272.878 118.932 272.871 118.965C272.818 119.329 272.659 119.668 272.414 119.942C266.677 127.188 259.85 133.502 252.176 138.66Z" fill="#E76459"/>
<path d="M99.6845 101.431L98.2572 111.766C98.2462 111.887 98.2025 112.002 98.1308 112.1C98.0592 112.198 97.9623 112.275 97.8505 112.322L87.2605 117.269C90.4994 111.341 94.6974 105.99 99.6845 101.431Z" fill="#FF9D49"/>
<path d="M210.252 104.574L207.24 123.449C202.77 120.463 198.038 117.886 193.103 115.751C193.006 115.71 192.929 115.632 192.889 115.534C192.849 115.437 192.849 115.328 192.889 115.23C192.924 115.151 192.981 115.084 193.053 115.038L210.252 104.574Z" fill="#FF9D49"/>
<path d="M74.18 126.849L67.4007 134.49C67.3115 134.59 67.1864 134.65 67.0527 134.658C66.919 134.666 66.7875 134.621 66.687 134.533C66.6483 134.5 66.6147 134.461 66.5872 134.419L62.6123 127.897C63.1578 127.386 63.4978 126.694 63.5686 125.951C64.5676 120.426 68.5068 113.662 71.5682 108.965C71.6173 108.89 71.6825 108.828 71.7592 108.782C71.8358 108.737 71.9217 108.709 72.0106 108.701C72.396 108.663 72.5744 108.806 72.5458 109.129C72.0519 115.085 72.6049 121.082 74.18 126.849Z" fill="#FF9D49"/>
<path d="M61.5205 133.955L64.432 138.033C64.4981 138.124 64.5372 138.231 64.5447 138.344C64.5523 138.456 64.5281 138.568 64.4749 138.667L61.6846 144.063C61.549 144.334 61.3635 144.376 61.1209 144.191L58.2664 141.981C58.6875 141.924 58.7017 141.568 58.3092 140.905C58.2568 140.808 58.2293 140.699 58.2293 140.588C58.2293 140.477 58.2568 140.368 58.3092 140.271L61.5205 133.955Z" fill="#FF9D49"/>
<path d="M252.176 138.66C250.408 149.7 251.504 161.009 255.359 171.505C255.851 172.838 255.009 174.021 253.932 175.019C249.036 179.549 245.546 185.388 243.877 191.841C242.935 195.405 242.799 199.875 242.314 203.902C241.601 210.11 238.81 213.453 235.699 218.158C235.63 218.263 235.605 218.391 235.629 218.515C235.653 218.639 235.724 218.748 235.827 218.821C235.935 218.889 236.065 218.915 236.191 218.892C240.758 218.001 246.667 213.189 249.993 209.932C250.059 209.863 250.139 209.808 250.227 209.771C250.316 209.733 250.41 209.714 250.506 209.714C250.602 209.714 250.697 209.733 250.786 209.771C250.874 209.808 250.954 209.863 251.02 209.932C251.147 210.059 251.221 210.23 251.227 210.41C251.496 217.124 250.627 223.835 248.658 230.261C248.387 231.164 247.452 232.463 245.854 234.16C241.271 231.122 235.911 229.465 230.411 229.384C226.515 229.299 223.168 229.441 219.828 230.931C219.601 231.031 219.345 231.043 219.11 230.964C218.875 230.885 218.678 230.72 218.558 230.503C215.669 225.159 212.087 220.22 207.904 215.813C207.845 215.754 207.813 215.674 207.813 215.592C207.813 215.509 207.845 215.429 207.904 215.371L207.947 215.335C223.389 204.643 232.802 189.981 233.465 170.914C233.475 170.698 233.563 170.493 233.712 170.337C233.862 170.181 234.063 170.084 234.279 170.065C236.42 169.894 241.865 170.008 243.413 168.483C243.551 168.347 243.661 168.184 243.736 168.005C243.811 167.825 243.85 167.633 243.85 167.439C243.85 167.245 243.811 167.052 243.736 166.873C243.661 166.694 243.551 166.531 243.413 166.395C243.324 166.299 243.22 166.217 243.106 166.152C240.502 164.62 236.684 165.275 233.786 165.568C233.739 165.578 233.689 165.578 233.641 165.567C233.594 165.557 233.549 165.536 233.51 165.506C233.471 165.476 233.439 165.438 233.417 165.394C233.394 165.351 233.382 165.303 233.38 165.254L232.131 157.413C232.093 157.18 232.141 156.942 232.265 156.741C232.39 156.541 232.583 156.392 232.809 156.323C235.24 155.567 237.709 154.676 240.216 153.65C242.007 152.937 242.236 151.148 240.637 150.164C238.589 148.895 233.237 151.39 231.275 152.388C231.123 152.465 230.947 152.48 230.785 152.427C230.623 152.375 230.489 152.261 230.411 152.11V152.067L228.756 148.111C233.825 147.158 238.753 145.565 243.42 143.371C246.241 142.041 249.16 140.47 252.176 138.66Z" fill="#FF9D49"/>
<path d="M72.4316 139.444C82.0062 146.289 92.603 151.582 103.831 155.125C103.678 155.576 103.632 156.056 103.696 156.527C103.76 156.998 103.934 157.448 104.202 157.841C108.741 163.378 113.85 168.424 119.444 172.895C119.818 173.244 120.261 173.51 120.743 173.679C121.1 173.753 121.471 173.709 121.8 173.553C122.129 173.398 122.399 173.14 122.568 172.818C122.737 172.496 122.797 172.127 122.738 171.768C122.679 171.409 122.505 171.079 122.242 170.828C117.717 166.019 113 161.251 108.091 156.522L121.036 158.661C121.139 160.063 121.342 161.457 121.642 162.831C122.356 166.109 126.374 164.855 126.095 162.025C126.003 161.091 125.931 160.172 125.874 159.267C128.125 158.9 130.425 158.944 132.66 159.395C132.232 160.493 131.809 161.635 131.39 162.823C130.37 165.725 133.688 166.223 134.958 163.9C135.872 162.21 136.621 160.664 137.206 159.274L147.389 159.16C148.378 159.123 149.363 159.286 150.287 159.637C141.681 164.537 135.62 168.079 132.104 170.265C131.188 170.887 130.46 171.747 129.999 172.753C129.898 172.954 129.878 173.186 129.942 173.401C130.755 176.003 134.452 173.686 135.993 172.781C142.178 169.155 148.324 165.492 154.433 161.79C155.646 161.053 155.91 160.091 155.225 158.903C169.176 157.877 183.22 156.658 196.679 152.68C202.744 150.894 209.726 148.397 217.623 145.189C220.094 148.263 222.094 151.686 223.56 155.346C223.591 155.398 223.609 155.457 223.613 155.517C223.617 155.577 223.607 155.637 223.583 155.693C223.56 155.748 223.523 155.797 223.477 155.836C223.431 155.875 223.377 155.903 223.318 155.916C220.837 156.915 218.574 158.384 216.653 160.243C216.488 160.404 216.389 160.62 216.374 160.849C216.303 162.396 217.323 162.717 218.601 162.232C220.499 161.519 222.433 160.728 224.395 159.894C224.583 159.813 224.795 159.809 224.985 159.884C225.175 159.959 225.327 160.106 225.409 160.293C225.432 160.348 225.449 160.405 225.459 160.464L226.493 166.231C226.502 166.259 226.504 166.289 226.501 166.319C226.497 166.348 226.487 166.377 226.471 166.402C226.456 166.428 226.435 166.45 226.411 166.467C226.386 166.484 226.359 166.496 226.329 166.501L220.906 168.333C220.69 168.408 220.501 168.546 220.365 168.729C220.229 168.912 220.151 169.132 220.142 169.36C220.085 170.65 220.649 171.263 221.826 171.192C223.396 171.101 224.961 170.997 226.522 170.878C226.807 170.878 226.943 171.013 226.929 171.284L226.672 176.11C207.769 184.578 187.465 189.493 166.778 190.608C174.628 187.237 181.479 179.916 181.257 171.099C181.246 170.652 181.058 170.228 180.735 169.919C180.411 169.611 179.978 169.443 179.531 169.452C179.443 169.445 179.354 169.445 179.267 169.452C168.286 171.463 157.135 173.18 145.812 174.606C140.403 175.29 136.007 175.948 132.625 176.58C131.905 176.749 131.253 177.132 130.755 177.678C130.672 177.755 130.609 177.851 130.57 177.958C130.532 178.064 130.519 178.179 130.534 178.291C130.805 181.05 133.981 184.606 135.943 186.388C138.027 188.27 140.938 189.731 143.6 191.193C142.998 191.572 142.291 191.75 141.581 191.699C133.731 191.784 127.23 191.962 120.401 190.736C120.344 190.725 120.285 190.732 120.232 190.756C120.179 190.78 120.136 190.821 120.108 190.872C120.091 190.897 120.083 190.927 120.083 190.957C120.083 190.988 120.091 191.018 120.108 191.043C119.509 190.701 119.059 190.658 118.752 190.915C118.485 190.689 118.152 190.554 117.803 190.53C110.753 190.009 103.799 188.591 97.1083 186.31C105.22 185.939 112.118 183.195 117.803 178.077C119.773 176.302 119.523 174.841 117.032 173.8C105.838 169.286 94.6059 164.862 83.3356 160.528C81.9655 160.001 80.574 159.514 79.161 159.067C75.9355 158.055 75.7785 161.854 76.0425 163.985C76.8132 170.082 79.356 175.806 83.671 181.157C75.8452 177.887 68.5373 173.498 61.9772 168.127C62.3984 157.714 66.052 147.69 72.4316 139.444Z" fill="#E76459"/>
<path d="M125.888 159.231C125.945 160.136 126.017 161.056 126.11 161.989C126.388 164.841 122.363 166.074 121.657 162.795C121.356 161.421 121.154 160.028 121.05 158.625C120.465 153.935 120.089 149.318 119.923 144.776C119.808 141.653 123.776 141.033 123.983 144.284C124.304 149.301 124.94 154.293 125.888 159.231Z" fill="#15171C"/>
<path d="M137.213 159.238C136.628 160.628 135.879 162.175 134.965 163.864C133.71 166.188 130.391 165.689 131.397 162.788C131.816 161.6 132.239 160.457 132.668 159.359C135.251 154.092 138.091 146.843 141.017 144.761C141.117 144.678 141.243 144.632 141.374 144.632C141.504 144.632 141.63 144.678 141.731 144.761C142.796 145.474 143.01 146.569 142.373 148.047C140.836 151.611 139.116 155.342 137.213 159.238Z" fill="#15171C"/>
<path d="M55.2122 145.374L59.4939 148.19C59.5981 148.245 59.6778 148.337 59.7175 148.448C59.7571 148.558 59.7537 148.68 59.7079 148.789C50.6665 176.16 62.1485 205.007 87.2605 218.927C87.3387 218.963 87.4024 219.024 87.4413 219.1C87.4802 219.177 87.492 219.264 87.4746 219.348L84.9556 240.311C84.9476 240.377 84.9267 240.441 84.894 240.498C84.8612 240.556 84.8173 240.606 84.7649 240.647C84.7124 240.687 84.6524 240.717 84.5883 240.734C84.5243 240.751 84.4574 240.755 84.3918 240.746C84.3322 240.739 84.2743 240.723 84.2205 240.696L79.8532 238.415C79.6602 238.315 79.515 238.142 79.4494 237.935C79.3839 237.728 79.4033 237.503 79.5035 237.31V237.246C83.2714 231.273 80.9308 224.573 76.0211 220.225C70.0054 214.929 60.6856 214.579 54.2416 218.571C45.4785 224.003 44.0013 234.153 45.9138 243.626C32.2695 237.667 21.9793 224.723 20.9374 209.412C20.5921 204.409 20.8557 199.383 21.7223 194.443C21.7403 194.312 21.7851 194.186 21.8539 194.074C21.9226 193.961 22.0139 193.863 22.122 193.787C22.2264 193.719 22.3537 193.694 22.4765 193.718C22.5992 193.742 22.7076 193.813 22.7785 193.916C22.8072 193.967 22.8288 194.022 22.8427 194.08C24.5054 202.106 31.2348 209.112 37.8286 213.525C38.1568 213.745 38.2639 213.667 38.164 213.289C37.8823 212.241 37.8823 211.137 38.164 210.089C40.0647 211.836 42.108 213.421 44.2725 214.829C45.5356 215.642 46.7987 215.542 47.3553 214.045C47.3978 213.936 47.4109 213.819 47.3934 213.704C47.3758 213.588 47.3282 213.48 47.2554 213.389C44.2726 209.425 40.4174 206.198 35.9875 203.959C35.5415 199.187 36.6908 194.402 39.2558 190.352C42.3005 185.367 44.3962 181.753 45.5427 179.51C48.7183 173.302 48.3187 165.204 48.9895 158.312C49.3757 153.375 51.5952 148.761 55.2122 145.374ZM46.3705 198.72C47.6336 202.419 49.3748 207.273 52.0794 209.968C52.1628 210.054 52.2644 210.12 52.3767 210.162C52.489 210.204 52.6093 210.22 52.7288 210.21C54.2845 210.082 54.7483 208.92 54.2702 207.494C52.9761 203.696 51.2142 200.074 49.0251 196.71C48.843 196.43 48.5643 196.227 48.242 196.139C47.9196 196.051 47.5761 196.084 47.2768 196.232C47.048 196.329 46.8417 196.472 46.6707 196.652C46.4996 196.833 46.3675 197.046 46.2825 197.279C46.1975 197.513 46.1615 197.761 46.1766 198.009C46.1918 198.256 46.2578 198.499 46.3705 198.72ZM41.1754 224.38C41.6107 223.176 38.8633 221.066 35.0312 219.676C31.1991 218.286 27.7309 218.129 27.2956 219.334C26.8532 220.538 29.6078 222.648 33.4399 224.038C37.272 225.428 40.733 225.585 41.1754 224.38Z" fill="#FF9D49"/>
<path d="M103.845 155.125C104.615 155.059 105.391 155.147 106.127 155.386C106.862 155.625 107.542 156.009 108.126 156.515C113.036 161.239 117.753 166.007 122.277 170.821C122.541 171.072 122.715 171.402 122.774 171.761C122.832 172.12 122.773 172.489 122.603 172.811C122.434 173.133 122.165 173.391 121.835 173.546C121.506 173.702 121.135 173.746 120.779 173.672C120.296 173.503 119.854 173.236 119.48 172.888C113.886 168.417 108.777 163.371 104.237 157.834C103.967 157.443 103.791 156.996 103.722 156.526C103.654 156.056 103.696 155.576 103.845 155.125Z" fill="#15171C"/>
<path d="M155.225 158.867C155.91 160.055 155.646 161.018 154.433 161.754C148.31 165.456 142.163 169.12 135.993 172.746C134.452 173.651 130.755 175.967 129.942 173.366C129.878 173.15 129.898 172.918 129.999 172.717C130.46 171.712 131.188 170.851 132.104 170.229C135.624 168.043 141.685 164.501 150.287 159.602L151.207 159.081C152.963 158.019 154.297 157.948 155.225 158.867Z" fill="#15171C"/>
<path d="M97.1298 186.339C92.2911 185.788 87.6694 184.028 83.6924 181.221C79.4108 175.865 76.8703 170.139 76.0711 164.042C75.807 161.904 75.964 158.112 79.1895 159.124C80.6168 159.571 82.0083 160.058 83.3642 160.585C94.6345 164.919 105.867 169.343 117.061 173.858C119.551 174.863 119.801 176.324 117.832 178.134C112.147 183.233 105.246 185.968 97.1298 186.339ZM80.7167 163.166C80.3884 163.03 80.26 163.166 80.3171 163.493C80.8879 166.765 81.7443 170.522 83.4284 173.344C90.1363 184.884 103.616 183.159 113.272 176.709C113.31 176.684 113.344 176.651 113.369 176.613C113.395 176.574 113.413 176.531 113.421 176.486C113.43 176.441 113.429 176.394 113.42 176.349C113.41 176.304 113.391 176.262 113.364 176.224C113.326 176.167 113.271 176.122 113.207 176.096L80.7167 163.166Z" fill="#15171C"/>
<path d="M147.389 159.124L151.207 159.081L150.287 159.602C149.363 159.25 148.377 159.088 147.389 159.124Z" fill="#FAC4C7"/>
<path d="M80.7024 163.166L113.193 176.096C113.236 176.113 113.275 176.138 113.308 176.171C113.34 176.203 113.367 176.241 113.384 176.284C113.402 176.326 113.412 176.372 113.412 176.418C113.412 176.464 113.403 176.509 113.386 176.552C113.36 176.616 113.315 176.671 113.257 176.709C103.602 183.159 90.1221 184.884 83.4141 173.344C81.7657 170.493 80.8737 166.765 80.3028 163.494C80.2457 163.144 80.3741 163.03 80.7024 163.166Z" fill="white"/>
<path d="M62.0058 168.191C68.5637 173.562 75.8691 177.951 83.6924 181.221C87.6674 184.027 92.2864 185.787 97.1226 186.339C103.813 188.62 110.767 190.038 117.817 190.558C118.167 190.583 118.499 190.717 118.766 190.943C114.249 197.244 105.829 196.589 101.64 190.444C101.569 190.346 101.474 190.268 101.364 190.217C101.254 190.166 101.133 190.143 101.012 190.152C100.568 190.171 100.144 190.34 99.8097 190.631C99.475 190.923 99.2497 191.319 99.1707 191.756C99.1175 191.932 99.1175 192.121 99.1707 192.297C99.7599 194.027 100.823 195.557 102.24 196.712C103.657 197.868 105.37 198.603 107.185 198.834C107.308 198.853 107.422 198.909 107.512 198.996C107.602 199.083 107.662 199.196 107.684 199.318L112.608 224.052C112.625 224.136 112.608 224.222 112.561 224.293C112.514 224.364 112.441 224.413 112.358 224.43C112.309 224.445 112.257 224.445 112.208 224.43C101.604 221.886 90.8 217.366 82.3223 210.752C69.1585 200.454 62.3863 186.267 62.0058 168.191Z" fill="white"/>
<path d="M166.778 190.608C159.899 192.806 152.572 193.213 145.491 191.791L143.6 191.221C140.974 189.76 138.027 188.299 135.943 186.417C133.981 184.635 130.805 181.078 130.534 178.32C130.519 178.207 130.532 178.093 130.57 177.986C130.609 177.88 130.672 177.784 130.755 177.707C131.253 177.16 131.905 176.778 132.625 176.609C136.007 175.977 140.403 175.319 145.812 174.634C157.13 173.209 168.282 171.491 179.267 169.481C179.485 169.44 179.709 169.442 179.926 169.488C180.143 169.534 180.348 169.623 180.531 169.749C180.713 169.875 180.869 170.036 180.989 170.222C181.109 170.409 181.19 170.617 181.229 170.835C181.24 170.923 181.24 171.011 181.229 171.099C181.457 179.902 174.599 187.237 166.778 190.608ZM143.636 186.531C149.982 189.115 157.051 189.313 163.531 187.087C170.596 184.785 175.013 180.9 176.926 173.779C176.938 173.74 176.942 173.699 176.937 173.658C176.933 173.617 176.92 173.577 176.9 173.541C176.88 173.505 176.853 173.474 176.821 173.449C176.789 173.423 176.752 173.405 176.712 173.394C176.65 173.369 176.581 173.369 176.519 173.394C175.719 173.744 174.887 174.018 174.036 174.214C161.348 176.59 148.574 178.505 135.715 179.959C135.529 179.959 135.501 180.066 135.615 180.209C138.246 183.345 140.919 185.452 143.636 186.531Z" fill="#15171C"/>
<path d="M143.636 186.531C140.91 185.448 138.236 183.342 135.615 180.216C135.501 180.073 135.529 179.988 135.715 179.966C148.56 178.541 161.333 176.626 174.036 174.221C174.887 174.025 175.719 173.751 176.519 173.401C176.557 173.386 176.598 173.379 176.638 173.38C176.679 173.381 176.719 173.39 176.756 173.407C176.794 173.423 176.827 173.447 176.855 173.477C176.883 173.507 176.905 173.541 176.919 173.58C176.94 173.644 176.94 173.714 176.919 173.779C175.006 180.907 170.589 184.785 163.524 187.087C157.046 189.311 149.98 189.113 143.636 186.531Z" fill="white"/>
<path d="M226.672 176.11C224.731 188.669 218.694 198.931 208.56 206.896C201.402 212.568 193.32 216.968 184.669 219.904C184.569 219.942 184.462 219.957 184.356 219.949C184.25 219.94 184.147 219.908 184.055 219.854C172.723 213.767 163.653 216.007 156.845 226.576C156.743 226.734 156.605 226.865 156.443 226.959C156.28 227.054 156.098 227.108 155.91 227.117L140.175 228.08C140 228.088 139.828 228.036 139.687 227.932C139.547 227.828 139.447 227.679 139.404 227.51L133.103 201.706C133.088 201.635 133.101 201.56 133.139 201.497C133.178 201.435 133.239 201.39 133.31 201.371C136.164 200.851 142.758 197.444 140.525 193.588C139.811 192.312 138.805 192.469 137.927 193.509C132.047 200.48 124.918 197.515 120.087 191.072C120.07 191.046 120.061 191.016 120.061 190.986C120.061 190.956 120.07 190.926 120.087 190.9C120.114 190.85 120.158 190.809 120.211 190.785C120.263 190.76 120.322 190.753 120.379 190.765C127.209 191.991 133.731 191.813 141.559 191.727L145.47 191.791C152.551 193.213 159.878 192.806 166.757 190.608C187.451 189.496 207.762 184.581 226.672 176.11Z" fill="white"/>
<path d="M143.636 191.221L145.527 191.791L141.616 191.727C142.326 191.778 143.034 191.601 143.636 191.221Z" fill="#FAC4C7"/>
<path d="M52.1008 209.968C49.3748 207.238 47.6336 202.419 46.3919 198.72C46.2797 198.497 46.2148 198.254 46.2011 198.005C46.1874 197.756 46.2253 197.507 46.3124 197.274C46.3994 197.04 46.5339 196.827 46.7072 196.648C46.8805 196.469 47.089 196.327 47.3196 196.232C47.619 196.084 47.9624 196.051 48.2848 196.139C48.6071 196.227 48.8858 196.43 49.0679 196.71C51.2517 200.084 53.0064 203.716 54.2916 207.523C54.7697 208.948 54.2916 210.11 52.7502 210.239C52.6285 210.245 52.5068 210.224 52.3944 210.178C52.2819 210.131 52.1815 210.059 52.1008 209.968Z" fill="#15171C"/>
<path d="M119.173 196.425C122.028 199.568 124.882 201.179 129.164 201.564C129.276 201.566 129.383 201.607 129.468 201.68C129.553 201.752 129.609 201.853 129.628 201.963L137.477 236.177C137.62 236.783 137.385 237.025 136.764 236.89C130.546 235.514 124.161 235.05 117.81 235.514C117.716 235.532 117.62 235.527 117.528 235.5C117.437 235.473 117.353 235.425 117.283 235.36C117.214 235.295 117.16 235.214 117.128 235.124C117.096 235.035 117.085 234.939 117.097 234.844C117.061 233.212 116.94 231.458 116.74 229.598C115.666 219.434 113.875 209.359 111.381 199.447C111.323 199.204 111.416 199.069 111.659 199.048C114.189 198.811 116.603 197.875 118.631 196.346C118.672 196.315 118.718 196.293 118.767 196.28C118.817 196.268 118.868 196.265 118.918 196.272C118.969 196.28 119.017 196.297 119.061 196.323C119.105 196.349 119.143 196.384 119.173 196.425Z" fill="white"/>
<path d="M35.9875 203.959C40.4167 206.212 44.2672 209.454 47.2411 213.432C47.3139 213.523 47.3615 213.631 47.3791 213.746C47.3966 213.861 47.3835 213.979 47.341 214.088C46.7844 215.613 45.5213 215.684 44.2582 214.872C42.0937 213.464 40.0504 211.878 38.1497 210.132C37.0124 209.209 36.0212 208.121 35.2096 206.903C35.0366 206.69 34.9214 206.437 34.8752 206.167C34.8289 205.898 34.8532 205.621 34.9456 205.363C35.2116 204.84 35.5638 204.365 35.9875 203.959Z" fill="#15171C"/>
<path d="M41.1718 224.349C41.6113 223.143 38.8602 221.036 35.0271 219.642C31.1939 218.249 27.7304 218.097 27.2909 219.303C26.8515 220.509 29.6026 222.616 33.4357 224.01C37.2688 225.403 40.7324 225.555 41.1718 224.349Z" fill="#15171C"/>
</g>
<defs>
<clipPath id="clip0_101_2139">
<rect width="280" height="273" fill="white"/>
</clipPath>
</defs>
</svg>
