<svg viewBox="0 0 44 49" fill="none" xmlns="http://www.w3.org/2000/svg">
<g clip-path="url(#clip0_319_19268)">
<mask id="mask0_319_19268" style="mask-type:luminance" maskUnits="userSpaceOnUse" x="0" y="0" width="44" height="49">
<path d="M44 0H0V49H44V0Z" fill="white"/>
</mask>
<g mask="url(#mask0_319_19268)">
<path d="M20.9818 23.2747C20.0125 25.0074 18.8318 26.6085 17.4677 28.0399C18.5929 28.9032 19.8571 29.5606 21.2038 29.9829L21.2229 26.7624L29.7432 12.7121C27.5052 12.4225 25.2543 12.2474 22.9991 12.1875C23.6102 14.6405 23.6197 18.3808 20.9818 23.2844" fill="white"/>
<path d="M8.10001 27.4764C8.92362 28.7297 9.84513 29.3174 10.9266 29.2689C11.8815 29.2276 12.9152 28.7272 13.9274 27.9743C12.6322 26.4013 11.6138 24.6126 10.917 22.6869C9.95016 20.1125 9.27693 16.1633 10.2414 12.8481C9.08617 13.021 7.94223 13.2643 6.81568 13.5767C6.32476 13.743 5.85006 13.9552 5.39764 14.2106C7.03293 16.4111 7.04246 19.0681 7.04962 21.6232C7.04962 23.809 7.06393 25.888 8.10001 27.4716" fill="white"/>
<path d="M12.8556 12.6756C11.6882 15.323 12.168 19.1725 13.1611 21.815C13.752 23.4707 14.6203 25.0098 15.7274 26.3641C16.9524 25.0871 18.01 23.6544 18.8739 22.1016C20.2633 19.5223 21.6718 15.7067 20.4973 12.185C20.4931 12.1691 20.4875 12.1537 20.4805 12.1389C17.8903 12.1389 15.2977 12.2603 12.9367 12.5008L12.8556 12.6756Z" fill="white"/>
<path d="M40.3069 20.8119C39.8566 18.8413 38.8627 17.0424 37.4422 15.6266L27.893 31.3891L21.3662 34.1968C21.3464 34.2096 21.3234 34.2163 21.3 34.216C21.2765 34.2156 21.2537 34.2082 21.2343 34.1948C21.215 34.1813 21.2 34.1623 21.1912 34.1402C21.1823 34.1181 21.1801 34.0939 21.1847 34.0705V32.5136C19.1664 31.987 17.2821 31.0272 15.6582 29.6987C14.054 30.9714 12.4998 31.6417 11.0269 31.7122C9.67804 31.7704 7.72765 31.3187 6.09714 28.8317C4.66477 26.6458 4.65042 24.0932 4.64326 21.6353C4.64326 19.3765 4.62896 17.2417 3.46874 15.68C2.07543 17.0874 1.10068 18.8662 0.656512 20.8119C-0.224371 25.2146 -0.224371 29.7528 0.656512 34.1555C1.40612 37.3954 3.6454 40.3172 6.81093 41.3859C8.58856 41.8653 10.4005 42.2015 12.2301 42.3914C12.2706 43.4989 11.8003 45.1917 9.66372 47.3703C6.64142 50.4548 13.3043 48.4899 15.8062 46.9453C17.8736 45.6702 19.8813 44.3902 21.7577 42.8164C26.4917 42.7435 31.1039 42.2699 34.1501 41.3859C37.3085 40.3172 39.5501 37.3954 40.2997 34.1555C41.177 29.7524 41.177 25.215 40.2997 20.8119H40.3069Z" fill="white"/>
<path d="M37.4398 15.6266L40.3952 10.7496L33.7419 6.11072L29.7432 12.7023C31.2322 12.8897 32.7064 13.1835 34.1549 13.5815C35.3868 14.0038 36.5095 14.7027 37.4398 15.6266Z" fill="white"/>
<path d="M42.2979 0.699476C41.8812 0.400046 41.4088 0.190636 40.9095 0.0841655C40.4103 -0.022305 39.895 -0.0235772 39.3952 0.0804262C38.8955 0.18443 38.422 0.391501 38.0039 0.68887C37.5859 0.986238 37.2323 1.3676 36.9647 1.80941L35.5992 3.99529L41.9852 8.5419L43.3531 6.35603C43.9231 5.45165 44.1321 4.35991 43.9373 3.30399C43.7425 2.24807 43.1586 1.30772 42.305 0.675187" fill="white"/>
</g>
</g>
<defs>
<clipPath id="clip0_319_19268">
<rect width="44" height="49" fill="white"/>
</clipPath>
</defs>
</svg>
