<svg width="187" height="39" viewBox="0 0 187 39" fill="none" xmlns="http://www.w3.org/2000/svg">
<g clip-path="url(#clip0_135_1141)">
<path d="M54.2141 13.4753C55.8284 13.4753 57.1285 13.9364 58.1377 14.8329H58.1944V8.13513H62.3138V29.2072H58.4802V27.8522H58.4235C57.5867 28.8826 55.9699 29.64 54.2114 29.64C50.2594 29.64 47.3732 26.2061 47.3732 21.5589C47.3732 16.9117 50.262 13.4753 54.2141 13.4753ZM58.1944 20.4615C58.2103 20.0364 58.1383 19.6126 57.983 19.2166C57.8276 18.8206 57.5923 18.461 57.2917 18.1601C56.991 17.8593 56.6316 17.6239 56.2358 17.4685C55.84 17.313 55.4165 17.241 54.9916 17.2569C52.7697 17.2569 51.5004 18.8154 51.5004 21.5589C51.5004 24.2431 52.7877 25.8584 54.9916 25.8584C55.4157 25.8719 55.838 25.7984 56.2325 25.6423C56.6271 25.4862 56.9855 25.2509 57.2856 24.9509C57.5858 24.6508 57.8211 24.2924 57.9775 23.8978C58.1338 23.5031 58.2077 23.0806 58.1944 22.6563V20.4615Z" fill="#00FFA3"/>
<path d="M65.7251 9.00586H74.0077C78.3047 9.00586 81.0184 11.5175 81.0184 15.6753C81.0184 19.833 78.364 22.3138 73.9485 22.3138H69.9964V29.2124H65.7251V9.00586ZM76.7471 15.6469C76.7471 13.8257 75.7945 12.9035 73.915 12.9035H69.9912V18.3879H73.8866C75.6219 18.3879 76.76 17.3394 76.76 15.6469H76.7471Z" fill="#00FFA3"/>
<path d="M82.7203 13.9132H86.8397V23.0351C86.8397 24.913 87.733 25.8687 89.5224 25.8687C91.1676 25.8687 92.2053 24.7739 92.2053 23.0351V13.9132H96.3247V29.2124H92.3726V27.8574H92.3159C91.4791 28.9239 89.8622 29.6452 88.2196 29.6452C84.7567 29.6452 82.7074 27.538 82.7074 23.9779L82.7203 13.9132Z" fill="#00FFA3"/>
<path d="M103.034 27.8574V29.2124H99.2235V8.14034H103.343V14.8381H103.4C104.409 13.9416 105.717 13.4805 107.295 13.4805C111.247 13.4805 114.133 16.9143 114.133 21.5641C114.133 26.2139 111.247 29.6452 107.295 29.6452C105.537 29.6452 103.976 28.8956 103.083 27.8574H103.034ZM106.523 17.2621C104.677 17.2621 103.351 18.5887 103.351 20.4667V22.6615C103.351 24.5085 104.677 25.8636 106.523 25.8636C108.745 25.8636 110.014 24.305 110.014 21.5641C110.014 18.8232 108.745 17.2621 106.523 17.2621Z" fill="#00FFA3"/>
<path d="M116.422 29.2124V8.14034H120.541V29.2124H116.422Z" fill="#00FFA3"/>
<path d="M123.346 11.4145V7.37265H127.529V11.4145H123.346ZM123.402 29.2252V13.9132H127.522V29.2124L123.402 29.2252Z" fill="#00FFA3"/>
<path d="M133.144 23.2952C133.636 25.374 134.702 26.2679 136.867 26.2679C138.108 26.2679 138.914 25.8068 138.914 25.0263C138.914 24.1607 138.281 23.7872 135.25 22.834C131.759 21.7083 130.26 20.3791 130.26 18.0709C130.26 15.4949 132.856 13.4804 136.146 13.4804C137.647 13.4622 139.117 13.9055 140.358 14.7504C141.533 15.4959 142.395 16.6459 142.781 17.9833L139.117 19.0524C138.626 17.6381 137.529 16.8293 136.146 16.8293C135.116 16.8293 134.385 17.4063 134.385 18.0709C134.385 18.6763 134.673 18.8438 137.444 19.7454C141.368 21.1004 143.041 22.4579 143.041 24.9979C143.041 27.7131 140.358 29.6348 136.862 29.6348C132.742 29.6348 130.14 27.7311 129.475 24.2663L133.144 23.2952Z" fill="#00FFA3"/>
<path d="M145.042 8.14034H149.161V15.2786H149.218C150.055 14.1528 151.584 13.4882 153.229 13.4882C156.517 13.4882 158.826 15.8067 158.826 19.1555V29.2304H154.707V20.1679C154.707 18.3492 153.698 17.3085 151.939 17.3085C150.181 17.3085 149.169 18.4059 149.169 20.1679V29.2304H145.049L145.042 8.14034Z" fill="#00FFA3"/>
<path d="M168.182 13.4753C172.423 13.4753 175.366 16.7365 175.366 21.5589V22.7697H165.124C165.239 24.9362 166.393 26.1778 168.27 26.1778C169.768 26.1778 170.893 25.4848 171.962 23.8954L174.876 26.1778C173.404 28.4962 171.182 29.64 168.27 29.64C163.97 29.64 160.971 26.3787 160.971 21.5589C160.971 16.8009 163.97 13.4753 168.182 13.4753ZM168.211 16.9401C166.509 16.9401 165.268 18.0942 165.121 19.8562H171.354C171.213 18.0117 170.088 16.9452 168.211 16.9452V16.9401Z" fill="#00FFA3"/>
<path d="M177.647 13.9132H181.509V15.2786H181.565C182.258 14.2481 183.383 13.6325 184.853 13.6325C185.526 13.6256 186.197 13.7123 186.846 13.8901L186.153 17.816C185.597 17.672 185.026 17.5942 184.452 17.5841C182.69 17.5841 181.766 18.7691 181.766 20.9922V29.2176H177.647V13.9132Z" fill="#00FFA3"/>
<path d="M37.9938 19.0086C31.1427 15.786 29.863 12.6947 32.4299 5.56681C25.3085 8.14285 22.219 6.8548 18.9956 -6.10352e-05C15.7747 6.8548 12.6852 8.13513 5.56374 5.56681C8.13837 12.6947 6.85096 15.786 -0.00012207 19.0086C6.85096 22.2312 8.13065 25.3225 5.56374 32.4504C12.6852 29.8744 15.7747 31.1624 18.9956 38.0173C22.219 31.1624 25.3085 29.8821 32.4299 32.4504C29.863 25.3251 31.1427 22.2338 37.9938 19.0086ZM16.1094 21.0875C16.1097 21.3555 16.0571 21.621 15.9548 21.8687C15.8524 22.1164 15.7023 22.3414 15.5129 22.5309C15.3235 22.7204 15.0986 22.8707 14.851 22.9731C14.6035 23.0755 14.3381 23.128 14.0702 23.1277C13.8023 23.128 13.5371 23.0755 13.2895 22.9731C13.042 22.8707 12.817 22.7204 12.6276 22.5309C12.4382 22.3414 12.2881 22.1164 12.1857 21.8687C12.0834 21.621 12.0308 21.3555 12.0311 21.0875V14.23C12.0311 13.9621 12.0839 13.6968 12.1864 13.4493C12.2888 13.2018 12.439 12.9769 12.6284 12.7874C12.8177 12.598 13.0425 12.4476 13.2899 12.3451C13.5373 12.2426 13.8024 12.1898 14.0702 12.1898C14.338 12.1898 14.6032 12.2426 14.8506 12.3451C15.098 12.4476 15.3228 12.598 15.5121 12.7874C15.7015 12.9769 15.8517 13.2018 15.9542 13.4493C16.0566 13.6968 16.1094 13.9621 16.1094 14.23V21.0875ZM25.9471 21.0875C25.9474 21.3555 25.8949 21.621 25.7926 21.8687C25.6902 22.1164 25.54 22.3414 25.3505 22.5309C25.1611 22.7204 24.9362 22.8707 24.6887 22.9731C24.4411 23.0755 24.1758 23.128 23.908 23.1277C23.6401 23.128 23.3747 23.0755 23.1272 22.9731C22.8796 22.8707 22.6547 22.7204 22.4653 22.5309C22.2759 22.3414 22.1257 22.1164 22.0234 21.8687C21.921 21.621 21.8684 21.3555 21.8688 21.0875V14.23C21.8688 13.9621 21.9215 13.6968 22.024 13.4493C22.1265 13.2018 22.2767 12.9769 22.466 12.7874C22.6554 12.598 22.8801 12.4476 23.1275 12.3451C23.3749 12.2426 23.6402 12.1898 23.908 12.1898C24.1757 12.1898 24.4409 12.2426 24.6883 12.3451C24.9357 12.4476 25.1604 12.598 25.3498 12.7874C25.5391 12.9769 25.6893 13.2018 25.7918 13.4493C25.8943 13.6968 25.9471 13.9621 25.9471 14.23V21.0875Z" fill="#00FFA3"/>
</g>
<defs>
<clipPath id="clip0_135_1141">
<rect width="186.851" height="38.0173" fill="white"/>
</clipPath>
</defs>
</svg>
