<svg viewBox="0 0 67 61" fill="none" xmlns="http://www.w3.org/2000/svg">
<path fill-rule="evenodd" clip-rule="evenodd" d="M13.1086 18.2771C13.9653 17.3527 15.1279 16.8333 16.3395 16.8333H36.6608C37.8724 16.8333 39.035 17.3527 39.8917 18.2771C42.1909 20.758 48.1374 27.1754 48.1374 27.1754C48.732 27.817 48.732 28.8573 48.1374 29.4993L27.5768 51.6854C26.9822 52.327 26.0181 52.327 25.4232 51.6854L4.86259 29.4993C4.26801 28.8577 4.26801 27.8174 4.86259 27.1754L13.1086 18.2771ZM23.3452 27.515H8.8546L16.3395 20.0454L23.3452 27.515Z" fill="white"/>
<g clip-path="url(#clip0_319_19359)">
<mask id="mask0_319_19359" style="mask-type:luminance" maskUnits="userSpaceOnUse" x="49" y="0" width="18" height="29">
<path d="M67 0H49V29H67V0Z" fill="white"/>
</mask>
<g mask="url(#mask0_319_19359)">
<path d="M66.9572 14.019C66.9517 13.9976 66.9435 13.977 66.9328 13.9577C66.9257 13.9339 66.9154 13.9112 66.9022 13.8903C66.8962 13.8695 66.8869 13.8499 66.8747 13.8321L66.838 13.7677C66.8297 13.7496 66.8183 13.733 66.8044 13.7187C66.7919 13.6961 66.7776 13.6746 66.7616 13.6543L66.7249 13.6053C66.7249 13.5869 66.6913 13.5716 66.679 13.5532L66.6301 13.5011L66.5904 13.4582L66.5231 13.4061L66.4864 13.3755L66.3703 13.3326L66.3397 13.3111L66.2541 13.2591L66.2235 13.2407L66.1288 13.2039L66.0921 13.1855L66.0065 13.1579H65.9576L65.8964 13.1395C59.4766 11.73 59.4063 1.57508 59.4032 1.41574V1.2656C59.4094 1.22909 59.4094 1.1918 59.4032 1.15529C59.4032 1.11852 59.4032 1.13689 59.4032 1.12464C59.391 1.0793 59.3746 1.0352 59.3543 0.992875C59.2733 0.730692 59.1183 0.497623 58.908 0.321805L58.8132 0.254401L58.7979 0.239083L58.7154 0.190045L58.6818 0.17166L58.5992 0.113439L58.5472 0.0889197L58.4892 0.0644192L58.4158 0.0399H58.3669C58.3386 0.0345713 58.3109 0.026352 58.2843 0.0153809H58.2324H58.1437H57.8594H57.7616H57.7188L57.6209 0.0429673H57.5843L57.4956 0.0736022H57.4559L57.3794 0.110372L57.3305 0.131824L57.2724 0.165526L57.2144 0.202314L57.1746 0.236016C57.1502 0.254402 57.1257 0.26665 57.1043 0.285036L57.0768 0.312622L57.0034 0.380027V0.395344C56.979 0.422922 56.9484 0.450509 56.9239 0.481152C56.839 0.583555 56.7699 0.698219 56.7191 0.821278C56.7012 0.862125 56.6858 0.904101 56.6733 0.946923C56.6733 0.986758 56.6519 1.02658 56.6427 1.06641V1.10318C56.6433 1.13751 56.6381 1.1717 56.6274 1.20431V1.35445C56.6274 1.51379 56.551 11.6779 50.1342 13.0813L50.0608 13.0997H50.0364C49.9961 13.1063 49.957 13.1187 49.9202 13.1365C49.8805 13.1365 49.8407 13.1732 49.804 13.1916C49.7637 13.2101 49.7249 13.2316 49.6879 13.256C49.6499 13.2769 49.614 13.3015 49.5809 13.3295L49.4861 13.4092C49.4593 13.4335 49.4348 13.4602 49.4127 13.4889L49.3883 13.5164L49.3302 13.5869L49.2996 13.6298L49.2568 13.7003L49.2262 13.7493L49.1896 13.8167C49.1896 13.8382 49.1712 13.8566 49.1651 13.875C49.159 13.8934 49.1468 13.924 49.1376 13.9485L49.0826 14.0404L49.0612 14.1201V14.1753C49.0684 14.2024 49.0684 14.2309 49.0612 14.258V14.6594C49.0539 14.6876 49.0539 14.7171 49.0612 14.7452V14.7789C49.0746 14.8516 49.0962 14.9225 49.1254 14.9903C49.1226 14.9993 49.1226 15.0089 49.1254 15.0179C49.1498 15.0811 49.1805 15.1417 49.2171 15.1987V15.2202C49.2538 15.2784 49.2966 15.3335 49.3394 15.3887L49.3699 15.4163C49.415 15.4671 49.4641 15.5142 49.5167 15.5572L49.5442 15.5787C49.5997 15.6227 49.659 15.6617 49.7215 15.6951C49.78 15.7282 49.8414 15.7559 49.9049 15.7779H49.9355C49.9877 15.795 50.0407 15.8093 50.0945 15.8208C56.5143 17.2334 56.5938 27.3883 56.5938 27.5476V27.7008C56.5909 27.7376 56.5972 27.7744 56.6121 27.8081C56.6274 27.8418 56.6121 27.8295 56.6121 27.8387C56.619 27.8826 56.6303 27.9258 56.6457 27.9674C56.7264 28.2322 56.8839 28.4668 57.0982 28.6415L57.1899 28.712H57.2082L57.2908 28.7641L57.3214 28.7825L57.3917 28.8162L57.4497 28.8407L57.5048 28.8622L57.5751 28.8867H57.624L57.7096 28.9081H57.7585H57.8502H58.1223H58.2201H58.2599L58.3608 28.8836H58.3974L58.4892 28.8499H58.5258L58.6023 28.8131L58.6512 28.7886L58.7093 28.7549L58.7673 28.7182L58.8101 28.6845L58.8774 28.6354L58.9049 28.6109C58.9308 28.589 58.9553 28.5655 58.9783 28.5404L59.0578 28.4546C59.142 28.3489 59.2119 28.2325 59.2656 28.1084C59.284 28.0685 59.2962 28.0287 59.3115 27.9858L59.339 27.8632V27.8326C59.342 27.7969 59.342 27.761 59.339 27.7253V27.5721C59.339 27.4158 59.4154 17.2517 65.8322 15.8514C65.886 15.8403 65.9391 15.826 65.9912 15.8085H66.0218C66.0853 15.7841 66.1475 15.7565 66.2082 15.7258C66.2687 15.6895 66.3269 15.6496 66.3825 15.6063L66.41 15.5879C66.4628 15.5441 66.5129 15.497 66.5598 15.4469L66.5873 15.4163C66.6301 15.3611 66.6729 15.306 66.7096 15.2477V15.2263C66.7432 15.1687 66.7738 15.1093 66.8013 15.0486V15.021C66.8287 14.9525 66.8502 14.8817 66.8655 14.8096C66.8671 14.8068 66.868 14.8036 66.868 14.8004C66.868 14.7971 66.8671 14.794 66.8655 14.7912V14.687C66.8686 14.6687 66.8686 14.6501 66.8655 14.6318V14.5552C66.8655 14.5552 66.8655 14.5338 66.8655 14.5215C66.8655 14.5093 66.8655 14.5001 66.8655 14.4909C66.9111 14.4691 66.9541 14.4424 66.9939 14.4112V14.1354C66.9967 14.1071 66.9891 14.0788 66.9725 14.0557L66.9572 14.019Z" fill="white"/>
</g>
</g>
<defs>
<clipPath id="clip0_319_19359">
<rect width="18" height="29" fill="white" transform="translate(49)"/>
</clipPath>
</defs>
</svg>
