<svg width="21" height="17" viewBox="0 0 21 17" fill="none" xmlns="http://www.w3.org/2000/svg">
<path d="M7.66436 1.64485C9.20481 1.40242 10.7737 1.40242 12.3142 1.64485L12.7626 0.723465C12.7626 0.561396 12.9068 0.529383 13.083 0.561396C14.3933 0.805499 15.6686 1.20667 16.8839 1.7579C17.014 1.81092 17.1241 1.90096 17.2042 2.01601C18.6009 4.0723 19.5413 6.40343 19.9621 8.85289C20.2103 10.3315 20.2744 11.8341 20.1543 13.3298C20.1506 13.4223 20.1255 13.5127 20.0811 13.5939C20.0366 13.6751 19.974 13.745 19.898 13.798C18.4268 14.8369 16.8045 15.6437 15.088 16.19C15.0566 16.2062 15.0221 16.2157 14.9867 16.2179C14.9514 16.2201 14.9159 16.2149 14.8827 16.2027C14.8495 16.1905 14.8191 16.1714 14.7937 16.1469C14.7682 16.1223 14.7481 16.0927 14.7347 16.0599C14.4304 15.5437 14.094 15.0095 13.7567 14.4442L15.4884 13.6039C15.2482 13.2647 15.1201 13.2167 14.8148 13.3458C13.2663 14.0486 11.5853 14.4122 9.88466 14.4122C8.184 14.4122 6.50301 14.0486 4.95457 13.3458C4.71432 13.2327 4.61722 13.3458 4.34393 13.6039L5.1788 14.0411L6.04469 14.4282L5.90054 14.7514L5.06668 16.0929C5.06668 16.223 4.90652 16.223 4.76136 16.0929C3.03726 15.5506 1.41278 14.7319 -0.0486042 13.6689C-0.11554 13.6282 -0.171155 13.5713 -0.210337 13.5035C-0.249519 13.4356 -0.271011 13.359 -0.272836 13.2807C-0.517222 10.5936 -0.127385 7.88663 0.86534 5.37742C1.34659 4.15938 1.95384 2.9949 2.67721 1.90296C2.74233 1.80733 2.83045 1.72958 2.93348 1.67687C4.1687 1.12072 5.46585 0.713683 6.79747 0.464355C6.95763 0.464355 7.03772 0.464355 7.10278 0.610417L7.66436 1.64485ZM15.2482 9.128C15.2171 8.88778 15.169 8.65007 15.1041 8.4167C15.024 8.10657 14.8628 7.82645 14.6366 7.60236C14.4113 7.37962 14.1296 7.22243 13.8216 7.14769C13.5137 7.07296 13.1912 7.0835 12.8888 7.17818C12.5863 7.27399 12.3156 7.45039 12.106 7.6884C11.7385 8.10632 11.5358 8.64366 11.5358 9.20003C11.5358 9.7564 11.7385 10.2937 12.106 10.7117C12.2764 10.895 12.4854 11.0383 12.7178 11.1313C12.9502 11.2244 13.2004 11.2649 13.4503 11.2499C13.7005 11.2345 13.9441 11.1637 14.1635 11.0426C14.3828 10.9215 14.5725 10.7531 14.7187 10.5496C15.0464 10.1462 15.2324 9.64638 15.2482 9.127V9.128ZM8.46519 9.128C8.42352 8.86039 8.36468 8.59573 8.28901 8.33567C8.18712 8.01864 7.99973 7.73583 7.74745 7.51832C7.49631 7.30195 7.18994 7.1596 6.86254 7.10715C6.5581 7.05239 6.24429 7.08748 5.95948 7.20812C5.67468 7.32876 5.43122 7.52972 5.25888 7.78644C4.94234 8.20598 4.78197 8.72265 4.80535 9.24757C4.82874 9.7725 5.03442 10.2729 5.38701 10.6626C5.54767 10.8474 5.74603 10.9956 5.96875 11.0975C6.19148 11.1993 6.43343 11.2523 6.67835 11.2529C6.92324 11.253 7.16529 11.2004 7.38797 11.0985C7.61065 10.9966 7.80872 10.848 7.96868 10.6626C8.30202 10.2285 8.47821 9.69224 8.46519 9.14401V9.127V9.128Z" fill="white"/>
</svg>
