<svg viewBox="0 0 21 16" fill="none" xmlns="http://www.w3.org/2000/svg">
<path d="M7.99953 1.30578C9.53859 1.06344 11.1057 1.06344 12.6447 1.30578L13.0931 0.384947C13.0931 0.223399 13.2374 0.19108 13.4135 0.223389C14.7219 0.466799 15.9965 0.868203 17.2098 1.41887C17.3391 1.47192 17.4503 1.56172 17.53 1.67736C18.9239 3.72943 19.8635 6.05998 20.285 8.51078C20.5328 9.98859 20.5974 11.4918 20.4772 12.9857C20.4736 13.0785 20.4486 13.1691 20.4041 13.2504C20.3596 13.3317 20.297 13.4015 20.2211 13.4541C18.7495 14.4935 17.129 15.2999 15.4158 15.8451C15.3844 15.8612 15.3502 15.8706 15.3151 15.8728C15.28 15.875 15.2447 15.8698 15.2116 15.8577C15.1786 15.8456 15.1484 15.8267 15.1229 15.8023C15.0973 15.7779 15.0772 15.7485 15.0634 15.7158C14.7591 15.1989 14.4225 14.6658 14.0862 14.1004L15.8162 13.2603C15.5759 12.921 15.4477 12.8726 15.1434 13.0018C13.5949 13.705 11.9162 14.0685 10.218 14.0685C8.51983 14.0685 6.84089 13.705 5.29242 13.0018C5.05216 12.8888 4.95604 13.0018 4.68374 13.2603L5.5167 13.6965L6.38172 14.0842L6.23761 14.4073L5.40466 15.7481C5.40466 15.8773 5.24438 15.8773 5.10022 15.7481C3.37942 15.2068 1.7567 14.3885 0.294885 13.3249C0.228318 13.2843 0.172948 13.2276 0.133768 13.1599C0.0945886 13.0922 0.0728284 13.0156 0.0706124 12.9372C-0.173246 10.2503 0.216582 7.54351 1.20801 5.03757C1.68917 3.81912 2.29584 2.65495 3.01802 1.56426C3.08334 1.46842 3.17132 1.39064 3.27417 1.33807C4.50903 0.782016 5.80486 0.375319 7.13451 0.126465C7.29469 0.126465 7.37488 0.126508 7.43895 0.271901L7.99953 1.30578ZM15.5759 8.78538C15.5448 8.54526 15.4967 8.3077 15.4318 8.07457C15.3523 7.7657 15.191 7.48444 14.9653 7.26082C14.7396 7.03719 14.4579 6.87964 14.1503 6.80499C13.8427 6.73033 13.5207 6.74135 13.2188 6.83693C12.9169 6.93251 12.6466 7.1091 12.4365 7.34768C12.0705 7.76428 11.8685 8.30158 11.8685 8.85815C11.8685 9.41471 12.0705 9.95202 12.4365 10.3686C12.6073 10.5525 12.8161 10.6961 13.0483 10.7891C13.2805 10.8822 13.5302 10.9225 13.7796 10.9071C14.029 10.8916 14.2718 10.8209 14.4909 10.6999C14.7101 10.5789 14.9002 10.4106 15.0474 10.207C15.3741 9.80484 15.5599 9.30506 15.5759 8.78538ZM8.80042 8.78538C8.7587 8.51796 8.69987 8.25356 8.62425 7.99381C8.52198 7.67649 8.33461 7.39388 8.08302 7.1772C7.83143 6.96053 7.52541 6.81822 7.19864 6.76604C6.89523 6.71176 6.58273 6.74696 6.29862 6.8673C6.01451 6.98765 5.77085 7.1881 5.59686 7.44461C5.28087 7.86314 5.1206 8.38024 5.14402 8.90577C5.16744 9.4313 5.37298 9.93184 5.72494 10.3201C5.8858 10.5054 6.08406 10.6539 6.30644 10.7556C6.52882 10.8573 6.77027 10.9099 7.01445 10.9099C7.25864 10.9099 7.49989 10.8573 7.72227 10.7556C7.94465 10.6539 8.14291 10.5054 8.30377 10.3201C8.63719 9.88639 8.81261 9.35021 8.80042 8.80155V8.78538Z" fill="#15171C"/>
</svg>
