<svg viewBox="0 0 25 18" fill="none" xmlns="http://www.w3.org/2000/svg">
<path d="M11.3377 14.7701C11.43 14.7702 11.5214 14.7885 11.6066 14.8239C11.6919 14.8594 11.7693 14.9113 11.8345 14.9767C11.8997 15.042 11.9514 15.1196 11.9866 15.205C12.0218 15.2903 12.0398 15.3817 12.0397 15.4741C12.0396 15.5664 12.0212 15.6578 11.9858 15.743C11.9503 15.8283 11.8984 15.9057 11.8331 15.9709C11.7677 16.0361 11.6901 16.0877 11.6048 16.1229C11.5194 16.1582 11.428 16.1762 11.3357 16.1761C11.1492 16.1758 10.9705 16.1015 10.8389 15.9695C10.7072 15.8374 10.6334 15.6585 10.6337 15.4721C10.6339 15.2856 10.7083 15.1069 10.8403 14.9753C10.9723 14.8436 11.1512 14.7698 11.3377 14.7701ZM22.3619 10.423C22.2695 10.4229 22.1781 10.4047 22.0929 10.3693C22.0076 10.3339 21.9301 10.282 21.8649 10.2167C21.7997 10.1514 21.7479 10.0739 21.7127 9.98854C21.6774 9.90322 21.6593 9.81179 21.6593 9.71947C21.6594 9.62715 21.6777 9.53575 21.713 9.45048C21.7484 9.36521 21.8003 9.28775 21.8656 9.22251C21.9309 9.15728 22.0085 9.10555 22.0938 9.07028C22.1791 9.03501 22.2705 9.01689 22.3629 9.01696C22.5493 9.01709 22.7281 9.09129 22.8598 9.22322C22.9916 9.35515 23.0655 9.53402 23.0654 9.72047C23.0652 9.90692 22.991 10.0857 22.8591 10.2174C22.7272 10.3492 22.5483 10.4231 22.3619 10.423ZM22.3619 7.54694C21.7854 7.54746 21.2328 7.77668 20.8252 8.18428C20.4176 8.59188 20.1883 9.14454 20.1878 9.72097C20.1878 9.95397 20.2268 10.186 20.3028 10.412L13.1217 14.235C12.9226 13.9459 12.6561 13.7096 12.3454 13.5463C12.0346 13.3831 11.6887 13.2979 11.3377 13.298C10.5087 13.298 9.75365 13.773 9.38765 14.514L2.93654 11.112C2.25453 10.754 1.74452 9.63197 1.79852 8.60995C1.82652 8.07694 2.01053 7.66294 2.29153 7.50293C2.46954 7.40293 2.68354 7.41093 2.91154 7.52993L2.95354 7.55294C4.66357 8.45295 10.2577 11.4 10.4937 11.509C10.8567 11.678 11.0587 11.746 11.6787 11.452L23.2429 5.4379C23.4129 5.3739 23.6109 5.2109 23.6109 4.96389C23.6109 4.62189 23.2569 4.48689 23.2559 4.48689C22.5979 4.17188 21.5868 3.69887 20.6008 3.23687C18.4928 2.24985 16.1038 1.13183 15.0547 0.581824C14.1487 0.107817 13.4197 0.507823 13.2897 0.587824L13.0377 0.712826C8.31563 3.04786 1.99553 6.17791 1.63552 6.39692C0.992511 6.78892 0.593505 7.56994 0.541504 8.53895C0.461503 10.076 1.24452 11.679 2.36553 12.266L9.18764 15.7841C9.2628 16.3008 9.52137 16.7733 9.91612 17.1152C10.3109 17.4571 10.8155 17.6455 11.3377 17.6461C11.908 17.6451 12.4552 17.4204 12.8616 17.0202C13.2679 16.62 13.501 16.0763 13.5107 15.5061L21.0248 11.433C21.4048 11.731 21.8778 11.894 22.3619 11.894C22.9383 11.8935 23.4909 11.6643 23.8985 11.2567C24.3061 10.8491 24.5354 10.2964 24.5359 9.71997C24.5354 9.14354 24.3061 8.59088 23.8985 8.18328C23.4909 7.77568 22.9383 7.54646 22.3619 7.54593" fill="#15171C"/>
</svg>
