<svg width="21" height="21" viewBox="0 0 21 21" fill="none" xmlns="http://www.w3.org/2000/svg">
<path fill-rule="evenodd" clip-rule="evenodd" d="M10.4135 0.583191C15.9089 0.583191 20.3607 5.03248 20.3607 10.5247C20.3607 14.9243 17.5131 18.6406 13.5596 19.9574C13.0622 20.0442 12.875 19.746 12.875 19.4848C12.875 19.2489 12.8877 18.4662 12.8877 17.6338C15.3871 18.0929 16.0337 17.0247 16.2326 16.4652C16.3448 16.1797 16.8295 15.2967 17.2518 15.0608C17.5999 14.8746 18.0973 14.4146 17.2644 14.4028C16.4813 14.3902 15.9216 15.1231 15.7353 15.4214C14.84 16.9253 13.4103 16.5023 12.8379 16.2411C12.7511 15.5949 12.4898 15.1602 12.204 14.9126C14.4168 14.6631 16.73 13.8054 16.73 10.0032C16.73 8.92233 16.3448 8.02759 15.71 7.33169C15.8094 7.08315 16.1576 6.06369 15.6105 4.69718C15.6105 4.69718 14.7785 4.43599 12.875 5.71573C12.0652 5.49135 11.2285 5.37854 10.3882 5.38043C9.54269 5.38043 8.69718 5.4925 7.9014 5.71573C5.99967 4.42334 5.16591 4.69718 5.16591 4.69718C4.61882 6.06369 4.96697 7.08315 5.06644 7.33169C4.43344 8.02759 4.04731 8.90968 4.04731 10.0032C4.04731 13.8181 6.37224 14.6631 8.58595 14.9117C8.22423 15.2226 7.91406 15.819 7.91406 16.7508C7.91406 18.0803 7.92672 19.1495 7.92672 19.4848C7.92672 19.746 7.74043 20.0569 7.24307 19.9574C3.31392 18.6397 0.466309 14.9117 0.466309 10.5256C0.466309 5.03248 4.91723 0.584095 10.4135 0.584095V0.583191Z" fill="white"/>
</svg>
