<svg viewBox="0 0 23 22" fill="none" xmlns="http://www.w3.org/2000/svg">
<path fill-rule="evenodd" clip-rule="evenodd" d="M11.5359 0.271484C17.6134 0.271484 22.5359 5.19398 22.5359 11.2715C22.5359 16.139 19.3871 20.2502 15.0146 21.7077C14.4646 21.804 14.2584 21.474 14.2584 21.1852C14.2584 20.924 14.2721 20.0577 14.2721 19.1365C17.0359 19.6452 17.7509 18.4627 17.9709 17.844C18.0946 17.5277 18.6309 16.5515 19.0984 16.2902C19.4834 16.084 20.0334 15.5752 19.1121 15.5615C18.2459 15.5477 17.6271 16.359 17.4209 16.689C16.4309 18.3527 14.8496 17.8852 14.2171 17.5965C14.1209 16.8815 13.8321 16.4002 13.5159 16.1252C15.9634 15.8502 18.5209 14.9015 18.5209 10.694C18.5209 9.49773 18.0946 8.50773 17.3934 7.73773C17.5034 7.46273 17.8884 6.33523 17.2834 4.82273C17.2834 4.82273 16.3621 4.53398 14.2584 5.95023C13.3784 5.70273 12.4434 5.57898 11.5084 5.57898C10.5734 5.57898 9.63839 5.70273 8.75839 5.95023C6.65464 4.52023 5.73339 4.82273 5.73339 4.82273C5.12839 6.33523 5.51339 7.46273 5.62339 7.73773C4.92214 8.50773 4.49589 9.48398 4.49589 10.694C4.49589 14.9152 7.06714 15.8502 9.51464 16.1252C9.11589 16.469 8.77214 17.129 8.77214 18.1602C8.77214 19.6315 8.78589 20.814 8.78589 21.1852C8.78589 21.474 8.57964 21.8177 8.02964 21.7077C3.68464 20.2502 0.535889 16.1252 0.535889 11.2715C0.535889 5.19398 5.45839 0.271484 11.5359 0.271484Z" fill="#15171C"/>
</svg>
