<svg width="33" height="36" viewBox="0 0 33 36" fill="none" xmlns="http://www.w3.org/2000/svg">
<path d="M15.0398 17.1925L0.137421 33.0089C0.13882 33.0117 0.13882 33.0159 0.14022 33.0187C0.597915 34.7361 2.16556 36 4.02713 36C4.77176 36 5.4702 35.7984 6.06926 35.4457L6.11685 35.4177L22.8906 25.739L15.0398 17.1925Z" fill="#EA4335"/>
<path d="M30.1157 14.4993L30.1017 14.4895L22.8597 10.2918L14.701 17.552L22.8891 25.7373L30.0919 21.5817C31.3544 20.8986 32.2124 19.5675 32.2124 18.0335C32.2124 16.5078 31.367 15.1837 30.1157 14.4993Z" fill="#FBBC04"/>
<path d="M0.137169 2.98996C0.0475891 3.32028 0 3.6674 0 4.02572V31.9745C0 32.3328 0.0475891 32.68 0.138568 33.0089L15.5518 17.597L0.137169 2.98996Z" fill="#4285F4"/>
<path d="M15.1499 17.9999L22.8621 10.289L6.10796 0.575271C5.4991 0.209955 4.78807 4.1045e-06 4.02804 4.1045e-06C2.16647 4.1045e-06 0.596026 1.26671 0.138331 2.98552C0.138331 2.98692 0.136932 2.98832 0.136932 2.98972L15.1499 17.9999Z" fill="#34A853"/>
</svg>
