<svg width="113" height="36" viewBox="0 0 113 36" fill="none" xmlns="http://www.w3.org/2000/svg">
<path d="M9.14845 4.46911C9.14845 5.57779 8.82034 6.46023 8.16281 7.11909C7.41531 7.90231 6.4429 8.29391 5.24691 8.29391C4.09987 8.29391 3.12613 7.89701 2.32572 7.10189C1.52265 6.30809 1.12311 5.32245 1.12311 4.14762C1.12311 2.97147 1.52265 1.98716 2.32572 1.19203C3.12613 0.39823 4.09987 6.33887e-06 5.24691 6.33887e-06C5.81448 6.33887e-06 6.35956 0.111138 6.87553 0.333403C7.39282 0.555668 7.80692 0.850697 8.11783 1.21982L7.41928 1.91836C6.89405 1.29126 6.17037 0.976383 5.24691 0.976383C4.41077 0.976383 3.68841 1.27009 3.07851 1.8575C2.4686 2.44624 2.16431 3.20829 2.16431 4.14762C2.16431 5.08563 2.4686 5.849 3.07851 6.43642C3.68841 7.02515 4.41077 7.31754 5.24691 7.31754C6.13332 7.31754 6.87156 7.02251 7.46426 6.43113C7.84793 6.04613 8.06888 5.51164 8.12841 4.82368H5.24691V3.86979H9.09288C9.12992 4.0775 9.14845 4.27728 9.14845 4.46911Z" fill="white"/>
<path d="M9.14845 4.46911C9.14845 5.57779 8.82034 6.46023 8.16281 7.11909C7.41531 7.90231 6.4429 8.29391 5.24691 8.29391C4.09987 8.29391 3.12613 7.89701 2.32572 7.10189C1.52265 6.30809 1.12311 5.32245 1.12311 4.14762C1.12311 2.97147 1.52265 1.98716 2.32572 1.19203C3.12613 0.39823 4.09987 6.33887e-06 5.24691 6.33887e-06C5.81448 6.33887e-06 6.35956 0.111138 6.87553 0.333403C7.39282 0.555668 7.80692 0.850697 8.11783 1.21982L7.41928 1.91836C6.89405 1.29126 6.17037 0.976383 5.24691 0.976383C4.41077 0.976383 3.68841 1.27009 3.07851 1.8575C2.4686 2.44624 2.16431 3.20829 2.16431 4.14762C2.16431 5.08563 2.4686 5.849 3.07851 6.43642C3.68841 7.02515 4.41077 7.31754 5.24691 7.31754C6.13332 7.31754 6.87156 7.02251 7.46426 6.43113C7.84793 6.04613 8.06888 5.51164 8.12841 4.82368H5.24691V3.86979H9.09288C9.12992 4.0775 9.14845 4.27728 9.14845 4.46911Z" fill="white"/>
<path d="M15.2466 1.15379H11.6322V3.67015H14.892V4.62403H11.6322V7.14038H15.2466V8.11676H10.6121V0.17874H15.2466V1.15379Z" fill="white"/>
<path d="M15.2466 1.15379H11.6322V3.67015H14.892V4.62403H11.6322V7.14038H15.2466V8.11676H10.6121V0.17874H15.2466V1.15379Z" fill="white"/>
<path d="M19.5477 8.11639H18.5277V1.15343H16.3103V0.178374H21.765V1.15343H19.5477V8.11639Z" fill="white"/>
<path d="M19.5477 8.11639H18.5277V1.15343H16.3103V0.178374H21.765V1.15343H19.5477V8.11639Z" fill="white"/>
<path d="M25.7118 0.178374H26.7318V8.11639H25.7118V0.178374Z" fill="white"/>
<path d="M31.2557 8.11639H30.2357V1.15343H28.0183V0.178374H33.4731V1.15343H31.2557V8.11639Z" fill="white"/>
<path d="M31.2557 8.11639H30.2357V1.15343H28.0183V0.178374H33.4731V1.15343H31.2557V8.11639Z" fill="white"/>
<path d="M38.7319 6.42583C39.3193 7.02119 40.0377 7.31754 40.8884 7.31754C41.7391 7.31754 42.4575 7.02119 43.0449 6.42583C43.6323 5.83048 43.9273 5.07108 43.9273 4.14762C43.9273 3.22417 43.6323 2.46344 43.0449 1.86941C42.4575 1.27406 41.7391 0.976383 40.8884 0.976383C40.0377 0.976383 39.3193 1.27406 38.7319 1.86941C38.1458 2.46344 37.8508 3.22417 37.8508 4.14762C37.8508 5.07108 38.1458 5.83048 38.7319 6.42583ZM43.799 7.08998C43.0184 7.89304 42.0487 8.29391 40.8884 8.29391C39.7281 8.29391 38.7584 7.89304 37.9791 7.08998C37.1985 6.28824 36.8096 5.3079 36.8096 4.14762C36.8096 2.98735 37.1985 2.00568 37.9791 1.20394C38.7584 0.402199 39.7281 6.33887e-06 40.8884 6.33887e-06C42.042 6.33887e-06 43.0092 0.403522 43.7937 1.20923C44.5769 2.01494 44.9685 2.99396 44.9685 4.14762C44.9685 5.3079 44.5782 6.28824 43.799 7.08998Z" fill="white"/>
<path d="M38.7319 6.42583C39.3193 7.02119 40.0377 7.31754 40.8884 7.31754C41.7391 7.31754 42.4575 7.02119 43.0449 6.42583C43.6323 5.83048 43.9273 5.07108 43.9273 4.14762C43.9273 3.22417 43.6323 2.46344 43.0449 1.86941C42.4575 1.27406 41.7391 0.976383 40.8884 0.976383C40.0377 0.976383 39.3193 1.27406 38.7319 1.86941C38.1458 2.46344 37.8508 3.22417 37.8508 4.14762C37.8508 5.07108 38.1458 5.83048 38.7319 6.42583ZM43.799 7.08998C43.0184 7.89304 42.0487 8.29391 40.8884 8.29391C39.7281 8.29391 38.7584 7.89304 37.9791 7.08998C37.1985 6.28824 36.8096 5.3079 36.8096 4.14762C36.8096 2.98735 37.1985 2.00568 37.9791 1.20394C38.7584 0.402199 39.7281 6.33887e-06 40.8884 6.33887e-06C42.042 6.33887e-06 43.0092 0.403522 43.7937 1.20923C44.5769 2.01494 44.9685 2.99396 44.9685 4.14762C44.9685 5.3079 44.5782 6.28824 43.799 7.08998Z" fill="white"/>
<path d="M46.3999 8.11639V0.178374H47.6409L51.4988 6.35283H51.5437L51.4988 4.82344V0.178374H52.5201V8.11639H51.4551L47.4186 1.64162H47.375L47.4186 3.17233V8.11639H46.3999Z" fill="white"/>
<path d="M46.3999 8.11639V0.178374H47.6409L51.4988 6.35283H51.5437L51.4988 4.82344V0.178374H52.5201V8.11639H51.4551L47.4186 1.64162H47.375L47.4186 3.17233V8.11639H46.3999Z" fill="white"/>
<path d="M87.8903 30.6074H90.3591V14.0686H87.8903V30.6074ZM110.126 20.0261L107.296 27.1967H107.211L104.274 20.0261H101.615L106.019 30.0478L103.51 35.6229H106.083L112.871 20.0261H110.126ZM96.1261 28.7288C95.3164 28.7288 94.1892 28.3253 94.1892 27.3237C94.1892 26.0484 95.5929 25.5589 96.8061 25.5589C97.8909 25.5589 98.4029 25.793 99.0618 26.1119C98.87 27.6439 97.5509 28.7288 96.1261 28.7288ZM96.4237 19.6649C94.6363 19.6649 92.7841 20.4521 92.0194 22.1971L94.2103 23.1113C94.6787 22.1971 95.5505 21.8981 96.4661 21.8981C97.7428 21.8981 99.0406 22.6641 99.0618 24.0268V24.1962C98.6146 23.9408 97.6581 23.5585 96.4872 23.5585C94.1257 23.5585 91.7204 24.8563 91.7204 27.2814C91.7204 29.4948 93.6573 30.921 95.827 30.921C97.4874 30.921 98.4029 30.1761 98.9771 29.303H99.0618V30.5797H101.445V24.2385C101.445 21.3028 99.2536 19.6649 96.4237 19.6649M81.1668 22.0397H77.6556V16.3706H81.1668C83.0124 16.3706 84.0603 17.8987 84.0603 19.2045C84.0603 20.4865 83.0124 22.0397 81.1668 22.0397ZM81.1033 14.0686H75.1882V30.6074H77.6556V24.3417H81.1033C83.8393 24.3417 86.529 22.3598 86.529 19.2045C86.529 16.0491 83.8393 14.0686 81.1033 14.0686M48.8472 28.7314C47.1419 28.7314 45.7143 27.3039 45.7143 25.3432C45.7143 23.3613 47.1419 21.9113 48.8472 21.9113C50.5314 21.9113 51.8517 23.3613 51.8517 25.3432C51.8517 27.3039 50.5314 28.7314 48.8472 28.7314ZM51.6824 20.9522H51.5964C51.0421 20.292 49.977 19.6953 48.6342 19.6953C45.8202 19.6953 43.2416 22.1667 43.2416 25.3432C43.2416 28.4972 45.8202 30.9488 48.6342 30.9488C49.977 30.9488 51.0421 30.3521 51.5964 29.6694H51.6824V30.4804C51.6824 32.633 50.5314 33.784 48.6765 33.784C47.163 33.784 46.225 32.6965 45.8413 31.7796L43.6888 32.6753C44.3067 34.1676 45.9485 36 48.6765 36C51.5752 36 54.0268 34.2946 54.0268 30.1391V20.0353H51.6824V20.9522ZM55.7321 30.6074H58.2048V14.0673H55.7321V30.6074ZM61.8484 25.1514C61.7848 22.9777 63.5325 21.869 64.7894 21.869C65.7711 21.869 66.6019 22.3585 66.8784 23.0624L61.8484 25.1514ZM69.5218 23.2754C69.0534 22.0185 67.6246 19.6953 64.7047 19.6953C61.806 19.6953 59.3982 21.9748 59.3982 25.322C59.3982 28.4761 61.7849 30.9488 64.9812 30.9488C67.5611 30.9488 69.0534 29.3718 69.6713 28.4549L67.7529 27.1756C67.1139 28.1136 66.2394 28.7314 64.9812 28.7314C63.7244 28.7314 62.8287 28.1559 62.2532 27.0274L69.7771 23.9144L69.5218 23.2754ZM9.57914 21.4218V23.8085H15.2905C15.1199 25.1514 14.6727 26.1317 13.9914 26.8131C13.1592 27.6452 11.8587 28.5621 9.57914 28.5621C6.06127 28.5621 3.31207 25.7269 3.31207 22.2103C3.31207 18.6925 6.06127 15.8586 9.57914 15.8586C11.4763 15.8586 12.8615 16.6048 13.8842 17.5639L15.5684 15.8798C14.1395 14.5157 12.2437 13.4706 9.57914 13.4706C4.76208 13.4706 0.712372 17.3933 0.712372 22.2103C0.712372 27.0274 4.76208 30.9488 9.57914 30.9488C12.1788 30.9488 14.1395 30.0954 15.6742 28.4972C17.2526 26.9202 17.7421 24.7042 17.7421 22.9129C17.7421 22.3585 17.6997 21.8478 17.6137 21.4218H9.57914ZM24.2367 28.7314C22.5313 28.7314 21.0602 27.3251 21.0602 25.322C21.0602 23.2965 22.5313 21.9113 24.2367 21.9113C25.9407 21.9113 27.4119 23.2965 27.4119 25.322C27.4119 27.3251 25.9407 28.7314 24.2367 28.7314ZM24.2367 19.6953C21.1237 19.6953 18.5875 22.0608 18.5875 25.322C18.5875 28.5621 21.1237 30.9488 24.2367 30.9488C27.3484 30.9488 29.8846 28.5621 29.8846 25.322C29.8846 22.0608 27.3484 19.6953 24.2367 19.6953ZM36.5578 28.7314C34.8525 28.7314 33.3813 27.3251 33.3813 25.322C33.3813 23.2965 34.8525 21.9113 36.5578 21.9113C38.2632 21.9113 39.733 23.2965 39.733 25.322C39.733 27.3251 38.2632 28.7314 36.5578 28.7314ZM36.5578 19.6953C33.4461 19.6953 30.9099 22.0608 30.9099 25.322C30.9099 28.5621 33.4461 30.9488 36.5578 30.9488C39.6695 30.9488 42.2057 28.5621 42.2057 25.322C42.2057 22.0608 39.6695 19.6953 36.5578 19.6953Z" fill="white"/>
</svg>
