<svg width="21" height="18" viewBox="0 0 21 18" fill="none" xmlns="http://www.w3.org/2000/svg">
<path d="M6.43247 0.42627H13.7615C16.5535 0.42627 18.822 2.69478 18.822 5.48679V12.8158C18.822 14.158 18.2889 15.4451 17.3398 16.3942C16.3908 17.3432 15.1036 17.8764 13.7615 17.8764H6.43247C3.64046 17.8764 1.37195 15.6078 1.37195 12.8158V5.48679C1.37195 4.14466 1.90511 2.8575 2.85414 1.90846C3.80317 0.95943 5.09034 0.42627 6.43247 0.42627ZM6.25797 2.17128C5.42492 2.17128 4.62599 2.50221 4.03694 3.09126C3.44788 3.68031 3.11696 4.47924 3.11696 5.31229V12.9903C3.11696 14.7266 4.52169 16.1313 6.25797 16.1313H13.936C14.7691 16.1313 15.568 15.8004 16.157 15.2114C16.7461 14.6223 17.077 13.8234 17.077 12.9903V5.31229C17.077 3.57601 15.6723 2.17128 13.936 2.17128H6.25797ZM14.6776 3.48003C14.9669 3.48003 15.2443 3.59494 15.4488 3.79947C15.6534 4.004 15.7683 4.28141 15.7683 4.57066C15.7683 4.85992 15.6534 5.13732 15.4488 5.34186C15.2443 5.54639 14.9669 5.66129 14.6776 5.66129C14.3884 5.66129 14.111 5.54639 13.9064 5.34186C13.7019 5.13732 13.587 4.85992 13.587 4.57066C13.587 4.28141 13.7019 4.004 13.9064 3.79947C14.111 3.59494 14.3884 3.48003 14.6776 3.48003ZM10.097 4.78879C11.254 4.78879 12.3636 5.24841 13.1818 6.06654C13.9999 6.88467 14.4595 7.9943 14.4595 9.15131C14.4595 10.3083 13.9999 11.4179 13.1818 12.2361C12.3636 13.0542 11.254 13.5138 10.097 13.5138C8.93998 13.5138 7.83035 13.0542 7.01222 12.2361C6.19409 11.4179 5.73447 10.3083 5.73447 9.15131C5.73447 7.9943 6.19409 6.88467 7.01222 6.06654C7.83035 5.24841 8.93998 4.78879 10.097 4.78879ZM10.097 6.5338C9.40278 6.5338 8.73701 6.80957 8.24613 7.30045C7.75525 7.79133 7.47948 8.4571 7.47948 9.15131C7.47948 9.84552 7.75525 10.5113 8.24613 11.0022C8.73701 11.4931 9.40278 11.7688 10.097 11.7688C10.7912 11.7688 11.457 11.4931 11.9479 11.0022C12.4387 10.5113 12.7145 9.84552 12.7145 9.15131C12.7145 8.4571 12.4387 7.79133 11.9479 7.30045C11.457 6.80957 10.7912 6.5338 10.097 6.5338Z" fill="white"/>
</svg>
