<svg viewBox="0 0 179 40" fill="none" xmlns="http://www.w3.org/2000/svg">
<path d="M62.9064 13.7744C64.6975 13.7744 66.1373 14.283 67.2574 15.2658H67.3207V7.90295H71.8935V31.0687H67.6404V29.5773H67.577C66.6469 30.7201 64.8559 31.543 62.9064 31.543C58.5238 31.543 55.3246 27.7658 55.3246 22.6572C55.3246 17.5487 58.5238 13.7744 62.9064 13.7744ZM67.3207 21.4544C67.3389 20.9867 67.2595 20.5202 67.0876 20.0844C66.9157 19.6485 66.6549 19.2525 66.3216 18.9213C65.9883 18.59 65.5897 18.3306 65.1506 18.1594C64.7116 17.9881 64.2417 17.9086 63.7703 17.9258C61.3083 17.9258 59.9002 19.6401 59.9002 22.6544C59.9002 25.6058 61.3399 27.383 63.7703 27.383C64.2401 27.396 64.7076 27.3137 65.1443 27.1413C65.581 26.9689 65.9777 26.7098 66.31 26.3801C66.6424 26.0503 66.9034 25.6568 67.0772 25.2235C67.251 24.7902 67.3339 24.3263 67.3207 23.8601V21.4544Z" fill="white"/>
<path d="M92.0848 31.0685H87.0139L82.7896 23.26H79.9101V31.0685H75.1646V8.85425H84.2783C89.0123 8.85425 91.9235 11.5857 91.9235 16.0285C91.9235 19.2971 90.3254 21.6771 87.5409 22.7257V22.7571L92.0848 31.0685ZM83.7024 18.98C85.9744 18.98 87.1896 17.9314 87.1896 15.9971C87.1896 14.0628 86.0377 13.14 83.7024 13.14H79.8986V18.98H83.7024Z" fill="white"/>
<path d="M100.968 13.7744C105.668 13.7744 108.93 17.3601 108.93 22.6601V23.9944H97.5761C97.7056 26.3744 98.9842 27.7373 101.063 27.7373C102.725 27.7373 103.974 26.9773 105.158 25.2316L108.386 27.7373C106.756 30.2773 104.294 31.5458 101.063 31.5458C96.2976 31.5458 92.9717 27.9601 92.9717 22.6601C92.9717 17.423 96.2976 13.7744 100.968 13.7744ZM101 17.583C99.1109 17.583 97.7373 18.8516 97.5761 20.7887H104.487C104.326 18.7573 103.079 17.583 101 17.583Z" fill="white"/>
<path d="M126.495 14.2515V31.0686H122.081V29.9886H122.018C121.09 30.9715 119.651 31.5429 117.986 31.5429C113.509 31.5429 110.278 27.8629 110.278 22.6572C110.278 17.4515 113.509 13.7715 117.986 13.7715C119.651 13.7715 121.09 14.3429 122.018 15.3258H122.081V14.2486L126.495 14.2515ZM121.92 21.2972C121.92 19.2658 120.546 17.9315 118.53 17.9315C116.227 17.9315 114.853 19.7086 114.853 22.6601C114.853 25.6115 116.227 27.3886 118.499 27.3886C120.546 27.3886 121.92 26.0572 121.92 24.0258V21.2972Z" fill="white"/>
<path d="M136.205 13.7744C137.996 13.7744 139.436 14.283 140.556 15.2658H140.619V7.90295H145.195V31.0687H140.939V29.5773H140.876C139.948 30.7201 138.157 31.543 136.205 31.543C131.825 31.543 128.626 27.7658 128.626 22.6572C128.626 17.5487 131.825 13.7744 136.205 13.7744ZM140.619 21.4544C140.638 20.9867 140.558 20.5202 140.386 20.0844C140.214 19.6485 139.954 19.2525 139.62 18.9213C139.287 18.59 138.888 18.3306 138.449 18.1594C138.01 17.9881 137.54 17.9086 137.069 17.9258C134.607 17.9258 133.199 19.6401 133.199 22.6544C133.199 25.6058 134.639 27.383 137.069 27.383C137.539 27.396 138.006 27.3137 138.443 27.1413C138.88 26.9689 139.276 26.7098 139.609 26.3801C139.941 26.0503 140.202 25.6568 140.376 25.2235C140.55 24.7902 140.633 24.3263 140.619 23.8601V21.4544Z" fill="white"/>
<path d="M155.311 13.7744C160.013 13.7744 163.276 17.3601 163.276 22.6601V23.9944H151.922C152.048 26.3744 153.33 27.7373 155.409 27.7373C157.07 27.7373 158.32 26.9773 159.501 25.2316L162.746 27.7373C161.116 30.2773 158.654 31.5458 155.423 31.5458C150.657 31.5458 147.332 27.9601 147.332 22.6601C147.317 17.423 150.652 13.7744 155.311 13.7744ZM155.345 17.583C153.456 17.583 152.083 18.8516 151.922 20.7887H158.832C158.671 18.7573 157.424 17.583 155.345 17.583Z" fill="white"/>
<path d="M165.415 14.2515H169.7V15.7429H169.763C170.532 14.6001 171.779 13.9344 173.409 13.9344C174.155 13.9267 174.898 14.0228 175.617 14.2201L174.84 18.5344C174.223 18.3769 173.59 18.2915 172.954 18.2801C171.001 18.2801 169.979 19.5829 169.979 22.0258V31.0687H165.415V14.2515Z" fill="white"/>
<path d="M38.9687 7.1529C38.9687 5.96307 38.5087 4.82196 37.6899 3.98062C36.8711 3.13928 35.7605 2.66663 34.6025 2.66663C33.4445 2.66663 32.3339 3.13928 31.5151 3.98062C30.6963 4.82196 30.2362 5.96307 30.2362 7.1529V17.8506C30.0457 17.8506 29.8393 17.8506 29.6567 17.8506H21.7657V7.1529C21.7657 5.96307 21.3057 4.82196 20.4869 3.98062C19.668 3.13928 18.5575 2.66663 17.3995 2.66663C16.2415 2.66663 15.1309 3.13928 14.3121 3.98062C13.4932 4.82196 13.0332 5.96307 13.0332 7.1529V18.0138C10.7211 18.4813 8.66101 19.8158 7.25367 21.7578C5.84633 23.6998 5.19243 26.1103 5.41921 28.5202C5.64598 30.9302 6.73721 33.1673 8.48057 34.7963C10.2239 36.4252 12.4947 37.3296 14.8512 37.3333H29.6488C30.886 37.3291 32.11 37.0727 33.2501 36.579C34.3902 36.0853 35.4236 35.3641 36.2904 34.4571C37.1573 33.5501 37.8404 32.4754 38.3001 31.2952C38.7599 30.115 38.9871 28.8528 38.9687 27.5817C38.9687 26.9822 38.9687 7.1529 38.9687 7.1529ZM16.5659 27.5451H12.283C11.8388 27.5451 11.4127 27.3637 11.0986 27.041C10.7845 26.7182 10.608 26.2804 10.608 25.8239C10.608 25.3675 10.7845 24.9297 11.0986 24.6069C11.4127 24.2842 11.8388 24.1029 12.283 24.1029H16.558C17.0022 24.1029 17.4283 24.2842 17.7424 24.6069C18.0565 24.9297 18.233 25.3675 18.233 25.8239C18.233 26.2804 18.0565 26.7182 17.7424 27.041C17.4283 27.3637 17.0022 27.5451 16.558 27.5451H16.5659ZM28.4461 27.5451H24.1632C23.7189 27.5451 23.2929 27.3637 22.9787 27.041C22.6646 26.7182 22.4881 26.2804 22.4881 25.8239C22.4881 25.3675 22.6646 24.9297 22.9787 24.6069C23.2929 24.2842 23.7189 24.1029 24.1632 24.1029H28.4381C28.8824 24.1029 29.3084 24.2842 29.6226 24.6069C29.9367 24.9297 30.1132 25.3675 30.1132 25.8239C30.1132 26.2804 29.9367 26.7182 29.6226 27.041C29.3084 27.3637 28.8824 27.5451 28.4381 27.5451H28.4461Z" fill="white"/>
</svg>
