<svg width="158" height="32" viewBox="0 0 158 32" fill="none" xmlns="http://www.w3.org/2000/svg">
<path d="M53.1049 10.2528C54.759 10.2528 56.0873 10.7227 57.1212 11.6301H57.1802V4.83332H61.4014V26.2177H57.4747V24.8405H57.4165C56.5581 25.8956 54.9049 26.6553 53.1058 26.6553C49.06 26.6553 46.1071 23.1688 46.1071 18.4527C46.1071 13.7375 49.06 10.2528 53.1049 10.2528ZM57.1802 17.3422C57.1972 16.9097 57.1238 16.4784 56.9649 16.0759C56.806 15.6733 56.565 15.3083 56.2572 15.004C55.9481 14.6983 55.5798 14.4592 55.1748 14.3012C54.7698 14.1432 54.3368 14.0698 53.9024 14.0855C51.6298 14.0855 50.3302 15.6677 50.3302 18.4499C50.3302 21.1749 51.6594 22.8152 53.9024 22.8152C54.3355 22.827 54.7664 22.751 55.1693 22.5919C55.5723 22.4328 55.9388 22.1938 56.247 21.8893C56.5527 21.5856 56.7931 21.2226 56.9534 20.8225C57.1137 20.4225 57.1906 19.9939 57.1793 19.5631L57.1802 17.3422ZM80.0391 26.2177H75.3582L71.4592 19.0093H68.8007V26.2168H64.4208V5.71211H72.8327C77.2025 5.71211 79.8895 8.234 79.8895 12.3353C79.8895 15.352 78.4145 17.549 75.8447 18.5173V18.5459L80.0391 26.2177ZM72.301 15.0584C74.3982 15.0584 75.5207 14.0901 75.5207 12.3049C75.5207 10.5196 74.4573 9.66757 72.301 9.66757H68.7915V15.0584H72.301ZM88.2387 10.2528C92.5771 10.2528 95.5881 13.563 95.5881 18.4554V19.6868H85.1076C85.2276 21.8838 86.4073 23.142 88.3264 23.142C89.8605 23.142 91.0134 22.4404 92.1063 20.8296L95.086 23.142C93.5814 25.4866 91.3088 26.6581 88.3264 26.6581C83.9279 26.6581 80.8578 23.3478 80.8578 18.4554C80.8578 13.6212 83.9279 10.2528 88.2387 10.2528ZM88.2682 13.7689C86.5236 13.7689 85.2562 14.9403 85.1076 16.7283H91.4869C91.3383 14.8526 90.1873 13.7689 88.2682 13.7689ZM111.802 10.6941V26.2177H107.727V25.2208H107.669C106.813 26.1273 105.484 26.6553 103.947 26.6553C99.8149 26.6553 96.8324 23.2583 96.8324 18.4527C96.8324 13.647 99.8149 10.25 103.947 10.25C105.484 10.25 106.813 10.7781 107.669 11.6855H107.727V10.6913L111.802 10.6941ZM107.579 17.1973C107.579 15.3224 106.31 14.0901 104.45 14.0901C102.324 14.0901 101.055 15.7314 101.055 18.4564C101.055 21.1795 102.324 22.8207 104.421 22.8207C106.31 22.8207 107.579 21.5912 107.579 19.7164V17.1973ZM120.765 10.2528C122.418 10.2528 123.747 10.7227 124.781 11.6301H124.839V4.83332H129.063V26.2177H125.135V24.8405H125.076C124.22 25.8956 122.567 26.6553 120.765 26.6553C116.722 26.6553 113.769 23.1688 113.769 18.4527C113.769 13.7375 116.722 10.2528 120.765 10.2528ZM124.839 17.3422C124.856 16.9099 124.782 16.4788 124.623 16.0764C124.465 15.6739 124.224 15.3087 123.917 15.004C123.608 14.6983 123.24 14.4592 122.835 14.3012C122.43 14.1432 121.997 14.0698 121.562 14.0855C119.29 14.0855 117.99 15.6677 117.99 18.4499C117.99 21.1749 119.319 22.8152 121.562 22.8152C121.995 22.827 122.426 22.751 122.829 22.5919C123.232 22.4328 123.599 22.1938 123.907 21.8893C124.213 21.5847 124.454 21.2219 124.615 20.8222C124.776 20.4216 124.852 19.9933 124.839 19.5631V17.3422ZM138.401 10.2528C142.741 10.2528 145.753 13.563 145.753 18.4554V19.6868H135.273C135.389 21.8838 136.572 23.142 138.491 23.142C140.025 23.142 141.178 22.4404 142.269 20.8296L145.264 23.142C143.759 25.4866 141.487 26.6581 138.504 26.6581C134.105 26.6581 131.036 23.3478 131.036 18.4554C131.022 13.6212 134.1 10.2528 138.401 10.2528ZM138.432 13.7689C136.689 13.7689 135.421 14.9403 135.273 16.7283H141.651C141.502 14.8526 140.351 13.7689 138.432 13.7689ZM147.728 10.6941H151.683V12.0695H151.741C152.451 11.0153 153.602 10.4005 155.107 10.4005C155.795 10.3934 156.481 10.4823 157.145 10.6645L156.427 14.6467C155.858 14.5015 155.274 14.4228 154.687 14.4123C152.884 14.4123 151.94 15.6151 151.94 17.8702V26.2177H147.728V10.6941ZM31.0094 4.141C31.0094 3.04252 30.5848 1.98927 29.8279 1.21295C29.4582 0.83045 29.0155 0.526017 28.5261 0.317672C28.0366 0.109327 27.5104 0.00130453 26.9784 0C26.4465 0.00130453 25.9202 0.109327 25.4307 0.317672C24.9413 0.526017 24.4986 0.83045 24.1289 1.21295C23.3696 1.99829 22.9461 3.04858 22.9483 4.141V14.0153H15.1299V4.141C15.1299 3.04252 14.7053 1.98927 13.9484 1.21295C13.5788 0.830561 13.1363 0.526193 12.647 0.317851C12.1577 0.10951 11.6316 0.00142791 11.0998 0C10.5679 0.00130453 10.0416 0.109327 9.55213 0.317672C9.06267 0.526017 8.61999 0.83045 8.2503 1.21295C7.49096 1.99829 7.06748 3.04858 7.0697 4.141V14.1658C4.92021 14.6072 3.01554 15.8413 1.73437 17.6228C0.431746 19.4293 -0.169906 21.6476 0.0414634 23.8648C0.244515 26.0763 1.24989 28.137 2.86789 29.6581C4.46061 31.1552 6.56202 31.9921 8.74783 32H22.4074C23.5511 31.9958 24.682 31.759 25.7313 31.304C26.7882 30.8451 27.7423 30.179 28.5375 29.3452C29.3409 28.503 29.9713 27.5113 30.3928 26.4264C30.8174 25.3371 31.027 24.1722 31.0104 22.9989V4.14008L31.0094 4.141ZM10.33 22.9648H6.37647C5.96663 22.9648 5.5734 22.7977 5.28356 22.4995C4.99216 22.1982 4.82959 21.7953 4.83033 21.3761C4.83033 20.9542 4.99279 20.5509 5.28264 20.2527C5.5734 19.9545 5.96571 19.7875 6.37647 19.7875H10.3226C10.7324 19.7875 11.1257 19.9545 11.4155 20.2527C11.7053 20.5509 11.8687 20.9542 11.8687 21.3761C11.8687 21.797 11.7053 22.2014 11.4164 22.4995C11.1257 22.7977 10.7333 22.9648 10.3226 22.9648H10.33ZM21.296 22.9648H17.3425C16.9327 22.9648 16.5394 22.7977 16.2496 22.4995C15.9585 22.1981 15.7963 21.7951 15.7973 21.3761C15.7973 20.9542 15.9598 20.5509 16.2496 20.2527C16.5394 19.9545 16.9327 19.7875 17.3425 19.7875H21.2886C21.6985 19.7875 22.0917 19.9545 22.3825 20.2527C22.6723 20.5509 22.8348 20.9542 22.8348 21.3761C22.8348 21.797 22.6723 22.2014 22.3825 22.4995C22.0917 22.7977 21.6994 22.9648 21.2886 22.9648H21.296Z" fill="#FCEB54"/>
</svg>
