<svg viewBox="0 0 58 48" fill="none" xmlns="http://www.w3.org/2000/svg">
<path d="M38.7471 5.85824C38.7471 9.09414 36.1238 11.717 32.8884 11.717C29.6525 11.717 27.0297 9.09414 27.0297 5.85824C27.0297 2.62282 29.6525 0 32.8884 0C36.1238 0 38.7471 2.62282 38.7471 5.85824Z" fill="white"/>
<path d="M56.1896 13.6475C54.2591 11.9167 51.3297 12.0496 49.5985 13.9805C48.9326 14.7792 48.5332 15.7781 48.6001 16.7766C48.6665 17.8419 49.1328 18.774 49.8651 19.5063C51.1965 20.7044 53.3272 20.638 54.5253 19.2402C54.8582 18.9072 54.7914 18.3082 54.4589 17.9752C54.1259 17.6422 53.5268 17.7091 53.1938 18.0416C52.5947 18.6406 51.6627 18.7075 50.9968 18.1749C50.5975 17.7755 50.3309 17.2428 50.2645 16.7102C50.2645 16.1111 50.3978 15.5785 50.7972 15.1791C51.3298 14.58 52.0622 14.2471 52.7945 14.2471C53.5933 14.1807 54.3256 14.4468 54.8582 14.9794C56.4561 16.3777 56.5891 18.8408 55.1243 20.4388C54.1923 21.4372 52.9937 22.0367 51.6623 22.1032C50.597 22.1696 49.5317 21.8371 48.5996 21.2376C47.4679 16.3777 44.0728 12.2497 39.4122 9.5205C38.8795 10.4525 38.1471 11.3181 37.2815 11.9836C37.6809 12.1833 38.1471 12.4499 38.5466 12.6496L37.8142 16.1781C34.1525 13.9146 29.6921 12.5163 24.7655 12.5163H24.4994L24.9657 9.52057C25.2987 9.52057 25.7644 9.45416 26.0974 9.45416C25.6311 8.52213 25.2986 7.52373 25.2318 6.45841C22.1691 6.6581 19.3066 7.39043 16.7102 8.58904L6.99001 4.32825L9.7197 13.7154C8.45466 15.1137 7.45627 16.7112 6.72395 18.3756H1.73083C0.732395 18.3756 0 19.1743 0 20.1064V28.8945C0 29.893 0.798756 30.6253 1.73083 30.6253H6.59068C7.38944 32.5558 8.52112 34.2871 9.98588 35.8845L6.59068 41.7432C6.12443 42.6089 6.39099 43.6737 7.25662 44.1399L13.2481 47.602C14.1137 48.0682 15.1786 47.8016 15.6448 46.936L18.7738 41.5436C21.3703 42.4756 24.1663 42.9419 27.1622 42.9419C28.6268 42.9419 30.0247 42.8086 31.423 42.6089L33.9529 47.003C34.4192 47.8686 35.5508 48.1347 36.3496 47.6689L42.3411 44.2069C43.2068 43.7406 43.4729 42.609 43.0071 41.8102L41.2094 38.7475C45.9365 35.4188 48.9987 30.3592 48.9987 24.7668C48.9987 24.3005 48.9323 23.9012 48.9323 23.4354C49.7311 23.7684 50.5302 23.9016 51.3955 23.9016C53.2595 23.9016 55.1235 23.1693 56.455 21.6382C58.6529 19.2401 58.4533 15.7116 56.1899 13.6479L56.1896 13.6475ZM12.4498 20.7043C11.1848 20.7043 10.1864 19.7059 10.1864 18.4409C10.1864 17.1759 11.1848 16.1775 12.4498 16.1775C13.7148 16.1775 14.7133 17.1759 14.7133 18.4409C14.7137 19.639 13.7148 20.7043 12.4498 20.7043Z" fill="white"/>
</svg>
